G04 ================== begin FILE IDENTIFICATION RECORD ==================*
G04 Layout Name:  Medical_Ventilator_VA.brd*
G04 Film Name:    L1_PS.art*
G04 File Format:  Gerber RS274X*
G04 File Origin:  Cadence Allegro 16.3-p003*
G04 Origin Date:  Wed Nov 10 10:10:18 2010*
G04 *
G04 Layer:  VIA CLASS/TOP*
G04 Layer:  PIN/TOP*
G04 Layer:  ETCH/TOP*
G04 Layer:  DRAWING FORMAT/FILM_TITLE_BLOCK*
G04 Layer:  DRAWING FORMAT/FILM_OUTLINE*
G04 Layer:  BOARD GEOMETRY/OUTLINE*
G04 *
G04 Offset:    (0.0 0.0)*
G04 Mirror:    No*
G04 Mode:      Positive*
G04 Rotation:  0*
G04 FullContactRelief:  No*
G04 UndefLineWidth:     8.0*
G04 ================== end FILE IDENTIFICATION RECORD ====================*
%FSLAX53Y53*MOIN*%
%IR0*IPPOS*OFA0.00000B0.00000*MIA0B0*SFA1.00000B1.00000*%
%ADD16R,.1X.022*%
%ADD40R,.05X.11*%
%ADD42R,.11X.05*%
%ADD33R,.063X.138*%
%ADD14C,.175*%
%ADD32R,.1X.17*%
%ADD10C,.01*%
%ADD26O,.06X.035*%
%ADD28O,.035X.06*%
%ADD11R,.016X.05*%
%ADD46R,.012X.065*%
%ADD44R,.065X.012*%
%ADD13C,.06*%
%ADD34C,.08*%
%ADD31R,.032X.039*%
%ADD27R,.035X.063*%
%ADD21C,.035*%
%ADD20C,.09*%
%ADD19R,.053X.037*%
%ADD35R,.037X.053*%
%ADD22C,.028*%
%ADD18C,.064*%
%ADD43R,.059X.051*%
%ADD48R,.095X.043*%
%ADD41R,.051X.059*%
%ADD38C,.066*%
%ADD51R,.043X.095*%
%ADD45R,.055X.047*%
%ADD12R,.06X.06*%
%ADD49C,.077*%
%ADD29C,.059*%
%ADD36R,.08X.08*%
%ADD24C,.069*%
%ADD15C,.087*%
%ADD47R,.059X.055*%
%ADD23R,.09X.09*%
%ADD17R,.064X.064*%
%ADD39R,.066X.066*%
%ADD50R,.077X.077*%
%ADD30R,.059X.059*%
%ADD25R,.069X.069*%
%ADD37R,.0787X.0787*%
%ADD52C,.006*%
%ADD53C,.007*%
%ADD54C,.02*%
%ADD55C,.04*%
%ADD56C,.014*%
%ADD57C,.008*%
%ADD58C,.015*%
%ADD63C,.1014*%
%ADD65C,.1044*%
%ADD77R,.1244X.0644*%
%ADD76R,.0644X.1244*%
%ADD87R,.0574X.1094*%
%ADD80R,.1094X.0574*%
%ADD69R,.0774X.1524*%
%ADD62C,.1894*%
%ADD73C,.0804*%
%ADD84C,.0914*%
%ADD75R,.1144X.1844*%
%ADD82C,.0834*%
%ADD61C,.0744*%
%ADD83R,.9554X.1104*%
%ADD74R,.0804X.0804*%
%ADD71C,.0484*%
%ADD86C,.0494*%
%ADD70C,.0944*%
%ADD67R,.0674X.0514*%
%ADD64C,.0784*%
%ADD59R,.0514X.0674*%
%ADD85R,.0914X.0914*%
%ADD72R,.0734X.0734*%
%ADD78R,.0734X.0654*%
%ADD66R,.0834X.0834*%
%ADD60R,.0744X.0744*%
%ADD81R,.0734X.0694*%
%ADD68R,.0494X.0774*%
%ADD79R,.0784X.0784*%
G75*
%LPD*%
G75*
G36*
G01X51Y73D02*
G02X49Y75I0J2D01*
G01Y938D01*
G02X56Y941I4J0D01*
G03Y975I23J17D01*
G02X49Y978I-3J2D01*
G01Y1038D01*
G02X56Y1041I4J0D01*
G03Y1075I23J17D01*
G02X49Y1078I-3J2D01*
G01Y2941D01*
G02X51Y2943I2J0D01*
G01X1168D01*
G02X1172Y2938I0J-4D01*
G03X1226I27J-10D01*
G02X1230Y2943I4J1D01*
G01X1268D01*
G02X1272Y2938I0J-4D01*
G03X1326I27J-10D01*
G02X1330Y2943I4J1D01*
G01X1488D01*
G02X1492Y2938I0J-4D01*
G03X1546I27J-10D01*
G02X1550Y2943I4J1D01*
G01X1588D01*
G02X1592Y2938I0J-4D01*
G03X1646I27J-10D01*
G02X1650Y2943I4J1D01*
G01X1808D01*
G02X1812Y2938I0J-4D01*
G03X1866I27J-10D01*
G02X1870Y2943I4J1D01*
G01X1908D01*
G02X1912Y2938I0J-4D01*
G03X1966I27J-10D01*
G02X1970Y2943I4J1D01*
G01X2140D01*
G02X2144Y2937I0J-4D01*
G03X2194I25J-14D01*
G02X2198Y2943I3J2D01*
G01X2240D01*
G02X2244Y2937I0J-4D01*
G03X2294I25J-14D01*
G02X2298Y2943I3J2D01*
G01X3900Y2940D01*
G02X3907Y2936I4J-1D01*
G03X3941I17J-23D01*
G02X3944Y2943I2J3D01*
G01X4004D01*
G02X4007Y2936I0J-4D01*
G03X4041I17J-23D01*
G02X4044Y2943I2J3D01*
G01X4447D01*
G02X4449Y2941I0J-2D01*
G01Y75D01*
G02X4447Y73I-2J0D01*
G01X625D01*
G02X623Y80I0J4D01*
G03X575I-24J28D01*
G02X573Y73I-3J-3D01*
G01X51D01*
G37*
%LPC*%
G75*
G36*
G01X915Y1756D02*
G03X931Y1762I0J22D01*
G02X937Y1759I3J-3D01*
G01Y1741D01*
X918Y1722D01*
G02X911Y1725I-3J3D01*
G01Y1752D01*
G02X915Y1756I4J0D01*
G37*
G36*
G01X786Y2824D02*
G02X780Y2813I-24J7D01*
G01Y2780D01*
G03X779Y2778I1J-1D01*
G01X779Y2777D01*
X780Y2777D01*
X780Y2709D01*
X729D01*
Y2777D01*
X735D01*
G03X737Y2779I0J2D01*
G01Y2787D01*
X744Y2795D01*
Y2813D01*
G02X742Y2817I18J17D01*
G03X740Y2818I-2J-1D01*
G01X708D01*
G03X706Y2817I0J-2D01*
G02X704Y2814I-21J13D01*
G03X705Y2808I3J-3D01*
G02X717Y2782I-12J-21D01*
G03X719Y2777I4J-1D01*
G01Y2709D01*
X668D01*
Y2777D01*
G03X670Y2782I-2J4D01*
G02X675Y2803I24J5D01*
G03X674Y2809I-3J3D01*
G02X661Y2831I12J22D01*
G01Y2856D01*
G02X668Y2873I25J0D01*
G02X704Y2873I17J17D01*
G02X706Y2869I-19J-16D01*
G03X708Y2868I2J1D01*
G01X740D01*
G03X742Y2869I0J2D01*
G02X786Y2862I20J-14D01*
G03X788Y2861I2J1D01*
G01X799D01*
G03X801Y2863I0J2D01*
G01Y2875D01*
X894D01*
Y2781D01*
X801D01*
Y2823D01*
G03X799Y2825I-2J0D01*
G01X788D01*
G03X786Y2824I0J-2D01*
G37*
G36*
G01X3533Y2759D02*
Y2744D01*
X3550Y2727D01*
X3642D01*
G03X3644Y2727I0J2D01*
G02Y2699I20J-14D01*
G03X3642Y2699I-2J-1D01*
G01X3538D01*
X3505Y2732D01*
Y2759D01*
G03X3503Y2761I-2J0D01*
G01X3477D01*
Y2845D01*
X3561D01*
Y2761D01*
X3535D01*
G03X3533Y2759I0J-2D01*
G37*
G36*
G01X628Y2712D02*
G03Y2706I3J-3D01*
G02X596I-16J-18D01*
G03Y2712I-3J3D01*
G02X592Y2717I16J19D01*
G03X590Y2718I-2J-1D01*
G01X558D01*
G03X556Y2717I0J-2D01*
G02X514Y2719I-20J14D01*
G03X509Y2721I-4J-2D01*
G02X489I-10J22D01*
G03X484Y2719I-2J-4D01*
G02X442Y2717I-22J11D01*
G03X440Y2718I-2J-1D01*
G01X408D01*
G03X406Y2717I0J-2D01*
G02X361Y2730I-20J14D01*
G01Y2756D01*
G02X372Y2776I25J0D01*
G03X373Y2777I-1J2D01*
G01Y2802D01*
G03X371Y2804I-2J0D01*
G01X362D01*
Y2882D01*
X411D01*
Y2804D01*
X402D01*
G03X400Y2802I0J-2D01*
G01Y2777D01*
G03X401Y2775I2J0D01*
G02X406Y2769I-15J-20D01*
G03X408Y2768I2J1D01*
G01X440D01*
G03X442Y2769I0J2D01*
G02X484Y2767I20J-14D01*
G03X489Y2765I4J2D01*
G02X509I10J-22D01*
G03X514Y2767I2J4D01*
G02X522Y2776I22J-11D01*
G03X523Y2777I-1J2D01*
G01Y2802D01*
G03X521Y2804I-2J0D01*
G01X512D01*
Y2882D01*
X561D01*
Y2804D01*
X552D01*
G03X550Y2802I0J-2D01*
G01Y2777D01*
G03X551Y2775I2J0D01*
G02X556Y2769I-15J-20D01*
G03X558Y2768I2J1D01*
G01X590D01*
G03X592Y2769I0J2D01*
G02X637Y2756I20J-14D01*
G01Y2730D01*
G02X628Y2712I-25J0D01*
G37*
G36*
G01X1993Y2554D02*
Y2503D01*
X1925D01*
Y2554D01*
X1931D01*
G03X1935Y2559I0J4D01*
G02X1983I24J5D01*
G03X1987Y2554I4J-1D01*
G01X1993D01*
G37*
G36*
G01X2758Y2549D02*
Y2498D01*
X2690D01*
Y2549D01*
X2696D01*
G03X2700Y2554I0J4D01*
G02X2748I24J5D01*
G03X2752Y2549I4J-1D01*
G01X2758D01*
G37*
G36*
G01X1657Y2600D02*
Y2535D01*
G02X1622I-18J-17D01*
G01Y2585D01*
X1567Y2585D01*
X1501Y2651D01*
Y2792D01*
G03X1500Y2794I-2J0D01*
G02X1538I19J34D01*
G03X1537Y2792I1J-2D01*
G01Y2665D01*
X1581Y2621D01*
X1636D01*
X1657Y2600D01*
G37*
G36*
G01X4278Y2521D02*
Y2412D01*
X4220D01*
Y2521D01*
X4233D01*
G03X4235Y2523I0J2D01*
G01Y2547D01*
X4235Y2554D01*
G03X4233Y2556I-2J0D01*
G01X4223D01*
Y2624D01*
X4274D01*
Y2606D01*
G03X4276Y2604I2J0D01*
G01X4284D01*
G03X4286Y2604I0J2D01*
G02Y2576I19J-14D01*
G03X4284Y2576I-2J-1D01*
G01X4276D01*
G03X4274Y2574I0J-2D01*
G01Y2556D01*
X4265D01*
G03X4263Y2554I0J-2D01*
G01Y2523D01*
G03X4265Y2521I2J0D01*
G01X4278D01*
G37*
G36*
G01X4178D02*
Y2412D01*
X4120D01*
Y2521D01*
X4121D01*
G03X4125Y2526I0J4D01*
G02X4173I24J5D01*
G03X4177Y2521I4J-1D01*
G01X4178D01*
G37*
G36*
G01X238Y2482D02*
X210Y2454D01*
X90D01*
X87Y2452D01*
Y2440D01*
G03X89Y2438I2J0D01*
G01X140D01*
Y2428D01*
G03X146Y2424I4J0D01*
G02X181Y2420I16J-19D01*
G03X183Y2420I2J1D01*
G01X224D01*
X226Y2418D01*
G03X229Y2419I1J1D01*
G01Y2424D01*
X297D01*
Y2373D01*
X229D01*
Y2383D01*
G03X227Y2385I-2J0D01*
G01X220D01*
X213Y2392D01*
X183D01*
G03X181Y2392I0J-2D01*
G02X146Y2388I-19J14D01*
G03X140Y2384I-3J-3D01*
G01Y2374D01*
X58D01*
Y2438D01*
X59D01*
X60Y2439D01*
Y2463D01*
X78Y2482D01*
X198D01*
X210Y2494D01*
Y2507D01*
G03X209Y2509I-2J0D01*
G02X239I15J34D01*
G03X238Y2507I1J-2D01*
G01Y2482D01*
G37*
G36*
G01X1250Y2382D02*
X1259Y2372D01*
X1260Y2372D01*
G02X1241Y2342I4J-24D01*
G03X1233Y2343I-4J-1D01*
G02X1192Y2342I-21J12D01*
G03X1190Y2343I-2J-1D01*
G01X1158D01*
G03X1156Y2342I0J-2D01*
G02X1111Y2356I-20J14D01*
G01Y2380D01*
G02X1122Y2400I25J0D01*
G03X1122Y2402I-1J2D01*
G01Y2414D01*
X1135Y2427D01*
Y2494D01*
G03X1133Y2496I-2J0D01*
G01X1102D01*
Y2590D01*
X1196D01*
Y2496D01*
X1165D01*
G03X1163Y2494I0J-2D01*
G01Y2416D01*
X1150Y2403D01*
Y2402D01*
G03X1150Y2400I2J0D01*
G02X1156Y2394I-14J-20D01*
G03X1158Y2393I2J1D01*
G01X1190D01*
G03X1192Y2394I0J2D01*
G02X1236Y2383I20J-14D01*
G01X1238Y2382D01*
X1250D01*
G37*
G36*
G01X1336Y2386D02*
X1354D01*
G03X1356Y2387I0J2D01*
G02Y2349I43J-19D01*
G03X1354Y2350I-2J-1D01*
G01X1322D01*
X1271Y2401D01*
Y2666D01*
X1181Y2756D01*
Y2792D01*
G03X1180Y2794I-2J0D01*
G02X1164Y2809I19J34D01*
G03X1163Y2810I-2J-1D01*
G01X1049D01*
G03X1047Y2808I0J-2D01*
G01Y2781D01*
X954D01*
Y2875D01*
X1047D01*
Y2848D01*
G03X1049Y2846I2J0D01*
G01X1163D01*
G03X1164Y2847I0J2D01*
G02X1218Y2794I34J-19D01*
G03X1217Y2792I1J-2D01*
G01Y2770D01*
X1307Y2680D01*
Y2415D01*
X1336Y2386D01*
G37*
G36*
G01X2084Y2514D02*
Y2482D01*
G03X2085Y2480I2J0D01*
G02X2078Y2436I-14J-20D01*
G01X2077Y2436D01*
X2077Y2435D01*
Y2408D01*
X2067Y2398D01*
G03X2070Y2391I3J-3D01*
G01X2086D01*
Y2298D01*
X1992D01*
Y2391D01*
X2019D01*
G03X2021Y2393I0J2D01*
G01Y2402D01*
X2041Y2422D01*
Y2434D01*
G03X2040Y2436I-2J0D01*
G02X2029Y2442I7J24D01*
G01X2011D01*
X2004Y2450D01*
X1995D01*
G03X1993Y2448I0J-2D01*
G01Y2442D01*
X1925D01*
Y2493D01*
X1993D01*
Y2487D01*
G03X1995Y2485I2J0D01*
G01X2018D01*
X2026Y2478D01*
X2029D01*
X2030Y2478D01*
G02X2033Y2480I17J-18D01*
G03X2034Y2482I-1J2D01*
G01Y2514D01*
G03X2033Y2516I-2J0D01*
G02X2036Y2558I14J20D01*
G03X2037Y2561I-1J2D01*
G02X2081I22J10D01*
G03X2082Y2558I2J-1D01*
G02X2085Y2516I-11J-22D01*
G03X2084Y2514I1J-2D01*
G37*
G36*
G01X544Y2352D02*
Y2284D01*
X493D01*
Y2352D01*
G03X495Y2356I-2J4D01*
G02X500Y2378I24J5D01*
G03X499Y2384I-3J3D01*
G02X486Y2406I12J22D01*
G01Y2430D01*
G02X493Y2448I25J0D01*
G02X529Y2448I17J17D01*
G02X532Y2444I-19J-16D01*
G03X533Y2443I2J1D01*
G01X565D01*
G03X566Y2444I0J2D01*
G02X569Y2447I20J-14D01*
G01X569Y2448D01*
Y2451D01*
X555Y2466D01*
Y2494D01*
G03X553Y2496I-2J0D01*
G01X526D01*
Y2590D01*
X619D01*
Y2496D01*
X592D01*
G03X590Y2494I0J-2D01*
G01Y2481D01*
X605Y2466D01*
Y2448D01*
G02X612Y2430I-18J-17D01*
G01Y2406D01*
G02X605Y2388I-25J0D01*
G01Y2355D01*
X604Y2355D01*
G03X604Y2353I1J-1D01*
G01X604Y2352D01*
X605Y2352D01*
X605Y2284D01*
X554D01*
Y2352D01*
X560D01*
G03X562Y2354I0J2D01*
G01Y2362D01*
X569Y2370D01*
Y2388D01*
G02X566Y2392I18J17D01*
G03X565Y2393I-2J-1D01*
G01X533D01*
G03X532Y2392I0J-2D01*
G02X529Y2389I-21J13D01*
G03X530Y2383I3J-3D01*
G02X542Y2356I-12J-21D01*
G03X544Y2352I4J-1D01*
G37*
G36*
G01X2086Y2238D02*
Y2145D01*
X1992D01*
Y2172D01*
G03X1990Y2174I-2J0D01*
G01X1969D01*
X1792Y2350D01*
X1784D01*
G03X1782Y2349I0J-2D01*
G02X1694Y2353I-43J19D01*
G03X1692Y2354I-2J-1D01*
G01X1690D01*
X1689Y2354D01*
X1688Y2354D01*
G02Y2382I-19J14D01*
G01X1689Y2382D01*
X1690Y2382D01*
X1692D01*
G03X1694Y2383I0J2D01*
G02X1782Y2387I45J-15D01*
G03X1784Y2386I2J1D01*
G01X1806D01*
X1983Y2209D01*
X1990D01*
G03X1992Y2211I0J2D01*
G01Y2238D01*
X2086D01*
G37*
G36*
G01X87Y2296D02*
Y2284D01*
X125Y2247D01*
X215D01*
X238Y2224D01*
Y2204D01*
G03X239Y2202I2J0D01*
G02X209I-15J-34D01*
G03X210Y2204I-1J2D01*
G01Y2212D01*
X203Y2219D01*
X113D01*
X60Y2273D01*
Y2297D01*
X59Y2298D01*
X58D01*
Y2362D01*
X140D01*
Y2358D01*
G03X145Y2354I4J0D01*
G02Y2306I5J-24D01*
G03X140Y2302I-1J-4D01*
G01Y2298D01*
X89D01*
G03X87Y2296I0J-2D01*
G37*
G36*
G01X1201Y2181D02*
Y2169D01*
G03X1201Y2167I2J0D01*
G02X1173I-14J-20D01*
G03X1173Y2169I-1J2D01*
G01Y2181D01*
G03X1173Y2183I-2J0D01*
G02X1201I14J19D01*
G03X1201Y2181I1J-2D01*
G37*
G36*
G01X743Y2494D02*
Y2174D01*
X854Y2064D01*
X855Y2063D01*
X856Y2064D01*
G02X829Y2037I9J-35D01*
G03X829Y2039I-2J1D01*
G01X708Y2160D01*
Y2494D01*
G03X706Y2496I-2J0D01*
G01X679D01*
Y2590D01*
X772D01*
Y2563D01*
G03X774Y2561I2J0D01*
G01X802D01*
X887Y2646D01*
X1036D01*
X1067Y2615D01*
Y2588D01*
G03X1068Y2586I2J0D01*
G02X1030I-19J-43D01*
G03X1031Y2588I-1J2D01*
G01Y2601D01*
X1022Y2610D01*
X901D01*
X816Y2525D01*
X774D01*
G03X772Y2523I0J-2D01*
G01Y2496D01*
X745D01*
G03X743Y2494I0J-2D01*
G37*
G36*
G01X983Y1990D02*
X966Y1974D01*
G03X966Y1973I1J-1D01*
G02X946Y1993I-24J-4D01*
G01X947Y1993D01*
X971Y2018D01*
X1417D01*
G03X1419Y2018I0J2D01*
G02Y1990I19J-14D01*
G03X1417Y1990I-2J-1D01*
G01X983D01*
G37*
G36*
G01X1296Y1933D02*
Y1917D01*
X1172D01*
Y1981D01*
X1296D01*
Y1965D01*
G03X1298Y1963I2J0D01*
G01X1329D01*
X1336Y1970D01*
X1343D01*
G03X1345Y1972I0J2D01*
G01Y1982D01*
X1413D01*
Y1972D01*
G03X1415Y1970I2J0D01*
G01X1441D01*
G03X1443Y1971I0J2D01*
G02Y1942I19J-14D01*
G03X1441Y1943I-2J-1D01*
G01X1415D01*
G03X1413Y1941I0J-2D01*
G01Y1931D01*
X1345D01*
Y1936D01*
G03X1342Y1937I-2J0D01*
G01X1340Y1935D01*
X1298D01*
G03X1296Y1933I0J-2D01*
G37*
G36*
G01X2567Y2006D02*
Y1953D01*
G03X2568Y1951I2J0D01*
G02X2530I-19J-43D01*
G03X2531Y1953I-1J2D01*
G01Y2020D01*
X2571Y2060D01*
Y2316D01*
X2608Y2352D01*
X2620D01*
G03X2622Y2354I0J2D01*
G01Y2356D01*
X2556Y2422D01*
Y2435D01*
G03X2554Y2437I-2J0D01*
G01X2490D01*
Y2443D01*
G03X2488Y2445I-2J0D01*
G01X2479D01*
X2472Y2437D01*
X2454D01*
G02X2449Y2434I-17J18D01*
G03X2448Y2428I2J-3D01*
G01X2450Y2426D01*
X2524D01*
X2542Y2408D01*
Y2405D01*
X2557Y2390D01*
Y2254D01*
X2516Y2213D01*
Y2145D01*
X2422D01*
Y2238D01*
X2491D01*
X2521Y2268D01*
Y2376D01*
X2519Y2378D01*
G03X2516Y2377I-1J-1D01*
G01Y2298D01*
X2422D01*
Y2325D01*
G03X2420Y2327I-2J0D01*
G01X2412D01*
X2398Y2340D01*
X2324D01*
G03X2322Y2339I0J-2D01*
G02X2236I-43J19D01*
G03X2234Y2340I-2J-1D01*
G01X2202D01*
X2156Y2386D01*
Y2571D01*
X2092Y2635D01*
X1872D01*
X1821Y2686D01*
Y2792D01*
G03X1820Y2794I-2J0D01*
G02X1858I19J34D01*
G03X1857Y2792I1J-2D01*
G01Y2700D01*
X1886Y2671D01*
X2106D01*
X2192Y2585D01*
Y2400D01*
X2216Y2376D01*
X2234D01*
G03X2236Y2377I0J2D01*
G02X2322I43J-19D01*
G03X2324Y2376I2J1D01*
G01X2413D01*
X2416Y2373D01*
G03X2422Y2376I3J3D01*
G01Y2391D01*
X2425D01*
G03X2428Y2398I0J4D01*
G01X2406Y2420D01*
Y2430D01*
X2406Y2431D01*
X2405Y2431D01*
G02X2398Y2476I7J24D01*
G03X2399Y2477I-1J2D01*
G01Y2509D01*
G03X2398Y2510I-2J0D01*
G02X2401Y2553I14J20D01*
G03X2402Y2556I-1J2D01*
G02X2446I22J10D01*
G03X2447Y2553I2J-1D01*
G02X2450Y2510I-11J-22D01*
G03X2449Y2509I1J-2D01*
G01Y2477D01*
G03X2450Y2476I2J0D01*
G02X2453Y2473I-14J-20D01*
G01X2454Y2473D01*
X2457D01*
X2465Y2480D01*
X2488D01*
G03X2490Y2482I0J2D01*
G01Y2488D01*
X2554D01*
G03X2556Y2490I0J2D01*
G01Y2496D01*
G03X2554Y2498I-2J0D01*
G01X2490D01*
Y2549D01*
X2496D01*
G03X2500Y2554I0J4D01*
G02X2548I24J5D01*
G03X2552Y2549I4J-1D01*
G01X2554D01*
G03X2556Y2551I0J2D01*
G01Y2601D01*
X2522Y2635D01*
X2247D01*
X2151Y2731D01*
Y2787D01*
G03X2150Y2788I-2J0D01*
G02X2188I19J34D01*
G03X2187Y2787I1J-2D01*
G01Y2745D01*
X2261Y2671D01*
X2536D01*
X2592Y2615D01*
Y2555D01*
G03X2598Y2552I4J0D01*
G02X2601Y2553I13J-21D01*
G03X2602Y2556I-1J2D01*
G02X2646I22J10D01*
G03X2647Y2553I2J-1D01*
G02X2650Y2510I-11J-22D01*
G03X2649Y2509I1J-2D01*
G01Y2477D01*
G03X2650Y2476I2J0D01*
G02X2653Y2473I-14J-20D01*
G01X2654Y2473D01*
X2657D01*
X2665Y2480D01*
X2688D01*
G03X2690Y2482I0J2D01*
G01Y2488D01*
X2758D01*
Y2437D01*
X2690D01*
Y2443D01*
G03X2688Y2445I-2J0D01*
G01X2679D01*
X2672Y2437D01*
X2654D01*
G02X2647Y2433I-17J18D01*
G03X2646Y2426I2J-4D01*
G01X2651Y2421D01*
X2726D01*
X2767Y2380D01*
Y2196D01*
X2736Y2165D01*
X2728D01*
X2726Y2164D01*
X2718D01*
G03X2716Y2162I0J-2D01*
G01Y2135D01*
X2622D01*
Y2228D01*
X2716D01*
Y2203D01*
G03X2718Y2201I2J0D01*
G01X2722D01*
X2731Y2210D01*
Y2366D01*
X2722Y2375D01*
G03X2716Y2372I-3J-3D01*
G01Y2288D01*
X2622D01*
Y2308D01*
G03X2616Y2310I-4J0D01*
G01X2607Y2302D01*
Y2046D01*
X2567Y2006D01*
G37*
G36*
G01X1144Y1780D02*
Y1706D01*
X1079D01*
Y1727D01*
G03X1077Y1729I-2J0D01*
G01X1065D01*
G03X1063Y1729I0J-2D01*
G02Y1757I-19J14D01*
G03X1065Y1757I2J1D01*
G01X1077D01*
G03X1079Y1759I0J2D01*
G01Y1780D01*
X1144D01*
G37*
G36*
G01X4194Y1632D02*
Y1564D01*
X4143D01*
Y1632D01*
G03X4145Y1636I-2J4D01*
G02X4192I24J5D01*
G03X4194Y1632I4J-1D01*
G37*
G36*
G01X1055Y1672D02*
Y1520D01*
X977D01*
Y1564D01*
G03X975Y1566I-2J0D01*
G01X945D01*
X923Y1588D01*
X798D01*
G03X796Y1586I0J-2D01*
G01Y1571D01*
X702D01*
Y1665D01*
X796D01*
Y1650D01*
G03X798Y1648I2J0D01*
G01X948D01*
X970Y1626D01*
X975D01*
G03X977Y1628I0J2D01*
G01Y1672D01*
X1055D01*
G37*
G36*
G01X3803Y1537D02*
Y1520D01*
G03X3803Y1518I2J0D01*
G02X3775I-14J-20D01*
G03X3775Y1520I-1J2D01*
G01Y1537D01*
G03X3775Y1539I-2J0D01*
G02X3803I14J19D01*
G03X3803Y1537I1J-2D01*
G37*
G36*
G01X3412Y1646D02*
Y1601D01*
X3371Y1560D01*
X3343D01*
G03X3341Y1559I0J-2D01*
G02Y1597I-32J19D01*
G03X3343Y1596I2J1D01*
G01X3357D01*
X3376Y1615D01*
Y1660D01*
X3432Y1716D01*
X3434D01*
X3435Y1716D01*
X3443D01*
G03X3445Y1718I0J2D01*
G01Y1724D01*
X3459D01*
G03X3461Y1726I0J2D01*
G01Y1955D01*
X3498Y1992D01*
Y1998D01*
G03X3496Y2000I-2J0D01*
G02X3534I19J42D01*
G03X3533Y1998I1J-2D01*
G01Y1977D01*
X3497Y1941D01*
Y1726D01*
G03X3499Y1724I2J0D01*
G01X3513D01*
Y1718D01*
G03X3515Y1716I2J0D01*
G01X3574D01*
X3581Y1724D01*
X3599D01*
G02X3617Y1731I17J-18D01*
G01X3642D01*
G02X3655Y1686I0J-25D01*
G03X3654Y1684I1J-2D01*
G01Y1652D01*
G03X3655Y1650I2J0D01*
G02X3654Y1609I-14J-21D01*
G03X3653Y1603I2J-3D01*
G01X3653Y1602D01*
Y1547D01*
G03X3655Y1545I2J0D01*
G01X3682D01*
Y1451D01*
X3589D01*
Y1545D01*
X3616D01*
G03X3618Y1547I0J2D01*
G01Y1588D01*
X3611Y1595D01*
Y1605D01*
X3611Y1606D01*
X3610Y1606D01*
G02X3599Y1612I7J24D01*
G01X3581D01*
X3574Y1620D01*
X3515D01*
G03X3513Y1618I0J-2D01*
G01Y1612D01*
X3445D01*
Y1663D01*
X3513D01*
Y1657D01*
G03X3515Y1655I2J0D01*
G01X3588D01*
X3596Y1648D01*
X3599D01*
X3600Y1648D01*
G02X3603Y1650I17J-18D01*
G03X3604Y1652I-1J2D01*
G01Y1684D01*
G03X3603Y1686I-2J0D01*
G02X3600Y1688I14J20D01*
G01X3599Y1688D01*
X3596D01*
X3588Y1681D01*
X3515D01*
G03X3513Y1679I0J-2D01*
G01Y1673D01*
X3445D01*
Y1675D01*
G03X3442Y1676I-2J0D01*
G01X3412Y1646D01*
G37*
G36*
G01X4255Y1564D02*
G03X4252Y1558I0J-4D01*
G01X4263Y1547D01*
Y1528D01*
G03X4265Y1526I2J0D01*
G01X4278D01*
Y1417D01*
X4220D01*
Y1526D01*
X4233D01*
G03X4235Y1528I0J2D01*
G01Y1536D01*
X4216Y1555D01*
Y1562D01*
G03X4214Y1564I-2J0D01*
G01X4204D01*
Y1632D01*
G03X4206Y1636I-2J4D01*
G02X4253I24J5D01*
G03X4255Y1632I4J-1D01*
G01Y1564D01*
G37*
G36*
G01X556Y1301D02*
X555D01*
X506Y1350D01*
Y1373D01*
G03X505Y1375I-2J0D01*
G02X481Y1400I19J43D01*
G03X474Y1401I-4J-2D01*
G02Y1435I-17J17D01*
G03X481Y1436I3J3D01*
G02X543Y1375I43J-18D01*
G03X542Y1373I1J-2D01*
G01Y1364D01*
X569Y1337D01*
X570D01*
X594Y1313D01*
Y1307D01*
X594Y1306D01*
Y1294D01*
G03X596Y1292I2J0D01*
G01X602D01*
Y1224D01*
X551D01*
Y1292D01*
X556D01*
G03X558Y1294I0J2D01*
G01Y1299D01*
X556Y1301D01*
G37*
G36*
G01X2324Y1311D02*
Y1187D01*
X2260D01*
Y1224D01*
G03X2254Y1228I-4J0D01*
G02Y1270I-12J21D01*
G03X2260Y1274I2J3D01*
G01Y1311D01*
X2324D01*
G37*
G36*
G01X218Y1019D02*
X210D01*
X210Y1018D01*
G02X148I-31J40D01*
G01X148Y1019D01*
X140D01*
Y1027D01*
X139Y1027D01*
G02Y1089I40J31D01*
G01X140Y1089D01*
Y1097D01*
X147D01*
X240Y1189D01*
X458D01*
G03X460Y1191I0J2D01*
G01Y1216D01*
X483D01*
G03X485Y1218I0J2D01*
G01Y1241D01*
G03X485Y1243I-2J0D01*
G02X513I14J20D01*
G03X513Y1241I1J-2D01*
G01Y1218D01*
G03X515Y1216I2J0D01*
G01X538D01*
Y1171D01*
G02Y1108I-39J-32D01*
G01Y1063D01*
X460D01*
Y1087D01*
G03X458Y1089I-2J0D01*
G01X281D01*
X218Y1026D01*
Y1019D01*
G37*
G36*
G01X2366Y1032D02*
Y1025D01*
X2366Y1024D01*
G02X2330Y1025I-18J-16D01*
G01Y1046D01*
X2359Y1075D01*
Y1130D01*
G02X2395I18J17D01*
G01Y1061D01*
X2366Y1032D01*
G37*
G36*
G01X1700Y847D02*
G03X1697Y841I0J-4D01*
G02X1651I-23J-8D01*
G03X1648Y847I-4J1D01*
G01X1637D01*
Y912D01*
X1711D01*
Y847D01*
X1700D01*
G37*
G36*
G01X1565Y819D02*
X1476D01*
G03X1474Y819I0J-2D01*
G02Y847I-20J14D01*
G03X1476Y847I2J1D01*
G01X1553D01*
X1565Y859D01*
Y860D01*
G03X1563Y862I-2J0D01*
G01X1540D01*
Y872D01*
G03X1538Y874I-2J0D01*
G01X1519D01*
X1485Y907D01*
Y1035D01*
G03X1483Y1037I-2J0D01*
G01X1465D01*
Y1047D01*
G03X1463Y1049I-2J0D01*
G01X1454D01*
X1439Y1064D01*
G03X1437Y1064I-1J-1D01*
G01X1436Y1064D01*
X1362D01*
Y1129D01*
X1383D01*
G03X1385Y1131I0J2D01*
G01Y1227D01*
G03X1385Y1229I-2J0D01*
G02X1413I14J19D01*
G03X1413Y1227I1J-2D01*
G01Y1131D01*
G03X1415Y1129I2J0D01*
G01X1436D01*
Y1112D01*
G03X1438Y1110I2J0D01*
G01X1445D01*
X1463Y1092D01*
Y1090D01*
G03X1465Y1088I2J0D01*
G01X1528D01*
G03X1530Y1090I0J2D01*
G01Y1096D01*
G03X1528Y1098I-2J0D01*
G01X1465D01*
Y1149D01*
X1533D01*
Y1139D01*
G03X1535Y1137I2J0D01*
G01X1542D01*
X1558Y1121D01*
Y1019D01*
X1588Y989D01*
Y976D01*
G03X1590Y974I2J0D01*
G01X1608D01*
Y964D01*
G03X1610Y962I2J0D01*
G01X1620D01*
X1628Y970D01*
X1635D01*
G03X1637Y972I0J2D01*
G01Y989D01*
X1658D01*
G03X1660Y991I0J2D01*
G01Y992D01*
X1660Y993D01*
X1660Y994D01*
G02X1669Y1037I14J19D01*
G01X1665D01*
Y1088D01*
X1733D01*
Y1037D01*
X1694D01*
G03X1691Y1030I0J-4D01*
G02X1688Y994I-17J-17D01*
G01X1688Y993D01*
X1688Y992D01*
Y991D01*
G03X1690Y989I2J0D01*
G01X1711D01*
Y924D01*
X1637D01*
Y936D01*
G03X1634Y937I-2J0D01*
G01X1632Y935D01*
X1610D01*
G03X1608Y933I0J-2D01*
G01Y923D01*
X1540D01*
Y974D01*
X1558D01*
G03X1560Y976I0J2D01*
G01Y977D01*
X1530Y1007D01*
Y1035D01*
G03X1528Y1037I-2J0D01*
G01X1515D01*
G03X1513Y1035I0J-2D01*
G01Y919D01*
X1530Y901D01*
X1538D01*
G03X1540Y903I0J2D01*
G01Y913D01*
X1608D01*
Y862D01*
X1595D01*
G03X1593Y860I0J-2D01*
G01Y847D01*
X1565Y819D01*
G37*
G36*
G01X2281Y432D02*
Y409D01*
X2232D01*
Y487D01*
X2281D01*
Y464D01*
G03X2283Y462I2J0D01*
G01X2305D01*
X2306Y463D01*
X2307Y463D01*
G02X2352Y474I24J-3D01*
G03X2353Y473I2J1D01*
G01X2385D01*
G03X2386Y474I0J2D01*
G02X2388Y477I20J-14D01*
G03Y479I-1J1D01*
G02X2426I18J16D01*
G03Y477I1J-1D01*
G02X2432Y460I-18J-16D01*
G01Y436D01*
G02X2386Y422I-25J0D01*
G03X2385Y423I-2J-1D01*
G01X2353D01*
G03X2352Y422I0J-2D01*
G02X2307Y433I-20J14D01*
G01X2306Y433D01*
X2305Y434D01*
X2283D01*
G03X2281Y432I0J-2D01*
G37*
G36*
G01X667Y296D02*
G03X665Y296I-2J-1D01*
G01X664D01*
X662Y294D01*
X638D01*
G03X636Y292I0J-2D01*
G01Y271D01*
X562D01*
Y345D01*
X636D01*
Y324D01*
G03X638Y322I2J0D01*
G01X651D01*
X653Y324D01*
X665D01*
G03X667Y324I0J2D01*
G02X673Y330I20J-14D01*
G03X674Y332I-1J2D01*
G01Y364D01*
G03X673Y366I-2J0D01*
G02X676Y408I14J20D01*
G03X677Y411I-1J2D01*
G02X721I22J10D01*
G03X722Y408I2J-1D01*
G02X725Y366I-11J-22D01*
G03X724Y364I1J-2D01*
G01Y332D01*
G03X725Y330I2J0D01*
G02X712Y285I-14J-20D01*
G01X686D01*
G02X667Y296I0J25D01*
G37*
G36*
G01X4171Y343D02*
X4140Y312D01*
X4079D01*
X4077Y310D01*
G03X4078Y307I1J-1D01*
G01X4112D01*
Y249D01*
X4003D01*
Y307D01*
X4042D01*
G03X4044Y309I0J2D01*
G01Y316D01*
X4068Y340D01*
X4128D01*
X4143Y355D01*
Y390D01*
G03X4141Y392I-2J0D01*
G01X4124D01*
Y443D01*
X4192D01*
Y433D01*
G03X4194Y431I2J0D01*
G01X4220D01*
G03X4222Y432I0J2D01*
G02Y403I19J-14D01*
G03X4220Y404I-2J-1D01*
G01X4194D01*
G03X4192Y402I0J-2D01*
G01Y392D01*
X4174D01*
G03X4172Y390I0J-2D01*
G01Y383D01*
X4171Y382D01*
Y343D01*
G37*
G36*
G01X3319Y281D02*
Y495D01*
X3298Y516D01*
X3190D01*
X3162Y545D01*
Y581D01*
G03X3160Y583I-2J0D01*
G01X3150D01*
Y651D01*
X3201D01*
Y583D01*
X3191D01*
G03X3189Y581I0J-2D01*
G01Y556D01*
X3202Y544D01*
X3310D01*
X3347Y507D01*
Y270D01*
X3316Y239D01*
X3309D01*
G03X3307Y237I0J-2D01*
G01Y224D01*
X3198D01*
Y237D01*
G03X3196Y239I-2J0D01*
G01X3161D01*
G03X3159Y239I0J-2D01*
G02Y267I-19J14D01*
G03X3161Y267I2J1D01*
G01X3196D01*
G03X3198Y269I0J2D01*
G01Y282D01*
X3307D01*
Y278D01*
G03X3314Y276I4J0D01*
G01X3319Y281D01*
G37*
G36*
G01X1733Y737D02*
Y272D01*
X1700Y239D01*
X1410D01*
X1393Y222D01*
Y207D01*
G03X1394Y205I2J0D01*
G02X1364I-15J-37D01*
G03X1365Y207I-1J2D01*
G01Y234D01*
X1398Y267D01*
X1688D01*
X1705Y284D01*
Y737D01*
G03X1705Y739I-2J0D01*
G02X1733I14J19D01*
G03X1733Y737I1J-2D01*
G37*
G36*
G01X653Y220D02*
Y209D01*
X638Y194D01*
X634D01*
G03X633Y193I0J-2D01*
G02X625Y234I-34J15D01*
G03X628I1J1D01*
G01X656Y262D01*
X663D01*
G03X665Y264I0J2D01*
G01Y274D01*
X733D01*
Y264D01*
G03X735Y262I2J0D01*
G01X1069D01*
X1093Y239D01*
Y207D01*
G03X1094Y205I2J0D01*
G02X1064I-15J-37D01*
G03X1065Y207I-1J2D01*
G01Y227D01*
X1058Y235D01*
X735D01*
G03X733Y233I0J-2D01*
G01Y223D01*
X665D01*
G03X658Y226I-4J0D01*
G01X653Y220D01*
G37*
G36*
G01X844Y1228D02*
G03X842Y1226I0J-2D01*
G01Y1183D01*
G03X844Y1181I2J0D01*
G01X886D01*
Y1135D01*
G03X888Y1133I2J0D01*
G01X895D01*
X896Y1132D01*
X898D01*
G03X900Y1132I0J2D01*
G02Y1104I19J-14D01*
G03X898Y1104I-2J-1D01*
G01X888D01*
G03X886Y1102I0J-2D01*
G01Y1057D01*
X822D01*
Y1103D01*
G03X820Y1105I-2J0D01*
G01X653D01*
X595Y1047D01*
Y784D01*
X566Y756D01*
X547D01*
G03X545Y754I0J-2D01*
G01Y688D01*
X499D01*
Y699D01*
G03X497Y701I-2J0D01*
G01X491D01*
X463Y672D01*
X450D01*
G03X448Y670I0J-2D01*
G03X450Y668I2J0D01*
G01X534D01*
X562Y697D01*
X570D01*
X572Y698D01*
G02X616Y709I25J-2D01*
G03X618Y708I2J1D01*
G01X650D01*
G03X652Y709I0J2D01*
G02X696Y698I20J-14D01*
G01X698Y697D01*
X704D01*
X719Y682D01*
Y675D01*
G03X725Y672I4J0D01*
G01X744Y691D01*
Y834D01*
X782Y872D01*
X1170D01*
X1193Y895D01*
Y1648D01*
X1198Y1652D01*
G03X1194Y1659I-3J3D01*
G02X1174Y1702I-6J23D01*
G01X1175Y1703D01*
Y1704D01*
G03X1173Y1706I-2J0D01*
G01X1156D01*
Y1780D01*
X1221D01*
Y1706D01*
X1204D01*
G03X1202Y1704I0J-2D01*
G01Y1703D01*
X1203Y1702D01*
G02X1212Y1677I-14J-20D01*
G03X1219Y1673I4J-1D01*
G01X1293Y1748D01*
X1350D01*
X1360Y1758D01*
Y1765D01*
G03X1353Y1767I-4J0D01*
G02X1318Y1801I-18J16D01*
G03Y1806I-3J3D01*
G01X1315Y1809D01*
X515D01*
X495Y1789D01*
X461D01*
X459Y1791D01*
X458D01*
G03X456Y1791I0J-2D01*
G02X436Y1780I-20J14D01*
G01X412D01*
G02X398Y1826I0J25D01*
G03X399Y1827I-1J2D01*
G01Y1859D01*
G03X398Y1860I-2J0D01*
G02X392Y1867I14J20D01*
G03X390Y1867I-2J-1D01*
G01X368D01*
X330Y1829D01*
X235D01*
G03X233Y1828I0J-2D01*
G02Y1858I-39J15D01*
G03X235Y1857I2J1D01*
G01X318D01*
X356Y1895D01*
X390D01*
G03X392Y1895I0J2D01*
G02X412Y1906I20J-14D01*
G01X436D01*
G02X450Y1860I0J-25D01*
G03X449Y1859I1J-2D01*
G01Y1827D01*
G03X450Y1826I2J0D01*
G02X456Y1819I-14J-20D01*
G03X458Y1819I2J1D01*
G01X470D01*
X472Y1817D01*
X483D01*
X503Y1837D01*
X1242D01*
G03X1245Y1843I0J4D01*
G02X1244Y1846I18J16D01*
G03X1242Y1846I-2J-1D01*
G01X541D01*
X381Y2006D01*
Y2259D01*
X379Y2261D01*
Y2273D01*
G03X379Y2275I-2J0D01*
G02X373Y2281I14J20D01*
G03X371Y2281I-2J-1D01*
G01X353D01*
G03X351Y2281I0J-2D01*
G02Y2309I-19J14D01*
G03X353Y2309I2J1D01*
G01X371D01*
G03X373Y2309I0J2D01*
G02X409Y2276I20J-14D01*
G03X409Y2271I3J-3D01*
G01Y2018D01*
X553Y1874D01*
X1242D01*
G03X1244Y1874I0J2D01*
G02X1281Y1843I19J-14D01*
G03X1284Y1837I3J-3D01*
G01X1327D01*
X1331Y1832D01*
G03X1337Y1834I3J3D01*
G02X1377Y1842I23J-9D01*
G03X1382I3J3D01*
G02X1401Y1801I17J-17D01*
G03X1400Y1799I0J-2D01*
G01Y1741D01*
X1367Y1708D01*
X1310D01*
X1233Y1631D01*
Y878D01*
X1187Y832D01*
X799D01*
X784Y817D01*
Y675D01*
X730Y621D01*
X721D01*
G03X719Y619I0J-2D01*
G01Y599D01*
X704Y584D01*
X698D01*
X696Y583D01*
G02X695Y578I-25J2D01*
G03X700Y572I4J-1D01*
G02X709Y573I9J-49D01*
G01X755D01*
G03X757Y575I0J2D01*
G01Y615D01*
X799D01*
G03X801Y617I0J2D01*
G01Y666D01*
X844Y709D01*
X1030D01*
G03X1033Y716I0J4D01*
G02X1066I17J17D01*
G03X1069Y709I3J-3D01*
G01X1572D01*
G02Y673I17J-18D01*
G01X858D01*
X837Y652D01*
Y617D01*
G03X839Y615I2J0D01*
G01X871D01*
Y431D01*
X757D01*
Y471D01*
G03X755Y473I-2J0D01*
G01X709D01*
G02X670Y555I0J50D01*
G03X668Y561I-3J2D01*
G02X652Y572I4J24D01*
G03X650Y573I-2J-1D01*
G01X618D01*
G03X616Y572I0J-2D01*
G02X572Y583I-20J14D01*
G03X570Y584I-2J0D01*
G01X562D01*
X537Y609D01*
X450D01*
G03X448Y607I0J-2D01*
G01Y576D01*
G03X450Y574I2J0D01*
G01X487D01*
X494Y574D01*
G03X496Y576I0J2D01*
G01Y587D01*
X542D01*
Y513D01*
X542Y512D01*
G02Y499I-23J-7D01*
G01X542Y479D01*
X496D01*
Y499D01*
G02X496Y512I23J7D01*
G01X496Y513D01*
Y544D01*
G03X494Y546I-2J0D01*
G01X450D01*
G03X448Y544I0J-2D01*
G01Y542D01*
X337D01*
G03X335Y540I0J-2D01*
G02X326Y581I-36J14D01*
G03X333Y584I3J3D01*
G01Y662D01*
G03X326Y665I-4J0D01*
G02X335Y706I-27J27D01*
G03X337Y704I2J1D01*
G01X448D01*
Y702D01*
G03X450Y700I2J0D01*
G01X451D01*
X480Y728D01*
X497D01*
G03X499Y730I0J2D01*
G01Y796D01*
X545D01*
Y785D01*
G03X547Y783I2J0D01*
G01X555D01*
X567Y796D01*
Y1059D01*
X641Y1133D01*
X806D01*
G03X806Y1140I0J4D01*
G03X791Y1139I-6J-21D01*
G02X785Y1142I-2J4D01*
G01Y1217D01*
G03X783Y1219I-2J0D01*
G01X756D01*
Y1287D01*
X804D01*
X893Y1376D01*
Y1388D01*
X892Y1389D01*
X830D01*
X828Y1388D01*
X786D01*
G03X785Y1387I0J-2D01*
G02X768Y1375I-36J31D01*
G03X767Y1373I1J-2D01*
G01Y1356D01*
X738Y1327D01*
Y1289D01*
G03X740Y1287I2J0D01*
G01X746D01*
Y1219D01*
X695D01*
Y1287D01*
X701D01*
G03X703Y1289I0J2D01*
G01Y1342D01*
X731Y1371D01*
Y1373D01*
G03X730Y1375I-2J0D01*
G02X785Y1449I19J43D01*
G03X786Y1448I2J1D01*
G01X804D01*
X804Y1449D01*
X916D01*
X953Y1412D01*
Y1302D01*
X1036Y1218D01*
X1081D01*
G03X1083Y1220I0J2D01*
G01Y1264D01*
X1090D01*
G03X1092Y1266I0J2D01*
G01Y1300D01*
X1080Y1312D01*
G02X1122Y1354I21J21D01*
G01X1152Y1324D01*
Y1266D01*
G03X1154Y1264I2J0D01*
G01X1161D01*
Y1112D01*
X1083D01*
Y1156D01*
G03X1081Y1158I-2J0D01*
G01X1011D01*
X893Y1276D01*
Y1333D01*
G03X886Y1336I-4J0D01*
G01X842Y1292D01*
Y1277D01*
X843Y1276D01*
X844Y1276D01*
G02Y1228I-5J-24D01*
G37*
G36*
G01X283Y1273D02*
G02X255I-14J-20D01*
G03X255Y1275I-1J2D01*
G01Y1334D01*
X313Y1392D01*
X326D01*
X333Y1392D01*
G03X335Y1394I0J2D01*
G01Y1404D01*
X349D01*
G03X351Y1406I0J2D01*
G01Y1441D01*
X307Y1485D01*
X192D01*
X156Y1521D01*
Y1564D01*
G03X154Y1566I-2J0D01*
G01X122D01*
Y1670D01*
X226D01*
G03X228Y1668I2J0D01*
G01X524D01*
G02X540Y1665I0J-50D01*
G01X541Y1665D01*
X571D01*
Y1635D01*
X571Y1634D01*
G02Y1602I-47J-16D01*
G01X571Y1601D01*
Y1571D01*
X541D01*
X540Y1571D01*
G02X539Y1570I-16J47D01*
G03X539Y1563I1J-4D01*
G02X503Y1560I-15J-45D01*
G03X501Y1568I-2J4D01*
G01X228D01*
G03X226Y1566I0J-2D01*
G01X194Y1566D01*
G03X192Y1564I0J-2D01*
G01Y1535D01*
X206Y1521D01*
X321D01*
X387Y1455D01*
Y1406D01*
G03X389Y1404I2J0D01*
G01X403D01*
Y1353D01*
X392D01*
G02X389Y1350I-20J22D01*
G03X391Y1343I2J-3D01*
G01X403D01*
Y1292D01*
X335D01*
Y1343D01*
X353D01*
G03X356Y1350I0J4D01*
G02X352Y1353I17J25D01*
G01X335D01*
Y1362D01*
G03X333Y1364I-2J0D01*
G01X325D01*
X283Y1322D01*
Y1275D01*
G03X283Y1273I2J0D01*
G37*
G36*
G01X1618Y1718D02*
G02X1646I14J19D01*
G03X1646Y1716I1J-2D01*
G01Y1561D01*
X1614Y1529D01*
X1606D01*
G03X1604Y1523I0J-4D01*
G01X1623Y1504D01*
Y1449D01*
X1655Y1417D01*
X1850D01*
X1920Y1347D01*
X1998D01*
X2033Y1312D01*
G03X2039Y1314I3J3D01*
G01Y1350D01*
G03X2037Y1352I-2J0D01*
G01X2011D01*
X1984Y1378D01*
G03X1983Y1379I-1J-1D01*
G02X2003Y1399I-4J24D01*
G01X2003Y1398D01*
X2022Y1379D01*
X2037D01*
G03X2039Y1381I0J2D01*
G01Y1467D01*
G03X2037Y1469I-2J0D01*
G01X2025D01*
G03X2023Y1469I0J-2D01*
G02Y1497I-19J14D01*
G03X2025Y1497I2J1D01*
G01X2030D01*
X2030Y1498D01*
X2037D01*
G03X2039Y1500I0J2D01*
G01Y1784D01*
G03X2033Y1787I-4J0D01*
G01X2010Y1764D01*
X1756D01*
X1721Y1799D01*
Y1806D01*
G03X1719Y1808I-2J0D01*
G01X1711D01*
G03X1709Y1806I0J-2D01*
G01Y1799D01*
X1708Y1799D01*
Y1775D01*
G03X1709Y1773I2J0D01*
G02X1671Y1760I-14J-19D01*
G03X1666Y1765I-4J1D01*
G02X1638Y1802I-8J23D01*
G03X1635Y1808I-3J2D01*
G01X1525D01*
Y1888D01*
X1576D01*
G03X1578Y1891I0J2D01*
G01X1574Y1894D01*
X1514D01*
G03X1512Y1894I0J-2D01*
G02Y1922I-19J14D01*
G03X1514Y1922I2J1D01*
G01X1586D01*
X1610Y1897D01*
Y1890D01*
G03X1612Y1888I2J0D01*
G01X1621D01*
G03X1623Y1890I0J2D01*
G01Y1914D01*
X1582Y1955D01*
X1559D01*
G03X1557Y1954I0J-2D01*
G02Y1983I-19J14D01*
G03X1559Y1982I2J1D01*
G01X1583D01*
G03X1585Y1984I0J2D01*
G01Y1988D01*
G03X1585Y1990I-2J0D01*
G02X1616Y2026I14J19D01*
G03X1621I3J3D01*
G02X1655Y2027I17J-17D01*
G03X1661Y2030I3J3D01*
G01Y2058D01*
X1729D01*
Y2007D01*
X1663D01*
X1662Y2006D01*
X1662Y2005D01*
G02X1661Y2002I-24J4D01*
G03X1665Y1997I4J-1D01*
G01X1729D01*
Y1974D01*
G03X1731Y1972I2J0D01*
G01X1736D01*
X1743Y1965D01*
Y1909D01*
G03X1750Y1906I4J0D01*
G01X1760Y1916D01*
Y1978D01*
X1750Y1988D01*
G02X1751Y1992I1J1D01*
G03X1753Y1993I0J2D01*
G02X1758Y1996I4J-1D01*
G03X1760Y1998I1J2D01*
G01Y2059D01*
X1734Y2085D01*
X1591D01*
X1559Y2117D01*
Y2170D01*
X1560Y2171D01*
Y2439D01*
G03X1559Y2441I-2J0D01*
G02X1548Y2486I3J24D01*
G03X1549Y2487I-1J2D01*
G01Y2519D01*
G03X1548Y2520I-2J0D01*
G02X1542Y2527I14J20D01*
G03X1540Y2527I-2J-1D01*
G01X1528D01*
X1526Y2529D01*
X1420D01*
X1413Y2522D01*
Y2517D01*
G03X1415Y2515I2J0D01*
G01X1446D01*
Y2421D01*
X1352D01*
Y2515D01*
X1383D01*
G03X1385Y2517I0J2D01*
G01Y2534D01*
X1408Y2557D01*
X1537D01*
X1539Y2555D01*
X1540D01*
G03X1542Y2555I0J2D01*
G02X1562Y2566I20J-14D01*
G01X1586D01*
G02X1600Y2520I0J-25D01*
G03X1599Y2519I1J-2D01*
G01Y2487D01*
G03X1600Y2486I2J0D01*
G02X1589Y2441I-14J-20D01*
G01X1589Y2440D01*
X1588Y2439D01*
Y2159D01*
X1587Y2158D01*
Y2129D01*
X1603Y2113D01*
X1746D01*
X1788Y2071D01*
Y1994D01*
G03X1806Y1985I19J16D01*
G02X1808Y1983I0J-2D01*
G01Y1959D01*
X1852Y1915D01*
G03X1858Y1918I3J3D01*
G01Y1963D01*
X1857Y1965D01*
G02X1846Y2010I2J25D01*
G03X1847Y2011I-1J2D01*
G01Y2043D01*
G03X1846Y2045I-2J0D01*
G02X1857Y2089I14J20D01*
G01X1857Y2090D01*
X1858Y2091D01*
Y2123D01*
X1837Y2144D01*
X1673D01*
X1605Y2212D01*
Y2434D01*
X1653Y2482D01*
X1690D01*
G03X1692Y2484I0J2D01*
G01Y2515D01*
X1786D01*
Y2421D01*
X1692D01*
Y2452D01*
G03X1690Y2454I-2J0D01*
G01X1665D01*
X1633Y2422D01*
Y2224D01*
X1685Y2172D01*
X1849D01*
X1886Y2135D01*
Y2091D01*
X1887Y2090D01*
X1887Y2089D01*
G02X1898Y2045I-3J-24D01*
G03X1897Y2043I1J-2D01*
G01Y2011D01*
G03X1898Y2010I2J0D01*
G02X1887Y1965I-14J-20D01*
G03X1886Y1963I0J-2D01*
G01Y1932D01*
G03X1892Y1929I4J0D01*
G01X1987Y2024D01*
X2015D01*
G03X2017Y2024I0J2D01*
G02X2023Y2030I20J-14D01*
G03X2024Y2032I-1J2D01*
G01Y2064D01*
G03X2023Y2066I-2J0D01*
G02X2037Y2111I14J20D01*
G01X2062D01*
G02X2065Y2110I0J-25D01*
G03X2067Y2111I0J2D01*
G01X2130Y2174D01*
Y2224D01*
X2178Y2272D01*
X2230D01*
G03X2232Y2274I0J2D01*
G01Y2305D01*
X2326D01*
Y2211D01*
X2232D01*
Y2242D01*
G03X2230Y2244I-2J0D01*
G01X2190D01*
X2158Y2212D01*
Y2163D01*
X2086Y2091D01*
X2086Y2090D01*
G02X2075Y2066I-24J-4D01*
G03X2074Y2064I1J-2D01*
G01Y2032D01*
G03X2075Y2030I2J0D01*
G02X2062Y1985I-14J-20D01*
G01X2037D01*
G02X2017Y1996I0J25D01*
G03X2015Y1996I-2J-1D01*
G01X1999D01*
X1981Y1978D01*
G03X1984Y1972I3J-3D01*
G01X2085D01*
X2093Y1980D01*
Y2005D01*
X2112Y2024D01*
X2125D01*
G03X2127Y2024I0J2D01*
G02X2133Y2030I20J-14D01*
G03X2134Y2032I-1J2D01*
G01Y2064D01*
G03X2133Y2066I-2J0D01*
G02X2146Y2111I14J20D01*
G01X2172D01*
G02X2191Y2100I0J-25D01*
G03X2193Y2100I2J1D01*
G01X2377D01*
X2463Y2014D01*
Y1957D01*
G03X2465Y1955I2J0D01*
G01X2496D01*
Y1861D01*
X2402D01*
Y1955D01*
X2433D01*
G03X2435Y1957I0J2D01*
G01Y2002D01*
X2365Y2072D01*
X2193D01*
G03X2191Y2072I0J-2D01*
G02X2185Y2066I-20J14D01*
G03X2184Y2064I1J-2D01*
G01Y2032D01*
G03X2185Y2030I2J0D01*
G02X2172Y1985I-14J-20D01*
G01X2146D01*
G02X2127Y1996I0J25D01*
G03X2125Y1996I-2J-1D01*
G01X2124D01*
X2121Y1993D01*
Y1968D01*
X2097Y1944D01*
X2080D01*
G03X2078Y1942I0J-2D01*
G01Y1928D01*
G03X2080Y1926I2J0D01*
G01X2125D01*
G03X2127Y1928I0J2D01*
G01Y1946D01*
X2178D01*
Y1878D01*
X2127D01*
Y1896D01*
G03X2125Y1898I-2J0D01*
G01X2061D01*
G03X2058Y1892I0J-4D01*
G02X2029Y1855I-19J-15D01*
G03X2023Y1851I-2J-4D01*
G01Y1826D01*
G03X2030Y1824I4J0D01*
G01X2053Y1847D01*
X2615D01*
X2770Y1692D01*
X2785D01*
X2786Y1693D01*
X2787Y1693D01*
G02X2832Y1704I24J-3D01*
G03X2833Y1703I2J1D01*
G01X2865D01*
G03X2867Y1704I0J2D01*
G02X2911Y1693I20J-14D01*
G01X2912Y1693D01*
X2913Y1692D01*
X2950D01*
G03X2952Y1694I0J2D01*
G01Y1715D01*
X3026D01*
Y1641D01*
X2952D01*
Y1662D01*
G03X2950Y1664I-2J0D01*
G01X2913D01*
X2912Y1663D01*
X2911Y1663D01*
G02X2867Y1652I-24J3D01*
G03X2865Y1653I-2J-1D01*
G01X2833D01*
G03X2832Y1652I0J-2D01*
G02X2787Y1663I-20J14D01*
G01X2786Y1663D01*
X2785Y1664D01*
X2758D01*
X2603Y1819D01*
X2065D01*
X2061Y1816D01*
G03X2062Y1812I1J-1D01*
G01X2138D01*
G02X2141Y1810I0J-4D01*
G03X2144Y1810I2J1D01*
G02X2178Y1786I10J-22D01*
G03X2182Y1782I4J0D01*
G02X2193Y1736I2J-24D01*
G03X2191Y1730I2J-4D01*
G02X2150Y1706I-22J-10D01*
G03X2148Y1707I-2J-1D01*
G01X2121D01*
G03X2119Y1705I0J-2D01*
G01Y1637D01*
G03X2121Y1635I2J0D01*
G01X2124D01*
X2124Y1636D01*
X2125Y1636D01*
G02Y1607I19J-14D01*
G01X2124Y1608D01*
X2121Y1608D01*
G03X2119Y1606I0J-2D01*
G01Y1500D01*
G03X2121Y1498I2J0D01*
G01X2199D01*
X2210Y1509D01*
Y1510D01*
G03X2208Y1512I-2J0D01*
G01X2190D01*
Y1563D01*
X2258D01*
Y1553D01*
G03X2260Y1551I2J0D01*
G01X2330D01*
X2350Y1532D01*
X2369D01*
G03X2372Y1538I0J4D01*
G02X2426I27J30D01*
G03X2429Y1532I3J-3D01*
G01X2469D01*
G03X2472Y1538I0J4D01*
G02X2514Y1531I27J29D01*
G03X2513Y1529I1J-2D01*
G01Y1519D01*
X2507Y1514D01*
G03X2509Y1507I3J-3D01*
G02X2536Y1483I-10J-39D01*
G03X2538Y1482I2J1D01*
G01X2623D01*
X2635Y1494D01*
Y1510D01*
G03X2633Y1512I-2J0D01*
G01X2615D01*
Y1563D01*
X2683D01*
Y1512D01*
X2665D01*
G03X2663Y1510I0J-2D01*
G01Y1482D01*
X2635Y1454D01*
X2538D01*
G03X2536Y1453I0J-2D01*
G02X2472Y1498I-37J15D01*
G03X2469Y1504I-3J3D01*
G01X2429D01*
G03X2426Y1498I0J-4D01*
G02X2372I-27J-30D01*
G03X2369Y1504I-3J3D01*
G01X2338D01*
X2319Y1524D01*
X2260D01*
G03X2258Y1522I0J-2D01*
G01Y1512D01*
X2240D01*
G03X2238Y1510I0J-2D01*
G01Y1497D01*
X2224Y1483D01*
G03X2227Y1476I3J-3D01*
G02X2214Y1439I6J-23D01*
G03X2212Y1439I-2J-1D01*
G01X2128D01*
X2126Y1442D01*
G03X2119Y1439I-3J-3D01*
G01Y1401D01*
G03X2121Y1399I2J0D01*
G01X2937D01*
G03X2940Y1406I0J4D01*
G01X2930Y1415D01*
X2843D01*
G02Y1451I-17J18D01*
G01X2945D01*
X2965Y1430D01*
X3463D01*
X3474Y1441D01*
Y1449D01*
G03X3472Y1451I-2J0D01*
G01X3436D01*
Y1478D01*
G03X3434Y1480I-2J0D01*
G01X3426D01*
G02Y1516I-17J18D01*
G01X3434D01*
G03X3436Y1518I0J2D01*
G01Y1545D01*
X3529D01*
Y1451D01*
X3512D01*
G03X3510Y1449I0J-2D01*
G01Y1427D01*
X3489Y1406D01*
G03X3492Y1399I3J-3D01*
G01X4016D01*
X4027Y1410D01*
G03X4024Y1417I-3J3D01*
G01X4020D01*
Y1456D01*
G03X4018Y1458I-2J0D01*
G01X4000D01*
X3965Y1492D01*
Y1566D01*
G03X3965Y1568I-2J0D01*
G02X3993I14J20D01*
G03X3993Y1566I1J-2D01*
G01Y1504D01*
X4011Y1485D01*
X4018D01*
G03X4020Y1487I0J2D01*
G01Y1526D01*
X4078D01*
Y1417D01*
X4065D01*
G03X4063Y1415I0J-2D01*
G01Y1407D01*
X4027Y1372D01*
X2121D01*
G03X2119Y1370I0J-2D01*
G01Y1362D01*
G03X2121Y1360I2J0D01*
G01X4061D01*
X4085Y1384D01*
Y2297D01*
X4035Y2347D01*
Y2410D01*
G03X4033Y2412I-2J0D01*
G01X4020D01*
Y2451D01*
G03X4018Y2453I-2J0D01*
G01X3933D01*
G03X3931Y2452I0J-2D01*
G02X3926Y2481I-22J11D01*
G03X3928Y2480I1J1D01*
G01X4018D01*
G03X4020Y2482I0J2D01*
G01Y2521D01*
X4078D01*
Y2412D01*
X4065D01*
G03X4063Y2410I0J-2D01*
G01Y2359D01*
X4113Y2309D01*
Y1372D01*
X4073Y1332D01*
X2121D01*
G03X2119Y1330I0J-2D01*
G01Y1294D01*
X2060D01*
G03X2058Y1287I0J-4D01*
G01X2098Y1247D01*
X2175D01*
X2225Y1196D01*
Y1001D01*
X2266Y961D01*
X2446D01*
X2503Y904D01*
Y844D01*
X2510Y837D01*
X2565D01*
X2593Y809D01*
Y774D01*
X2615Y752D01*
X2755D01*
X2810Y697D01*
X3215D01*
X3320Y592D01*
X3580D01*
G03X3583Y598I0J4D01*
G02X3577Y609I18J17D01*
G03X3571Y610I-4J-1D01*
G02Y646I-17J17D01*
G03X3577Y647I3J3D01*
G02X3622Y654I24J-7D01*
G03X3623Y653I2J1D01*
G01X3655D01*
G03X3656Y654I0J2D01*
G02X3701Y643I20J-14D01*
G01X3702Y643D01*
X3703Y642D01*
X3720D01*
X3722Y643D01*
G02X3732Y660I24J-2D01*
G03X3732Y662I-1J2D01*
G01Y676D01*
X3753Y697D01*
X3798D01*
X3815Y714D01*
Y721D01*
G03X3815Y723I-2J0D01*
G02X3843I14J20D01*
G03X3843Y721I1J-2D01*
G01Y702D01*
X3810Y669D01*
X3765D01*
X3760Y664D01*
Y662D01*
G03X3760Y660I2J0D01*
G02X3766Y654I-14J-20D01*
G03X3768Y653I2J1D01*
G01X3800D01*
G03X3802Y654I0J2D01*
G02X3846Y643I20J-14D01*
G03X3848Y642I2J0D01*
G01X4000D01*
X4071Y570D01*
Y509D01*
G03X4073Y507I2J0D01*
G01X4112D01*
Y449D01*
X4003D01*
Y507D01*
X4042D01*
G03X4044Y509I0J2D01*
G01Y559D01*
X3988Y614D01*
X3848D01*
X3847Y613D01*
X3846Y613D01*
G02X3802Y602I-24J3D01*
G03X3800Y603I-2J-1D01*
G01X3768D01*
G03X3766Y602I0J-2D01*
G02X3722Y613I-20J14D01*
G01X3720Y614D01*
X3703D01*
X3702Y613D01*
X3701Y613D01*
G02X3686Y593I-24J3D01*
G01X3686Y592D01*
X3658Y564D01*
X3308D01*
X3203Y669D01*
X2798D01*
X2743Y724D01*
X2603D01*
X2565Y762D01*
Y797D01*
X2553Y809D01*
X2498D01*
X2475Y832D01*
Y892D01*
X2434Y933D01*
X2254D01*
X2209Y978D01*
G03X2203Y976I-3J-3D01*
G01Y949D01*
X2235Y917D01*
X2430D01*
X2468Y879D01*
Y794D01*
G03X2470Y792I2J0D01*
G01X2520D01*
X2548Y764D01*
Y715D01*
G03X2548Y713I2J0D01*
G02X2554Y707I-14J-20D01*
G03X2556Y707I2J1D01*
G01X2725D01*
X2746Y686D01*
Y642D01*
G03X2746Y640I2J0D01*
G02X2756Y623I-14J-20D01*
G01X2758Y622D01*
X2770D01*
X2772Y623D01*
G02X2816Y634I25J-2D01*
G03X2818Y633I2J1D01*
G01X2850D01*
G03X2852Y634I0J2D01*
G02X2897Y620I20J-14D01*
G01Y596D01*
G02X2886Y576I-25J0D01*
G03X2886Y574I1J-2D01*
G01Y511D01*
X2930Y467D01*
X3196D01*
G03X3198Y469I0J2D01*
G01Y482D01*
X3307D01*
Y424D01*
X3198D01*
Y437D01*
G03X3196Y439I-2J0D01*
G01X2918D01*
X2858Y499D01*
Y574D01*
G03X2858Y576I-2J0D01*
G02X2852Y582I14J20D01*
G03X2850Y583I-2J-1D01*
G01X2818D01*
G03X2816Y582I0J-2D01*
G02X2772Y593I-20J14D01*
G01X2770Y594D01*
X2758D01*
X2756Y593D01*
G02X2712Y582I-25J2D01*
G03X2710Y583I-2J-1D01*
G01X2678D01*
G03X2676Y582I0J-2D01*
G02X2631Y596I-20J14D01*
G01Y620D01*
G02X2676Y634I25J0D01*
G03X2678Y633I2J1D01*
G01X2710D01*
G03X2712Y634I0J2D01*
G02X2718Y640I20J-14D01*
G03X2718Y642I-1J2D01*
G01Y674D01*
X2713Y679D01*
X2556D01*
G03X2554Y679I0J-2D01*
G02X2520Y713I-20J14D01*
G03X2520Y715I-1J2D01*
G01Y752D01*
X2508Y764D01*
X2455D01*
X2440Y779D01*
Y867D01*
X2418Y889D01*
X2223D01*
X2175Y937D01*
Y1157D01*
X2168Y1164D01*
X2100D01*
G03X2098Y1164I0J-2D01*
G02Y1192I-19J14D01*
G03X2100Y1192I2J1D01*
G01X2180D01*
X2191Y1180D01*
G03X2198Y1183I3J3D01*
G01Y1185D01*
X2163Y1219D01*
X2086D01*
X2030Y1276D01*
G03X2023Y1273I-3J-3D01*
G01Y1198D01*
X2006D01*
G03X2004Y1196I0J-2D01*
G01Y1169D01*
X2037Y1137D01*
X2090D01*
X2114Y1112D01*
G03X2121Y1115I3J3D01*
G02X2159Y1094I24J-2D01*
G03X2159Y1092I1J-2D01*
G01Y778D01*
X2175Y762D01*
Y755D01*
G03X2177Y753I2J0D01*
G01X2198D01*
Y683D01*
X2186D01*
G03X2184Y676I0J-4D01*
G01X2195Y666D01*
Y602D01*
G03X2195Y600I2J0D01*
G02X2202Y594I-14J-20D01*
G03X2203Y593I2J1D01*
G01X2235D01*
G03X2236Y594I0J2D01*
G02X2238Y597I20J-14D01*
G03Y599I-1J1D01*
G02X2276I18J16D01*
G03Y597I1J-1D01*
G02X2282Y580I-18J-16D01*
G01Y556D01*
G02X2236Y542I-25J0D01*
G03X2235Y543I-2J-1D01*
G01X2203D01*
G03X2202Y542I0J-2D01*
G02X2195Y536I-20J14D01*
G03X2195Y534I1J-2D01*
G01Y496D01*
X2195Y489D01*
G03X2197Y487I2J0D01*
G01X2206D01*
Y409D01*
X2157D01*
Y487D01*
X2165D01*
G03X2167Y489I0J2D01*
G01Y534D01*
G03X2167Y536I-2J0D01*
G02X2156Y556I14J20D01*
G01Y580D01*
G02X2167Y600I25J0D01*
G03X2167Y602I-1J2D01*
G01Y654D01*
X2147Y674D01*
Y681D01*
G03X2145Y683I-2J0D01*
G01X2125D01*
G03X2123Y681I0J-2D01*
G01Y664D01*
X2148Y639D01*
Y359D01*
X2193Y314D01*
Y207D01*
G03X2194Y205I2J0D01*
G02X2164I-15J-37D01*
G03X2165Y207I-1J2D01*
G01Y302D01*
X2120Y347D01*
Y627D01*
X2099Y648D01*
G03X2093Y646I-3J-3D01*
G01Y207D01*
X2093Y206D01*
X2094Y205D01*
G02X2064I-15J-37D01*
G03X2065Y207I-1J2D01*
G01Y1058D01*
G03X2061Y1062I-4J0D01*
G02X2059Y1063I0J4D01*
G01X2057Y1064D01*
G03X2054Y1063I-1J-1D01*
G01Y743D01*
X1993Y682D01*
Y207D01*
G03X1994Y205I2J0D01*
G02X1964I-15J-37D01*
G03X1965Y207I-1J2D01*
G01Y694D01*
X2026Y755D01*
Y1054D01*
X1999Y1082D01*
X1997D01*
G03X1995Y1080I0J-2D01*
G01Y1079D01*
G02X1988Y1056I-24J-5D01*
G03X1990Y1049I3J-3D01*
G01X2008D01*
Y998D01*
X1940D01*
Y1008D01*
G03X1938Y1010I-2J0D01*
G01X1935D01*
G03X1933Y1008I0J-2D01*
G01Y931D01*
X1904Y903D01*
G03X1906Y899I1J-1D01*
G01X1908D01*
Y889D01*
G03X1910Y887I2J0D01*
G01X1916D01*
X1916Y888D01*
X1928D01*
G03X1930Y888I0J2D01*
G02X1930Y859I20J-14D01*
G03X1929Y860I-2J-1D01*
G01X1910D01*
G03X1908Y858I0J-2D01*
G01Y848D01*
X1840D01*
G03X1838Y846I0J-2D01*
G01Y840D01*
G03X1840Y838I2J0D01*
G01X1908D01*
Y788D01*
G03X1913Y784I4J0D01*
G02X1933Y742I6J-23D01*
G03X1933Y740I1J-2D01*
G01Y612D01*
X1893Y572D01*
Y207D01*
G03X1894Y205I2J0D01*
G02X1864I-15J-37D01*
G03X1865Y207I-1J2D01*
G01Y584D01*
X1905Y624D01*
Y740D01*
G03X1905Y742I-2J0D01*
G02X1903Y780I14J19D01*
G03X1901Y787I-3J3D01*
G01X1840D01*
G03X1838Y785I0J-2D01*
G01Y725D01*
G03X1838Y723I2J0D01*
G02X1810I-14J-20D01*
G03X1810Y725I-1J2D01*
G01Y785D01*
G03X1808Y787I-2J0D01*
G01X1740D01*
Y838D01*
X1808D01*
G03X1810Y840I0J2D01*
G01Y846D01*
G03X1808Y848I-2J0D01*
G01X1740D01*
Y899D01*
X1758D01*
G03X1760Y901I0J2D01*
G01Y926D01*
X1761Y927D01*
G03X1760Y931I-1J1D01*
G01X1746D01*
Y1055D01*
X1753D01*
G03X1756Y1062I0J4D01*
G01X1753Y1064D01*
Y1067D01*
G03X1753Y1069I-2J0D01*
G02X1742Y1088I14J20D01*
G01Y1114D01*
G02X1753Y1133I25J0D01*
G03X1753Y1135I-1J2D01*
G01Y1147D01*
X1778Y1172D01*
X1807D01*
X1812Y1177D01*
G03Y1180I-1J1D01*
G01X1804Y1188D01*
Y1196D01*
G03X1802Y1198I-2J0D01*
G01X1730D01*
G03X1728Y1196I0J-2D01*
G01Y1189D01*
X1713Y1173D01*
Y1151D01*
G03X1715Y1149I2J0D01*
G01X1733D01*
Y1098D01*
X1665D01*
Y1124D01*
G03X1658Y1127I-4J0D01*
G01X1642Y1110D01*
X1635D01*
G03X1633Y1108I0J-2D01*
G01Y1098D01*
X1565D01*
Y1149D01*
X1633D01*
G03X1640Y1146I4J0D01*
G01X1640Y1147D01*
Y1164D01*
X1642Y1166D01*
Y1196D01*
G03X1640Y1198I-2J0D01*
G01X1525D01*
Y1278D01*
X1699D01*
G03X1701Y1280I0J2D01*
G01Y1286D01*
X1693Y1294D01*
X1675D01*
G03X1673Y1294I0J-2D01*
G02Y1322I-19J14D01*
G03X1675Y1322I2J1D01*
G01X1704D01*
X1714Y1311D01*
G03X1721Y1314I3J3D01*
G01Y1317D01*
G03X1720Y1319I-2J0D01*
G02X1749I14J19D01*
G03X1748Y1317I1J-2D01*
G01Y1280D01*
G03X1750Y1278I2J0D01*
G01X1786D01*
G03X1790Y1282I0J4D01*
G02X1837I24J5D01*
G03X1841Y1278I4J-1D01*
G01X2018D01*
G03X2021Y1284I0J4D01*
G01X1986Y1319D01*
X1908D01*
X1838Y1389D01*
X1643D01*
X1604Y1429D01*
G03X1598Y1428I-3J-3D01*
G02X1593Y1424I-19J15D01*
G03X1593Y1422I1J-2D01*
G01Y1337D01*
X1568Y1313D01*
X1511D01*
G03X1509Y1311I0J-2D01*
G01Y1294D01*
X1472D01*
G02X1466Y1294I-3J13D01*
G01X1429Y1294D01*
Y1390D01*
G03X1427Y1392I-2J0D01*
G01X1409D01*
X1390Y1410D01*
Y1417D01*
G03X1390Y1419I-2J0D01*
G02X1385Y1423I14J19D01*
G03X1378Y1421I-3J-2D01*
G01Y1296D01*
X1335Y1254D01*
Y904D01*
X1353Y886D01*
Y869D01*
G03X1353Y867I2J0D01*
G02X1318Y837I-14J-19D01*
G03X1310I-4J-2D01*
G02X1275Y867I-21J11D01*
G03X1275Y869I-1J2D01*
G01Y1274D01*
X1315Y1314D01*
Y1659D01*
X1351Y1694D01*
X1427D01*
G03X1429Y1696I0J2D01*
G01Y1792D01*
X1509D01*
Y1686D01*
G03X1516Y1684I4J0D01*
G02X1548Y1649I18J-16D01*
G03X1548Y1647I1J-2D01*
G01Y1632D01*
X1538Y1622D01*
G03X1541Y1616I3J-3D01*
G01X1548D01*
G03X1550Y1616I0J2D01*
G02X1584Y1583I19J-14D01*
G03X1587Y1576I3J-3D01*
G01X1598D01*
X1600Y1579D01*
Y1682D01*
X1574Y1709D01*
X1573Y1709D01*
G02X1593Y1729I-4J24D01*
G01X1593Y1728D01*
X1612Y1710D01*
G03X1618Y1713I3J3D01*
G01Y1716D01*
G03X1618Y1718I-2J0D01*
G37*
G54D63*
X169Y479D03*
X378D03*
X169Y767D03*
X378D03*
G54D65*
X174Y1418D03*
G54D77*
X1092Y1949D03*
G54D76*
X854Y977D03*
X2292Y1107D03*
G54D87*
X4349Y826D03*
X4249D03*
X4149D03*
X4049D03*
X4149Y1471D03*
X4349D03*
Y1821D03*
X4249D03*
X4149D03*
X4049D03*
X4349Y2466D03*
G54D80*
X2607Y153D03*
Y253D03*
Y353D03*
Y453D03*
X3252Y353D03*
Y153D03*
X3412Y178D03*
Y278D03*
Y378D03*
Y478D03*
X4057Y178D03*
Y378D03*
G54D69*
X499Y927D03*
X1122Y976D03*
X1016Y1384D03*
G54D62*
X199Y198D03*
Y2788D03*
X4274Y218D03*
Y2793D03*
G54D73*
X1179Y168D03*
X979D03*
X1479D03*
X1279D03*
X1779D03*
X1679D03*
X1579D03*
X2379D03*
X2279D03*
X2499Y1668D03*
G54D84*
X3035Y2042D03*
Y2514D03*
X3515D03*
G54D75*
X1074Y523D03*
G54D82*
X2484Y2803D03*
X2799D03*
X3109D03*
X3419D03*
G54D61*
X124Y2543D03*
X324Y2168D03*
X3309Y1678D03*
Y1478D03*
X2989D03*
Y1578D03*
G54D83*
X3288Y759D03*
G54D74*
X879Y168D03*
X2399Y1668D03*
G54D71*
X749Y1710D03*
X1799Y1342D03*
X2594Y638D03*
G54D86*
X3789Y1663D03*
G54D70*
X749Y1518D03*
X949Y2543D03*
X1399Y2268D03*
X1739D03*
X2279Y2458D03*
X2649Y1908D03*
G54D67*
X263Y2337D03*
X699Y187D03*
X1379Y1895D03*
X1599Y1062D03*
X1974Y962D03*
X2224Y1599D03*
X2649D03*
X4158Y479D03*
G54D64*
X179Y958D03*
X3924Y2813D03*
G54D59*
X4187Y2590D03*
X638Y1258D03*
X2214Y1912D03*
X3114Y617D03*
G54D85*
X3594Y2278D03*
G54D72*
X609Y2028D03*
G54D78*
X1399Y1020D03*
G54D66*
X194Y1943D03*
X2584Y2803D03*
X2899D03*
X3209D03*
G54D60*
X124Y2168D03*
X324Y2543D03*
G54D81*
X2417Y718D03*
G54D68*
X462Y2843D03*
X612D03*
G54D79*
X1299Y2828D03*
X1619D03*
X1939D03*
X2269Y2823D03*
X4024Y2813D03*
%LPD*%
G75*
G54D10*
G01X249Y-1257D02*
X4249D01*
G01X249Y-957D02*
Y-757D01*
X4249D01*
G01X749Y-1457D02*
Y-1257D01*
G01X2004Y-1457D02*
Y-1257D01*
G01X1999Y-757D02*
Y-457D01*
G01X2499Y-1457D02*
Y-1257D01*
X79Y958D03*
Y1058D03*
X299Y554D03*
Y692D03*
X1199Y2928D03*
X1299D03*
X1519D03*
X1619D03*
X1839D03*
X1939D03*
X2169Y2923D03*
X2269D03*
X3924Y2913D03*
X4024D03*
G54D20*
X174Y1418D03*
G54D11*
X73Y2406D03*
X99D03*
Y2330D03*
X73D03*
X125Y2406D03*
Y2330D03*
G54D30*
X599Y308D03*
X609Y2028D03*
G54D12*
X124Y2168D03*
X324Y2543D03*
X2989Y1678D03*
G54D21*
X269Y1253D03*
X393Y2295D03*
X499Y1263D03*
X1187Y2147D03*
X1454Y833D03*
X1824Y703D03*
X1950Y874D03*
X2534Y693D03*
X3664Y2713D03*
X3829Y743D03*
X3979Y1588D03*
X3789Y1663D03*
Y1498D03*
X3909Y2463D03*
G54D22*
X457Y1418D03*
X162Y2406D03*
X332Y2295D03*
X150Y2330D03*
X709Y523D03*
X699Y420D03*
X519Y506D03*
X749Y1710D03*
X518Y2362D03*
X511Y2465D03*
X612Y2688D03*
X693Y2786D03*
X499Y2743D03*
X686Y2890D03*
X1050Y733D03*
X1101Y1333D03*
X839Y1252D03*
X919Y1118D03*
X1044Y1743D03*
X942Y1969D03*
X1289Y848D03*
X1339D03*
X1529Y1360D03*
X1399Y1248D03*
X1188Y1682D03*
X1404Y1438D03*
Y1583D03*
X1534Y1668D03*
X1335Y1783D03*
X1462Y1957D03*
X1493Y1908D03*
X1263Y1860D03*
X1399Y1825D03*
X1360D03*
X1438Y2004D03*
X1264Y2348D03*
X1187Y2202D03*
X1589Y691D03*
X1674Y1013D03*
Y833D03*
X1719Y758D03*
X1735Y1338D03*
X1881Y1151D03*
X1813Y1287D03*
X1654Y1308D03*
X1799Y1342D03*
X1569Y1733D03*
X1632Y1737D03*
X1569Y1602D03*
X1579Y1443D03*
X1695Y1754D03*
X1658Y1788D03*
X1599Y2009D03*
X1638D03*
X1538Y1968D03*
X1669Y2368D03*
X1640Y2519D03*
X1919Y761D03*
X2145Y1113D03*
X1971Y1074D03*
X1924Y1098D03*
X2079Y1178D03*
X1979Y1403D03*
X2242Y1249D03*
X2144Y1622D03*
X2169Y1720D03*
X2184Y1758D03*
X2233Y1453D03*
X2004Y1483D03*
X2154Y1788D03*
X1990Y1912D03*
X2039Y1877D03*
X1959Y2564D03*
X2059Y2570D03*
X2407Y495D03*
X2257Y615D03*
X2594Y638D03*
X2348Y1008D03*
X2377Y1147D03*
X2424Y2566D03*
X2524Y2559D03*
X2826Y1433D03*
X2724Y2559D03*
X2624Y2566D03*
X3140Y253D03*
X3554Y628D03*
X3409Y1498D03*
X3789Y1558D03*
X4241Y417D03*
X4230Y1642D03*
X4168D03*
X4305Y2590D03*
X4149Y2531D03*
G54D31*
X519Y506D03*
Y560D03*
X522Y715D03*
Y769D03*
G54D13*
X124Y2543D03*
X224Y2168D03*
X324D03*
X224Y2543D03*
X3309Y1678D03*
Y1578D03*
Y1478D03*
X2989D03*
Y1578D03*
G54D40*
X854Y977D03*
Y1119D03*
X2292Y1107D03*
Y1249D03*
G54D50*
X3594Y2278D03*
G54D23*
X174Y1618D03*
G54D41*
X1188Y1743D03*
X1112D03*
G54D32*
X814Y523D03*
X1074D03*
G54D14*
X199Y198D03*
Y2788D03*
X4274Y218D03*
Y2793D03*
G54D15*
G01X1074Y429D02*
Y523D01*
G01D02*
Y617D01*
G01X1015Y523D02*
X1074D01*
G01D02*
X1133D01*
X169Y479D03*
X378D03*
X169Y767D03*
X378D03*
G54D24*
X194Y1843D03*
X2484Y2803D03*
X2799D03*
X3109D03*
X3419D03*
G54D51*
X4349Y826D03*
X4249D03*
X4149D03*
X4049D03*
Y1471D03*
X4149D03*
X4249D03*
X4349D03*
Y1821D03*
X4249D03*
X4149D03*
X4049D03*
Y2466D03*
X4149D03*
X4249D03*
X4349D03*
G54D33*
X499Y927D03*
Y1139D03*
X1122Y976D03*
Y1188D03*
X1016Y1384D03*
Y1596D03*
G54D42*
X1092Y1949D03*
X1234D03*
G54D52*
G01X332Y-1422D02*
Y-1359D01*
X303Y-1404D01*
X342D01*
G01X448Y-1422D02*
X442Y-1421D01*
X437Y-1417D01*
X432Y-1410D01*
X429Y-1403D01*
X427Y-1395D01*
Y-1386D01*
X429Y-1378D01*
X432Y-1370D01*
X437Y-1364D01*
X442Y-1360D01*
X448Y-1359D01*
X455Y-1360D01*
X460Y-1364D01*
X465Y-1370D01*
X468Y-1378D01*
X470Y-1386D01*
Y-1395D01*
X468Y-1403D01*
X465Y-1410D01*
X460Y-1417D01*
X455Y-1421D01*
X448Y-1422D01*
G01X497D02*
Y-1359D01*
X526D01*
G01X515Y-1389D02*
X497D01*
G01X638Y-1422D02*
Y-1359D01*
X628Y-1372D01*
G01Y-1422D02*
X647D01*
G01X700Y-1359D02*
X694Y-1361D01*
X690Y-1366D01*
X686Y-1373D01*
X684Y-1381D01*
X683Y-1390D01*
X684Y-1400D01*
X686Y-1408D01*
X690Y-1415D01*
X694Y-1420D01*
X700Y-1422D01*
X707Y-1420D01*
X712Y-1415D01*
X715Y-1408D01*
X717Y-1400D01*
X718Y-1390D01*
X717Y-1381D01*
X715Y-1373D01*
X712Y-1366D01*
X707Y-1361D01*
X700Y-1359D01*
G01X279Y-577D02*
Y-502D01*
X315D01*
G01X302Y-538D02*
X279D01*
G01X353Y-577D02*
Y-502D01*
X377D01*
X384Y-506D01*
X389Y-511D01*
X391Y-521D01*
X389Y-531D01*
X383Y-537D01*
X377Y-541D01*
X353D01*
G01X377D02*
X391Y-577D01*
G01X466D02*
X428D01*
Y-502D01*
X466D01*
G01X451Y-538D02*
X428D01*
G01X541Y-577D02*
X503D01*
Y-502D01*
X541D01*
G01X526Y-538D02*
X503D01*
G01X577Y-567D02*
X585Y-573D01*
X593Y-577D01*
X601D01*
X608Y-573D01*
X614Y-567D01*
X617Y-558D01*
X615Y-550D01*
X610Y-542D01*
X602Y-537D01*
X590Y-534D01*
X584Y-530D01*
X581Y-521D01*
X583Y-512D01*
X588Y-506D01*
X594Y-502D01*
X601D01*
X607Y-505D01*
X613Y-511D01*
G01X692Y-508D02*
X687Y-505D01*
X680Y-502D01*
X673D01*
X664Y-506D01*
X658Y-512D01*
X653Y-520D01*
X650Y-532D01*
X649Y-543D01*
X650Y-554D01*
X653Y-562D01*
X659Y-570D01*
X666Y-574D01*
X672Y-577D01*
X678D01*
X685Y-574D01*
X691Y-571D01*
X695Y-566D01*
G01X724Y-577D02*
X747Y-502D01*
X770Y-577D01*
G01X762Y-551D02*
X732D01*
G01X803Y-502D02*
Y-577D01*
X841D01*
G01X916D02*
X878D01*
Y-502D01*
X916D01*
G01X901Y-538D02*
X878D01*
G01X1027Y-567D02*
X1035Y-573D01*
X1043Y-577D01*
X1051D01*
X1058Y-573D01*
X1064Y-567D01*
X1067Y-558D01*
X1065Y-550D01*
X1060Y-542D01*
X1052Y-537D01*
X1040Y-534D01*
X1034Y-530D01*
X1031Y-521D01*
X1033Y-512D01*
X1038Y-506D01*
X1044Y-502D01*
X1051D01*
X1057Y-505D01*
X1063Y-511D01*
G01X1141Y-577D02*
X1103D01*
Y-502D01*
X1141D01*
G01X1126Y-538D02*
X1103D01*
G01X1173Y-577D02*
Y-502D01*
X1197Y-564D01*
X1221Y-502D01*
Y-577D01*
G01X1261Y-502D02*
X1283D01*
G01X1272D02*
Y-577D01*
G01X1261D02*
X1283D01*
G01X1368Y-508D02*
X1362Y-505D01*
X1355Y-502D01*
X1348D01*
X1340Y-506D01*
X1333Y-512D01*
X1328Y-520D01*
X1325Y-532D01*
X1324Y-543D01*
X1326Y-554D01*
X1328Y-562D01*
X1334Y-570D01*
X1340Y-574D01*
X1347Y-577D01*
X1354D01*
X1360Y-574D01*
X1366Y-571D01*
X1370Y-566D01*
G01X1422Y-577D02*
X1414Y-576D01*
X1408Y-571D01*
X1402Y-563D01*
X1399Y-554D01*
X1397Y-544D01*
Y-534D01*
X1399Y-524D01*
X1402Y-516D01*
X1408Y-508D01*
X1414Y-503D01*
X1422Y-502D01*
X1430Y-503D01*
X1436Y-508D01*
X1442Y-516D01*
X1445Y-524D01*
X1447Y-534D01*
Y-544D01*
X1445Y-554D01*
X1442Y-563D01*
X1436Y-571D01*
X1430Y-576D01*
X1422Y-577D01*
G01X1476D02*
Y-502D01*
X1518Y-577D01*
Y-502D01*
G01X1552Y-577D02*
Y-502D01*
X1570D01*
X1578Y-506D01*
X1583Y-511D01*
X1588Y-518D01*
X1592Y-527D01*
X1592Y-540D01*
X1592Y-552D01*
X1588Y-561D01*
X1583Y-568D01*
X1578Y-573D01*
X1570Y-577D01*
X1552D01*
G01X1626Y-502D02*
Y-556D01*
X1630Y-567D01*
X1638Y-574D01*
X1647Y-577D01*
X1656Y-574D01*
X1664Y-567D01*
X1668Y-556D01*
Y-502D01*
G01X1742Y-508D02*
X1737Y-505D01*
X1730Y-502D01*
X1723D01*
X1715Y-506D01*
X1708Y-512D01*
X1703Y-520D01*
X1700Y-532D01*
X1699Y-543D01*
X1701Y-554D01*
X1703Y-562D01*
X1709Y-570D01*
X1716Y-574D01*
X1722Y-577D01*
X1728D01*
X1735Y-574D01*
X1741Y-571D01*
X1745Y-566D01*
G01X1797Y-502D02*
Y-577D01*
G01X1776Y-502D02*
X1818D01*
G01X1872Y-577D02*
X1864Y-576D01*
X1858Y-571D01*
X1852Y-563D01*
X1849Y-554D01*
X1847Y-544D01*
Y-534D01*
X1849Y-524D01*
X1852Y-516D01*
X1858Y-508D01*
X1864Y-503D01*
X1872Y-502D01*
X1880Y-503D01*
X1886Y-508D01*
X1892Y-516D01*
X1895Y-524D01*
X1897Y-534D01*
Y-544D01*
X1895Y-554D01*
X1892Y-563D01*
X1886Y-571D01*
X1880Y-576D01*
X1872Y-577D01*
G01X1928D02*
Y-502D01*
X1952D01*
X1959Y-506D01*
X1964Y-511D01*
X1966Y-521D01*
X1964Y-531D01*
X1958Y-537D01*
X1952Y-541D01*
X1928D01*
G01X1952D02*
X1966Y-577D01*
G01X1032Y-1422D02*
Y-1359D01*
X1051D01*
X1057Y-1362D01*
X1062Y-1370D01*
X1063Y-1378D01*
X1062Y-1386D01*
X1058Y-1393D01*
X1051Y-1396D01*
X1032D01*
G01X1095Y-1422D02*
Y-1359D01*
X1114D01*
X1121Y-1362D01*
X1125Y-1366D01*
X1126Y-1375D01*
X1125Y-1383D01*
X1120Y-1388D01*
X1114Y-1392D01*
X1095D01*
G01X1114D02*
X1126Y-1422D01*
G01X1164Y-1359D02*
X1183D01*
G01X1174D02*
Y-1422D01*
G01X1164D02*
X1183D01*
G01X1216D02*
Y-1359D01*
X1236Y-1412D01*
X1257Y-1359D01*
Y-1422D01*
G01X1280D02*
X1300Y-1359D01*
X1319Y-1422D01*
G01X1312Y-1400D02*
X1287D01*
G01X1347Y-1422D02*
Y-1359D01*
X1366D01*
X1373Y-1362D01*
X1377Y-1366D01*
X1378Y-1375D01*
X1377Y-1383D01*
X1372Y-1388D01*
X1366Y-1392D01*
X1347D01*
G01X1366D02*
X1378Y-1422D01*
G01X1426D02*
Y-1394D01*
X1410Y-1359D01*
G01X1441D02*
X1426Y-1394D01*
G01X1535Y-1414D02*
X1541Y-1419D01*
X1548Y-1422D01*
X1555D01*
X1561Y-1419D01*
X1566Y-1414D01*
X1568Y-1406D01*
X1566Y-1399D01*
X1562Y-1393D01*
X1555Y-1388D01*
X1546Y-1386D01*
X1540Y-1382D01*
X1538Y-1375D01*
X1540Y-1367D01*
X1544Y-1362D01*
X1549Y-1359D01*
X1555D01*
X1560Y-1361D01*
X1565Y-1366D01*
G01X1605Y-1359D02*
X1624D01*
G01X1614D02*
Y-1422D01*
G01X1605D02*
X1624D01*
G01X1660D02*
Y-1359D01*
X1676D01*
X1682Y-1362D01*
X1687Y-1366D01*
X1691Y-1373D01*
X1694Y-1380D01*
X1695Y-1390D01*
X1694Y-1401D01*
X1691Y-1408D01*
X1687Y-1415D01*
X1682Y-1419D01*
X1676Y-1422D01*
X1660D01*
G01X1756D02*
X1725D01*
Y-1359D01*
X1756D01*
G01X1744Y-1389D02*
X1725D01*
G01X2176Y-1027D02*
X2209Y-964D01*
G01X2176D02*
X2209Y-1027D01*
G01X2177Y-682D02*
Y-619D01*
X2198Y-672D01*
X2218Y-619D01*
Y-682D01*
G01X2276D02*
X2245D01*
Y-619D01*
X2276D01*
G01X2264Y-649D02*
X2245D01*
G01X2306Y-682D02*
Y-619D01*
X2322D01*
X2328Y-622D01*
X2333Y-626D01*
X2337Y-633D01*
X2340Y-640D01*
X2341Y-650D01*
X2340Y-661D01*
X2337Y-668D01*
X2333Y-675D01*
X2328Y-679D01*
X2322Y-682D01*
X2306D01*
G01X2377Y-619D02*
X2396D01*
G01X2386D02*
Y-682D01*
G01X2377D02*
X2396D01*
G01X2467Y-624D02*
X2462Y-621D01*
X2457Y-619D01*
X2450D01*
X2443Y-622D01*
X2438Y-627D01*
X2434Y-634D01*
X2431Y-644D01*
X2430Y-654D01*
X2432Y-663D01*
X2434Y-669D01*
X2438Y-676D01*
X2444Y-680D01*
X2450Y-682D01*
X2455D01*
X2460Y-680D01*
X2465Y-677D01*
X2469Y-673D01*
G01X2493Y-682D02*
X2512Y-619D01*
X2532Y-682D01*
G01X2525Y-660D02*
X2500D01*
G01X2560Y-619D02*
Y-682D01*
X2591D01*
G01X2682Y-619D02*
X2702Y-682D01*
X2721Y-619D01*
G01X2780Y-682D02*
X2749D01*
Y-619D01*
X2780D01*
G01X2768Y-649D02*
X2749D01*
G01X2810Y-682D02*
Y-619D01*
X2846Y-682D01*
Y-619D01*
G01X2890D02*
Y-682D01*
G01X2872Y-619D02*
X2908D01*
G01X2944D02*
X2963D01*
G01X2954D02*
Y-682D01*
G01X2944D02*
X2963D01*
G01X3001Y-619D02*
Y-682D01*
X3032D01*
G01X3060D02*
X3080Y-619D01*
X3099Y-682D01*
G01X3092Y-660D02*
X3067D01*
G01X3142Y-619D02*
Y-682D01*
G01X3125Y-619D02*
X3160D01*
G01X3206Y-682D02*
X3199Y-681D01*
X3194Y-677D01*
X3189Y-670D01*
X3186Y-663D01*
X3184Y-655D01*
Y-646D01*
X3186Y-638D01*
X3189Y-631D01*
X3194Y-624D01*
X3199Y-620D01*
X3206Y-619D01*
X3212Y-620D01*
X3217Y-624D01*
X3222Y-631D01*
X3225Y-638D01*
X3227Y-646D01*
Y-655D01*
X3225Y-663D01*
X3222Y-670D01*
X3217Y-677D01*
X3212Y-681D01*
X3206Y-682D01*
G01X3253D02*
Y-619D01*
X3272D01*
X3279Y-622D01*
X3283Y-626D01*
X3284Y-635D01*
X3283Y-643D01*
X3278Y-648D01*
X3272Y-652D01*
X3253D01*
G01X3272D02*
X3284Y-682D01*
G01X3384Y-661D02*
X3405D01*
G01X3505Y-682D02*
Y-619D01*
X3524D01*
X3531Y-622D01*
X3535Y-626D01*
X3536Y-635D01*
X3535Y-643D01*
X3530Y-648D01*
X3524Y-652D01*
X3505D01*
G01X3524D02*
X3536Y-682D01*
G01X3599D02*
X3568D01*
Y-619D01*
X3599D01*
G01X3587Y-649D02*
X3568D01*
G01X3630Y-674D02*
X3636Y-679D01*
X3643Y-682D01*
X3650D01*
X3656Y-679D01*
X3661Y-674D01*
X3663Y-666D01*
X3661Y-659D01*
X3658Y-653D01*
X3650Y-648D01*
X3641Y-646D01*
X3636Y-642D01*
X3633Y-635D01*
X3635Y-627D01*
X3639Y-622D01*
X3644Y-619D01*
X3650D01*
X3655Y-621D01*
X3660Y-626D01*
G01X3694Y-682D02*
Y-619D01*
X3713D01*
X3719Y-622D01*
X3724Y-630D01*
X3725Y-638D01*
X3724Y-646D01*
X3720Y-653D01*
X3713Y-656D01*
X3694D01*
G01X3763Y-619D02*
X3782D01*
G01X3772D02*
Y-682D01*
G01X3763D02*
X3782D01*
G01X3820D02*
Y-619D01*
X3839D01*
X3846Y-622D01*
X3850Y-626D01*
X3851Y-635D01*
X3850Y-643D01*
X3845Y-648D01*
X3839Y-652D01*
X3820D01*
G01X3839D02*
X3851Y-682D01*
G01X3879D02*
X3899Y-619D01*
X3918Y-682D01*
G01X3911Y-660D02*
X3886D01*
G01X3962Y-619D02*
Y-682D01*
G01X3944Y-619D02*
X3980D01*
G01X4024Y-682D02*
X4018Y-681D01*
X4013Y-677D01*
X4008Y-670D01*
X4005Y-663D01*
X4003Y-655D01*
Y-646D01*
X4005Y-638D01*
X4008Y-631D01*
X4013Y-624D01*
X4018Y-620D01*
X4024Y-619D01*
X4031Y-620D01*
X4036Y-624D01*
X4041Y-631D01*
X4044Y-638D01*
X4046Y-646D01*
Y-655D01*
X4044Y-663D01*
X4041Y-670D01*
X4036Y-677D01*
X4031Y-681D01*
X4024Y-682D01*
G01X4072D02*
Y-619D01*
X4091D01*
X4098Y-622D01*
X4102Y-626D01*
X4103Y-635D01*
X4102Y-643D01*
X4097Y-648D01*
X4091Y-652D01*
X4072D01*
G01X4091D02*
X4103Y-682D01*
G01X2882Y-1407D02*
Y-1344D01*
X2873Y-1357D01*
G01Y-1407D02*
X2892D01*
G01X2944D02*
X2946Y-1393D01*
X2948Y-1382D01*
X2951Y-1371D01*
X2955Y-1360D01*
X2961Y-1344D01*
X2930D01*
G01X3008D02*
X3002Y-1346D01*
X2998Y-1351D01*
X2994Y-1358D01*
X2992Y-1366D01*
X2991Y-1376D01*
X2992Y-1385D01*
X2994Y-1393D01*
X2998Y-1400D01*
X3002Y-1405D01*
X3008Y-1407D01*
X3015Y-1405D01*
X3020Y-1400D01*
X3023Y-1393D01*
X3025Y-1385D01*
X3026Y-1376D01*
X3025Y-1366D01*
X3023Y-1358D01*
X3020Y-1351D01*
X3015Y-1346D01*
X3008Y-1344D01*
G01X3061Y-1386D02*
X3082D01*
G01X3118Y-1407D02*
X3151Y-1344D01*
G01X3118D02*
X3151Y-1407D01*
G01X3181D02*
X3214Y-1344D01*
G01X3181D02*
X3214Y-1407D01*
G01X3244D02*
X3277Y-1344D01*
G01X3244D02*
X3277Y-1407D01*
G01X3307D02*
X3340Y-1344D01*
G01X3307D02*
X3340Y-1407D01*
G01X3370D02*
X3403Y-1344D01*
G01X3370D02*
X3403Y-1407D01*
G01X3812D02*
Y-1344D01*
X3831D01*
X3838Y-1347D01*
X3842Y-1351D01*
X3843Y-1360D01*
X3842Y-1368D01*
X3837Y-1373D01*
X3831Y-1377D01*
X3812D01*
G01X3831D02*
X3843Y-1407D01*
G01X3906D02*
X3875D01*
Y-1344D01*
X3906D01*
G01X3894Y-1374D02*
X3875D01*
G01X3934Y-1344D02*
X3954Y-1407D01*
X3973Y-1344D01*
G01X4060Y-1407D02*
X4080Y-1344D01*
X4099Y-1407D01*
G01X4092Y-1385D02*
X4067D01*
G01X2848Y738D02*
Y801D01*
X2838Y788D01*
G01Y738D02*
X2857D01*
G01X2909D02*
X2910Y752D01*
X2913Y763D01*
X2916Y774D01*
X2920Y785D01*
X2926Y801D01*
X2895D01*
G01X2974D02*
X2967Y799D01*
X2962Y794D01*
X2959Y787D01*
X2957Y779D01*
X2956Y770D01*
X2957Y760D01*
X2959Y752D01*
X2962Y745D01*
X2967Y740D01*
X2974Y738D01*
X2980Y740D01*
X2984Y745D01*
X2988Y752D01*
X2990Y760D01*
X2991Y770D01*
X2990Y779D01*
X2988Y787D01*
X2984Y794D01*
X2980Y799D01*
X2974Y801D01*
G01X3026Y759D02*
X3047D01*
G01X3083Y738D02*
X3116Y801D01*
G01X3083D02*
X3116Y738D01*
G01X3146D02*
X3179Y801D01*
G01X3146D02*
X3179Y738D01*
G01X3209D02*
X3242Y801D01*
G01X3209D02*
X3242Y738D01*
G01X3272D02*
X3305Y801D01*
G01X3272D02*
X3305Y738D01*
G01X3335D02*
X3368Y801D01*
G01X3335D02*
X3368Y738D01*
G01X3462D02*
Y801D01*
X3481D01*
X3488Y798D01*
X3492Y794D01*
X3493Y785D01*
X3492Y777D01*
X3487Y772D01*
X3481Y768D01*
X3462D01*
G01X3481D02*
X3493Y738D01*
G01X3556D02*
X3525D01*
Y801D01*
X3556D01*
G01X3544Y771D02*
X3525D01*
G01X3584Y801D02*
X3604Y738D01*
X3623Y801D01*
G01X3710Y738D02*
X3730Y801D01*
X3749Y738D01*
G01X3742Y760D02*
X3717D01*
G54D25*
X194Y1943D03*
X2584Y2803D03*
X2899D03*
X3209D03*
X3519D03*
G54D43*
X1399Y1020D03*
Y1096D03*
X1674Y880D03*
Y956D03*
G54D34*
G01X499Y1139D02*
X260D01*
X179Y1058D01*
G01X174Y1618D02*
X524D01*
G01X814Y523D02*
X709D01*
X524Y1418D03*
X749D03*
X524Y1518D03*
X749D03*
X949Y2543D03*
X1049D03*
X1399Y2268D03*
Y2368D03*
X1739Y2268D03*
Y2368D03*
X2279Y2458D03*
Y2358D03*
X2549Y1908D03*
X2649D03*
G54D16*
X390Y560D03*
Y592D03*
Y623D03*
Y654D03*
Y686D03*
G54D53*
G01X73Y2330D02*
Y2279D01*
X119Y2233D01*
X209D01*
X224Y2218D01*
Y2168D01*
G01Y2543D02*
Y2488D01*
X204Y2468D01*
X84D01*
X73Y2457D01*
Y2406D01*
G01X390Y623D02*
X543D01*
X568Y598D01*
X596D01*
G01X390Y654D02*
X539D01*
X568Y683D01*
X596D01*
G01X390Y560D02*
X492D01*
X519Y560D01*
G01X522Y715D02*
X486D01*
X457Y686D01*
X390D01*
G01X369Y1379D02*
X332D01*
X331Y1378D01*
X319D01*
X269Y1328D01*
Y1253D01*
G01X424Y1881D02*
X362D01*
X324Y1843D01*
X194D01*
G01X424Y1805D02*
X465D01*
X467Y1803D01*
X489D01*
X509Y1823D01*
X1321D01*
X1335Y1809D01*
Y1783D01*
G01X1263Y1860D02*
X547D01*
X395Y2012D01*
Y2265D01*
X393Y2267D01*
Y2295D01*
G01X125Y2406D02*
X162D01*
G01D02*
X219D01*
X226Y2399D01*
X263D01*
G01X115Y2278D02*
X231D01*
X232Y2277D01*
G01D02*
X263Y2308D01*
Y2310D01*
G01X231Y2277D02*
X232D01*
G01X115Y2278D02*
X99Y2294D01*
G01D02*
Y2330D01*
G01X125D02*
X150D01*
G01X393Y2295D02*
X332D01*
G01X386Y2843D02*
Y2759D01*
X386Y2743D01*
G01X549Y108D02*
X599D01*
G01Y208D02*
X632D01*
X639Y215D01*
Y226D01*
X662Y249D01*
X699D01*
G01X1079Y168D02*
Y233D01*
X1063Y249D01*
X699D01*
G01X599Y308D02*
X656D01*
X658Y310D01*
X699D01*
G01Y386D02*
Y420D01*
G01X1399Y1825D02*
X1386Y1812D01*
Y1747D01*
X1361Y1722D01*
X1304D01*
X1219Y1637D01*
Y884D01*
X1181Y846D01*
X793D01*
X770Y823D01*
Y680D01*
X724Y635D01*
X712D01*
X705Y628D01*
Y605D01*
X698Y598D01*
X672D01*
G01X1360Y1825D02*
X1374Y1811D01*
Y1752D01*
X1356Y1734D01*
X1299D01*
X1207Y1642D01*
Y889D01*
X1176Y858D01*
X788D01*
X758Y828D01*
Y686D01*
X719Y646D01*
X712D01*
X705Y654D01*
Y676D01*
X698Y683D01*
X672D01*
G01X854Y1119D02*
X647D01*
X581Y1053D01*
Y790D01*
X560Y769D01*
X522D01*
G01X499Y1139D02*
Y1263D01*
G01X782Y1253D02*
X838D01*
X839Y1252D01*
G01X612Y2743D02*
Y2688D01*
G01X462Y2743D02*
X499D01*
G01X536Y2843D02*
Y2759D01*
X536Y2743D01*
G01X919Y1118D02*
X891D01*
X890Y1119D01*
X854D01*
G01X1112Y1743D02*
X1044D01*
G01X1438Y2004D02*
X977D01*
X942Y1969D01*
G01X1149Y2543D02*
Y2422D01*
X1136Y2409D01*
Y2368D01*
G01X1719Y758D02*
Y278D01*
X1694Y253D01*
X1404D01*
X1379Y228D01*
Y168D01*
G01X1499Y1062D02*
Y913D01*
X1525Y887D01*
X1574D01*
G01D02*
X1579Y882D01*
Y853D01*
X1559Y833D01*
X1454D01*
G01X1289Y848D02*
Y1268D01*
X1329Y1308D01*
Y1653D01*
X1357Y1681D01*
X1469D01*
G01Y1661D02*
X1392D01*
X1364Y1633D01*
Y1302D01*
X1322Y1260D01*
Y898D01*
X1339Y881D01*
Y848D01*
G01X1574Y949D02*
Y983D01*
X1544Y1013D01*
Y1116D01*
X1536Y1124D01*
X1499D01*
G01X1399Y1248D02*
Y1096D01*
G01D02*
X1439D01*
X1449Y1087D01*
Y1073D01*
X1460Y1062D01*
X1499D01*
G01X1469Y1405D02*
X1414D01*
X1404Y1415D01*
Y1438D01*
G01X1579Y1443D02*
Y1343D01*
X1562Y1326D01*
X1469D01*
G01Y1307D02*
Y1326D01*
G01X1569Y1733D02*
X1614Y1688D01*
Y1573D01*
X1604Y1563D01*
X1469D01*
G01X1632Y1737D02*
Y1567D01*
X1608Y1543D01*
X1469D01*
G01Y1445D02*
Y1464D01*
G01D02*
X1513D01*
X1529Y1448D01*
G01X1188Y1743D02*
Y1682D01*
G01X1469Y1425D02*
X1417D01*
X1404Y1438D01*
G01X1469Y1602D02*
X1569D01*
G01X1469Y1582D02*
X1405D01*
X1404Y1583D01*
G01X1534Y1668D02*
Y1638D01*
X1518Y1622D01*
X1469D01*
G01Y1523D02*
X1584D01*
X1609Y1498D01*
Y1443D01*
X1649Y1403D01*
X1844D01*
X1914Y1333D01*
X1992D01*
X2092Y1233D01*
X2169D01*
X2212Y1190D01*
Y996D01*
X2260Y947D01*
X2440D01*
X2489Y898D01*
Y838D01*
X2504Y823D01*
X2559D01*
X2579Y803D01*
Y768D01*
X2609Y738D01*
X2749D01*
X2804Y683D01*
X3209D01*
X3314Y578D01*
X3652D01*
X3677Y603D01*
Y628D01*
G01X1234Y1949D02*
X1334D01*
X1342Y1957D01*
X1379D01*
G01D02*
X1462D01*
G01X1493Y1908D02*
X1580D01*
X1597Y1891D01*
Y1848D01*
G01X1212Y2368D02*
X1244D01*
X1264Y2348D01*
G01X1187Y2147D02*
Y2202D01*
G01X1574Y2541D02*
X1533D01*
X1531Y2543D01*
X1414D01*
X1399Y2528D01*
Y2468D01*
G01X1574Y949D02*
X1626D01*
X1634Y956D01*
X1674D01*
G01D02*
Y1013D01*
G01Y880D02*
Y833D01*
G01X1602Y1010D02*
X1599Y1013D01*
Y1035D01*
G01X1867Y1024D02*
X1905D01*
X1919Y1011D01*
Y937D01*
X1882Y900D01*
Y874D01*
G01X1874D02*
X1882D01*
G01X1843Y1101D02*
X1862D01*
X1869Y1094D01*
Y1060D01*
X1867Y1059D01*
Y1024D01*
G01X1781Y962D02*
X1819D01*
X1824Y967D01*
Y1056D01*
X1817Y1063D01*
X1774D01*
X1767Y1070D01*
Y1101D01*
G01X1774Y874D02*
Y921D01*
X1781Y927D01*
Y962D01*
G01X1824Y703D02*
Y861D01*
X1811Y874D01*
X1774D01*
G01X1735Y1238D02*
Y1338D01*
G01X1529Y1448D02*
Y1360D01*
G01X1813Y1238D02*
Y1287D01*
G01X1654Y1308D02*
X1698D01*
X1715Y1291D01*
Y1238D01*
G01X1699Y1124D02*
Y1179D01*
X1715Y1195D01*
Y1238D01*
G01X1754Y1297D02*
X1799Y1342D01*
G01X1754Y1238D02*
Y1297D01*
G01X1656Y1238D02*
Y1160D01*
X1654Y1158D01*
Y1142D01*
X1636Y1124D01*
X1599D01*
G01X1853Y1238D02*
Y1157D01*
X1843Y1147D01*
Y1101D01*
G01X1833Y1238D02*
Y1195D01*
X1833Y1178D01*
X1813Y1158D01*
X1783D01*
X1767Y1142D01*
Y1101D01*
G01X1859Y1634D02*
X1860D01*
G01X1695Y1754D02*
Y1804D01*
X1695Y1805D01*
Y1848D01*
G01X2811Y1678D02*
X2764D01*
X2609Y1833D01*
X2059D01*
X2004Y1778D01*
X1762D01*
X1735Y1805D01*
Y1848D01*
G01X1574Y2465D02*
Y2165D01*
X1573Y2164D01*
Y2123D01*
X1597Y2099D01*
X1740D01*
X1774Y2065D01*
Y1911D01*
X1754Y1891D01*
Y1848D01*
G01X1872Y1989D02*
Y1892D01*
X1872Y1891D01*
Y1848D01*
G01X1616D02*
Y1802D01*
G01X1630Y1788D02*
X1658D01*
G01X1616Y1802D02*
X1630Y1788D01*
G01X1872Y2065D02*
Y2129D01*
X1843Y2158D01*
X1679D01*
X1619Y2218D01*
Y2428D01*
X1659Y2468D01*
X1739D01*
G01X1599Y2009D02*
Y1986D01*
X1660Y1925D01*
Y1896D01*
X1656Y1892D01*
Y1848D01*
G01X1638Y2009D02*
X1637Y2008D01*
Y1965D01*
X1672Y1930D01*
Y1896D01*
X1676Y1892D01*
Y1848D01*
G01X1695Y1971D02*
Y1942D01*
X1695Y1848D01*
G01X1538Y1968D02*
X1588D01*
X1636Y1920D01*
Y1848D01*
G01X1669Y2368D02*
X1739D01*
G01X1990Y1238D02*
Y1164D01*
X2031Y1123D01*
X2084D01*
X2109Y1098D01*
Y658D01*
X2134Y633D01*
Y353D01*
X2179Y308D01*
Y168D01*
G01X1979D02*
Y688D01*
X2040Y749D01*
Y1060D01*
X1951Y1149D01*
Y1238D01*
G01X1919Y761D02*
Y618D01*
X1879Y578D01*
Y168D01*
G01X1971Y1238D02*
Y1156D01*
X2024Y1103D01*
X2054D01*
X2079Y1078D01*
Y168D01*
G01X2181Y568D02*
Y660D01*
X2161Y680D01*
Y718D01*
G01X2181Y568D02*
Y491D01*
X2182Y490D01*
Y448D01*
G01X1881Y1151D02*
Y1122D01*
X1889Y1114D01*
Y1073D01*
X1908Y1054D01*
Y1052D01*
X1937Y1024D01*
X1974D01*
G01X2145Y1113D02*
Y772D01*
X2161Y756D01*
Y718D01*
G01X2079Y1178D02*
X2174D01*
X2189Y1163D01*
Y943D01*
X2229Y903D01*
X2424D01*
X2454Y873D01*
Y785D01*
X2461Y778D01*
X2514D01*
X2534Y758D01*
Y693D01*
G01X1882Y874D02*
X1922D01*
X1950Y874D01*
G01X4049Y2466D02*
Y2353D01*
X4099Y2303D01*
Y1378D01*
X4067Y1346D01*
X2079D01*
G01Y1386D02*
X4022D01*
X4049Y1413D01*
Y1471D01*
G01X1971Y1074D02*
Y1104D01*
X1932Y1144D01*
Y1238D01*
G01X1924Y1098D02*
Y1123D01*
X1912Y1135D01*
Y1238D01*
G01X2079Y1366D02*
X2016D01*
X1979Y1403D01*
G01X2079Y1622D02*
X2144D01*
G01X2079Y1720D02*
X2169D01*
G01X2184Y1758D02*
X2159D01*
X2141Y1740D01*
X2079D01*
G01Y1760D02*
X2126D01*
X2154Y1788D01*
G01X2233Y1453D02*
X2134D01*
X2122Y1464D01*
X2079D01*
G01X2499Y1568D02*
Y1524D01*
X2493Y1518D01*
X2344D01*
X2325Y1537D01*
X2224D01*
G01X2004Y1483D02*
X2035D01*
X2036Y1484D01*
X2079D01*
G01X2224Y1537D02*
Y1503D01*
X2205Y1484D01*
X2079D01*
G01X1912Y1848D02*
Y1891D01*
X1979Y1958D01*
X2091D01*
X2107Y1974D01*
Y1999D01*
X2118Y2010D01*
X2159D01*
G01X1892Y1848D02*
Y1909D01*
X1993Y2010D01*
X2049D01*
G01X1990Y1848D02*
Y1912D01*
G01X2152D02*
X1990D01*
G01X2039Y1877D02*
Y1868D01*
G01X2046Y1861D02*
X2039Y1868D01*
G01D02*
Y1855D01*
X2032Y1848D01*
G01D02*
X2010D01*
G01X2449Y1908D02*
Y2008D01*
X2371Y2086D01*
X2159D01*
G01X2049D02*
X2062D01*
X2144Y2168D01*
Y2218D01*
X2184Y2258D01*
X2279D01*
G01X2407Y448D02*
Y495D01*
G01X2256Y448D02*
X2331D01*
G01X2257Y568D02*
Y615D01*
G01X2534Y693D02*
X2719D01*
X2732Y680D01*
Y608D01*
G01X2292Y1249D02*
X2242D01*
G01X2649Y1537D02*
Y1488D01*
X2629Y1468D01*
X2499D01*
G01X2656Y608D02*
X2624D01*
G01D02*
X2594Y638D01*
G01X3252Y453D02*
X2924D01*
X2872Y505D01*
Y608D01*
G01X2796D02*
X2732D01*
G01X2887Y1678D02*
X2989D01*
G01X3252Y253D02*
X3140D01*
G01X3176Y617D02*
Y550D01*
X3196Y530D01*
X3304D01*
X3333Y501D01*
Y276D01*
X3310Y253D01*
X3252D01*
G01X3601Y628D02*
X3554D01*
G01X3519Y2803D02*
Y2738D01*
X3544Y2713D01*
X3664D01*
G01X4057Y478D02*
Y565D01*
X3994Y628D01*
X3822D01*
G01X3829Y743D02*
Y708D01*
X3804Y683D01*
X3759D01*
X3746Y670D01*
Y628D01*
G01X3677D02*
X3746D01*
G01X3789Y1498D02*
Y1558D01*
G01X3979Y1588D02*
Y1498D01*
X4006Y1471D01*
X4049D01*
G01X3909Y2463D02*
X3911D01*
X3914Y2466D01*
X4049D01*
G01X4057Y278D02*
Y310D01*
X4073Y326D01*
X4134D01*
X4157Y349D01*
Y387D01*
X4158Y388D01*
Y417D01*
G01D02*
X4241D01*
G01X4249Y1471D02*
Y1542D01*
X4230Y1561D01*
Y1598D01*
G01D02*
Y1642D01*
G01X4168Y1598D02*
Y1642D01*
G01Y1598D02*
Y1561D01*
G01D02*
X4149Y1542D01*
G01D02*
Y1471D01*
G01X4249Y2466D02*
Y2553D01*
X4249Y2590D01*
G01X4149Y2466D02*
Y2531D01*
G01X4249Y2590D02*
X4305D01*
G54D17*
X179Y1058D03*
X1299Y2828D03*
X1619D03*
X1939D03*
X2269Y2823D03*
X4024Y2813D03*
G54D35*
X782Y1253D03*
X720D03*
X638Y1258D03*
X576D03*
X580Y2318D03*
X518D03*
X755Y2743D03*
X693D03*
X2214Y1912D03*
X2152D03*
X3114Y617D03*
X3176D03*
X4168Y1598D03*
X4230D03*
X4187Y2590D03*
X4249D03*
G54D44*
X1469Y1307D03*
Y1326D03*
Y1346D03*
Y1366D03*
Y1386D03*
Y1405D03*
Y1425D03*
Y1445D03*
Y1464D03*
Y1484D03*
Y1504D03*
Y1523D03*
Y1543D03*
Y1563D03*
Y1582D03*
Y1602D03*
Y1622D03*
Y1641D03*
Y1661D03*
Y1681D03*
Y1701D03*
Y1720D03*
Y1740D03*
Y1760D03*
Y1779D03*
X2079Y1405D03*
Y1386D03*
Y1366D03*
Y1346D03*
Y1326D03*
Y1307D03*
Y1760D03*
Y1740D03*
Y1720D03*
Y1701D03*
Y1681D03*
Y1661D03*
Y1641D03*
Y1622D03*
Y1602D03*
Y1582D03*
Y1563D03*
Y1543D03*
Y1523D03*
Y1504D03*
Y1484D03*
Y1464D03*
Y1445D03*
Y1425D03*
Y1779D03*
G54D26*
X424Y1881D03*
Y1805D03*
X699Y310D03*
Y386D03*
X1872Y2065D03*
Y1989D03*
X1574Y2465D03*
Y2541D03*
X2159Y2086D03*
Y2010D03*
X2049Y2086D03*
Y2010D03*
X2059Y2460D03*
Y2536D03*
X2424Y2455D03*
Y2531D03*
X2624Y2455D03*
Y2531D03*
X3629Y1630D03*
Y1706D03*
G54D54*
G01X4249Y-457D02*
Y-1457D01*
X249D01*
G01D02*
Y-457D01*
X4249D01*
G54D36*
X524Y1618D03*
X749D03*
X1149Y2543D03*
X1399Y2468D03*
X1739D03*
X2279Y2258D03*
X2449Y1908D03*
G54D45*
X1781Y1024D03*
X1867D03*
Y962D03*
X1781D03*
G54D18*
X179Y958D03*
X1199Y2828D03*
X1519D03*
X1839D03*
X2169Y2823D03*
X3924Y2813D03*
G54D27*
X462Y2843D03*
X386D03*
X612D03*
X536D03*
X2182Y448D03*
X2256D03*
G54D55*
G01X372Y1375D02*
X369Y1379D01*
G01X819Y528D02*
X814Y523D01*
G01X1122Y1188D02*
X1024D01*
X923Y1289D01*
Y1400D01*
X904Y1419D01*
X817D01*
X816Y1418D01*
X749D01*
G01Y1618D02*
X936D01*
X958Y1596D01*
X1016D01*
G01X524Y1518D02*
X475D01*
G01X524D02*
X573D01*
G01X749D02*
X700D01*
G01X749D02*
X798D01*
G01X1122Y1188D02*
Y1312D01*
X1101Y1333D01*
G54D37*
X847Y2828D03*
X572Y2543D03*
X726D03*
X1001Y2828D03*
X2039Y2345D03*
Y2191D03*
X2469D03*
Y2345D03*
X2669Y2181D03*
Y2335D03*
X3482Y1498D03*
X3636D03*
G54D19*
X369Y1317D03*
Y1379D03*
X263Y2337D03*
Y2399D03*
X699Y187D03*
Y249D03*
X1499Y1062D03*
Y1124D03*
X1379Y1895D03*
Y1957D03*
X1574Y887D03*
Y949D03*
X1599Y1062D03*
X1699D03*
X1874Y874D03*
Y812D03*
X1774D03*
Y874D03*
X1599Y1124D03*
X1699D03*
X1695Y2033D03*
Y1971D03*
X1974Y962D03*
Y1024D03*
X2224Y1599D03*
Y1537D03*
X1959Y2467D03*
Y2529D03*
X2524Y2462D03*
Y2524D03*
X2649Y1599D03*
Y1537D03*
X2724Y2462D03*
Y2524D03*
X3479Y1637D03*
Y1699D03*
X4158Y479D03*
Y417D03*
G54D46*
X1872Y1238D03*
X1853D03*
X1833D03*
X1813D03*
X1794D03*
X1774D03*
X1754D03*
X1735D03*
X1715D03*
X1695D03*
X1676D03*
X1656D03*
X1636D03*
X1616D03*
X1597D03*
X1577D03*
X1558D03*
X1538D03*
Y1848D03*
X1558D03*
X1577D03*
X1597D03*
X1616D03*
X1636D03*
X1656D03*
X1676D03*
X1695D03*
X1715D03*
X1735D03*
X1754D03*
X1774D03*
X1794D03*
X1813D03*
X1833D03*
X1853D03*
X1872D03*
X2010Y1238D03*
X1990D03*
X1971D03*
X1951D03*
X1932D03*
X1912D03*
X1892D03*
Y1848D03*
X1912D03*
X1932D03*
X1951D03*
X1971D03*
X1990D03*
X2010D03*
G54D28*
X386Y2743D03*
X462D03*
X596Y598D03*
X672D03*
X596Y683D03*
X672D03*
X587Y2418D03*
X511D03*
X536Y2743D03*
X612D03*
X762Y2843D03*
X686D03*
X1136Y2368D03*
X1212D03*
X1843Y1101D03*
X1767D03*
X2181Y568D03*
X2257D03*
X2407Y448D03*
X2331D03*
X2796Y608D03*
X2872D03*
X2656D03*
X2732D03*
X2887Y1678D03*
X2811D03*
X3601Y628D03*
X3677D03*
X3746D03*
X3822D03*
G54D56*
G01X85Y2543D02*
X124D01*
G01X378Y427D02*
Y479D01*
G01D02*
Y532D01*
G01X325Y479D02*
X378D01*
G01D02*
X430D01*
G01X169Y427D02*
Y479D01*
G01D02*
Y532D01*
G01X116Y479D02*
X169D01*
G01D02*
X222D01*
G01X378Y714D02*
Y767D01*
G01D02*
Y819D01*
G01X325Y767D02*
X378D01*
G01D02*
X430D01*
G01X169Y714D02*
Y767D01*
G01D02*
Y819D01*
G01X116Y767D02*
X169D01*
G01D02*
X222D01*
G01X179Y917D02*
Y958D01*
G01D02*
Y999D01*
G01X138Y958D02*
X179D01*
G01D02*
X220D01*
G01X369Y1290D02*
Y1317D01*
G01X333D02*
X369D01*
G01D02*
X405D01*
G01X194Y1899D02*
Y1943D01*
G01D02*
Y1987D01*
G01X150Y1943D02*
X194D01*
G01D02*
X238D01*
G01X263Y2310D02*
Y2337D01*
G01X227D02*
X263D01*
G01D02*
X299D01*
G01X324Y2129D02*
Y2168D01*
G01D02*
Y2207D01*
G01X285Y2168D02*
X324D01*
G01D02*
X363D01*
G01X124Y2504D02*
Y2543D01*
G01D02*
Y2582D01*
G01Y2543D02*
X163D01*
G01X435Y2843D02*
X462D01*
G01X699Y160D02*
Y187D01*
G01X663D02*
X699D01*
G01D02*
X735D01*
G01X599Y108D02*
Y147D01*
G01Y108D02*
X638D01*
G01X570Y79D02*
X599Y108D01*
G01X519Y477D02*
Y506D01*
G01X494D02*
X519D01*
G01D02*
X544D01*
G01X499Y849D02*
Y927D01*
G01D02*
Y1005D01*
G01X458Y927D02*
X499D01*
G01D02*
X540D01*
G01X638Y1222D02*
Y1258D01*
G01D02*
Y1294D01*
G01Y1258D02*
X665D01*
G01X782Y1217D02*
Y1253D01*
G01D02*
Y1289D01*
G01X754Y1217D02*
X782Y1253D01*
G01X712Y1481D02*
X749Y1518D01*
G01D02*
X786Y1555D01*
G01X712D02*
X749Y1518D01*
G01X487Y1481D02*
X524Y1518D01*
G01D02*
X561Y1555D01*
G01X487D02*
X524Y1518D01*
G01X612Y2802D02*
Y2843D01*
G01X462Y2802D02*
Y2843D01*
G01X612D02*
Y2884D01*
G01X585Y2843D02*
X612D01*
G01D02*
X638D01*
G01X462D02*
Y2884D01*
G01Y2843D02*
X488D01*
G01X879Y126D02*
Y168D01*
G01D02*
Y210D01*
G01X837Y168D02*
X879D01*
G01D02*
X921D01*
G01X1122Y898D02*
Y976D01*
G01D02*
Y1054D01*
G01X1081Y976D02*
X1122D01*
G01D02*
X1163D01*
G01X854Y913D02*
Y977D01*
G01D02*
Y1041D01*
G01X820Y977D02*
X854D01*
G01D02*
X888D01*
G01X1016Y1306D02*
Y1384D01*
G01D02*
Y1462D01*
G01X975Y1384D02*
X1016D01*
G01D02*
X1057D01*
G01X1092Y1915D02*
Y1949D01*
G01D02*
Y1983D01*
G01X1028Y1949D02*
X1092D01*
G01D02*
X1156D01*
G01X949Y2494D02*
Y2543D01*
G01D02*
Y2592D01*
G01X900Y2543D02*
X949D01*
G01X1399Y985D02*
Y1020D01*
G01X1360D02*
X1399D01*
G01D02*
X1438D01*
G01X1379Y1868D02*
Y1895D01*
G01X1343D02*
X1379D01*
G01D02*
X1415D01*
G01X1399Y2219D02*
Y2268D01*
G01X1350D02*
X1399D01*
G01D02*
X1448D01*
G01X1699Y1035D02*
Y1062D01*
G01X1599Y1035D02*
Y1062D01*
G01X1874Y785D02*
Y812D01*
G01D02*
X1910D01*
G01X1874D02*
X1910Y840D01*
G01X1774Y785D02*
Y812D01*
G01X1738D02*
X1774D01*
G01X1738Y785D02*
X1774Y812D01*
G01X1799Y1342D02*
X1820Y1362D01*
G01X1778D02*
X1799Y1342D01*
G01D02*
X1820Y1322D01*
G01X1663Y1062D02*
X1699D01*
G01D02*
X1735D01*
G01X1599D02*
X1635D01*
G01X1599D02*
X1635Y1090D01*
G01X1695Y2033D02*
Y2060D01*
G01X1659Y2033D02*
X1695D01*
G01D02*
X1731D01*
G01X1739Y2219D02*
Y2268D01*
G01X1690D02*
X1739D01*
G01D02*
X1788D01*
G01X1974Y935D02*
Y962D01*
G01D02*
X2010D01*
G01X1974D02*
X2010Y990D01*
G01X2224Y1599D02*
Y1626D01*
G01X2188Y1599D02*
X2224D01*
G01D02*
X2260D01*
G01X2214Y1876D02*
Y1912D01*
G01D02*
Y1948D01*
G01Y1912D02*
X2241D01*
G01X2230Y2458D02*
X2279D01*
G01X2379Y126D02*
Y168D01*
G01D02*
Y210D01*
G01X2337Y168D02*
X2379D01*
G01D02*
X2421D01*
G01X2574Y618D02*
X2594Y638D01*
G01X2574Y658D02*
X2594Y638D01*
G01X2417Y681D02*
Y718D01*
G01X2292Y1043D02*
Y1107D01*
G01X2417Y718D02*
Y755D01*
G01X2378Y718D02*
X2417D01*
G01D02*
X2456D01*
G01X2292Y1107D02*
Y1171D01*
G01X2258Y1107D02*
X2292D01*
G01D02*
X2326D01*
G01X2499Y1626D02*
Y1668D01*
G01D02*
Y1710D01*
G01X2457Y1668D02*
X2499D01*
G01D02*
X2541D01*
G01X2279Y2458D02*
Y2507D01*
G01Y2458D02*
X2328D01*
G01X2594Y638D02*
X2614Y658D01*
G01X2656Y569D02*
Y608D01*
G01D02*
Y647D01*
G01X2629Y569D02*
X2656Y608D01*
G01X2649Y1599D02*
Y1626D01*
G01X2613Y1599D02*
X2649D01*
G01D02*
X2685D01*
G01X2649Y1859D02*
Y1908D01*
G01D02*
Y1957D01*
G01Y1908D02*
X2698D01*
G01X3252Y322D02*
Y353D01*
G01X3114Y581D02*
Y617D01*
G01D02*
Y653D01*
G01X3087Y617D02*
X3114D01*
G01X3252Y353D02*
Y384D01*
G01X3196Y353D02*
X3252D01*
G01D02*
X3309D01*
G01X2989Y1539D02*
Y1578D01*
G01D02*
Y1617D01*
G01X2950Y1578D02*
X2989D01*
G01D02*
X3028D01*
G01X3279Y1448D02*
X3309Y1478D01*
G01X3279Y1508D02*
X3309Y1478D01*
G01X3534Y608D02*
X3554Y628D01*
G01D02*
X3574Y648D01*
G01X3534D02*
X3554Y628D01*
G01D02*
X3574Y608D01*
G01X3601Y628D02*
Y667D01*
G01X3574D02*
X3601Y628D01*
G01D02*
X3614Y667D01*
G01X3309Y1478D02*
X3339Y1508D01*
G01X4001Y378D02*
X4057D01*
G01X3789Y1636D02*
Y1663D01*
G01D02*
Y1690D01*
G01X3762Y1663D02*
X3789D01*
G01D02*
X3816D01*
G01X4158Y479D02*
Y506D01*
G01X4122Y479D02*
X4158D01*
G01D02*
X4194D01*
G01X4057Y347D02*
Y378D01*
G01D02*
Y409D01*
G01Y378D02*
X4114D01*
G01X4141Y1598D02*
X4168D01*
G01X4141Y1562D02*
X4168Y1598D01*
G01D02*
X4196Y1634D01*
G01X4149Y1415D02*
Y1471D01*
G01D02*
X4180D01*
G01X4149D02*
X4180Y1528D01*
G01X4149Y2410D02*
Y2466D01*
G01X4118D02*
X4149D01*
G01D02*
X4180D01*
G01X4187Y2554D02*
Y2590D01*
G01D02*
Y2626D01*
G01X4160Y2590D02*
X4187D01*
G54D47*
X2161Y718D03*
X2417D03*
G54D29*
X599Y108D03*
Y208D03*
X865Y2028D03*
G54D38*
X1179Y168D03*
X1079D03*
X979D03*
X1479D03*
X1379D03*
X1279D03*
X1879D03*
X1779D03*
X1679D03*
X1579D03*
X2179D03*
X2079D03*
X1979D03*
X2379D03*
X2279D03*
X2499Y1468D03*
Y1568D03*
Y1668D03*
X2399Y1468D03*
Y1568D03*
G54D57*
G01X-1Y-2D02*
Y2998D01*
X4499D01*
Y-2D01*
X-1D01*
G01X365Y-1227D02*
Y-1187D01*
X388D01*
G01X379Y-1206D02*
X365D01*
G01X413Y-1227D02*
Y-1187D01*
X427D01*
X432Y-1189D01*
X435Y-1192D01*
X436Y-1197D01*
X435Y-1202D01*
X432Y-1206D01*
X427Y-1208D01*
X413D01*
G01X427D02*
X436Y-1227D01*
G01X484D02*
X461D01*
Y-1187D01*
X484D01*
G01X475Y-1206D02*
X461D01*
G01X532Y-1227D02*
X509D01*
Y-1187D01*
X532D01*
G01X523Y-1206D02*
X509D01*
G01X556Y-1222D02*
X561Y-1225D01*
X566Y-1227D01*
X571D01*
X576Y-1225D01*
X579Y-1222D01*
X581Y-1217D01*
X580Y-1212D01*
X577Y-1208D01*
X571Y-1206D01*
X564Y-1204D01*
X560Y-1202D01*
X559Y-1197D01*
X560Y-1192D01*
X563Y-1189D01*
X567Y-1187D01*
X571D01*
X575Y-1188D01*
X578Y-1192D01*
G01X629Y-1190D02*
X626Y-1188D01*
X622Y-1187D01*
X617D01*
X612Y-1189D01*
X608Y-1192D01*
X605Y-1196D01*
X602Y-1203D01*
X602Y-1209D01*
X603Y-1215D01*
X605Y-1219D01*
X608Y-1223D01*
X612Y-1226D01*
X616Y-1227D01*
X621D01*
X625Y-1226D01*
X628Y-1224D01*
X631Y-1221D01*
G01X650Y-1227D02*
X664Y-1187D01*
X679Y-1227D01*
G01X674Y-1213D02*
X655D01*
G01X701Y-1187D02*
Y-1227D01*
X724D01*
G01X772D02*
X749D01*
Y-1187D01*
X772D01*
G01X763Y-1206D02*
X749D01*
G01X808Y-1228D02*
X807Y-1228D01*
Y-1226D01*
X808Y-1226D01*
X810Y-1226D01*
Y-1228D01*
X808Y-1228D01*
G01X366Y-1147D02*
X362Y-1146D01*
X358Y-1144D01*
X354Y-1140D01*
X352Y-1135D01*
X351Y-1130D01*
Y-1124D01*
X352Y-1119D01*
X354Y-1114D01*
X358Y-1110D01*
X362Y-1108D01*
X366Y-1107D01*
X371Y-1108D01*
X375Y-1110D01*
X379Y-1114D01*
X381Y-1119D01*
X382Y-1124D01*
Y-1130D01*
X381Y-1135D01*
X379Y-1140D01*
X375Y-1144D01*
X371Y-1146D01*
X366Y-1147D01*
G01X403D02*
Y-1107D01*
X417D01*
X422Y-1109D01*
X425Y-1112D01*
X426Y-1117D01*
X425Y-1122D01*
X422Y-1126D01*
X417Y-1128D01*
X403D01*
G01X417D02*
X426Y-1147D01*
G01X504Y-1107D02*
X518D01*
G01X511D02*
Y-1147D01*
G01X504D02*
X518D01*
G01X545D02*
Y-1107D01*
X572Y-1147D01*
Y-1107D01*
G01X643Y-1147D02*
Y-1107D01*
X657D01*
X662Y-1109D01*
X665Y-1114D01*
X666Y-1119D01*
X665Y-1124D01*
X662Y-1128D01*
X657Y-1130D01*
X643D01*
G01X688Y-1147D02*
X702Y-1107D01*
X717Y-1147D01*
G01X712Y-1133D02*
X693D01*
G01X739Y-1147D02*
Y-1107D01*
X753D01*
X758Y-1109D01*
X761Y-1112D01*
X762Y-1117D01*
X761Y-1122D01*
X758Y-1126D01*
X753Y-1128D01*
X739D01*
G01X753D02*
X762Y-1147D01*
G01X798Y-1107D02*
Y-1147D01*
G01X785Y-1107D02*
X812D01*
G01X877D02*
X885Y-1147D01*
X895Y-1107D01*
X904Y-1147D01*
X912Y-1107D01*
G01X936D02*
X950D01*
G01X942D02*
Y-1147D01*
G01X936D02*
X950D01*
G01X990Y-1107D02*
Y-1147D01*
G01X977Y-1107D02*
X1004D01*
G01X1026Y-1147D02*
Y-1107D01*
G01X1051D02*
Y-1147D01*
G01Y-1127D02*
X1026D01*
G01X1086Y-1147D02*
X1082Y-1146D01*
X1078Y-1144D01*
X1074Y-1140D01*
X1072Y-1135D01*
X1071Y-1130D01*
Y-1124D01*
X1072Y-1119D01*
X1074Y-1114D01*
X1078Y-1110D01*
X1082Y-1108D01*
X1086Y-1107D01*
X1091Y-1108D01*
X1095Y-1110D01*
X1099Y-1114D01*
X1101Y-1119D01*
X1102Y-1124D01*
Y-1130D01*
X1101Y-1135D01*
X1099Y-1140D01*
X1095Y-1144D01*
X1091Y-1146D01*
X1086Y-1147D01*
G01X1122Y-1107D02*
Y-1136D01*
X1124Y-1142D01*
X1129Y-1146D01*
X1134Y-1147D01*
X1140Y-1146D01*
X1145Y-1142D01*
X1147Y-1136D01*
Y-1107D01*
G01X1182D02*
Y-1147D01*
G01X1169Y-1107D02*
X1196D01*
G01X1278D02*
Y-1147D01*
G01X1265Y-1107D02*
X1292D01*
G01X1314Y-1147D02*
Y-1107D01*
G01X1339D02*
Y-1147D01*
G01Y-1127D02*
X1314D01*
G01X1386Y-1147D02*
X1363D01*
Y-1107D01*
X1386D01*
G01X1377Y-1126D02*
X1363D01*
G01X1483Y-1110D02*
X1480Y-1108D01*
X1476Y-1107D01*
X1471D01*
X1466Y-1109D01*
X1462Y-1112D01*
X1459Y-1116D01*
X1457Y-1123D01*
X1456Y-1129D01*
X1457Y-1135D01*
X1459Y-1139D01*
X1462Y-1143D01*
X1466Y-1146D01*
X1471Y-1147D01*
X1475D01*
X1479Y-1146D01*
X1482Y-1144D01*
X1485Y-1141D01*
G01X1518Y-1147D02*
X1514Y-1146D01*
X1510Y-1144D01*
X1506Y-1140D01*
X1504Y-1135D01*
X1503Y-1130D01*
Y-1124D01*
X1504Y-1119D01*
X1506Y-1114D01*
X1510Y-1110D01*
X1514Y-1108D01*
X1518Y-1107D01*
X1523Y-1108D01*
X1527Y-1110D01*
X1531Y-1114D01*
X1533Y-1119D01*
X1534Y-1124D01*
Y-1130D01*
X1533Y-1135D01*
X1531Y-1140D01*
X1527Y-1144D01*
X1523Y-1146D01*
X1518Y-1147D01*
G01X1553D02*
Y-1107D01*
X1580Y-1147D01*
Y-1107D01*
G01X1602Y-1142D02*
X1607Y-1145D01*
X1612Y-1147D01*
X1617D01*
X1622Y-1145D01*
X1625Y-1142D01*
X1627Y-1137D01*
X1626Y-1132D01*
X1623Y-1128D01*
X1617Y-1126D01*
X1610Y-1124D01*
X1606Y-1122D01*
X1605Y-1117D01*
X1606Y-1112D01*
X1609Y-1109D01*
X1613Y-1107D01*
X1617D01*
X1621Y-1108D01*
X1624Y-1112D01*
G01X1674Y-1147D02*
X1651D01*
Y-1107D01*
X1674D01*
G01X1665Y-1126D02*
X1651D01*
G01X1697Y-1147D02*
Y-1107D01*
X1724Y-1147D01*
Y-1107D01*
G01X1758D02*
Y-1147D01*
G01X1745Y-1107D02*
X1772D01*
G01X1854Y-1147D02*
X1850Y-1146D01*
X1846Y-1144D01*
X1842Y-1140D01*
X1840Y-1135D01*
X1839Y-1130D01*
Y-1124D01*
X1840Y-1119D01*
X1842Y-1114D01*
X1846Y-1110D01*
X1850Y-1108D01*
X1854Y-1107D01*
X1859Y-1108D01*
X1863Y-1110D01*
X1867Y-1114D01*
X1869Y-1119D01*
X1870Y-1124D01*
Y-1130D01*
X1869Y-1135D01*
X1867Y-1140D01*
X1863Y-1144D01*
X1859Y-1146D01*
X1854Y-1147D01*
G01X1891D02*
Y-1107D01*
X1914D01*
G01X1905Y-1126D02*
X1891D01*
G01X284Y-1332D02*
X289Y-1335D01*
X294Y-1337D01*
X299D01*
X304Y-1335D01*
X307Y-1332D01*
X309Y-1327D01*
X308Y-1322D01*
X305Y-1318D01*
X299Y-1316D01*
X292Y-1314D01*
X288Y-1312D01*
X287Y-1307D01*
X288Y-1302D01*
X291Y-1299D01*
X295Y-1297D01*
X299D01*
X303Y-1298D01*
X306Y-1302D01*
G01X332Y-1337D02*
Y-1297D01*
G01X357D02*
Y-1337D01*
G01Y-1317D02*
X332D01*
G01X404Y-1337D02*
X381D01*
Y-1297D01*
X404D01*
G01X395Y-1316D02*
X381D01*
G01X452Y-1337D02*
X429D01*
Y-1297D01*
X452D01*
G01X443Y-1316D02*
X429D01*
G01X488Y-1297D02*
Y-1337D01*
G01X475Y-1297D02*
X502D01*
G01X282Y-727D02*
X296Y-687D01*
X311Y-727D01*
G01X306Y-713D02*
X287D01*
G01X332Y-687D02*
Y-716D01*
X334Y-722D01*
X339Y-726D01*
X344Y-727D01*
X350Y-726D01*
X355Y-722D01*
X357Y-716D01*
Y-687D01*
G01X380Y-722D02*
X385Y-725D01*
X390Y-727D01*
X395D01*
X400Y-725D01*
X403Y-722D01*
X405Y-717D01*
X404Y-712D01*
X401Y-708D01*
X395Y-706D01*
X388Y-704D01*
X384Y-702D01*
X383Y-697D01*
X384Y-692D01*
X387Y-689D01*
X391Y-687D01*
X395D01*
X399Y-688D01*
X402Y-692D01*
G01X440Y-687D02*
Y-727D01*
G01X427Y-687D02*
X454D01*
G01X482D02*
X496D01*
G01X488D02*
Y-727D01*
G01X482D02*
X496D01*
G01X523D02*
Y-687D01*
X550Y-727D01*
Y-687D01*
G01X584Y-728D02*
X583Y-728D01*
Y-726D01*
X584Y-726D01*
X586Y-726D01*
Y-728D01*
X584Y-728D01*
G01X680Y-687D02*
Y-727D01*
G01X667Y-687D02*
X694D01*
G01X740Y-727D02*
X717D01*
Y-687D01*
X740D01*
G01X731Y-706D02*
X717D01*
G01X764Y-727D02*
X789Y-687D01*
G01X764D02*
X789Y-727D01*
G01X810D02*
X824Y-687D01*
X839Y-727D01*
G01X834Y-713D02*
X815D01*
G01X860Y-722D02*
X865Y-725D01*
X870Y-727D01*
X875D01*
X880Y-725D01*
X883Y-722D01*
X885Y-717D01*
X884Y-712D01*
X881Y-708D01*
X875Y-706D01*
X868Y-704D01*
X864Y-702D01*
X863Y-697D01*
X864Y-692D01*
X867Y-689D01*
X871Y-687D01*
X875D01*
X879Y-688D01*
X882Y-692D01*
G01X967Y-727D02*
X968Y-718D01*
X970Y-711D01*
X973Y-704D01*
X976Y-697D01*
X980Y-687D01*
X957D01*
G01X1016Y-727D02*
X1021Y-726D01*
X1025Y-724D01*
X1028Y-721D01*
X1029Y-716D01*
X1028Y-712D01*
X1025Y-708D01*
X1019Y-706D01*
X1014D01*
X1010Y-704D01*
X1007Y-701D01*
X1006Y-696D01*
X1008Y-692D01*
X1012Y-688D01*
X1016Y-687D01*
X1021Y-688D01*
X1025Y-692D01*
X1027Y-696D01*
X1026Y-701D01*
X1023Y-704D01*
X1019Y-706D01*
X1014D01*
X1008Y-708D01*
X1005Y-712D01*
X1004Y-716D01*
X1005Y-721D01*
X1008Y-724D01*
X1012Y-726D01*
X1016Y-727D01*
G01X1063D02*
X1064Y-718D01*
X1066Y-711D01*
X1069Y-704D01*
X1072Y-697D01*
X1076Y-687D01*
X1053D01*
G01X1100Y-719D02*
X1103Y-724D01*
X1108Y-726D01*
X1113Y-727D01*
X1118Y-726D01*
X1122Y-723D01*
X1125Y-719D01*
X1126Y-715D01*
X1125Y-710D01*
X1121Y-707D01*
X1117Y-706D01*
X1111D01*
G01X1117D02*
X1120Y-704D01*
X1123Y-700D01*
X1124Y-696D01*
X1123Y-692D01*
X1120Y-689D01*
X1115Y-687D01*
X1110Y-688D01*
X1104Y-690D01*
G01X1148Y-721D02*
X1151Y-724D01*
X1155Y-726D01*
X1160Y-727D01*
X1166Y-726D01*
X1170Y-723D01*
X1173Y-718D01*
X1173Y-713D01*
X1172Y-708D01*
X1169Y-704D01*
X1165Y-702D01*
X1161Y-701D01*
X1157Y-702D01*
X1152Y-704D01*
X1154Y-687D01*
X1169D01*
G01X1244D02*
Y-716D01*
X1246Y-722D01*
X1251Y-726D01*
X1256Y-727D01*
X1262Y-726D01*
X1267Y-722D01*
X1269Y-716D01*
Y-687D01*
G01X1292Y-722D02*
X1297Y-725D01*
X1302Y-727D01*
X1307D01*
X1312Y-725D01*
X1315Y-722D01*
X1317Y-717D01*
X1316Y-712D01*
X1313Y-708D01*
X1307Y-706D01*
X1300Y-704D01*
X1296Y-702D01*
X1295Y-697D01*
X1296Y-692D01*
X1299Y-689D01*
X1303Y-687D01*
X1307D01*
X1311Y-688D01*
X1314Y-692D01*
G01X1338Y-727D02*
X1352Y-687D01*
X1367Y-727D01*
G01X1362Y-713D02*
X1343D01*
G01X355Y-1067D02*
Y-1027D01*
X369D01*
X374Y-1029D01*
X377Y-1034D01*
X378Y-1039D01*
X377Y-1044D01*
X374Y-1048D01*
X369Y-1050D01*
X355D01*
G01X403Y-1067D02*
Y-1027D01*
X417D01*
X422Y-1029D01*
X425Y-1032D01*
X426Y-1037D01*
X425Y-1042D01*
X422Y-1046D01*
X417Y-1048D01*
X403D01*
G01X417D02*
X426Y-1067D01*
G01X462D02*
X458Y-1066D01*
X454Y-1064D01*
X450Y-1060D01*
X448Y-1055D01*
X447Y-1050D01*
Y-1044D01*
X448Y-1039D01*
X450Y-1034D01*
X454Y-1030D01*
X458Y-1028D01*
X462Y-1027D01*
X467Y-1028D01*
X471Y-1030D01*
X475Y-1034D01*
X477Y-1039D01*
X478Y-1044D01*
Y-1050D01*
X477Y-1055D01*
X475Y-1060D01*
X471Y-1064D01*
X467Y-1066D01*
X462Y-1067D01*
G01X523Y-1030D02*
X520Y-1028D01*
X516Y-1027D01*
X511D01*
X506Y-1029D01*
X502Y-1032D01*
X499Y-1036D01*
X496Y-1043D01*
X496Y-1049D01*
X497Y-1055D01*
X499Y-1059D01*
X502Y-1063D01*
X506Y-1066D01*
X511Y-1067D01*
X515D01*
X519Y-1066D01*
X522Y-1064D01*
X525Y-1061D01*
G01X546Y-1027D02*
Y-1056D01*
X548Y-1062D01*
X553Y-1066D01*
X558Y-1067D01*
X564Y-1066D01*
X569Y-1062D01*
X571Y-1056D01*
Y-1027D01*
G01X595Y-1067D02*
Y-1027D01*
X609D01*
X614Y-1029D01*
X617Y-1032D01*
X618Y-1037D01*
X617Y-1042D01*
X614Y-1046D01*
X609Y-1048D01*
X595D01*
G01X609D02*
X618Y-1067D01*
G01X666D02*
X643D01*
Y-1027D01*
X666D01*
G01X657Y-1046D02*
X643D01*
G01X687Y-1067D02*
Y-1027D01*
X702Y-1060D01*
X718Y-1027D01*
Y-1067D01*
G01X762D02*
X739D01*
Y-1027D01*
X762D01*
G01X753Y-1046D02*
X739D01*
G01X785Y-1067D02*
Y-1027D01*
X812Y-1067D01*
Y-1027D01*
G01X846D02*
Y-1067D01*
G01X833Y-1027D02*
X860D01*
G01X942Y-1067D02*
X938Y-1066D01*
X934Y-1064D01*
X930Y-1060D01*
X928Y-1055D01*
X927Y-1050D01*
Y-1044D01*
X928Y-1039D01*
X930Y-1034D01*
X934Y-1030D01*
X938Y-1028D01*
X942Y-1027D01*
X947Y-1028D01*
X951Y-1030D01*
X955Y-1034D01*
X957Y-1039D01*
X958Y-1044D01*
Y-1050D01*
X957Y-1055D01*
X955Y-1060D01*
X951Y-1064D01*
X947Y-1066D01*
X942Y-1067D01*
G01X979D02*
Y-1027D01*
X993D01*
X998Y-1029D01*
X1001Y-1032D01*
X1002Y-1037D01*
X1001Y-1042D01*
X998Y-1046D01*
X993Y-1048D01*
X979D01*
G01X993D02*
X1002Y-1067D01*
G01X1071D02*
Y-1027D01*
X1086Y-1060D01*
X1102Y-1027D01*
Y-1067D01*
G01X1120D02*
X1134Y-1027D01*
X1149Y-1067D01*
G01X1144Y-1053D02*
X1125D01*
G01X1169Y-1067D02*
Y-1027D01*
X1196Y-1067D01*
Y-1027D01*
G01X1218D02*
Y-1056D01*
X1220Y-1062D01*
X1225Y-1066D01*
X1230Y-1067D01*
X1236Y-1066D01*
X1241Y-1062D01*
X1243Y-1056D01*
Y-1027D01*
G01X1267Y-1067D02*
Y-1027D01*
X1290D01*
G01X1281Y-1046D02*
X1267D01*
G01X1312Y-1067D02*
X1326Y-1027D01*
X1341Y-1067D01*
G01X1336Y-1053D02*
X1317D01*
G01X1387Y-1030D02*
X1384Y-1028D01*
X1380Y-1027D01*
X1375D01*
X1370Y-1029D01*
X1366Y-1032D01*
X1363Y-1036D01*
X1360Y-1043D01*
X1360Y-1049D01*
X1361Y-1055D01*
X1363Y-1059D01*
X1366Y-1063D01*
X1370Y-1066D01*
X1374Y-1067D01*
X1379D01*
X1383Y-1066D01*
X1386Y-1064D01*
X1389Y-1061D01*
G01X1422Y-1027D02*
Y-1067D01*
G01X1409Y-1027D02*
X1436D01*
G01X1458D02*
Y-1056D01*
X1460Y-1062D01*
X1465Y-1066D01*
X1471Y-1067D01*
X1476Y-1066D01*
X1481Y-1062D01*
X1483Y-1056D01*
Y-1027D01*
G01X1507Y-1067D02*
Y-1027D01*
X1521D01*
X1526Y-1029D01*
X1529Y-1032D01*
X1530Y-1037D01*
X1529Y-1042D01*
X1526Y-1046D01*
X1521Y-1048D01*
X1507D01*
G01X1521D02*
X1530Y-1067D01*
G01X1578D02*
X1555D01*
Y-1027D01*
X1578D01*
G01X1569Y-1046D02*
X1555D01*
G01X1656Y-1027D02*
X1670D01*
G01X1662D02*
Y-1067D01*
G01X1656D02*
X1670D01*
G01X1697D02*
Y-1027D01*
X1724Y-1067D01*
Y-1027D01*
G01X1789D02*
X1797Y-1067D01*
X1806Y-1027D01*
X1816Y-1067D01*
X1824Y-1027D01*
G01X1842Y-1067D02*
Y-1027D01*
G01X1867D02*
Y-1067D01*
G01Y-1047D02*
X1842D01*
G01X1902Y-1067D02*
X1898Y-1066D01*
X1894Y-1064D01*
X1890Y-1060D01*
X1888Y-1055D01*
X1887Y-1050D01*
Y-1044D01*
X1888Y-1039D01*
X1890Y-1034D01*
X1894Y-1030D01*
X1898Y-1028D01*
X1902Y-1027D01*
X1907Y-1028D01*
X1911Y-1030D01*
X1915Y-1034D01*
X1917Y-1039D01*
X1918Y-1044D01*
Y-1050D01*
X1917Y-1055D01*
X1915Y-1060D01*
X1911Y-1064D01*
X1907Y-1066D01*
X1902Y-1067D01*
G01X1939Y-1027D02*
Y-1067D01*
X1962D01*
G01X2010D02*
X1987D01*
Y-1027D01*
X2010D01*
G01X2001Y-1046D02*
X1987D01*
G01X353Y-987D02*
Y-947D01*
X380Y-987D01*
Y-947D01*
G01X415Y-987D02*
X410Y-986D01*
X406Y-984D01*
X402Y-980D01*
X400Y-975D01*
X399Y-970D01*
Y-964D01*
X400Y-959D01*
X402Y-954D01*
X406Y-950D01*
X410Y-948D01*
X415Y-947D01*
X419Y-948D01*
X423Y-950D01*
X427Y-954D01*
X429Y-959D01*
X430Y-964D01*
Y-970D01*
X429Y-975D01*
X427Y-980D01*
X423Y-984D01*
X419Y-986D01*
X415Y-987D01*
G01X462Y-947D02*
Y-987D01*
G01X449Y-947D02*
X476D01*
G01X563Y-966D02*
X566Y-964D01*
X567Y-960D01*
X568Y-956D01*
X567Y-952D01*
X565Y-949D01*
X561Y-947D01*
X545D01*
Y-987D01*
X564D01*
X568Y-984D01*
X571Y-980D01*
X572Y-976D01*
X571Y-971D01*
X567Y-967D01*
X563Y-966D01*
X545D01*
G01X618Y-987D02*
X595D01*
Y-947D01*
X618D01*
G01X609Y-966D02*
X595D01*
G01X690Y-947D02*
Y-976D01*
X692Y-982D01*
X697Y-986D01*
X702Y-987D01*
X708Y-986D01*
X713Y-982D01*
X715Y-976D01*
Y-947D01*
G01X738Y-982D02*
X743Y-985D01*
X748Y-987D01*
X753D01*
X758Y-985D01*
X761Y-982D01*
X763Y-977D01*
X762Y-972D01*
X759Y-968D01*
X753Y-966D01*
X746Y-964D01*
X742Y-962D01*
X741Y-957D01*
X742Y-952D01*
X745Y-949D01*
X749Y-947D01*
X753D01*
X757Y-948D01*
X760Y-952D01*
G01X810Y-987D02*
X787D01*
Y-947D01*
X810D01*
G01X801Y-966D02*
X787D01*
G01X834Y-987D02*
Y-947D01*
X845D01*
X850Y-949D01*
X854Y-952D01*
X856Y-956D01*
X859Y-960D01*
X859Y-967D01*
X859Y-974D01*
X856Y-978D01*
X854Y-982D01*
X850Y-985D01*
X845Y-987D01*
X834D01*
G01X931D02*
Y-947D01*
X954D01*
G01X945Y-966D02*
X931D01*
G01X990Y-987D02*
X986Y-986D01*
X982Y-984D01*
X978Y-980D01*
X976Y-975D01*
X975Y-970D01*
Y-964D01*
X976Y-959D01*
X978Y-954D01*
X982Y-950D01*
X986Y-948D01*
X990Y-947D01*
X995Y-948D01*
X999Y-950D01*
X1003Y-954D01*
X1005Y-959D01*
X1006Y-964D01*
Y-970D01*
X1005Y-975D01*
X1003Y-980D01*
X999Y-984D01*
X995Y-986D01*
X990Y-987D01*
G01X1027D02*
Y-947D01*
X1041D01*
X1046Y-949D01*
X1049Y-952D01*
X1050Y-957D01*
X1049Y-962D01*
X1046Y-966D01*
X1041Y-968D01*
X1027D01*
G01X1041D02*
X1050Y-987D01*
G01X1146D02*
X1123D01*
Y-947D01*
X1146D01*
G01X1137Y-966D02*
X1123D01*
G01X1169Y-987D02*
Y-947D01*
X1196Y-987D01*
Y-947D01*
G01X1234Y-967D02*
X1246D01*
Y-979D01*
X1242Y-983D01*
X1238Y-986D01*
X1232Y-987D01*
X1226Y-986D01*
X1222Y-983D01*
X1219Y-979D01*
X1216Y-974D01*
X1215Y-969D01*
Y-964D01*
X1216Y-960D01*
X1219Y-956D01*
X1222Y-952D01*
X1226Y-949D01*
X1230Y-947D01*
X1235D01*
X1239Y-948D01*
X1243Y-951D01*
G01X1272Y-947D02*
X1286D01*
G01X1278D02*
Y-987D01*
G01X1272D02*
X1286D01*
G01X1313D02*
Y-947D01*
X1340Y-987D01*
Y-947D01*
G01X1386Y-987D02*
X1363D01*
Y-947D01*
X1386D01*
G01X1377Y-966D02*
X1363D01*
G01X1434Y-987D02*
X1411D01*
Y-947D01*
X1434D01*
G01X1425Y-966D02*
X1411D01*
G01X1459Y-987D02*
Y-947D01*
X1473D01*
X1478Y-949D01*
X1481Y-952D01*
X1482Y-957D01*
X1481Y-962D01*
X1478Y-966D01*
X1473Y-968D01*
X1459D01*
G01X1473D02*
X1482Y-987D01*
G01X1512Y-947D02*
X1526D01*
G01X1518D02*
Y-987D01*
G01X1512D02*
X1526D01*
G01X1553D02*
Y-947D01*
X1580Y-987D01*
Y-947D01*
G01X1618Y-967D02*
X1630D01*
Y-979D01*
X1626Y-983D01*
X1622Y-986D01*
X1616Y-987D01*
X1610Y-986D01*
X1606Y-983D01*
X1603Y-979D01*
X1600Y-974D01*
X1599Y-969D01*
Y-964D01*
X1600Y-960D01*
X1603Y-956D01*
X1606Y-952D01*
X1610Y-949D01*
X1614Y-947D01*
X1619D01*
X1623Y-948D01*
X1627Y-951D01*
G01X1698Y-987D02*
Y-947D01*
X1709D01*
X1714Y-949D01*
X1718Y-952D01*
X1720Y-956D01*
X1723Y-960D01*
X1723Y-967D01*
X1723Y-974D01*
X1720Y-978D01*
X1718Y-982D01*
X1714Y-985D01*
X1709Y-987D01*
X1698D01*
G01X1770D02*
X1747D01*
Y-947D01*
X1770D01*
G01X1761Y-966D02*
X1747D01*
G01X1794Y-982D02*
X1799Y-985D01*
X1804Y-987D01*
X1809D01*
X1814Y-985D01*
X1817Y-982D01*
X1819Y-977D01*
X1818Y-972D01*
X1815Y-968D01*
X1809Y-966D01*
X1802Y-964D01*
X1798Y-962D01*
X1797Y-957D01*
X1798Y-952D01*
X1801Y-949D01*
X1805Y-947D01*
X1809D01*
X1813Y-948D01*
X1816Y-952D01*
G01X1848Y-947D02*
X1862D01*
G01X1854D02*
Y-987D01*
G01X1848D02*
X1862D01*
G01X1906Y-967D02*
X1918D01*
Y-979D01*
X1914Y-983D01*
X1910Y-986D01*
X1904Y-987D01*
X1898Y-986D01*
X1894Y-983D01*
X1891Y-979D01*
X1888Y-974D01*
X1887Y-969D01*
Y-964D01*
X1888Y-960D01*
X1891Y-956D01*
X1894Y-952D01*
X1898Y-949D01*
X1902Y-947D01*
X1907D01*
X1911Y-948D01*
X1915Y-951D01*
G01X1937Y-987D02*
Y-947D01*
X1964Y-987D01*
Y-947D01*
G01X355Y-907D02*
Y-867D01*
X369D01*
X374Y-869D01*
X377Y-874D01*
X378Y-879D01*
X377Y-884D01*
X374Y-888D01*
X369Y-890D01*
X355D01*
G01X403Y-907D02*
Y-867D01*
X417D01*
X422Y-869D01*
X425Y-872D01*
X426Y-877D01*
X425Y-882D01*
X422Y-886D01*
X417Y-888D01*
X403D01*
G01X417D02*
X426Y-907D01*
G01X462D02*
X458Y-906D01*
X454Y-904D01*
X450Y-900D01*
X448Y-895D01*
X447Y-890D01*
Y-884D01*
X448Y-879D01*
X450Y-874D01*
X454Y-870D01*
X458Y-868D01*
X462Y-867D01*
X467Y-868D01*
X471Y-870D01*
X475Y-874D01*
X477Y-879D01*
X478Y-884D01*
Y-890D01*
X477Y-895D01*
X475Y-900D01*
X471Y-904D01*
X467Y-906D01*
X462Y-907D01*
G01X499D02*
Y-867D01*
X513D01*
X518Y-869D01*
X521Y-874D01*
X522Y-879D01*
X521Y-884D01*
X518Y-888D01*
X513Y-890D01*
X499D01*
G01X547Y-907D02*
Y-867D01*
X561D01*
X566Y-869D01*
X569Y-872D01*
X570Y-877D01*
X569Y-882D01*
X566Y-886D01*
X561Y-888D01*
X547D01*
G01X561D02*
X570Y-907D01*
G01X600Y-867D02*
X614D01*
G01X606D02*
Y-907D01*
G01X600D02*
X614D01*
G01X666D02*
X643D01*
Y-867D01*
X666D01*
G01X657Y-886D02*
X643D01*
G01X702Y-867D02*
Y-907D01*
G01X689Y-867D02*
X716D01*
G01X736Y-907D02*
X750Y-867D01*
X765Y-907D01*
G01X760Y-893D02*
X741D01*
G01X787Y-907D02*
Y-867D01*
X801D01*
X806Y-869D01*
X809Y-872D01*
X810Y-877D01*
X809Y-882D01*
X806Y-886D01*
X801Y-888D01*
X787D01*
G01X801D02*
X810Y-907D01*
G01X846D02*
Y-889D01*
X835Y-867D01*
G01X858D02*
X846Y-889D01*
G01X942Y-867D02*
Y-907D01*
G01X929Y-867D02*
X956D01*
G01X990Y-907D02*
X986Y-906D01*
X982Y-904D01*
X978Y-900D01*
X976Y-895D01*
X975Y-890D01*
Y-884D01*
X976Y-879D01*
X978Y-874D01*
X982Y-870D01*
X986Y-868D01*
X990Y-867D01*
X995Y-868D01*
X999Y-870D01*
X1003Y-874D01*
X1005Y-879D01*
X1006Y-884D01*
Y-890D01*
X1005Y-895D01*
X1003Y-900D01*
X999Y-904D01*
X995Y-906D01*
X990Y-907D01*
G01X1075D02*
Y-867D01*
X1098D01*
G01X1089Y-886D02*
X1075D01*
G01X1123Y-907D02*
Y-867D01*
X1137D01*
X1142Y-869D01*
X1145Y-872D01*
X1146Y-877D01*
X1145Y-882D01*
X1142Y-886D01*
X1137Y-888D01*
X1123D01*
G01X1137D02*
X1146Y-907D01*
G01X1194D02*
X1171D01*
Y-867D01*
X1194D01*
G01X1185Y-886D02*
X1171D01*
G01X1242Y-907D02*
X1219D01*
Y-867D01*
X1242D01*
G01X1233Y-886D02*
X1219D01*
G01X1266Y-902D02*
X1271Y-905D01*
X1276Y-907D01*
X1281D01*
X1286Y-905D01*
X1289Y-902D01*
X1291Y-897D01*
X1290Y-892D01*
X1287Y-888D01*
X1281Y-886D01*
X1274Y-884D01*
X1270Y-882D01*
X1269Y-877D01*
X1270Y-872D01*
X1273Y-869D01*
X1277Y-867D01*
X1281D01*
X1285Y-868D01*
X1288Y-872D01*
G01X1339Y-870D02*
X1336Y-868D01*
X1332Y-867D01*
X1327D01*
X1322Y-869D01*
X1318Y-872D01*
X1315Y-876D01*
X1312Y-883D01*
X1312Y-889D01*
X1313Y-895D01*
X1315Y-899D01*
X1318Y-903D01*
X1322Y-906D01*
X1326Y-907D01*
X1331D01*
X1335Y-906D01*
X1338Y-904D01*
X1341Y-901D01*
G01X1360Y-907D02*
X1374Y-867D01*
X1389Y-907D01*
G01X1384Y-893D02*
X1365D01*
G01X1411Y-867D02*
Y-907D01*
X1434D01*
G01X1482D02*
X1459D01*
Y-867D01*
X1482D01*
G01X1473Y-886D02*
X1459D01*
G01X1552Y-907D02*
X1566Y-867D01*
X1581Y-907D01*
G01X1576Y-893D02*
X1557D01*
G01X1601Y-907D02*
Y-867D01*
X1628Y-907D01*
Y-867D01*
G01X1650Y-907D02*
Y-867D01*
X1661D01*
X1666Y-869D01*
X1670Y-872D01*
X1672Y-876D01*
X1675Y-880D01*
X1675Y-887D01*
X1675Y-894D01*
X1672Y-898D01*
X1670Y-902D01*
X1666Y-905D01*
X1661Y-907D01*
X1650D01*
G01X1746Y-902D02*
X1751Y-905D01*
X1756Y-907D01*
X1761D01*
X1766Y-905D01*
X1769Y-902D01*
X1771Y-897D01*
X1770Y-892D01*
X1767Y-888D01*
X1761Y-886D01*
X1754Y-884D01*
X1750Y-882D01*
X1749Y-877D01*
X1750Y-872D01*
X1753Y-869D01*
X1757Y-867D01*
X1761D01*
X1765Y-868D01*
X1768Y-872D01*
G01X1794Y-907D02*
Y-867D01*
G01X1819D02*
Y-907D01*
G01Y-887D02*
X1794D01*
G01X1840Y-907D02*
X1854Y-867D01*
X1869Y-907D01*
G01X1864Y-893D02*
X1845D01*
G01X1891Y-867D02*
Y-907D01*
X1914D01*
G01X1939Y-867D02*
Y-907D01*
X1962D01*
G01X356Y-787D02*
Y-827D01*
G01X343Y-787D02*
X370D01*
G01X392Y-827D02*
Y-787D01*
G01X417D02*
Y-827D01*
G01Y-807D02*
X392D01*
G01X446Y-787D02*
X460D01*
G01X452D02*
Y-827D01*
G01X446D02*
X460D01*
G01X488Y-822D02*
X493Y-825D01*
X498Y-827D01*
X503D01*
X508Y-825D01*
X511Y-822D01*
X513Y-817D01*
X512Y-812D01*
X509Y-808D01*
X503Y-806D01*
X496Y-804D01*
X492Y-802D01*
X491Y-797D01*
X492Y-792D01*
X495Y-789D01*
X499Y-787D01*
X503D01*
X507Y-788D01*
X510Y-792D01*
G01X584Y-827D02*
Y-787D01*
X595D01*
X600Y-789D01*
X604Y-792D01*
X606Y-796D01*
X609Y-800D01*
X609Y-807D01*
X609Y-814D01*
X606Y-818D01*
X604Y-822D01*
X600Y-825D01*
X595Y-827D01*
X584D01*
G01X644D02*
X640Y-826D01*
X636Y-824D01*
X632Y-820D01*
X630Y-815D01*
X629Y-810D01*
Y-804D01*
X630Y-799D01*
X632Y-794D01*
X636Y-790D01*
X640Y-788D01*
X644Y-787D01*
X649Y-788D01*
X653Y-790D01*
X657Y-794D01*
X659Y-799D01*
X660Y-804D01*
Y-810D01*
X659Y-815D01*
X657Y-820D01*
X653Y-824D01*
X649Y-826D01*
X644Y-827D01*
G01X705Y-790D02*
X702Y-788D01*
X698Y-787D01*
X693D01*
X688Y-789D01*
X684Y-792D01*
X681Y-796D01*
X678Y-803D01*
X678Y-809D01*
X679Y-815D01*
X681Y-819D01*
X684Y-823D01*
X688Y-826D01*
X692Y-827D01*
X697D01*
X701Y-826D01*
X704Y-824D01*
X707Y-821D01*
G01X728Y-787D02*
Y-816D01*
X730Y-822D01*
X735Y-826D01*
X740Y-827D01*
X746Y-826D01*
X751Y-822D01*
X753Y-816D01*
Y-787D01*
G01X773Y-827D02*
Y-787D01*
X788Y-820D01*
X804Y-787D01*
Y-827D01*
G01X848D02*
X825D01*
Y-787D01*
X848D01*
G01X839Y-806D02*
X825D01*
G01X871Y-827D02*
Y-787D01*
X898Y-827D01*
Y-787D01*
G01X932D02*
Y-827D01*
G01X919Y-787D02*
X946D01*
G01X1041Y-790D02*
X1038Y-788D01*
X1034Y-787D01*
X1029D01*
X1024Y-789D01*
X1020Y-792D01*
X1017Y-796D01*
X1014Y-803D01*
X1014Y-809D01*
X1015Y-815D01*
X1017Y-819D01*
X1020Y-823D01*
X1024Y-826D01*
X1028Y-827D01*
X1033D01*
X1037Y-826D01*
X1040Y-824D01*
X1043Y-821D01*
G01X1076Y-827D02*
X1072Y-826D01*
X1068Y-824D01*
X1064Y-820D01*
X1062Y-815D01*
X1061Y-810D01*
Y-804D01*
X1062Y-799D01*
X1064Y-794D01*
X1068Y-790D01*
X1072Y-788D01*
X1076Y-787D01*
X1081Y-788D01*
X1085Y-790D01*
X1089Y-794D01*
X1091Y-799D01*
X1092Y-804D01*
Y-810D01*
X1091Y-815D01*
X1089Y-820D01*
X1085Y-824D01*
X1081Y-826D01*
X1076Y-827D01*
G01X1111D02*
Y-787D01*
X1138Y-827D01*
Y-787D01*
G01X1172D02*
Y-827D01*
G01X1159Y-787D02*
X1186D01*
G01X1206Y-827D02*
X1220Y-787D01*
X1235Y-827D01*
G01X1230Y-813D02*
X1211D01*
G01X1262Y-787D02*
X1276D01*
G01X1268D02*
Y-827D01*
G01X1262D02*
X1276D01*
G01X1303D02*
Y-787D01*
X1330Y-827D01*
Y-787D01*
G01X1352Y-822D02*
X1357Y-825D01*
X1362Y-827D01*
X1367D01*
X1372Y-825D01*
X1375Y-822D01*
X1377Y-817D01*
X1376Y-812D01*
X1373Y-808D01*
X1367Y-806D01*
X1360Y-804D01*
X1356Y-802D01*
X1355Y-797D01*
X1356Y-792D01*
X1359Y-789D01*
X1363Y-787D01*
X1367D01*
X1371Y-788D01*
X1374Y-792D01*
G01X1454Y-787D02*
X1468D01*
G01X1461D02*
Y-827D01*
G01X1454D02*
X1468D01*
G01X1495D02*
Y-787D01*
X1522Y-827D01*
Y-787D01*
G01X1545Y-827D02*
Y-787D01*
X1568D01*
G01X1559Y-806D02*
X1545D01*
G01X1604Y-827D02*
X1600Y-826D01*
X1596Y-824D01*
X1592Y-820D01*
X1590Y-815D01*
X1589Y-810D01*
Y-804D01*
X1590Y-799D01*
X1592Y-794D01*
X1596Y-790D01*
X1600Y-788D01*
X1604Y-787D01*
X1609Y-788D01*
X1613Y-790D01*
X1617Y-794D01*
X1619Y-799D01*
X1620Y-804D01*
Y-810D01*
X1619Y-815D01*
X1617Y-820D01*
X1613Y-824D01*
X1609Y-826D01*
X1604Y-827D01*
G01X1641D02*
Y-787D01*
X1655D01*
X1660Y-789D01*
X1663Y-792D01*
X1664Y-797D01*
X1663Y-802D01*
X1660Y-806D01*
X1655Y-808D01*
X1641D01*
G01X1655D02*
X1664Y-827D01*
G01X1685D02*
Y-787D01*
X1701Y-820D01*
X1716Y-787D01*
Y-827D01*
G01X1734D02*
X1748Y-787D01*
X1763Y-827D01*
G01X1758Y-813D02*
X1739D01*
G01X1796Y-787D02*
Y-827D01*
G01X1783Y-787D02*
X1810D01*
G01X1838D02*
X1852D01*
G01X1844D02*
Y-827D01*
G01X1838D02*
X1852D01*
G01X1892D02*
X1888Y-826D01*
X1884Y-824D01*
X1880Y-820D01*
X1878Y-815D01*
X1877Y-810D01*
Y-804D01*
X1878Y-799D01*
X1880Y-794D01*
X1884Y-790D01*
X1888Y-788D01*
X1892Y-787D01*
X1897Y-788D01*
X1901Y-790D01*
X1905Y-794D01*
X1907Y-799D01*
X1908Y-804D01*
Y-810D01*
X1907Y-815D01*
X1905Y-820D01*
X1901Y-824D01*
X1897Y-826D01*
X1892Y-827D01*
G01X1927D02*
Y-787D01*
X1954Y-827D01*
Y-787D01*
G01X285Y-640D02*
X290Y-636D01*
X293Y-633D01*
X298Y-632D01*
X302Y-633D01*
X305Y-636D01*
X307Y-640D01*
X308Y-644D01*
X307Y-648D01*
X305Y-652D01*
X301Y-656D01*
X297Y-657D01*
X292Y-656D01*
X288Y-652D01*
X286Y-646D01*
X285Y-639D01*
X287Y-630D01*
X288Y-626D01*
X291Y-621D01*
X295Y-618D01*
X299Y-617D01*
X304Y-618D01*
X306Y-622D01*
G01X332Y-651D02*
X335Y-654D01*
X339Y-656D01*
X344Y-657D01*
X350Y-656D01*
X354Y-653D01*
X357Y-648D01*
X357Y-643D01*
X356Y-638D01*
X353Y-634D01*
X349Y-632D01*
X345Y-631D01*
X341Y-632D01*
X336Y-634D01*
X338Y-617D01*
X353D01*
G01X392D02*
X388Y-618D01*
X384Y-622D01*
X382Y-626D01*
X380Y-631D01*
X380Y-637D01*
X380Y-643D01*
X382Y-648D01*
X384Y-652D01*
X388Y-656D01*
X392Y-657D01*
X397Y-656D01*
X401Y-652D01*
X403Y-648D01*
X405Y-643D01*
X405Y-637D01*
X405Y-631D01*
X403Y-626D01*
X401Y-622D01*
X397Y-618D01*
X392Y-617D01*
G01X440Y-657D02*
Y-617D01*
X434Y-625D01*
G01Y-657D02*
X448D01*
G01X519Y-617D02*
X527Y-657D01*
X536Y-617D01*
X546Y-657D01*
X554Y-617D01*
G01X578D02*
X592D01*
G01X584D02*
Y-657D01*
G01X578D02*
X592D01*
G01X621Y-617D02*
Y-657D01*
X644D01*
G01X669Y-617D02*
Y-657D01*
X692D01*
G01X722Y-617D02*
X736D01*
G01X728D02*
Y-657D01*
G01X722D02*
X736D01*
G01X762D02*
X776Y-617D01*
X791Y-657D01*
G01X786Y-643D02*
X767D01*
G01X809Y-657D02*
Y-617D01*
X824Y-650D01*
X840Y-617D01*
Y-657D01*
G01X933Y-620D02*
X930Y-618D01*
X926Y-617D01*
X921D01*
X916Y-619D01*
X912Y-622D01*
X909Y-626D01*
X906Y-633D01*
X906Y-639D01*
X907Y-645D01*
X909Y-649D01*
X912Y-653D01*
X916Y-656D01*
X920Y-657D01*
X925D01*
X929Y-656D01*
X932Y-654D01*
X935Y-651D01*
G01X954Y-657D02*
X968Y-617D01*
X983Y-657D01*
G01X978Y-643D02*
X959D01*
G01X1003Y-657D02*
Y-617D01*
X1030Y-657D01*
Y-617D01*
G01X1051Y-657D02*
Y-617D01*
X1078Y-657D01*
Y-617D01*
G01X1112Y-657D02*
X1108Y-656D01*
X1104Y-654D01*
X1100Y-650D01*
X1098Y-645D01*
X1097Y-640D01*
Y-634D01*
X1098Y-629D01*
X1100Y-624D01*
X1104Y-620D01*
X1108Y-618D01*
X1112Y-617D01*
X1117Y-618D01*
X1121Y-620D01*
X1125Y-624D01*
X1127Y-629D01*
X1128Y-634D01*
Y-640D01*
X1127Y-645D01*
X1125Y-650D01*
X1121Y-654D01*
X1117Y-656D01*
X1112Y-657D01*
G01X1147D02*
Y-617D01*
X1174Y-657D01*
Y-617D01*
G01X1244Y-657D02*
Y-617D01*
X1255D01*
X1260Y-619D01*
X1264Y-622D01*
X1266Y-626D01*
X1269Y-630D01*
X1269Y-637D01*
X1269Y-644D01*
X1266Y-648D01*
X1264Y-652D01*
X1260Y-655D01*
X1255Y-657D01*
X1244D01*
G01X1293D02*
Y-617D01*
X1307D01*
X1312Y-619D01*
X1315Y-622D01*
X1316Y-627D01*
X1315Y-632D01*
X1312Y-636D01*
X1307Y-638D01*
X1293D01*
G01X1307D02*
X1316Y-657D01*
G01X1346Y-617D02*
X1360D01*
G01X1352D02*
Y-657D01*
G01X1346D02*
X1360D01*
G01X1386Y-617D02*
X1400Y-657D01*
X1415Y-617D01*
G01X1460Y-657D02*
X1437D01*
Y-617D01*
X1460D01*
G01X1451Y-636D02*
X1437D01*
G01X1527Y-617D02*
X1535Y-657D01*
X1544Y-617D01*
X1554Y-657D01*
X1562Y-617D01*
G01X1604Y-657D02*
X1581D01*
Y-617D01*
X1604D01*
G01X1595Y-636D02*
X1581D01*
G01X1628Y-652D02*
X1633Y-655D01*
X1638Y-657D01*
X1643D01*
X1648Y-655D01*
X1651Y-652D01*
X1653Y-647D01*
X1652Y-642D01*
X1649Y-638D01*
X1643Y-636D01*
X1636Y-634D01*
X1632Y-632D01*
X1631Y-627D01*
X1632Y-622D01*
X1635Y-619D01*
X1639Y-617D01*
X1643D01*
X1647Y-618D01*
X1650Y-622D01*
G01X1688Y-617D02*
Y-657D01*
G01X1675Y-617D02*
X1702D01*
G01X785Y-1337D02*
Y-1297D01*
X808D01*
G01X799Y-1316D02*
X785D01*
G01X838Y-1297D02*
X852D01*
G01X844D02*
Y-1337D01*
G01X838D02*
X852D01*
G01X881Y-1297D02*
Y-1337D01*
X904D01*
G01X925D02*
Y-1297D01*
X940Y-1330D01*
X956Y-1297D01*
Y-1337D01*
G01X2129Y-1195D02*
X2164D01*
G01X2177D02*
X2212D01*
G01X2225D02*
X2260D01*
G01X2327Y-1182D02*
Y-1142D01*
X2350D01*
G01X2341Y-1161D02*
X2327D01*
G01X2399Y-1145D02*
X2396Y-1143D01*
X2392Y-1142D01*
X2387D01*
X2382Y-1144D01*
X2378Y-1147D01*
X2375Y-1151D01*
X2372Y-1158D01*
X2372Y-1164D01*
X2373Y-1170D01*
X2375Y-1174D01*
X2378Y-1178D01*
X2382Y-1181D01*
X2386Y-1182D01*
X2391D01*
X2395Y-1181D01*
X2398Y-1179D01*
X2401Y-1176D01*
G01X2423Y-1182D02*
Y-1142D01*
X2437D01*
X2442Y-1144D01*
X2445Y-1149D01*
X2446Y-1154D01*
X2445Y-1159D01*
X2442Y-1163D01*
X2437Y-1165D01*
X2423D01*
G01X2528Y-1195D02*
X2522Y-1189D01*
X2519Y-1182D01*
Y-1155D01*
X2522Y-1149D01*
X2528Y-1142D01*
G01X2567Y-1182D02*
Y-1142D01*
X2590D01*
G01X2581Y-1161D02*
X2567D01*
G01X2615Y-1182D02*
Y-1142D01*
X2629D01*
X2634Y-1144D01*
X2637Y-1147D01*
X2638Y-1152D01*
X2637Y-1157D01*
X2634Y-1161D01*
X2629Y-1163D01*
X2615D01*
G01X2629D02*
X2638Y-1182D01*
G01X2686D02*
X2663D01*
Y-1142D01*
X2686D01*
G01X2677Y-1161D02*
X2663D01*
G01X2734Y-1182D02*
X2711D01*
Y-1142D01*
X2734D01*
G01X2725Y-1161D02*
X2711D01*
G01X2758Y-1177D02*
X2763Y-1180D01*
X2768Y-1182D01*
X2773D01*
X2778Y-1180D01*
X2781Y-1177D01*
X2783Y-1172D01*
X2782Y-1167D01*
X2779Y-1163D01*
X2773Y-1161D01*
X2766Y-1159D01*
X2762Y-1157D01*
X2761Y-1152D01*
X2762Y-1147D01*
X2765Y-1144D01*
X2769Y-1142D01*
X2773D01*
X2777Y-1143D01*
X2780Y-1147D01*
G01X2831Y-1145D02*
X2828Y-1143D01*
X2824Y-1142D01*
X2819D01*
X2814Y-1144D01*
X2810Y-1147D01*
X2807Y-1151D01*
X2804Y-1158D01*
X2804Y-1164D01*
X2805Y-1170D01*
X2807Y-1174D01*
X2810Y-1178D01*
X2814Y-1181D01*
X2818Y-1182D01*
X2823D01*
X2827Y-1181D01*
X2830Y-1179D01*
X2833Y-1176D01*
G01X2852Y-1182D02*
X2867Y-1142D01*
X2881Y-1182D01*
G01X2876Y-1168D02*
X2857D01*
G01X2903Y-1142D02*
Y-1182D01*
X2926D01*
G01X2974D02*
X2951D01*
Y-1142D01*
X2974D01*
G01X2965Y-1161D02*
X2951D01*
G01X3071Y-1145D02*
X3068Y-1143D01*
X3064Y-1142D01*
X3059D01*
X3054Y-1144D01*
X3050Y-1147D01*
X3047Y-1151D01*
X3044Y-1158D01*
X3044Y-1164D01*
X3045Y-1170D01*
X3047Y-1174D01*
X3050Y-1178D01*
X3054Y-1181D01*
X3058Y-1182D01*
X3063D01*
X3067Y-1181D01*
X3070Y-1179D01*
X3073Y-1176D01*
G01X3106Y-1182D02*
X3102Y-1181D01*
X3098Y-1179D01*
X3094Y-1175D01*
X3092Y-1170D01*
X3091Y-1165D01*
Y-1159D01*
X3092Y-1154D01*
X3094Y-1149D01*
X3098Y-1145D01*
X3102Y-1143D01*
X3106Y-1142D01*
X3111Y-1143D01*
X3115Y-1145D01*
X3119Y-1149D01*
X3121Y-1154D01*
X3122Y-1159D01*
Y-1165D01*
X3121Y-1170D01*
X3119Y-1175D01*
X3115Y-1179D01*
X3111Y-1181D01*
X3106Y-1182D01*
G01X3141D02*
Y-1142D01*
X3168Y-1182D01*
Y-1142D01*
G01X3191Y-1182D02*
Y-1142D01*
X3214D01*
G01X3205Y-1161D02*
X3191D01*
G01X3244Y-1142D02*
X3258D01*
G01X3250D02*
Y-1182D01*
G01X3244D02*
X3258D01*
G01X3286D02*
Y-1142D01*
X3297D01*
X3302Y-1144D01*
X3306Y-1147D01*
X3308Y-1151D01*
X3311Y-1155D01*
X3311Y-1162D01*
X3311Y-1169D01*
X3308Y-1173D01*
X3306Y-1177D01*
X3302Y-1180D01*
X3297Y-1182D01*
X3286D01*
G01X3358D02*
X3335D01*
Y-1142D01*
X3358D01*
G01X3349Y-1161D02*
X3335D01*
G01X3381Y-1182D02*
Y-1142D01*
X3408Y-1182D01*
Y-1142D01*
G01X3442D02*
Y-1182D01*
G01X3429Y-1142D02*
X3456D01*
G01X3484D02*
X3498D01*
G01X3490D02*
Y-1182D01*
G01X3484D02*
X3498D01*
G01X3524D02*
X3538Y-1142D01*
X3553Y-1182D01*
G01X3548Y-1168D02*
X3529D01*
G01X3575Y-1142D02*
Y-1182D01*
X3598D01*
G01X3671D02*
Y-1142D01*
X3685D01*
X3690Y-1144D01*
X3693Y-1149D01*
X3694Y-1154D01*
X3693Y-1159D01*
X3690Y-1163D01*
X3685Y-1165D01*
X3671D01*
G01X3719Y-1182D02*
Y-1142D01*
X3733D01*
X3738Y-1144D01*
X3741Y-1147D01*
X3742Y-1152D01*
X3741Y-1157D01*
X3738Y-1161D01*
X3733Y-1163D01*
X3719D01*
G01X3733D02*
X3742Y-1182D01*
G01X3778D02*
X3774Y-1181D01*
X3770Y-1179D01*
X3766Y-1175D01*
X3764Y-1170D01*
X3763Y-1165D01*
Y-1159D01*
X3764Y-1154D01*
X3766Y-1149D01*
X3770Y-1145D01*
X3774Y-1143D01*
X3778Y-1142D01*
X3783Y-1143D01*
X3787Y-1145D01*
X3791Y-1149D01*
X3793Y-1154D01*
X3794Y-1159D01*
Y-1165D01*
X3793Y-1170D01*
X3791Y-1175D01*
X3787Y-1179D01*
X3783Y-1181D01*
X3778Y-1182D01*
G01X3815D02*
Y-1142D01*
X3829D01*
X3834Y-1144D01*
X3837Y-1149D01*
X3838Y-1154D01*
X3837Y-1159D01*
X3834Y-1163D01*
X3829Y-1165D01*
X3815D01*
G01X3863Y-1182D02*
Y-1142D01*
X3877D01*
X3882Y-1144D01*
X3885Y-1147D01*
X3886Y-1152D01*
X3885Y-1157D01*
X3882Y-1161D01*
X3877Y-1163D01*
X3863D01*
G01X3877D02*
X3886Y-1182D01*
G01X3916Y-1142D02*
X3930D01*
G01X3922D02*
Y-1182D01*
G01X3916D02*
X3930D01*
G01X3982D02*
X3959D01*
Y-1142D01*
X3982D01*
G01X3973Y-1161D02*
X3959D01*
G01X4019Y-1142D02*
Y-1182D01*
G01X4005Y-1142D02*
X4032D01*
G01X4052Y-1182D02*
X4067Y-1142D01*
X4081Y-1182D01*
G01X4076Y-1168D02*
X4057D01*
G01X4103Y-1182D02*
Y-1142D01*
X4117D01*
X4122Y-1144D01*
X4125Y-1147D01*
X4126Y-1152D01*
X4125Y-1157D01*
X4122Y-1161D01*
X4117Y-1163D01*
X4103D01*
G01X4117D02*
X4126Y-1182D01*
G01X4162D02*
Y-1164D01*
X4151Y-1142D01*
G01X4174D02*
X4162Y-1164D01*
G01X4213Y-1195D02*
X4219Y-1189D01*
X4222Y-1182D01*
Y-1155D01*
X4219Y-1149D01*
X4213Y-1142D01*
G01X2054Y-1417D02*
X2079Y-1377D01*
G01X2054D02*
X2079Y-1417D01*
G01X2102D02*
X2127Y-1377D01*
G01X2102D02*
X2127Y-1417D01*
G01X2155Y-1404D02*
X2170D01*
G01X2198Y-1417D02*
X2223Y-1377D01*
G01X2198D02*
X2223Y-1417D01*
G01X2246D02*
X2271Y-1377D01*
G01X2246D02*
X2271Y-1417D01*
G01X2299Y-1404D02*
X2314D01*
G01X2355Y-1417D02*
Y-1377D01*
X2348Y-1385D01*
G01Y-1417D02*
X2362D01*
G01X2402Y-1377D02*
X2398Y-1378D01*
X2394Y-1382D01*
X2392Y-1386D01*
X2390Y-1391D01*
X2390Y-1397D01*
X2390Y-1403D01*
X2392Y-1408D01*
X2394Y-1412D01*
X2398Y-1416D01*
X2402Y-1417D01*
X2407Y-1416D01*
X2411Y-1412D01*
X2413Y-1408D01*
X2415Y-1403D01*
X2415Y-1397D01*
X2415Y-1391D01*
X2413Y-1386D01*
X2411Y-1382D01*
X2407Y-1378D01*
X2402Y-1377D01*
G01X2034Y-1337D02*
Y-1297D01*
X2045D01*
X2050Y-1299D01*
X2054Y-1302D01*
X2056Y-1306D01*
X2059Y-1310D01*
X2059Y-1317D01*
X2059Y-1324D01*
X2056Y-1328D01*
X2054Y-1332D01*
X2050Y-1335D01*
X2045Y-1337D01*
X2034D01*
G01X2080D02*
X2094Y-1297D01*
X2109Y-1337D01*
G01X2104Y-1323D02*
X2085D01*
G01X2142Y-1297D02*
Y-1337D01*
G01X2129Y-1297D02*
X2156D01*
G01X2202Y-1337D02*
X2179D01*
Y-1297D01*
X2202D01*
G01X2193Y-1316D02*
X2179D01*
G01X2129Y-1030D02*
X2164D01*
G01X2177D02*
X2212D01*
G01X2225D02*
X2260D01*
G01X2327Y-1017D02*
Y-977D01*
X2350D01*
G01X2341Y-996D02*
X2327D01*
G01X2380Y-977D02*
X2394D01*
G01X2386D02*
Y-1017D01*
G01X2380D02*
X2394D01*
G01X2422Y-977D02*
Y-1006D01*
X2424Y-1012D01*
X2429Y-1016D01*
X2434Y-1017D01*
X2440Y-1016D01*
X2445Y-1012D01*
X2447Y-1006D01*
Y-977D01*
G01X2482Y-1017D02*
X2478Y-1016D01*
X2474Y-1014D01*
X2470Y-1010D01*
X2468Y-1005D01*
X2467Y-1000D01*
Y-994D01*
X2468Y-989D01*
X2470Y-984D01*
X2474Y-980D01*
X2478Y-978D01*
X2482Y-977D01*
X2487Y-978D01*
X2491Y-980D01*
X2495Y-984D01*
X2497Y-989D01*
X2498Y-994D01*
Y-1000D01*
X2497Y-1005D01*
X2495Y-1010D01*
X2491Y-1014D01*
X2487Y-1016D01*
X2482Y-1017D01*
G01X2576Y-1030D02*
X2570Y-1024D01*
X2567Y-1017D01*
Y-990D01*
X2570Y-984D01*
X2576Y-977D01*
G01X2615Y-1017D02*
Y-977D01*
X2638D01*
G01X2629Y-996D02*
X2615D01*
G01X2663Y-1017D02*
Y-977D01*
X2677D01*
X2682Y-979D01*
X2685Y-982D01*
X2686Y-987D01*
X2685Y-992D01*
X2682Y-996D01*
X2677Y-998D01*
X2663D01*
G01X2677D02*
X2686Y-1017D01*
G01X2734D02*
X2711D01*
Y-977D01*
X2734D01*
G01X2725Y-996D02*
X2711D01*
G01X2782Y-1017D02*
X2759D01*
Y-977D01*
X2782D01*
G01X2773Y-996D02*
X2759D01*
G01X2806Y-1012D02*
X2811Y-1015D01*
X2816Y-1017D01*
X2821D01*
X2826Y-1015D01*
X2829Y-1012D01*
X2831Y-1007D01*
X2830Y-1002D01*
X2827Y-998D01*
X2821Y-996D01*
X2814Y-994D01*
X2810Y-992D01*
X2809Y-987D01*
X2810Y-982D01*
X2813Y-979D01*
X2817Y-977D01*
X2821D01*
X2825Y-978D01*
X2828Y-982D01*
G01X2879Y-980D02*
X2876Y-978D01*
X2872Y-977D01*
X2867D01*
X2862Y-979D01*
X2858Y-982D01*
X2855Y-986D01*
X2852Y-993D01*
X2852Y-999D01*
X2853Y-1005D01*
X2855Y-1009D01*
X2858Y-1013D01*
X2862Y-1016D01*
X2867Y-1017D01*
X2871D01*
X2875Y-1016D01*
X2878Y-1014D01*
X2881Y-1011D01*
G01X2900Y-1017D02*
X2914Y-977D01*
X2929Y-1017D01*
G01X2924Y-1003D02*
X2905D01*
G01X2951Y-977D02*
Y-1017D01*
X2974D01*
G01X3022D02*
X2999D01*
Y-977D01*
X3022D01*
G01X3013Y-996D02*
X2999D01*
G01X3100Y-977D02*
X3114D01*
G01X3106D02*
Y-1017D01*
G01X3100D02*
X3114D01*
G01X3141D02*
Y-977D01*
X3168Y-1017D01*
Y-977D01*
G01X3202D02*
Y-1017D01*
G01X3189Y-977D02*
X3216D01*
G01X3262Y-1017D02*
X3239D01*
Y-977D01*
X3262D01*
G01X3253Y-996D02*
X3239D01*
G01X3287Y-1017D02*
Y-977D01*
X3301D01*
X3306Y-979D01*
X3309Y-982D01*
X3310Y-987D01*
X3309Y-992D01*
X3306Y-996D01*
X3301Y-998D01*
X3287D01*
G01X3301D02*
X3310Y-1017D01*
G01X3333D02*
Y-977D01*
X3360Y-1017D01*
Y-977D01*
G01X3380Y-1017D02*
X3394Y-977D01*
X3409Y-1017D01*
G01X3404Y-1003D02*
X3385D01*
G01X3431Y-977D02*
Y-1017D01*
X3454D01*
G01X3526Y-977D02*
Y-1006D01*
X3528Y-1012D01*
X3533Y-1016D01*
X3538Y-1017D01*
X3544Y-1016D01*
X3549Y-1012D01*
X3551Y-1006D01*
Y-977D01*
G01X3574Y-1012D02*
X3579Y-1015D01*
X3584Y-1017D01*
X3589D01*
X3594Y-1015D01*
X3597Y-1012D01*
X3599Y-1007D01*
X3598Y-1002D01*
X3595Y-998D01*
X3589Y-996D01*
X3582Y-994D01*
X3578Y-992D01*
X3577Y-987D01*
X3578Y-982D01*
X3581Y-979D01*
X3585Y-977D01*
X3589D01*
X3593Y-978D01*
X3596Y-982D01*
G01X3646Y-1017D02*
X3623D01*
Y-977D01*
X3646D01*
G01X3637Y-996D02*
X3623D01*
G01X3730Y-1017D02*
X3726Y-1016D01*
X3722Y-1014D01*
X3718Y-1010D01*
X3716Y-1005D01*
X3715Y-1000D01*
Y-994D01*
X3716Y-989D01*
X3718Y-984D01*
X3722Y-980D01*
X3726Y-978D01*
X3730Y-977D01*
X3735Y-978D01*
X3739Y-980D01*
X3743Y-984D01*
X3745Y-989D01*
X3746Y-994D01*
Y-1000D01*
X3745Y-1005D01*
X3743Y-1010D01*
X3739Y-1014D01*
X3735Y-1016D01*
X3730Y-1017D01*
G01X3765D02*
Y-977D01*
X3792Y-1017D01*
Y-977D01*
G01X3815D02*
Y-1017D01*
X3838D01*
G01X3875D02*
Y-999D01*
X3863Y-977D01*
G01X3886D02*
X3875Y-999D01*
G01X3925Y-1030D02*
X3931Y-1024D01*
X3934Y-1017D01*
Y-990D01*
X3931Y-984D01*
X3925Y-977D01*
G01X2129Y-870D02*
X2164D01*
G01X2177D02*
X2212D01*
G01X2225D02*
X2260D01*
G01X2327Y-857D02*
Y-817D01*
X2341D01*
X2346Y-819D01*
X2349Y-824D01*
X2350Y-829D01*
X2349Y-834D01*
X2346Y-838D01*
X2341Y-840D01*
X2327D01*
G01X2374Y-817D02*
Y-846D01*
X2376Y-852D01*
X2381Y-856D01*
X2386Y-857D01*
X2392Y-856D01*
X2397Y-852D01*
X2399Y-846D01*
Y-817D01*
G01X2439Y-836D02*
X2442Y-834D01*
X2443Y-830D01*
X2444Y-826D01*
X2443Y-822D01*
X2441Y-819D01*
X2437Y-817D01*
X2421D01*
Y-857D01*
X2440D01*
X2444Y-854D01*
X2447Y-850D01*
X2448Y-846D01*
X2447Y-841D01*
X2443Y-837D01*
X2439Y-836D01*
X2421D01*
G01X2476Y-817D02*
X2490D01*
G01X2482D02*
Y-857D01*
G01X2476D02*
X2490D01*
G01X2576Y-870D02*
X2570Y-864D01*
X2567Y-857D01*
Y-830D01*
X2570Y-824D01*
X2576Y-817D01*
G01X2615Y-857D02*
Y-817D01*
X2629D01*
X2634Y-819D01*
X2637Y-824D01*
X2638Y-829D01*
X2637Y-834D01*
X2634Y-838D01*
X2629Y-840D01*
X2615D01*
G01X2662Y-817D02*
Y-846D01*
X2664Y-852D01*
X2669Y-856D01*
X2674Y-857D01*
X2680Y-856D01*
X2685Y-852D01*
X2687Y-846D01*
Y-817D01*
G01X2727Y-836D02*
X2730Y-834D01*
X2731Y-830D01*
X2732Y-826D01*
X2731Y-822D01*
X2729Y-819D01*
X2725Y-817D01*
X2709D01*
Y-857D01*
X2728D01*
X2732Y-854D01*
X2735Y-850D01*
X2736Y-846D01*
X2735Y-841D01*
X2731Y-837D01*
X2727Y-836D01*
X2709D01*
G01X2759Y-817D02*
Y-857D01*
X2782D01*
G01X2812Y-817D02*
X2826D01*
G01X2818D02*
Y-857D01*
G01X2812D02*
X2826D01*
G01X2879Y-820D02*
X2876Y-818D01*
X2872Y-817D01*
X2867D01*
X2862Y-819D01*
X2858Y-822D01*
X2855Y-826D01*
X2852Y-833D01*
X2852Y-839D01*
X2853Y-845D01*
X2855Y-849D01*
X2858Y-853D01*
X2862Y-856D01*
X2867Y-857D01*
X2871D01*
X2875Y-856D01*
X2878Y-854D01*
X2881Y-851D01*
G01X2956Y-817D02*
X2970D01*
G01X2962D02*
Y-857D01*
G01X2956D02*
X2970D01*
G01X2997D02*
Y-817D01*
X3024Y-857D01*
Y-817D01*
G01X3047Y-857D02*
Y-817D01*
X3070D01*
G01X3061Y-836D02*
X3047D01*
G01X3106Y-857D02*
X3102Y-856D01*
X3098Y-854D01*
X3094Y-850D01*
X3092Y-845D01*
X3091Y-840D01*
Y-834D01*
X3092Y-829D01*
X3094Y-824D01*
X3098Y-820D01*
X3102Y-818D01*
X3106Y-817D01*
X3111Y-818D01*
X3115Y-820D01*
X3119Y-824D01*
X3121Y-829D01*
X3122Y-834D01*
Y-840D01*
X3121Y-845D01*
X3119Y-850D01*
X3115Y-854D01*
X3111Y-856D01*
X3106Y-857D01*
G01X3143D02*
Y-817D01*
X3157D01*
X3162Y-819D01*
X3165Y-822D01*
X3166Y-827D01*
X3165Y-832D01*
X3162Y-836D01*
X3157Y-838D01*
X3143D01*
G01X3157D02*
X3166Y-857D01*
G01X3187D02*
Y-817D01*
X3202Y-850D01*
X3218Y-817D01*
Y-857D01*
G01X3236D02*
X3250Y-817D01*
X3265Y-857D01*
G01X3260Y-843D02*
X3241D01*
G01X3298Y-817D02*
Y-857D01*
G01X3285Y-817D02*
X3312D01*
G01X3340D02*
X3354D01*
G01X3347D02*
Y-857D01*
G01X3340D02*
X3354D01*
G01X3394D02*
X3390Y-856D01*
X3386Y-854D01*
X3382Y-850D01*
X3380Y-845D01*
X3379Y-840D01*
Y-834D01*
X3380Y-829D01*
X3382Y-824D01*
X3386Y-820D01*
X3390Y-818D01*
X3394Y-817D01*
X3399Y-818D01*
X3403Y-820D01*
X3407Y-824D01*
X3409Y-829D01*
X3410Y-834D01*
Y-840D01*
X3409Y-845D01*
X3407Y-850D01*
X3403Y-854D01*
X3399Y-856D01*
X3394Y-857D01*
G01X3429D02*
Y-817D01*
X3456Y-857D01*
Y-817D01*
G01X3493Y-870D02*
X3499Y-864D01*
X3502Y-857D01*
Y-830D01*
X3499Y-824D01*
X3493Y-817D01*
G01X2033Y-537D02*
Y-497D01*
X2060Y-537D01*
Y-497D01*
G01X2080Y-537D02*
X2094Y-497D01*
X2109Y-537D01*
G01X2104Y-523D02*
X2085D01*
G01X2127Y-537D02*
Y-497D01*
X2142Y-530D01*
X2158Y-497D01*
Y-537D01*
G01X2202D02*
X2179D01*
Y-497D01*
X2202D01*
G01X2193Y-516D02*
X2179D01*
G01X2533Y-1337D02*
Y-1297D01*
X2560Y-1337D01*
Y-1297D01*
G01X2582D02*
Y-1326D01*
X2584Y-1332D01*
X2589Y-1336D01*
X2594Y-1337D01*
X2600Y-1336D01*
X2605Y-1332D01*
X2607Y-1326D01*
Y-1297D01*
G01X2627Y-1337D02*
Y-1297D01*
X2642Y-1330D01*
X2658Y-1297D01*
Y-1337D01*
G01X2695Y-1316D02*
X2698Y-1314D01*
X2699Y-1310D01*
X2700Y-1306D01*
X2699Y-1302D01*
X2697Y-1299D01*
X2693Y-1297D01*
X2677D01*
Y-1337D01*
X2696D01*
X2700Y-1334D01*
X2703Y-1330D01*
X2704Y-1326D01*
X2703Y-1321D01*
X2699Y-1317D01*
X2695Y-1316D01*
X2677D01*
G01X2750Y-1337D02*
X2727D01*
Y-1297D01*
X2750D01*
G01X2741Y-1316D02*
X2727D01*
G01X2775Y-1337D02*
Y-1297D01*
X2789D01*
X2794Y-1299D01*
X2797Y-1302D01*
X2798Y-1307D01*
X2797Y-1312D01*
X2794Y-1316D01*
X2789Y-1318D01*
X2775D01*
G01X2789D02*
X2798Y-1337D01*
G54D39*
X879Y168D03*
X2399Y1668D03*
G54D48*
X2607Y153D03*
Y253D03*
Y353D03*
Y453D03*
X3252Y353D03*
Y253D03*
Y153D03*
Y453D03*
X3412Y178D03*
Y278D03*
Y378D03*
Y478D03*
X4057Y278D03*
Y178D03*
Y478D03*
Y378D03*
G54D58*
G01X174Y1618D02*
Y1528D01*
X199Y1503D01*
X314D01*
X369Y1448D01*
Y1379D01*
G01X1589Y691D02*
X851D01*
X819Y659D01*
Y528D01*
G01X524Y1418D02*
Y1357D01*
X562Y1319D01*
X563D01*
X576Y1306D01*
Y1299D01*
X576Y1258D01*
G01X720Y1253D02*
Y1335D01*
X749Y1363D01*
Y1418D01*
G01X726Y2543D02*
Y2167D01*
X865Y2028D01*
G01X518Y2318D02*
Y2362D01*
G01X511Y2418D02*
Y2465D01*
G01X587Y2418D02*
Y2362D01*
X580Y2355D01*
Y2318D01*
G01X572Y2543D02*
Y2473D01*
X587Y2459D01*
Y2418D01*
G01X693Y2743D02*
Y2786D01*
G01X1049Y2543D02*
Y2608D01*
X1029Y2628D01*
X894D01*
X809Y2543D01*
X726D01*
G01X762Y2843D02*
Y2787D01*
X755Y2780D01*
Y2743D01*
G01X686Y2843D02*
Y2890D01*
G01X762Y2843D02*
X832D01*
X847Y2828D01*
G01X1001D02*
X1199D01*
G01X1399Y2368D02*
X1329D01*
X1289Y2408D01*
Y2673D01*
X1199Y2763D01*
Y2828D01*
G01X1640Y2519D02*
Y2592D01*
X1629Y2603D01*
X1574D01*
X1519Y2658D01*
Y2828D01*
G01X2039Y2191D02*
X1976D01*
X1799Y2368D01*
X1739D01*
G01X1839Y2828D02*
Y2693D01*
X1879Y2653D01*
X2099D01*
X2174Y2578D01*
Y2393D01*
X2209Y2358D01*
X2279D01*
G01X2059Y2460D02*
Y2415D01*
X2039Y2395D01*
Y2345D01*
G01X1959Y2467D02*
X2011D01*
X2018Y2460D01*
X2059D01*
G01X1959Y2529D02*
Y2564D01*
G01X2059Y2536D02*
Y2570D01*
G01X2669Y2335D02*
X2574Y2430D01*
Y2608D01*
X2529Y2653D01*
X2254D01*
X2169Y2738D01*
Y2823D01*
G01X2377Y1147D02*
Y1068D01*
X2348Y1039D01*
Y1008D01*
G01X2549Y1908D02*
Y2013D01*
X2589Y2053D01*
Y2309D01*
X2615Y2335D01*
X2669D01*
G01X2279Y2358D02*
X2406D01*
X2419Y2345D01*
X2469D01*
G01Y2191D02*
X2539Y2261D01*
Y2383D01*
X2524Y2398D01*
Y2401D01*
X2517Y2408D01*
X2443D01*
X2424Y2427D01*
Y2455D01*
G01X2524Y2462D02*
X2472D01*
X2465Y2455D01*
X2424D01*
G01Y2531D02*
Y2566D01*
G01X2524Y2524D02*
Y2559D01*
G01X2826Y1433D02*
X2938D01*
X2958Y1413D01*
X3471D01*
X3492Y1434D01*
Y1488D01*
X3482Y1498D01*
G01X2669Y2181D02*
X2719D01*
X2721Y2183D01*
X2729D01*
X2749Y2203D01*
Y2373D01*
X2719Y2403D01*
X2644D01*
X2624Y2423D01*
Y2455D01*
G01X2724Y2462D02*
X2672D01*
X2665Y2455D01*
X2624D01*
G01X2724Y2524D02*
Y2559D01*
G01X2624Y2531D02*
Y2566D01*
G01X3309Y1478D02*
X3270D01*
G01X3482Y1498D02*
X3409D01*
G01X3309Y1478D02*
Y1517D01*
G01Y1478D02*
X3348D01*
G01X3309D02*
Y1439D01*
G01X3515Y2042D02*
Y1984D01*
X3479Y1948D01*
Y1699D01*
G01D02*
X3581D01*
X3588Y1706D01*
X3629D01*
G01X3479Y1699D02*
X3442D01*
X3441Y1698D01*
X3439D01*
X3394Y1653D01*
Y1608D01*
X3364Y1578D01*
X3309D01*
G01X3636Y1498D02*
Y1595D01*
X3629Y1602D01*
Y1630D01*
G01X3479Y1637D02*
X3581D01*
X3588Y1630D01*
X3629D01*
G54D49*
X3035Y2042D03*
Y2514D03*
X3515Y2042D03*
Y2514D03*
M02*
