G04 ================== begin FILE IDENTIFICATION RECORD ==================*
G04 Layout Name:  Medical_Ventilator_VA.brd*
G04 Film Name:    L4_SS.art*
G04 File Format:  Gerber RS274X*
G04 File Origin:  Cadence Allegro 16.3-p003*
G04 Origin Date:  Thu Nov 04 15:12:06 2010*
G04 *
G04 Layer:  VIA CLASS/BOTTOM*
G04 Layer:  PIN/BOTTOM*
G04 Layer:  ETCH/BOTTOM*
G04 Layer:  DRAWING FORMAT/FILM_TITLE_BLOCK*
G04 Layer:  DRAWING FORMAT/FILM_OUTLINE*
G04 Layer:  BOARD GEOMETRY/OUTLINE*
G04 *
G04 Offset:    (0.0 0.0)*
G04 Mirror:    No*
G04 Mode:      Positive*
G04 Rotation:  0*
G04 FullContactRelief:  No*
G04 UndefLineWidth:     8.0*
G04 ================== end FILE IDENTIFICATION RECORD ====================*
%FSLAX53Y53*MOIN*%
%IR0*IPPOS*OFA0.00000B0.00000*MIA0B0*SFA1.00000B1.00000*%
%ADD13C,.175*%
%ADD10C,.01*%
%ADD12C,.06*%
%ADD24C,.08*%
%ADD17C,.09*%
%ADD18C,.028*%
%ADD16C,.064*%
%ADD26C,.066*%
%ADD11R,.06X.06*%
%ADD28C,.077*%
%ADD22C,.059*%
%ADD25R,.08X.08*%
%ADD20C,.069*%
%ADD14C,.087*%
%ADD19R,.09X.09*%
%ADD15R,.064X.064*%
%ADD27R,.066X.066*%
%ADD29R,.077X.077*%
%ADD23R,.059X.059*%
%ADD21R,.069X.069*%
%ADD30C,.006*%
%ADD31C,.007*%
%ADD32C,.02*%
%ADD33C,.04*%
%ADD34C,.014*%
%ADD35C,.008*%
%ADD36C,.015*%
%ADD54C,.1014*%
%ADD38C,.1894*%
%ADD53R,.1044X.1044*%
%ADD37C,.0424*%
%ADD48C,.0804*%
%ADD49C,.0734*%
%ADD43C,.0914*%
%ADD52C,.0834*%
%ADD45C,.0744*%
%ADD50R,.0804X.0804*%
%ADD46C,.0944*%
%ADD39C,.0784*%
%ADD51R,.0734X.0734*%
%ADD42R,.0914X.0914*%
%ADD55C,.0768*%
%ADD44R,.0744X.0744*%
%ADD41R,.0834X.0834*%
%ADD47R,.0944X.0944*%
%ADD40R,.0784X.0784*%
G75*
%LPD*%
G75*
G36*
G01X49Y934D02*
G02X56Y937I4J0D01*
G03Y979I23J21D01*
G02X49Y982I-3J3D01*
G01Y1034D01*
G02X56Y1037I4J0D01*
G03Y1079I23J21D01*
G02X49Y1082I-3J3D01*
G01X52Y2941D01*
G02X54Y2943I2J0D01*
G01X1166D01*
G02X1169Y2938I0J-4D01*
G03X1229I30J-10D01*
G02X1232Y2943I4J1D01*
G01X1266D01*
G02X1269Y2938I0J-4D01*
G03X1329I30J-10D01*
G02X1332Y2943I4J1D01*
G01X1486D01*
G02X1489Y2938I0J-4D01*
G03X1549I30J-10D01*
G02X1552Y2943I4J1D01*
G01X1586D01*
G02X1589Y2938I0J-4D01*
G03X1649I30J-10D01*
G02X1652Y2943I4J1D01*
G01X1806D01*
G02X1809Y2938I0J-4D01*
G03X1869I30J-10D01*
G02X1872Y2943I4J1D01*
G01X1906D01*
G02X1909Y2938I0J-4D01*
G03X1969I30J-10D01*
G02X1972Y2943I4J1D01*
G01X2138D01*
G02X2141Y2937I0J-4D01*
G03X2197I28J-14D01*
G02X2200Y2943I4J2D01*
G01X2238D01*
G02X2241Y2937I0J-4D01*
G03X2297I28J-14D01*
G02X2300Y2943I4J2D01*
G01X3900D01*
G02X3903Y2936I0J-4D01*
G03X3945I21J-23D01*
G02X3948Y2943I3J3D01*
G01X4000D01*
G02X4003Y2936I0J-4D01*
G03X4045I21J-23D01*
G02X4048Y2943I3J3D01*
G01X4447Y2942D01*
G02X4449Y2940I0J-2D01*
G01Y70D01*
G02X4447Y68I-2J0D01*
G01X618D01*
G02X616Y76I0J4D01*
G03X582I-17J32D01*
G02X580Y68I-2J-4D01*
G01X51D01*
G02X49Y70I0J2D01*
G01Y934D01*
G37*
%LPC*%
G75*
G36*
G01X759Y523D02*
G02X659I-50J0D01*
G01Y1027D01*
X584Y1102D01*
Y1566D01*
G03X582Y1568I-2J0D01*
G01X547D01*
G03X545Y1560I0J-4D01*
G02X508Y1563I-21J-42D01*
G03Y1570I-1J4D01*
G02X507Y1571I17J47D01*
G01X477Y1571D01*
Y1601D01*
X477Y1602D01*
G02Y1634I47J17D01*
G01X477Y1635D01*
Y1665D01*
X507D01*
X508Y1665D01*
G02X524Y1668I16J-47D01*
G01X627D01*
X684Y1611D01*
Y1144D01*
X759Y1069D01*
Y523D01*
G37*
G36*
G01X1733Y774D02*
G02X1705I-14J-16D01*
G03X1705Y775I-1J2D01*
G01Y849D01*
X1753Y897D01*
X1843D01*
X1860Y914D01*
Y1161D01*
G03X1860Y1162I-2J0D01*
G02X1856Y1166I15J15D01*
G03X1849Y1165I-3J-2D01*
G02X1847Y1184I-20J7D01*
G03X1854Y1185I3J2D01*
G02X1888Y1162I20J-7D01*
G03X1888Y1161I1J-2D01*
G01Y902D01*
X1855Y869D01*
X1765D01*
X1733Y837D01*
Y775D01*
G03X1733Y774I2J0D01*
G37*
G36*
G01X1314Y1778D02*
G03X1313Y1779I-2J-1D01*
G03X1311Y1777I0J-2D01*
G01Y1769D01*
X1333Y1747D01*
X1552D01*
G03X1553Y1747I0J2D01*
G02Y1719I16J-14D01*
G03X1552Y1719I-2J-1D01*
G01X1321D01*
X1283Y1757D01*
Y1846D01*
G03X1280Y1847I-2J0D01*
G02X1277Y1844I-17J13D01*
G03X1277Y1843I1J-2D01*
G01Y1719D01*
X1314Y1682D01*
X1517D01*
G03X1518Y1682I0J2D01*
G02Y1654I16J-14D01*
G03X1517Y1654I-2J-1D01*
G01X1302D01*
X1249Y1707D01*
Y1843D01*
G03X1249Y1844I-2J0D01*
G02X1277Y1876I14J16D01*
G03X1283Y1879I3J3D01*
G01Y2249D01*
X1250Y2282D01*
Y2331D01*
G03X1250Y2332I-2J0D01*
G02X1278I14J16D01*
G03X1278Y2331I1J-2D01*
G01Y2294D01*
X1311Y2261D01*
Y1798D01*
G03X1318Y1796I4J0D01*
G02X1351Y1797I17J-12D01*
G03X1352Y1797I2J1D01*
G01X1621D01*
X1630Y1787D01*
G03X1637Y1790I3J3D01*
G02X1651Y1768I21J-2D01*
G03X1646Y1764I-1J-4D01*
G01Y1754D01*
G03X1646Y1753I2J0D01*
G02X1618I-14J-16D01*
G03X1618Y1754I-1J2D01*
G01Y1760D01*
X1609Y1769D01*
X1352D01*
G03X1351Y1769I0J-2D01*
G02X1314Y1778I-16J14D01*
G37*
G36*
G01X2185Y1706D02*
G02X2164Y1741I-16J14D01*
G03X2166Y1747I-1J4D01*
G02X2163Y1762I18J11D01*
G03X2158Y1767I-4J1D01*
G02X2140Y1804I-5J21D01*
G03X2140Y1805I-1J2D01*
G01Y2094D01*
X2183Y2137D01*
X2308D01*
X2340Y2169D01*
Y2779D01*
X2378Y2817D01*
X2443D01*
G03X2445Y2818I0J2D01*
G02Y2788I39J-15D01*
G03X2443Y2789I-2J-1D01*
G01X2390D01*
X2368Y2767D01*
Y2157D01*
X2320Y2109D01*
X2195D01*
X2168Y2082D01*
Y1805D01*
G03X2168Y1804I2J0D01*
G02X2175Y1784I-14J-16D01*
G03X2180Y1779I4J-1D01*
G02X2200Y1772I5J-21D01*
G03X2201Y1772I2J1D01*
G01X2213D01*
X2225Y1784D01*
Y2049D01*
X2268Y2092D01*
X2363D01*
X2400Y2129D01*
Y2354D01*
X2503Y2457D01*
X2758D01*
X2785Y2484D01*
Y2762D01*
G03X2784Y2764I-2J0D01*
G02X2814I15J39D01*
G03X2813Y2762I1J-2D01*
G01Y2472D01*
X2770Y2429D01*
X2515D01*
X2428Y2342D01*
Y2117D01*
X2375Y2064D01*
X2280D01*
X2253Y2037D01*
Y1772D01*
X2225Y1744D01*
X2201D01*
G03X2200Y1744I0J-2D01*
G02X2197Y1741I-16J14D01*
G03X2199Y1734I2J-3D01*
G01X2246D01*
X2280Y1769D01*
Y2014D01*
X2313Y2047D01*
X2423D01*
X2465Y2089D01*
Y2304D01*
X2558Y2397D01*
X2943D01*
X2960Y2414D01*
Y2754D01*
X3023Y2817D01*
X3068D01*
G03X3070Y2818I0J2D01*
G02Y2788I39J-15D01*
G03X3068Y2789I-2J-1D01*
G01X3035D01*
X2988Y2742D01*
Y2539D01*
G03X2995Y2537I4J0D01*
G02Y2492I40J-22D01*
G03X2988Y2490I-3J-2D01*
G01Y2402D01*
X2955Y2369D01*
X2570D01*
X2493Y2292D01*
Y2077D01*
X2435Y2019D01*
X2325D01*
X2308Y2002D01*
Y1757D01*
X2257Y1707D01*
X2186D01*
G03X2185Y1706I0J-2D01*
G37*
G36*
G01X1694Y2381D02*
G02Y2355I45J-13D01*
G03X1686Y2356I-4J-1D01*
G02X1653Y2354I-18J12D01*
G03X1652Y2354I-2J-1D01*
G01X1648D01*
X1626Y2377D01*
Y2502D01*
G03X1625Y2503I-2J0D01*
G02X1654I14J16D01*
G03X1653Y2502I1J-2D01*
G01Y2388D01*
X1656Y2386D01*
X1657Y2386D01*
X1658Y2386D01*
G02X1686Y2380I11J-18D01*
G03X1694Y2381I3J2D01*
G37*
G36*
G01X1193Y229D02*
Y207D01*
G03X1194Y205I2J0D01*
G02X1164I-15J-37D01*
G03X1165Y207I-1J2D01*
G01Y241D01*
X1194Y270D01*
Y707D01*
X1275Y788D01*
Y831D01*
G03X1275Y832I-2J0D01*
G02X1303I14J16D01*
G03X1303Y831I1J-2D01*
G01Y776D01*
X1222Y695D01*
Y258D01*
X1193Y229D01*
G37*
G36*
G01X1293Y592D02*
Y207D01*
G03X1294Y205I2J0D01*
G02X1264I-15J-37D01*
G03X1265Y207I-1J2D01*
G01Y604D01*
X1325Y664D01*
Y831D01*
G03X1325Y832I-2J0D01*
G02X1353I14J16D01*
G03X1353Y831I1J-2D01*
G01Y652D01*
X1293Y592D01*
G37*
G36*
G01X1601Y709D02*
X2184D01*
X2235Y760D01*
Y966D01*
X2295Y1026D01*
X2336D01*
G02Y990I12J-18D01*
G01X2309D01*
X2271Y952D01*
Y746D01*
X2198Y673D01*
X1601D01*
G02Y709I-12J18D01*
G37*
G36*
G01X1912Y1168D02*
G03X1913Y1174I-1J4D01*
G01X1855Y1232D01*
Y1342D01*
X1818Y1379D01*
X1549D01*
G03X1546Y1373I0J-4D01*
G02X1513Y1346I-17J-13D01*
G03X1512Y1346I-2J-1D01*
G01X1422D01*
X1413Y1337D01*
Y1265D01*
G03X1413Y1264I2J0D01*
G02X1385I-14J-16D01*
G03X1385Y1265I-1J2D01*
G01Y1349D01*
X1410Y1374D01*
X1512D01*
G03X1513Y1374I0J2D01*
G02X1515Y1376I15J-15D01*
G03X1514Y1379I-1J1D01*
G01X1358D01*
X1320Y1417D01*
Y1569D01*
X1348Y1597D01*
X1387D01*
G03X1388Y1597I0J2D01*
G02Y1569I16J-14D01*
G03X1387Y1569I-2J-1D01*
G01X1360D01*
X1348Y1557D01*
Y1429D01*
X1370Y1407D01*
X1830D01*
X1883Y1354D01*
Y1244D01*
X1935Y1192D01*
X2062D01*
G03X2063Y1192I0J2D01*
G02Y1164I16J-14D01*
G03X2062Y1164I-2J-1D01*
G01X1941D01*
G03X1938Y1158I0J-4D01*
G02X1933Y1132I-18J-10D01*
G03X1933Y1131I1J-2D01*
G01Y778D01*
G03X1933Y777I2J0D01*
G02X1905I-14J-16D01*
G03X1905Y778I-1J2D01*
G01Y1131D01*
G03X1905Y1132I-2J0D01*
G02X1912Y1168I14J16D01*
G37*
G36*
G01X1660Y1030D02*
Y1249D01*
X1680Y1269D01*
Y1329D01*
X1703Y1352D01*
X1717D01*
G03X1719Y1352I0J2D01*
G02Y1324I16J-14D01*
G03X1717Y1324I-2J-1D01*
G01X1715D01*
X1708Y1317D01*
Y1257D01*
X1688Y1237D01*
Y1030D01*
G03X1688Y1029I2J0D01*
G02X1660I-14J-16D01*
G03X1660Y1030I-1J2D01*
G37*
G36*
G01X218Y1019D02*
X210D01*
X210Y1018D01*
G02X148I-31J40D01*
G01X148Y1019D01*
X140D01*
Y1027D01*
X139Y1027D01*
G02X129Y1058I40J31D01*
G01Y1300D01*
X124Y1305D01*
Y1403D01*
X124Y1404D01*
G02X224Y1403I50J14D01*
G01Y1347D01*
X229Y1342D01*
Y1058D01*
G02X219Y1027I-50J0D01*
G01X218Y1027D01*
Y1019D01*
G37*
G36*
G01X2128Y1399D02*
X2018D01*
X1990Y1427D01*
Y1466D01*
G03X1990Y1467I-2J0D01*
G02X2018I14J16D01*
G03X2018Y1466I1J-2D01*
G01Y1439D01*
X2030Y1427D01*
X2140D01*
X2159Y1408D01*
Y1130D01*
G03X2159Y1129I2J0D01*
G02X2131I-14J-16D01*
G03X2131Y1130I-1J2D01*
G01Y1396D01*
X2128Y1399D01*
G37*
G36*
G01X940Y1119D02*
G02X920Y1139I-21J-1D01*
G03X922Y1140I0J2D01*
G01X928Y1147D01*
Y1952D01*
G03X928Y1953I-2J0D01*
G02X956I14J16D01*
G03X956Y1952I1J-2D01*
G01Y1135D01*
X941Y1120D01*
G03X940Y1119I1J-1D01*
G37*
G36*
G01X2359Y1330D02*
X2443Y1414D01*
X2586D01*
X2623Y1451D01*
X2814D01*
G02Y1415I12J-18D01*
G01X2637D01*
X2600Y1378D01*
X2457D01*
X2395Y1316D01*
Y1159D01*
G02X2359I-18J-12D01*
G01Y1330D01*
G37*
G36*
G01X2172Y1383D02*
Y1508D01*
X2135Y1545D01*
X1726D01*
X1681Y1591D01*
Y1737D01*
G03X1680Y1738I-2J0D01*
G02X1709I14J16D01*
G03X1708Y1737I1J-2D01*
G01Y1602D01*
X1738Y1573D01*
X2147D01*
X2200Y1520D01*
Y1395D01*
X2256Y1339D01*
Y1266D01*
G03X2256Y1265I2J0D01*
G02X2228I-14J-16D01*
G03X2228Y1266I-1J2D01*
G01Y1327D01*
X2172Y1383D01*
G37*
G36*
G01X469Y1436D02*
X479D01*
G03X481Y1437I0J2D01*
G02Y1399I43J-19D01*
G03X479Y1400I-2J-1D01*
G01X469D01*
G02Y1436I-12J18D01*
G37*
G36*
G01X1945Y1457D02*
X1977Y1425D01*
G03X1978Y1424I1J1D01*
G02X1958Y1404I1J-21D01*
G01X1958Y1405D01*
X1933Y1429D01*
X1596D01*
G03X1595Y1429I0J-2D01*
G02Y1457I-16J14D01*
G03X1596Y1457I2J1D01*
G01X1945D01*
G37*
G36*
G01X1418Y1477D02*
Y1455D01*
G03X1418Y1454I2J0D01*
G02X1390I-14J-16D01*
G03X1390Y1455I-1J2D01*
G01Y1489D01*
X1413Y1512D01*
X1523D01*
X1555Y1544D01*
Y1585D01*
G03X1555Y1586I-2J0D01*
G02X1583I14J16D01*
G03X1583Y1585I1J-2D01*
G01Y1532D01*
X1535Y1484D01*
X1425D01*
X1418Y1477D01*
G37*
G36*
G01X2250Y1467D02*
X2273D01*
X2295Y1489D01*
Y1649D01*
X2328Y1682D01*
X2357D01*
G03X2359Y1684I0J2D01*
G01Y1708D01*
X2439D01*
Y1628D01*
X2359D01*
Y1652D01*
G03X2357Y1654I-2J0D01*
G01X2340D01*
X2323Y1637D01*
Y1477D01*
X2285Y1439D01*
X2250D01*
G03X2249Y1439I0J-2D01*
G02Y1467I-16J14D01*
G03X2250Y1467I2J1D01*
G37*
G36*
G01X3391Y1510D02*
Y2130D01*
X3498Y2237D01*
Y2471D01*
G03X3496Y2472I-2J0D01*
G02X3534I19J42D01*
G03X3533Y2471I1J-2D01*
G01Y2222D01*
X3427Y2116D01*
Y1510D01*
G02X3391I-18J-12D01*
G37*
G36*
G01X796Y1665D02*
Y1571D01*
X702D01*
Y1665D01*
X729D01*
G03X731Y1667I0J2D01*
G01Y1698D01*
G02X767I18J12D01*
G01Y1667D01*
G03X769Y1665I2J0D01*
G01X796D01*
G37*
G36*
G01X2693Y2337D02*
X3353D01*
X3405Y2389D01*
Y2762D01*
G03X3404Y2764I-2J0D01*
G02X3434I15J39D01*
G03X3433Y2762I1J-2D01*
G01Y2377D01*
X3365Y2309D01*
X2705D01*
X2623Y2227D01*
Y2052D01*
X2550Y1979D01*
X2410D01*
X2353Y1922D01*
Y1747D01*
X2260Y1654D01*
X2160D01*
G03X2158Y1652I0J-2D01*
G01Y1639D01*
G03X2158Y1637I2J0D01*
G02X2130I-14J-16D01*
G03X2130Y1639I-1J2D01*
G01Y1667D01*
X2145Y1682D01*
X2248D01*
X2325Y1759D01*
Y1934D01*
X2398Y2007D01*
X2538D01*
X2595Y2064D01*
Y2239D01*
X2693Y2337D01*
G37*
G36*
G01X1595Y2030D02*
G03X1596Y2032I0J2D01*
G01Y2080D01*
G03X1594Y2082I-2J0D01*
G01X1417D01*
X1399Y2065D01*
Y1866D01*
X1413Y1853D01*
Y1842D01*
G03X1413Y1841I2J0D01*
G02X1383Y1812I-14J-16D01*
G03X1376I-3J-3D01*
G02X1346Y1841I-16J13D01*
G03X1346Y1842I-1J2D01*
G01Y1853D01*
X1360Y1866D01*
Y2081D01*
X1400Y2122D01*
X1616D01*
X1652Y2086D01*
Y2026D01*
G03X1652Y2025I2J0D01*
G02X1622Y1996I-14J-16D01*
G03X1615I-3J-3D01*
G02X1595Y2030I-16J13D01*
G37*
G36*
G01X1455Y2018D02*
X1533D01*
X1552Y1999D01*
Y1986D01*
G03X1552Y1984I2J0D01*
G02X1524I-14J-16D01*
G01X1524Y1985D01*
Y1987D01*
X1521Y1990D01*
X1455D01*
G03X1454Y1990I0J-2D01*
G02Y2018I-16J14D01*
G03X1455Y2018I2J1D01*
G37*
G36*
G01X228Y2309D02*
X315D01*
G03X316Y2309I0J2D01*
G02Y2281I16J-14D01*
G03X315Y2281I-2J-1D01*
G01X216D01*
X181Y2316D01*
X167D01*
G03X165Y2316I0J-2D01*
G02Y2344I-16J14D01*
G03X167Y2344I2J1D01*
G01X193D01*
X228Y2309D01*
G37*
G54D54*
X378Y767D03*
Y479D03*
X169Y767D03*
Y479D03*
G54D38*
X4274Y2793D03*
Y218D03*
X199Y2788D03*
Y198D03*
G54D53*
X174Y1618D03*
G54D37*
X4149Y2531D03*
X4305Y2590D03*
X4168Y1642D03*
X4230D03*
X4241Y417D03*
X3789Y1558D03*
X3554Y628D03*
X3140Y253D03*
X2624Y2566D03*
X2724Y2559D03*
X2524D03*
X2424Y2566D03*
X2594Y638D03*
X2257Y615D03*
X2407Y495D03*
X2059Y2570D03*
X1959Y2564D03*
X2039Y1877D03*
X1990Y1912D03*
X1799Y1342D03*
X1813Y1287D03*
X1654Y1308D03*
X1674Y833D03*
X1187Y2202D03*
X1462Y1957D03*
X1493Y1908D03*
X1188Y1682D03*
X1044Y1743D03*
X839Y1252D03*
X1101Y1333D03*
X1050Y733D03*
X686Y2890D03*
X499Y2743D03*
X693Y2786D03*
X612Y2688D03*
X511Y2465D03*
X518Y2362D03*
X519Y506D03*
X699Y420D03*
X162Y2406D03*
G54D48*
X2399Y1568D03*
Y1468D03*
X2499Y1668D03*
Y1568D03*
Y1468D03*
X2279Y168D03*
X2379D03*
X1979D03*
X2079D03*
X2179D03*
X1579D03*
X1679D03*
X1779D03*
X1879D03*
X1379D03*
X1479D03*
X979D03*
X1079D03*
G54D49*
X865Y2028D03*
X599Y208D03*
G54D43*
X3515Y2042D03*
X3035D03*
G54D52*
X194Y1843D03*
G54D45*
X2989Y1578D03*
Y1478D03*
X3309D03*
Y1578D03*
Y1678D03*
X224Y2543D03*
X324Y2168D03*
X224D03*
X124Y2543D03*
G54D50*
X879Y168D03*
G54D46*
X2649Y1908D03*
X2549D03*
X2279Y2358D03*
Y2458D03*
X1739Y2268D03*
X1399Y2368D03*
Y2268D03*
X1049Y2543D03*
X949D03*
X749Y1518D03*
Y1418D03*
G54D39*
X3924Y2813D03*
X2169Y2823D03*
X1839Y2828D03*
X1519D03*
X1199D03*
X179Y958D03*
G54D51*
X609Y2028D03*
X599Y308D03*
G54D42*
X3594Y2278D03*
G54D55*
X299Y692D03*
Y554D03*
G54D44*
X2989Y1678D03*
X324Y2543D03*
X124Y2168D03*
G54D41*
X3519Y2803D03*
X3209D03*
X2899D03*
X2584D03*
X194Y1943D03*
G54D47*
X2449Y1908D03*
X2279Y2258D03*
X1739Y2468D03*
X1399D03*
X1149Y2543D03*
G54D40*
X4024Y2813D03*
X2269Y2823D03*
X1939Y2828D03*
X1619D03*
X1299D03*
%LPD*%
G75*
G54D10*
G01X249Y-1257D02*
X4249D01*
G01X249Y-957D02*
Y-757D01*
X4249D01*
G01X749Y-1457D02*
Y-1257D01*
G01X2004Y-1457D02*
Y-1257D01*
G01X1999Y-757D02*
Y-457D01*
G01X2499Y-1457D02*
Y-1257D01*
X79Y958D03*
Y1058D03*
X299Y554D03*
Y692D03*
X1199Y2928D03*
X1299D03*
X1519D03*
X1619D03*
X1839D03*
X1939D03*
X2169Y2923D03*
X2269D03*
X3924Y2913D03*
X4024D03*
G54D20*
X194Y1843D03*
X2484Y2803D03*
X2799D03*
X3109D03*
X3419D03*
G54D11*
X124Y2168D03*
X324Y2543D03*
X2989Y1678D03*
G54D30*
G01X309Y-1422D02*
X310Y-1408D01*
X313Y-1397D01*
X316Y-1386D01*
X320Y-1375D01*
X326Y-1359D01*
X295D01*
G01X436Y-1422D02*
X430Y-1421D01*
X425Y-1417D01*
X420Y-1410D01*
X417Y-1403D01*
X415Y-1395D01*
Y-1386D01*
X417Y-1378D01*
X420Y-1370D01*
X425Y-1364D01*
X430Y-1360D01*
X436Y-1359D01*
X443Y-1360D01*
X448Y-1364D01*
X453Y-1370D01*
X456Y-1378D01*
X458Y-1386D01*
Y-1395D01*
X456Y-1403D01*
X453Y-1410D01*
X448Y-1417D01*
X443Y-1421D01*
X436Y-1422D01*
G01X485D02*
Y-1359D01*
X514D01*
G01X503Y-1389D02*
X485D01*
G01X626Y-1422D02*
Y-1359D01*
X616Y-1372D01*
G01Y-1422D02*
X635D01*
G01X688Y-1359D02*
X682Y-1361D01*
X678Y-1366D01*
X674Y-1373D01*
X672Y-1381D01*
X671Y-1390D01*
X672Y-1400D01*
X674Y-1408D01*
X678Y-1415D01*
X682Y-1420D01*
X688Y-1422D01*
X695Y-1420D01*
X700Y-1415D01*
X703Y-1408D01*
X705Y-1400D01*
X706Y-1390D01*
X705Y-1381D01*
X703Y-1373D01*
X700Y-1366D01*
X695Y-1361D01*
X688Y-1359D01*
G01X279Y-577D02*
Y-502D01*
X315D01*
G01X302Y-538D02*
X279D01*
G01X353Y-577D02*
Y-502D01*
X377D01*
X384Y-506D01*
X389Y-511D01*
X391Y-521D01*
X389Y-531D01*
X383Y-537D01*
X377Y-541D01*
X353D01*
G01X377D02*
X391Y-577D01*
G01X466D02*
X428D01*
Y-502D01*
X466D01*
G01X451Y-538D02*
X428D01*
G01X541Y-577D02*
X503D01*
Y-502D01*
X541D01*
G01X526Y-538D02*
X503D01*
G01X577Y-567D02*
X585Y-573D01*
X593Y-577D01*
X601D01*
X608Y-573D01*
X614Y-567D01*
X617Y-558D01*
X615Y-550D01*
X610Y-542D01*
X602Y-537D01*
X590Y-534D01*
X584Y-530D01*
X581Y-521D01*
X583Y-512D01*
X588Y-506D01*
X594Y-502D01*
X601D01*
X607Y-505D01*
X613Y-511D01*
G01X692Y-508D02*
X687Y-505D01*
X680Y-502D01*
X673D01*
X664Y-506D01*
X658Y-512D01*
X653Y-520D01*
X650Y-532D01*
X649Y-543D01*
X650Y-554D01*
X653Y-562D01*
X659Y-570D01*
X666Y-574D01*
X672Y-577D01*
X678D01*
X685Y-574D01*
X691Y-571D01*
X695Y-566D01*
G01X724Y-577D02*
X747Y-502D01*
X770Y-577D01*
G01X762Y-551D02*
X732D01*
G01X803Y-502D02*
Y-577D01*
X841D01*
G01X916D02*
X878D01*
Y-502D01*
X916D01*
G01X901Y-538D02*
X878D01*
G01X1027Y-567D02*
X1035Y-573D01*
X1043Y-577D01*
X1051D01*
X1058Y-573D01*
X1064Y-567D01*
X1067Y-558D01*
X1065Y-550D01*
X1060Y-542D01*
X1052Y-537D01*
X1040Y-534D01*
X1034Y-530D01*
X1031Y-521D01*
X1033Y-512D01*
X1038Y-506D01*
X1044Y-502D01*
X1051D01*
X1057Y-505D01*
X1063Y-511D01*
G01X1141Y-577D02*
X1103D01*
Y-502D01*
X1141D01*
G01X1126Y-538D02*
X1103D01*
G01X1173Y-577D02*
Y-502D01*
X1197Y-564D01*
X1221Y-502D01*
Y-577D01*
G01X1261Y-502D02*
X1283D01*
G01X1272D02*
Y-577D01*
G01X1261D02*
X1283D01*
G01X1368Y-508D02*
X1362Y-505D01*
X1355Y-502D01*
X1348D01*
X1340Y-506D01*
X1333Y-512D01*
X1328Y-520D01*
X1325Y-532D01*
X1324Y-543D01*
X1326Y-554D01*
X1328Y-562D01*
X1334Y-570D01*
X1340Y-574D01*
X1347Y-577D01*
X1354D01*
X1360Y-574D01*
X1366Y-571D01*
X1370Y-566D01*
G01X1422Y-577D02*
X1414Y-576D01*
X1408Y-571D01*
X1402Y-563D01*
X1399Y-554D01*
X1397Y-544D01*
Y-534D01*
X1399Y-524D01*
X1402Y-516D01*
X1408Y-508D01*
X1414Y-503D01*
X1422Y-502D01*
X1430Y-503D01*
X1436Y-508D01*
X1442Y-516D01*
X1445Y-524D01*
X1447Y-534D01*
Y-544D01*
X1445Y-554D01*
X1442Y-563D01*
X1436Y-571D01*
X1430Y-576D01*
X1422Y-577D01*
G01X1476D02*
Y-502D01*
X1518Y-577D01*
Y-502D01*
G01X1552Y-577D02*
Y-502D01*
X1570D01*
X1578Y-506D01*
X1583Y-511D01*
X1588Y-518D01*
X1592Y-527D01*
X1592Y-540D01*
X1592Y-552D01*
X1588Y-561D01*
X1583Y-568D01*
X1578Y-573D01*
X1570Y-577D01*
X1552D01*
G01X1626Y-502D02*
Y-556D01*
X1630Y-567D01*
X1638Y-574D01*
X1647Y-577D01*
X1656Y-574D01*
X1664Y-567D01*
X1668Y-556D01*
Y-502D01*
G01X1742Y-508D02*
X1737Y-505D01*
X1730Y-502D01*
X1723D01*
X1715Y-506D01*
X1708Y-512D01*
X1703Y-520D01*
X1700Y-532D01*
X1699Y-543D01*
X1701Y-554D01*
X1703Y-562D01*
X1709Y-570D01*
X1716Y-574D01*
X1722Y-577D01*
X1728D01*
X1735Y-574D01*
X1741Y-571D01*
X1745Y-566D01*
G01X1797Y-502D02*
Y-577D01*
G01X1776Y-502D02*
X1818D01*
G01X1872Y-577D02*
X1864Y-576D01*
X1858Y-571D01*
X1852Y-563D01*
X1849Y-554D01*
X1847Y-544D01*
Y-534D01*
X1849Y-524D01*
X1852Y-516D01*
X1858Y-508D01*
X1864Y-503D01*
X1872Y-502D01*
X1880Y-503D01*
X1886Y-508D01*
X1892Y-516D01*
X1895Y-524D01*
X1897Y-534D01*
Y-544D01*
X1895Y-554D01*
X1892Y-563D01*
X1886Y-571D01*
X1880Y-576D01*
X1872Y-577D01*
G01X1928D02*
Y-502D01*
X1952D01*
X1959Y-506D01*
X1964Y-511D01*
X1966Y-521D01*
X1964Y-531D01*
X1958Y-537D01*
X1952Y-541D01*
X1928D01*
G01X1952D02*
X1966Y-577D01*
G01X956Y-1414D02*
X962Y-1419D01*
X969Y-1422D01*
X976D01*
X982Y-1419D01*
X987Y-1414D01*
X989Y-1406D01*
X987Y-1399D01*
X984Y-1393D01*
X976Y-1388D01*
X967Y-1386D01*
X962Y-1382D01*
X959Y-1375D01*
X961Y-1367D01*
X965Y-1362D01*
X970Y-1359D01*
X976D01*
X981Y-1361D01*
X986Y-1366D01*
G01X1051Y-1422D02*
X1020D01*
Y-1359D01*
X1051D01*
G01X1039Y-1389D02*
X1020D01*
G01X1116Y-1364D02*
X1111Y-1361D01*
X1106Y-1359D01*
X1099D01*
X1092Y-1362D01*
X1087Y-1367D01*
X1083Y-1374D01*
X1080Y-1384D01*
X1079Y-1394D01*
X1080Y-1403D01*
X1083Y-1409D01*
X1088Y-1416D01*
X1093Y-1420D01*
X1098Y-1422D01*
X1104D01*
X1110Y-1420D01*
X1114Y-1417D01*
X1118Y-1413D01*
G01X1162Y-1422D02*
X1155Y-1421D01*
X1150Y-1417D01*
X1145Y-1410D01*
X1142Y-1403D01*
X1140Y-1395D01*
Y-1386D01*
X1142Y-1378D01*
X1145Y-1370D01*
X1150Y-1364D01*
X1155Y-1360D01*
X1162Y-1359D01*
X1168Y-1360D01*
X1173Y-1364D01*
X1178Y-1370D01*
X1181Y-1378D01*
X1183Y-1386D01*
Y-1395D01*
X1181Y-1403D01*
X1178Y-1410D01*
X1173Y-1417D01*
X1168Y-1421D01*
X1162Y-1422D01*
G01X1207D02*
Y-1359D01*
X1242Y-1422D01*
Y-1359D01*
G01X1270Y-1422D02*
Y-1359D01*
X1286D01*
X1292Y-1362D01*
X1297Y-1366D01*
X1301Y-1373D01*
X1304Y-1380D01*
X1305Y-1390D01*
X1304Y-1401D01*
X1301Y-1408D01*
X1297Y-1415D01*
X1292Y-1419D01*
X1286Y-1422D01*
X1270D01*
G01X1331D02*
X1350Y-1359D01*
X1370Y-1422D01*
G01X1363Y-1400D02*
X1338D01*
G01X1398Y-1422D02*
Y-1359D01*
X1417D01*
X1424Y-1362D01*
X1428Y-1366D01*
X1429Y-1375D01*
X1428Y-1383D01*
X1423Y-1388D01*
X1417Y-1392D01*
X1398D01*
G01X1417D02*
X1429Y-1422D01*
G01X1476D02*
Y-1394D01*
X1461Y-1359D01*
G01X1492D02*
X1476Y-1394D01*
G01X1586Y-1414D02*
X1592Y-1419D01*
X1599Y-1422D01*
X1606D01*
X1612Y-1419D01*
X1617Y-1414D01*
X1619Y-1406D01*
X1617Y-1399D01*
X1614Y-1393D01*
X1606Y-1388D01*
X1597Y-1386D01*
X1592Y-1382D01*
X1589Y-1375D01*
X1591Y-1367D01*
X1595Y-1362D01*
X1600Y-1359D01*
X1606D01*
X1611Y-1361D01*
X1616Y-1366D01*
G01X1656Y-1359D02*
X1675D01*
G01X1666D02*
Y-1422D01*
G01X1656D02*
X1675D01*
G01X1711D02*
Y-1359D01*
X1727D01*
X1733Y-1362D01*
X1738Y-1366D01*
X1742Y-1373D01*
X1745Y-1380D01*
X1746Y-1390D01*
X1745Y-1401D01*
X1742Y-1408D01*
X1738Y-1415D01*
X1733Y-1419D01*
X1727Y-1422D01*
X1711D01*
G01X1807D02*
X1776D01*
Y-1359D01*
X1807D01*
G01X1795Y-1389D02*
X1776D01*
G01X2176Y-1027D02*
X2209Y-964D01*
G01X2176D02*
X2209Y-1027D01*
G01X2177Y-682D02*
Y-619D01*
X2198Y-672D01*
X2218Y-619D01*
Y-682D01*
G01X2276D02*
X2245D01*
Y-619D01*
X2276D01*
G01X2264Y-649D02*
X2245D01*
G01X2306Y-682D02*
Y-619D01*
X2322D01*
X2328Y-622D01*
X2333Y-626D01*
X2337Y-633D01*
X2340Y-640D01*
X2341Y-650D01*
X2340Y-661D01*
X2337Y-668D01*
X2333Y-675D01*
X2328Y-679D01*
X2322Y-682D01*
X2306D01*
G01X2377Y-619D02*
X2396D01*
G01X2386D02*
Y-682D01*
G01X2377D02*
X2396D01*
G01X2467Y-624D02*
X2462Y-621D01*
X2457Y-619D01*
X2450D01*
X2443Y-622D01*
X2438Y-627D01*
X2434Y-634D01*
X2431Y-644D01*
X2430Y-654D01*
X2432Y-663D01*
X2434Y-669D01*
X2438Y-676D01*
X2444Y-680D01*
X2450Y-682D01*
X2455D01*
X2460Y-680D01*
X2465Y-677D01*
X2469Y-673D01*
G01X2493Y-682D02*
X2512Y-619D01*
X2532Y-682D01*
G01X2525Y-660D02*
X2500D01*
G01X2560Y-619D02*
Y-682D01*
X2591D01*
G01X2682Y-619D02*
X2702Y-682D01*
X2721Y-619D01*
G01X2780Y-682D02*
X2749D01*
Y-619D01*
X2780D01*
G01X2768Y-649D02*
X2749D01*
G01X2810Y-682D02*
Y-619D01*
X2846Y-682D01*
Y-619D01*
G01X2890D02*
Y-682D01*
G01X2872Y-619D02*
X2908D01*
G01X2944D02*
X2963D01*
G01X2954D02*
Y-682D01*
G01X2944D02*
X2963D01*
G01X3001Y-619D02*
Y-682D01*
X3032D01*
G01X3060D02*
X3080Y-619D01*
X3099Y-682D01*
G01X3092Y-660D02*
X3067D01*
G01X3142Y-619D02*
Y-682D01*
G01X3125Y-619D02*
X3160D01*
G01X3206Y-682D02*
X3199Y-681D01*
X3194Y-677D01*
X3189Y-670D01*
X3186Y-663D01*
X3184Y-655D01*
Y-646D01*
X3186Y-638D01*
X3189Y-631D01*
X3194Y-624D01*
X3199Y-620D01*
X3206Y-619D01*
X3212Y-620D01*
X3217Y-624D01*
X3222Y-631D01*
X3225Y-638D01*
X3227Y-646D01*
Y-655D01*
X3225Y-663D01*
X3222Y-670D01*
X3217Y-677D01*
X3212Y-681D01*
X3206Y-682D01*
G01X3253D02*
Y-619D01*
X3272D01*
X3279Y-622D01*
X3283Y-626D01*
X3284Y-635D01*
X3283Y-643D01*
X3278Y-648D01*
X3272Y-652D01*
X3253D01*
G01X3272D02*
X3284Y-682D01*
G01X3384Y-661D02*
X3405D01*
G01X3505Y-682D02*
Y-619D01*
X3524D01*
X3531Y-622D01*
X3535Y-626D01*
X3536Y-635D01*
X3535Y-643D01*
X3530Y-648D01*
X3524Y-652D01*
X3505D01*
G01X3524D02*
X3536Y-682D01*
G01X3599D02*
X3568D01*
Y-619D01*
X3599D01*
G01X3587Y-649D02*
X3568D01*
G01X3630Y-674D02*
X3636Y-679D01*
X3643Y-682D01*
X3650D01*
X3656Y-679D01*
X3661Y-674D01*
X3663Y-666D01*
X3661Y-659D01*
X3658Y-653D01*
X3650Y-648D01*
X3641Y-646D01*
X3636Y-642D01*
X3633Y-635D01*
X3635Y-627D01*
X3639Y-622D01*
X3644Y-619D01*
X3650D01*
X3655Y-621D01*
X3660Y-626D01*
G01X3694Y-682D02*
Y-619D01*
X3713D01*
X3719Y-622D01*
X3724Y-630D01*
X3725Y-638D01*
X3724Y-646D01*
X3720Y-653D01*
X3713Y-656D01*
X3694D01*
G01X3763Y-619D02*
X3782D01*
G01X3772D02*
Y-682D01*
G01X3763D02*
X3782D01*
G01X3820D02*
Y-619D01*
X3839D01*
X3846Y-622D01*
X3850Y-626D01*
X3851Y-635D01*
X3850Y-643D01*
X3845Y-648D01*
X3839Y-652D01*
X3820D01*
G01X3839D02*
X3851Y-682D01*
G01X3879D02*
X3899Y-619D01*
X3918Y-682D01*
G01X3911Y-660D02*
X3886D01*
G01X3962Y-619D02*
Y-682D01*
G01X3944Y-619D02*
X3980D01*
G01X4024Y-682D02*
X4018Y-681D01*
X4013Y-677D01*
X4008Y-670D01*
X4005Y-663D01*
X4003Y-655D01*
Y-646D01*
X4005Y-638D01*
X4008Y-631D01*
X4013Y-624D01*
X4018Y-620D01*
X4024Y-619D01*
X4031Y-620D01*
X4036Y-624D01*
X4041Y-631D01*
X4044Y-638D01*
X4046Y-646D01*
Y-655D01*
X4044Y-663D01*
X4041Y-670D01*
X4036Y-677D01*
X4031Y-681D01*
X4024Y-682D01*
G01X4072D02*
Y-619D01*
X4091D01*
X4098Y-622D01*
X4102Y-626D01*
X4103Y-635D01*
X4102Y-643D01*
X4097Y-648D01*
X4091Y-652D01*
X4072D01*
G01X4091D02*
X4103Y-682D01*
G01X2882Y-1407D02*
Y-1344D01*
X2873Y-1357D01*
G01Y-1407D02*
X2892D01*
G01X2944D02*
X2946Y-1393D01*
X2948Y-1382D01*
X2951Y-1371D01*
X2955Y-1360D01*
X2961Y-1344D01*
X2930D01*
G01X3008D02*
X3002Y-1346D01*
X2998Y-1351D01*
X2994Y-1358D01*
X2992Y-1366D01*
X2991Y-1376D01*
X2992Y-1385D01*
X2994Y-1393D01*
X2998Y-1400D01*
X3002Y-1405D01*
X3008Y-1407D01*
X3015Y-1405D01*
X3020Y-1400D01*
X3023Y-1393D01*
X3025Y-1385D01*
X3026Y-1376D01*
X3025Y-1366D01*
X3023Y-1358D01*
X3020Y-1351D01*
X3015Y-1346D01*
X3008Y-1344D01*
G01X3061Y-1386D02*
X3082D01*
G01X3118Y-1407D02*
X3151Y-1344D01*
G01X3118D02*
X3151Y-1407D01*
G01X3181D02*
X3214Y-1344D01*
G01X3181D02*
X3214Y-1407D01*
G01X3244D02*
X3277Y-1344D01*
G01X3244D02*
X3277Y-1407D01*
G01X3307D02*
X3340Y-1344D01*
G01X3307D02*
X3340Y-1407D01*
G01X3370D02*
X3403Y-1344D01*
G01X3370D02*
X3403Y-1407D01*
G01X3812D02*
Y-1344D01*
X3831D01*
X3838Y-1347D01*
X3842Y-1351D01*
X3843Y-1360D01*
X3842Y-1368D01*
X3837Y-1373D01*
X3831Y-1377D01*
X3812D01*
G01X3831D02*
X3843Y-1407D01*
G01X3906D02*
X3875D01*
Y-1344D01*
X3906D01*
G01X3894Y-1374D02*
X3875D01*
G01X3934Y-1344D02*
X3954Y-1407D01*
X3973Y-1344D01*
G01X4060Y-1407D02*
X4080Y-1344D01*
X4099Y-1407D01*
G01X4092Y-1385D02*
X4067D01*
G54D21*
X194Y1943D03*
X2584Y2803D03*
X2899D03*
X3209D03*
X3519D03*
G54D12*
X124Y2543D03*
X224Y2168D03*
X324D03*
X224Y2543D03*
X3309Y1678D03*
Y1578D03*
Y1478D03*
X2989D03*
Y1578D03*
G54D31*
G01X332Y2295D02*
X222D01*
X187Y2330D01*
X150D01*
G01X942Y1969D02*
Y1141D01*
X919Y1118D01*
G01X1289Y848D02*
Y782D01*
X1208Y701D01*
Y264D01*
X1179Y235D01*
Y168D01*
G01X1339Y848D02*
Y658D01*
X1279Y598D01*
Y168D01*
G01X1529Y1360D02*
X1416D01*
X1399Y1343D01*
Y1248D01*
G01X1404Y1583D02*
X1354D01*
X1334Y1563D01*
Y1423D01*
X1364Y1393D01*
X1824D01*
X1869Y1348D01*
Y1238D01*
X1929Y1178D01*
X2079D01*
G01X1569Y1733D02*
X1327D01*
X1297Y1763D01*
Y2255D01*
X1264Y2288D01*
Y2348D01*
G01X1404Y1438D02*
Y1483D01*
X1419Y1498D01*
X1529D01*
X1569Y1538D01*
Y1602D01*
G01X1263Y1860D02*
Y1713D01*
X1308Y1668D01*
X1534D01*
G01X1632Y1737D02*
Y1766D01*
X1615Y1783D01*
X1335D01*
G01X1599Y2009D02*
X1610Y2020D01*
Y2089D01*
X1603Y2096D01*
X1411D01*
X1386Y2070D01*
Y1861D01*
X1399Y1847D01*
Y1825D01*
G01X1638Y2009D02*
Y2080D01*
X1610Y2108D01*
X1406D01*
X1374Y2076D01*
Y1861D01*
X1360Y1847D01*
Y1825D01*
G01X1438Y2004D02*
X1527D01*
X1538Y1993D01*
Y1968D01*
G01X1735Y1338D02*
X1709D01*
X1694Y1323D01*
Y1263D01*
X1674Y1243D01*
Y1013D01*
G01X1719Y758D02*
Y843D01*
X1759Y883D01*
X1849D01*
X1874Y908D01*
Y1178D01*
G01X1579Y1443D02*
X1939D01*
X1979Y1403D01*
G01X1695Y1754D02*
Y1596D01*
X1732Y1559D01*
X2141D01*
X2186Y1514D01*
Y1389D01*
X2242Y1333D01*
Y1249D01*
G01X1669Y2368D02*
X1654D01*
X1640Y2382D01*
Y2519D01*
G01X1919Y1148D02*
Y761D01*
G01X2145Y1113D02*
Y1402D01*
X2134Y1413D01*
X2024D01*
X2004Y1433D01*
Y1483D01*
G01X3419Y2803D02*
Y2383D01*
X3359Y2323D01*
X2699D01*
X2609Y2233D01*
Y2058D01*
X2544Y1993D01*
X2404D01*
X2339Y1928D01*
Y1753D01*
X2254Y1668D01*
X2151D01*
X2144Y1661D01*
Y1622D01*
G01X2169Y1720D02*
X2251D01*
X2294Y1763D01*
Y2008D01*
X2319Y2033D01*
X2429D01*
X2479Y2083D01*
Y2298D01*
X2564Y2383D01*
X2949D01*
X2974Y2408D01*
Y2748D01*
X3029Y2803D01*
X3109D01*
G01X2799D02*
Y2478D01*
X2764Y2443D01*
X2509D01*
X2414Y2348D01*
Y2123D01*
X2369Y2078D01*
X2274D01*
X2239Y2043D01*
Y1778D01*
X2219Y1758D01*
X2184D01*
G01X2484Y2803D02*
X2384D01*
X2354Y2773D01*
Y2163D01*
X2314Y2123D01*
X2189D01*
X2154Y2088D01*
Y1788D01*
G01X2233Y1453D02*
X2279D01*
X2309Y1483D01*
Y1643D01*
X2334Y1668D01*
X2399D01*
G54D22*
X599Y108D03*
Y208D03*
X865Y2028D03*
G54D13*
X199Y198D03*
Y2788D03*
X4274Y218D03*
Y2793D03*
G54D32*
G01X4249Y-457D02*
Y-1457D01*
X249D01*
G01D02*
Y-457D01*
X4249D01*
G54D23*
X599Y308D03*
X609Y2028D03*
G54D14*
X169Y479D03*
X378D03*
X169Y767D03*
X378D03*
G54D33*
G01X456Y1519D02*
X457Y1518D01*
G01D02*
X524D01*
G01D02*
X525D01*
G01X799Y1522D02*
X797Y1520D01*
G01X749Y1518D02*
Y1517D01*
G01X797Y1520D02*
X707D01*
X709Y1518D01*
X749D01*
G54D15*
X179Y1058D03*
X1299Y2828D03*
X1619D03*
X1939D03*
X2269Y2823D03*
X4024Y2813D03*
G54D24*
G01X179Y1058D02*
Y1321D01*
X174Y1326D01*
Y1418D01*
G01X524Y1618D02*
X606D01*
X634Y1590D01*
Y1123D01*
X709Y1048D01*
Y523D01*
G01X524Y1618D02*
Y1418D03*
X749D03*
X524Y1518D03*
X749D03*
X949Y2543D03*
X1049D03*
X1399Y2268D03*
Y2368D03*
X1739Y2268D03*
Y2368D03*
X2279Y2458D03*
Y2358D03*
X2549Y1908D03*
X2649D03*
G54D34*
G01X85Y2543D02*
X124D01*
G01X169Y427D02*
Y479D01*
G01D02*
Y532D01*
G01X116Y479D02*
X169D01*
G01D02*
X222D01*
G01X378Y427D02*
Y479D01*
G01D02*
Y532D01*
G01X325Y479D02*
X378D01*
G01D02*
X430D01*
G01X179Y917D02*
Y958D01*
G01D02*
Y999D01*
G01X138Y958D02*
X179D01*
G01D02*
X220D01*
G01X169Y714D02*
Y767D01*
G01D02*
Y819D01*
G01X116Y767D02*
X169D01*
G01D02*
X222D01*
G01X378Y714D02*
Y767D01*
G01D02*
Y819D01*
G01X325Y767D02*
X378D01*
G01D02*
X430D01*
G01X194Y1899D02*
Y1943D01*
G01D02*
Y1987D01*
G01X150Y1943D02*
X194D01*
G01D02*
X238D01*
G01X324Y2129D02*
Y2168D01*
G01D02*
Y2207D01*
G01X285Y2168D02*
X324D01*
G01D02*
X363D01*
G01X124Y2504D02*
Y2543D01*
G01D02*
Y2582D01*
G01Y2543D02*
X163D01*
G01X599Y108D02*
Y147D01*
G01X560Y108D02*
X599D01*
G01D02*
X638D01*
G01X501Y488D02*
X519Y506D01*
G01D02*
X537Y524D01*
G01X501D02*
X519Y506D01*
G01D02*
X537Y488D01*
G01X879Y126D02*
Y168D01*
G01D02*
Y210D01*
G01X837Y168D02*
X879D01*
G01D02*
X921D01*
G01X1031Y715D02*
X1050Y733D01*
G01D02*
X1068Y751D01*
G01X1031D02*
X1050Y733D01*
G01D02*
X1068Y715D01*
G01X821Y1234D02*
X839Y1252D01*
G01D02*
X857Y1270D01*
G01X821D02*
X839Y1252D01*
G01D02*
X857Y1234D01*
G01X949Y2494D02*
Y2543D01*
G01D02*
Y2592D01*
G01X900Y2543D02*
X949D01*
G01X1399Y2219D02*
Y2268D01*
G01X1350D02*
X1399D01*
G01D02*
X1448D01*
G01X1781Y1324D02*
X1799Y1342D01*
G01D02*
X1817Y1360D01*
G01X1781D02*
X1799Y1342D01*
G01D02*
X1817Y1324D01*
G01X1739Y2219D02*
Y2268D01*
G01X1690D02*
X1739D01*
G01D02*
X1788D01*
G01X2021Y1859D02*
X2039Y1877D01*
G01D02*
X2057Y1895D01*
G01X2021D02*
X2039Y1877D01*
G01D02*
X2057Y1859D01*
G01X2230Y2458D02*
X2279D01*
G01X2379Y126D02*
Y168D01*
G01D02*
Y210D01*
G01X2337Y168D02*
X2379D01*
G01D02*
X2421D01*
G01X2576Y620D02*
X2594Y638D01*
G01X2576Y656D02*
X2594Y638D01*
G01X2499Y1626D02*
Y1668D01*
G01D02*
Y1710D01*
G01X2457Y1668D02*
X2499D01*
G01D02*
X2541D01*
G01X2279Y2458D02*
Y2507D01*
G01Y2458D02*
X2328D01*
G01X2594Y638D02*
X2612Y656D01*
G01X2594Y638D02*
X2612Y620D01*
G01X2649Y1859D02*
Y1908D01*
G01D02*
Y1957D01*
G01Y1908D02*
X2698D01*
G01X2989Y1539D02*
Y1578D01*
G01D02*
Y1617D01*
G01X2950Y1578D02*
X2989D01*
G01D02*
X3028D01*
G01X3270Y1478D02*
X3309D01*
G01X3536Y610D02*
X3554Y628D01*
G01D02*
X3572Y646D01*
G01X3536D02*
X3554Y628D01*
G01D02*
X3572Y610D01*
G01X3309Y1439D02*
Y1478D01*
G01D02*
Y1517D01*
G01Y1478D02*
X3348D01*
G01X4150Y1623D02*
X4168Y1642D01*
G01D02*
X4187Y1660D01*
G01X4150D02*
X4168Y1642D01*
G01D02*
X4187Y1623D01*
G01X4131Y2513D02*
X4149Y2531D01*
G01D02*
X4167Y2549D01*
G01X4131D02*
X4149Y2531D01*
G01D02*
X4167Y2513D01*
G54D25*
X524Y1618D03*
X749D03*
X1149Y2543D03*
X1399Y2468D03*
X1739D03*
X2279Y2258D03*
X2449Y1908D03*
G54D16*
X179Y958D03*
X1199Y2828D03*
X1519D03*
X1839D03*
X2169Y2823D03*
X3924Y2813D03*
G54D35*
G01X-1Y-2D02*
Y2998D01*
X4499D01*
Y-2D01*
X-1D01*
G01X365Y-1227D02*
Y-1187D01*
X388D01*
G01X379Y-1206D02*
X365D01*
G01X413Y-1227D02*
Y-1187D01*
X427D01*
X432Y-1189D01*
X435Y-1192D01*
X436Y-1197D01*
X435Y-1202D01*
X432Y-1206D01*
X427Y-1208D01*
X413D01*
G01X427D02*
X436Y-1227D01*
G01X484D02*
X461D01*
Y-1187D01*
X484D01*
G01X475Y-1206D02*
X461D01*
G01X532Y-1227D02*
X509D01*
Y-1187D01*
X532D01*
G01X523Y-1206D02*
X509D01*
G01X556Y-1222D02*
X561Y-1225D01*
X566Y-1227D01*
X571D01*
X576Y-1225D01*
X579Y-1222D01*
X581Y-1217D01*
X580Y-1212D01*
X577Y-1208D01*
X571Y-1206D01*
X564Y-1204D01*
X560Y-1202D01*
X559Y-1197D01*
X560Y-1192D01*
X563Y-1189D01*
X567Y-1187D01*
X571D01*
X575Y-1188D01*
X578Y-1192D01*
G01X629Y-1190D02*
X626Y-1188D01*
X622Y-1187D01*
X617D01*
X612Y-1189D01*
X608Y-1192D01*
X605Y-1196D01*
X602Y-1203D01*
X602Y-1209D01*
X603Y-1215D01*
X605Y-1219D01*
X608Y-1223D01*
X612Y-1226D01*
X616Y-1227D01*
X621D01*
X625Y-1226D01*
X628Y-1224D01*
X631Y-1221D01*
G01X650Y-1227D02*
X664Y-1187D01*
X679Y-1227D01*
G01X674Y-1213D02*
X655D01*
G01X701Y-1187D02*
Y-1227D01*
X724D01*
G01X772D02*
X749D01*
Y-1187D01*
X772D01*
G01X763Y-1206D02*
X749D01*
G01X808Y-1228D02*
X807Y-1228D01*
Y-1226D01*
X808Y-1226D01*
X810Y-1226D01*
Y-1228D01*
X808Y-1228D01*
G01X366Y-1147D02*
X362Y-1146D01*
X358Y-1144D01*
X354Y-1140D01*
X352Y-1135D01*
X351Y-1130D01*
Y-1124D01*
X352Y-1119D01*
X354Y-1114D01*
X358Y-1110D01*
X362Y-1108D01*
X366Y-1107D01*
X371Y-1108D01*
X375Y-1110D01*
X379Y-1114D01*
X381Y-1119D01*
X382Y-1124D01*
Y-1130D01*
X381Y-1135D01*
X379Y-1140D01*
X375Y-1144D01*
X371Y-1146D01*
X366Y-1147D01*
G01X403D02*
Y-1107D01*
X417D01*
X422Y-1109D01*
X425Y-1112D01*
X426Y-1117D01*
X425Y-1122D01*
X422Y-1126D01*
X417Y-1128D01*
X403D01*
G01X417D02*
X426Y-1147D01*
G01X504Y-1107D02*
X518D01*
G01X511D02*
Y-1147D01*
G01X504D02*
X518D01*
G01X545D02*
Y-1107D01*
X572Y-1147D01*
Y-1107D01*
G01X643Y-1147D02*
Y-1107D01*
X657D01*
X662Y-1109D01*
X665Y-1114D01*
X666Y-1119D01*
X665Y-1124D01*
X662Y-1128D01*
X657Y-1130D01*
X643D01*
G01X688Y-1147D02*
X702Y-1107D01*
X717Y-1147D01*
G01X712Y-1133D02*
X693D01*
G01X739Y-1147D02*
Y-1107D01*
X753D01*
X758Y-1109D01*
X761Y-1112D01*
X762Y-1117D01*
X761Y-1122D01*
X758Y-1126D01*
X753Y-1128D01*
X739D01*
G01X753D02*
X762Y-1147D01*
G01X798Y-1107D02*
Y-1147D01*
G01X785Y-1107D02*
X812D01*
G01X877D02*
X885Y-1147D01*
X895Y-1107D01*
X904Y-1147D01*
X912Y-1107D01*
G01X936D02*
X950D01*
G01X942D02*
Y-1147D01*
G01X936D02*
X950D01*
G01X990Y-1107D02*
Y-1147D01*
G01X977Y-1107D02*
X1004D01*
G01X1026Y-1147D02*
Y-1107D01*
G01X1051D02*
Y-1147D01*
G01Y-1127D02*
X1026D01*
G01X1086Y-1147D02*
X1082Y-1146D01*
X1078Y-1144D01*
X1074Y-1140D01*
X1072Y-1135D01*
X1071Y-1130D01*
Y-1124D01*
X1072Y-1119D01*
X1074Y-1114D01*
X1078Y-1110D01*
X1082Y-1108D01*
X1086Y-1107D01*
X1091Y-1108D01*
X1095Y-1110D01*
X1099Y-1114D01*
X1101Y-1119D01*
X1102Y-1124D01*
Y-1130D01*
X1101Y-1135D01*
X1099Y-1140D01*
X1095Y-1144D01*
X1091Y-1146D01*
X1086Y-1147D01*
G01X1122Y-1107D02*
Y-1136D01*
X1124Y-1142D01*
X1129Y-1146D01*
X1134Y-1147D01*
X1140Y-1146D01*
X1145Y-1142D01*
X1147Y-1136D01*
Y-1107D01*
G01X1182D02*
Y-1147D01*
G01X1169Y-1107D02*
X1196D01*
G01X1278D02*
Y-1147D01*
G01X1265Y-1107D02*
X1292D01*
G01X1314Y-1147D02*
Y-1107D01*
G01X1339D02*
Y-1147D01*
G01Y-1127D02*
X1314D01*
G01X1386Y-1147D02*
X1363D01*
Y-1107D01*
X1386D01*
G01X1377Y-1126D02*
X1363D01*
G01X1483Y-1110D02*
X1480Y-1108D01*
X1476Y-1107D01*
X1471D01*
X1466Y-1109D01*
X1462Y-1112D01*
X1459Y-1116D01*
X1457Y-1123D01*
X1456Y-1129D01*
X1457Y-1135D01*
X1459Y-1139D01*
X1462Y-1143D01*
X1466Y-1146D01*
X1471Y-1147D01*
X1475D01*
X1479Y-1146D01*
X1482Y-1144D01*
X1485Y-1141D01*
G01X1518Y-1147D02*
X1514Y-1146D01*
X1510Y-1144D01*
X1506Y-1140D01*
X1504Y-1135D01*
X1503Y-1130D01*
Y-1124D01*
X1504Y-1119D01*
X1506Y-1114D01*
X1510Y-1110D01*
X1514Y-1108D01*
X1518Y-1107D01*
X1523Y-1108D01*
X1527Y-1110D01*
X1531Y-1114D01*
X1533Y-1119D01*
X1534Y-1124D01*
Y-1130D01*
X1533Y-1135D01*
X1531Y-1140D01*
X1527Y-1144D01*
X1523Y-1146D01*
X1518Y-1147D01*
G01X1553D02*
Y-1107D01*
X1580Y-1147D01*
Y-1107D01*
G01X1602Y-1142D02*
X1607Y-1145D01*
X1612Y-1147D01*
X1617D01*
X1622Y-1145D01*
X1625Y-1142D01*
X1627Y-1137D01*
X1626Y-1132D01*
X1623Y-1128D01*
X1617Y-1126D01*
X1610Y-1124D01*
X1606Y-1122D01*
X1605Y-1117D01*
X1606Y-1112D01*
X1609Y-1109D01*
X1613Y-1107D01*
X1617D01*
X1621Y-1108D01*
X1624Y-1112D01*
G01X1674Y-1147D02*
X1651D01*
Y-1107D01*
X1674D01*
G01X1665Y-1126D02*
X1651D01*
G01X1697Y-1147D02*
Y-1107D01*
X1724Y-1147D01*
Y-1107D01*
G01X1758D02*
Y-1147D01*
G01X1745Y-1107D02*
X1772D01*
G01X1854Y-1147D02*
X1850Y-1146D01*
X1846Y-1144D01*
X1842Y-1140D01*
X1840Y-1135D01*
X1839Y-1130D01*
Y-1124D01*
X1840Y-1119D01*
X1842Y-1114D01*
X1846Y-1110D01*
X1850Y-1108D01*
X1854Y-1107D01*
X1859Y-1108D01*
X1863Y-1110D01*
X1867Y-1114D01*
X1869Y-1119D01*
X1870Y-1124D01*
Y-1130D01*
X1869Y-1135D01*
X1867Y-1140D01*
X1863Y-1144D01*
X1859Y-1146D01*
X1854Y-1147D01*
G01X1891D02*
Y-1107D01*
X1914D01*
G01X1905Y-1126D02*
X1891D01*
G01X284Y-1332D02*
X289Y-1335D01*
X294Y-1337D01*
X299D01*
X304Y-1335D01*
X307Y-1332D01*
X309Y-1327D01*
X308Y-1322D01*
X305Y-1318D01*
X299Y-1316D01*
X292Y-1314D01*
X288Y-1312D01*
X287Y-1307D01*
X288Y-1302D01*
X291Y-1299D01*
X295Y-1297D01*
X299D01*
X303Y-1298D01*
X306Y-1302D01*
G01X332Y-1337D02*
Y-1297D01*
G01X357D02*
Y-1337D01*
G01Y-1317D02*
X332D01*
G01X404Y-1337D02*
X381D01*
Y-1297D01*
X404D01*
G01X395Y-1316D02*
X381D01*
G01X452Y-1337D02*
X429D01*
Y-1297D01*
X452D01*
G01X443Y-1316D02*
X429D01*
G01X488Y-1297D02*
Y-1337D01*
G01X475Y-1297D02*
X502D01*
G01X282Y-727D02*
X296Y-687D01*
X311Y-727D01*
G01X306Y-713D02*
X287D01*
G01X332Y-687D02*
Y-716D01*
X334Y-722D01*
X339Y-726D01*
X344Y-727D01*
X350Y-726D01*
X355Y-722D01*
X357Y-716D01*
Y-687D01*
G01X380Y-722D02*
X385Y-725D01*
X390Y-727D01*
X395D01*
X400Y-725D01*
X403Y-722D01*
X405Y-717D01*
X404Y-712D01*
X401Y-708D01*
X395Y-706D01*
X388Y-704D01*
X384Y-702D01*
X383Y-697D01*
X384Y-692D01*
X387Y-689D01*
X391Y-687D01*
X395D01*
X399Y-688D01*
X402Y-692D01*
G01X440Y-687D02*
Y-727D01*
G01X427Y-687D02*
X454D01*
G01X482D02*
X496D01*
G01X488D02*
Y-727D01*
G01X482D02*
X496D01*
G01X523D02*
Y-687D01*
X550Y-727D01*
Y-687D01*
G01X584Y-728D02*
X583Y-728D01*
Y-726D01*
X584Y-726D01*
X586Y-726D01*
Y-728D01*
X584Y-728D01*
G01X680Y-687D02*
Y-727D01*
G01X667Y-687D02*
X694D01*
G01X740Y-727D02*
X717D01*
Y-687D01*
X740D01*
G01X731Y-706D02*
X717D01*
G01X764Y-727D02*
X789Y-687D01*
G01X764D02*
X789Y-727D01*
G01X810D02*
X824Y-687D01*
X839Y-727D01*
G01X834Y-713D02*
X815D01*
G01X860Y-722D02*
X865Y-725D01*
X870Y-727D01*
X875D01*
X880Y-725D01*
X883Y-722D01*
X885Y-717D01*
X884Y-712D01*
X881Y-708D01*
X875Y-706D01*
X868Y-704D01*
X864Y-702D01*
X863Y-697D01*
X864Y-692D01*
X867Y-689D01*
X871Y-687D01*
X875D01*
X879Y-688D01*
X882Y-692D01*
G01X967Y-727D02*
X968Y-718D01*
X970Y-711D01*
X973Y-704D01*
X976Y-697D01*
X980Y-687D01*
X957D01*
G01X1016Y-727D02*
X1021Y-726D01*
X1025Y-724D01*
X1028Y-721D01*
X1029Y-716D01*
X1028Y-712D01*
X1025Y-708D01*
X1019Y-706D01*
X1014D01*
X1010Y-704D01*
X1007Y-701D01*
X1006Y-696D01*
X1008Y-692D01*
X1012Y-688D01*
X1016Y-687D01*
X1021Y-688D01*
X1025Y-692D01*
X1027Y-696D01*
X1026Y-701D01*
X1023Y-704D01*
X1019Y-706D01*
X1014D01*
X1008Y-708D01*
X1005Y-712D01*
X1004Y-716D01*
X1005Y-721D01*
X1008Y-724D01*
X1012Y-726D01*
X1016Y-727D01*
G01X1063D02*
X1064Y-718D01*
X1066Y-711D01*
X1069Y-704D01*
X1072Y-697D01*
X1076Y-687D01*
X1053D01*
G01X1100Y-719D02*
X1103Y-724D01*
X1108Y-726D01*
X1113Y-727D01*
X1118Y-726D01*
X1122Y-723D01*
X1125Y-719D01*
X1126Y-715D01*
X1125Y-710D01*
X1121Y-707D01*
X1117Y-706D01*
X1111D01*
G01X1117D02*
X1120Y-704D01*
X1123Y-700D01*
X1124Y-696D01*
X1123Y-692D01*
X1120Y-689D01*
X1115Y-687D01*
X1110Y-688D01*
X1104Y-690D01*
G01X1148Y-721D02*
X1151Y-724D01*
X1155Y-726D01*
X1160Y-727D01*
X1166Y-726D01*
X1170Y-723D01*
X1173Y-718D01*
X1173Y-713D01*
X1172Y-708D01*
X1169Y-704D01*
X1165Y-702D01*
X1161Y-701D01*
X1157Y-702D01*
X1152Y-704D01*
X1154Y-687D01*
X1169D01*
G01X1244D02*
Y-716D01*
X1246Y-722D01*
X1251Y-726D01*
X1256Y-727D01*
X1262Y-726D01*
X1267Y-722D01*
X1269Y-716D01*
Y-687D01*
G01X1292Y-722D02*
X1297Y-725D01*
X1302Y-727D01*
X1307D01*
X1312Y-725D01*
X1315Y-722D01*
X1317Y-717D01*
X1316Y-712D01*
X1313Y-708D01*
X1307Y-706D01*
X1300Y-704D01*
X1296Y-702D01*
X1295Y-697D01*
X1296Y-692D01*
X1299Y-689D01*
X1303Y-687D01*
X1307D01*
X1311Y-688D01*
X1314Y-692D01*
G01X1338Y-727D02*
X1352Y-687D01*
X1367Y-727D01*
G01X1362Y-713D02*
X1343D01*
G01X355Y-1067D02*
Y-1027D01*
X369D01*
X374Y-1029D01*
X377Y-1034D01*
X378Y-1039D01*
X377Y-1044D01*
X374Y-1048D01*
X369Y-1050D01*
X355D01*
G01X403Y-1067D02*
Y-1027D01*
X417D01*
X422Y-1029D01*
X425Y-1032D01*
X426Y-1037D01*
X425Y-1042D01*
X422Y-1046D01*
X417Y-1048D01*
X403D01*
G01X417D02*
X426Y-1067D01*
G01X462D02*
X458Y-1066D01*
X454Y-1064D01*
X450Y-1060D01*
X448Y-1055D01*
X447Y-1050D01*
Y-1044D01*
X448Y-1039D01*
X450Y-1034D01*
X454Y-1030D01*
X458Y-1028D01*
X462Y-1027D01*
X467Y-1028D01*
X471Y-1030D01*
X475Y-1034D01*
X477Y-1039D01*
X478Y-1044D01*
Y-1050D01*
X477Y-1055D01*
X475Y-1060D01*
X471Y-1064D01*
X467Y-1066D01*
X462Y-1067D01*
G01X523Y-1030D02*
X520Y-1028D01*
X516Y-1027D01*
X511D01*
X506Y-1029D01*
X502Y-1032D01*
X499Y-1036D01*
X496Y-1043D01*
X496Y-1049D01*
X497Y-1055D01*
X499Y-1059D01*
X502Y-1063D01*
X506Y-1066D01*
X511Y-1067D01*
X515D01*
X519Y-1066D01*
X522Y-1064D01*
X525Y-1061D01*
G01X546Y-1027D02*
Y-1056D01*
X548Y-1062D01*
X553Y-1066D01*
X558Y-1067D01*
X564Y-1066D01*
X569Y-1062D01*
X571Y-1056D01*
Y-1027D01*
G01X595Y-1067D02*
Y-1027D01*
X609D01*
X614Y-1029D01*
X617Y-1032D01*
X618Y-1037D01*
X617Y-1042D01*
X614Y-1046D01*
X609Y-1048D01*
X595D01*
G01X609D02*
X618Y-1067D01*
G01X666D02*
X643D01*
Y-1027D01*
X666D01*
G01X657Y-1046D02*
X643D01*
G01X687Y-1067D02*
Y-1027D01*
X702Y-1060D01*
X718Y-1027D01*
Y-1067D01*
G01X762D02*
X739D01*
Y-1027D01*
X762D01*
G01X753Y-1046D02*
X739D01*
G01X785Y-1067D02*
Y-1027D01*
X812Y-1067D01*
Y-1027D01*
G01X846D02*
Y-1067D01*
G01X833Y-1027D02*
X860D01*
G01X942Y-1067D02*
X938Y-1066D01*
X934Y-1064D01*
X930Y-1060D01*
X928Y-1055D01*
X927Y-1050D01*
Y-1044D01*
X928Y-1039D01*
X930Y-1034D01*
X934Y-1030D01*
X938Y-1028D01*
X942Y-1027D01*
X947Y-1028D01*
X951Y-1030D01*
X955Y-1034D01*
X957Y-1039D01*
X958Y-1044D01*
Y-1050D01*
X957Y-1055D01*
X955Y-1060D01*
X951Y-1064D01*
X947Y-1066D01*
X942Y-1067D01*
G01X979D02*
Y-1027D01*
X993D01*
X998Y-1029D01*
X1001Y-1032D01*
X1002Y-1037D01*
X1001Y-1042D01*
X998Y-1046D01*
X993Y-1048D01*
X979D01*
G01X993D02*
X1002Y-1067D01*
G01X1071D02*
Y-1027D01*
X1086Y-1060D01*
X1102Y-1027D01*
Y-1067D01*
G01X1120D02*
X1134Y-1027D01*
X1149Y-1067D01*
G01X1144Y-1053D02*
X1125D01*
G01X1169Y-1067D02*
Y-1027D01*
X1196Y-1067D01*
Y-1027D01*
G01X1218D02*
Y-1056D01*
X1220Y-1062D01*
X1225Y-1066D01*
X1230Y-1067D01*
X1236Y-1066D01*
X1241Y-1062D01*
X1243Y-1056D01*
Y-1027D01*
G01X1267Y-1067D02*
Y-1027D01*
X1290D01*
G01X1281Y-1046D02*
X1267D01*
G01X1312Y-1067D02*
X1326Y-1027D01*
X1341Y-1067D01*
G01X1336Y-1053D02*
X1317D01*
G01X1387Y-1030D02*
X1384Y-1028D01*
X1380Y-1027D01*
X1375D01*
X1370Y-1029D01*
X1366Y-1032D01*
X1363Y-1036D01*
X1360Y-1043D01*
X1360Y-1049D01*
X1361Y-1055D01*
X1363Y-1059D01*
X1366Y-1063D01*
X1370Y-1066D01*
X1374Y-1067D01*
X1379D01*
X1383Y-1066D01*
X1386Y-1064D01*
X1389Y-1061D01*
G01X1422Y-1027D02*
Y-1067D01*
G01X1409Y-1027D02*
X1436D01*
G01X1458D02*
Y-1056D01*
X1460Y-1062D01*
X1465Y-1066D01*
X1471Y-1067D01*
X1476Y-1066D01*
X1481Y-1062D01*
X1483Y-1056D01*
Y-1027D01*
G01X1507Y-1067D02*
Y-1027D01*
X1521D01*
X1526Y-1029D01*
X1529Y-1032D01*
X1530Y-1037D01*
X1529Y-1042D01*
X1526Y-1046D01*
X1521Y-1048D01*
X1507D01*
G01X1521D02*
X1530Y-1067D01*
G01X1578D02*
X1555D01*
Y-1027D01*
X1578D01*
G01X1569Y-1046D02*
X1555D01*
G01X1656Y-1027D02*
X1670D01*
G01X1662D02*
Y-1067D01*
G01X1656D02*
X1670D01*
G01X1697D02*
Y-1027D01*
X1724Y-1067D01*
Y-1027D01*
G01X1789D02*
X1797Y-1067D01*
X1806Y-1027D01*
X1816Y-1067D01*
X1824Y-1027D01*
G01X1842Y-1067D02*
Y-1027D01*
G01X1867D02*
Y-1067D01*
G01Y-1047D02*
X1842D01*
G01X1902Y-1067D02*
X1898Y-1066D01*
X1894Y-1064D01*
X1890Y-1060D01*
X1888Y-1055D01*
X1887Y-1050D01*
Y-1044D01*
X1888Y-1039D01*
X1890Y-1034D01*
X1894Y-1030D01*
X1898Y-1028D01*
X1902Y-1027D01*
X1907Y-1028D01*
X1911Y-1030D01*
X1915Y-1034D01*
X1917Y-1039D01*
X1918Y-1044D01*
Y-1050D01*
X1917Y-1055D01*
X1915Y-1060D01*
X1911Y-1064D01*
X1907Y-1066D01*
X1902Y-1067D01*
G01X1939Y-1027D02*
Y-1067D01*
X1962D01*
G01X2010D02*
X1987D01*
Y-1027D01*
X2010D01*
G01X2001Y-1046D02*
X1987D01*
G01X353Y-987D02*
Y-947D01*
X380Y-987D01*
Y-947D01*
G01X415Y-987D02*
X410Y-986D01*
X406Y-984D01*
X402Y-980D01*
X400Y-975D01*
X399Y-970D01*
Y-964D01*
X400Y-959D01*
X402Y-954D01*
X406Y-950D01*
X410Y-948D01*
X415Y-947D01*
X419Y-948D01*
X423Y-950D01*
X427Y-954D01*
X429Y-959D01*
X430Y-964D01*
Y-970D01*
X429Y-975D01*
X427Y-980D01*
X423Y-984D01*
X419Y-986D01*
X415Y-987D01*
G01X462Y-947D02*
Y-987D01*
G01X449Y-947D02*
X476D01*
G01X563Y-966D02*
X566Y-964D01*
X567Y-960D01*
X568Y-956D01*
X567Y-952D01*
X565Y-949D01*
X561Y-947D01*
X545D01*
Y-987D01*
X564D01*
X568Y-984D01*
X571Y-980D01*
X572Y-976D01*
X571Y-971D01*
X567Y-967D01*
X563Y-966D01*
X545D01*
G01X618Y-987D02*
X595D01*
Y-947D01*
X618D01*
G01X609Y-966D02*
X595D01*
G01X690Y-947D02*
Y-976D01*
X692Y-982D01*
X697Y-986D01*
X702Y-987D01*
X708Y-986D01*
X713Y-982D01*
X715Y-976D01*
Y-947D01*
G01X738Y-982D02*
X743Y-985D01*
X748Y-987D01*
X753D01*
X758Y-985D01*
X761Y-982D01*
X763Y-977D01*
X762Y-972D01*
X759Y-968D01*
X753Y-966D01*
X746Y-964D01*
X742Y-962D01*
X741Y-957D01*
X742Y-952D01*
X745Y-949D01*
X749Y-947D01*
X753D01*
X757Y-948D01*
X760Y-952D01*
G01X810Y-987D02*
X787D01*
Y-947D01*
X810D01*
G01X801Y-966D02*
X787D01*
G01X834Y-987D02*
Y-947D01*
X845D01*
X850Y-949D01*
X854Y-952D01*
X856Y-956D01*
X859Y-960D01*
X859Y-967D01*
X859Y-974D01*
X856Y-978D01*
X854Y-982D01*
X850Y-985D01*
X845Y-987D01*
X834D01*
G01X931D02*
Y-947D01*
X954D01*
G01X945Y-966D02*
X931D01*
G01X990Y-987D02*
X986Y-986D01*
X982Y-984D01*
X978Y-980D01*
X976Y-975D01*
X975Y-970D01*
Y-964D01*
X976Y-959D01*
X978Y-954D01*
X982Y-950D01*
X986Y-948D01*
X990Y-947D01*
X995Y-948D01*
X999Y-950D01*
X1003Y-954D01*
X1005Y-959D01*
X1006Y-964D01*
Y-970D01*
X1005Y-975D01*
X1003Y-980D01*
X999Y-984D01*
X995Y-986D01*
X990Y-987D01*
G01X1027D02*
Y-947D01*
X1041D01*
X1046Y-949D01*
X1049Y-952D01*
X1050Y-957D01*
X1049Y-962D01*
X1046Y-966D01*
X1041Y-968D01*
X1027D01*
G01X1041D02*
X1050Y-987D01*
G01X1146D02*
X1123D01*
Y-947D01*
X1146D01*
G01X1137Y-966D02*
X1123D01*
G01X1169Y-987D02*
Y-947D01*
X1196Y-987D01*
Y-947D01*
G01X1234Y-967D02*
X1246D01*
Y-979D01*
X1242Y-983D01*
X1238Y-986D01*
X1232Y-987D01*
X1226Y-986D01*
X1222Y-983D01*
X1219Y-979D01*
X1216Y-974D01*
X1215Y-969D01*
Y-964D01*
X1216Y-960D01*
X1219Y-956D01*
X1222Y-952D01*
X1226Y-949D01*
X1230Y-947D01*
X1235D01*
X1239Y-948D01*
X1243Y-951D01*
G01X1272Y-947D02*
X1286D01*
G01X1278D02*
Y-987D01*
G01X1272D02*
X1286D01*
G01X1313D02*
Y-947D01*
X1340Y-987D01*
Y-947D01*
G01X1386Y-987D02*
X1363D01*
Y-947D01*
X1386D01*
G01X1377Y-966D02*
X1363D01*
G01X1434Y-987D02*
X1411D01*
Y-947D01*
X1434D01*
G01X1425Y-966D02*
X1411D01*
G01X1459Y-987D02*
Y-947D01*
X1473D01*
X1478Y-949D01*
X1481Y-952D01*
X1482Y-957D01*
X1481Y-962D01*
X1478Y-966D01*
X1473Y-968D01*
X1459D01*
G01X1473D02*
X1482Y-987D01*
G01X1512Y-947D02*
X1526D01*
G01X1518D02*
Y-987D01*
G01X1512D02*
X1526D01*
G01X1553D02*
Y-947D01*
X1580Y-987D01*
Y-947D01*
G01X1618Y-967D02*
X1630D01*
Y-979D01*
X1626Y-983D01*
X1622Y-986D01*
X1616Y-987D01*
X1610Y-986D01*
X1606Y-983D01*
X1603Y-979D01*
X1600Y-974D01*
X1599Y-969D01*
Y-964D01*
X1600Y-960D01*
X1603Y-956D01*
X1606Y-952D01*
X1610Y-949D01*
X1614Y-947D01*
X1619D01*
X1623Y-948D01*
X1627Y-951D01*
G01X1698Y-987D02*
Y-947D01*
X1709D01*
X1714Y-949D01*
X1718Y-952D01*
X1720Y-956D01*
X1723Y-960D01*
X1723Y-967D01*
X1723Y-974D01*
X1720Y-978D01*
X1718Y-982D01*
X1714Y-985D01*
X1709Y-987D01*
X1698D01*
G01X1770D02*
X1747D01*
Y-947D01*
X1770D01*
G01X1761Y-966D02*
X1747D01*
G01X1794Y-982D02*
X1799Y-985D01*
X1804Y-987D01*
X1809D01*
X1814Y-985D01*
X1817Y-982D01*
X1819Y-977D01*
X1818Y-972D01*
X1815Y-968D01*
X1809Y-966D01*
X1802Y-964D01*
X1798Y-962D01*
X1797Y-957D01*
X1798Y-952D01*
X1801Y-949D01*
X1805Y-947D01*
X1809D01*
X1813Y-948D01*
X1816Y-952D01*
G01X1848Y-947D02*
X1862D01*
G01X1854D02*
Y-987D01*
G01X1848D02*
X1862D01*
G01X1906Y-967D02*
X1918D01*
Y-979D01*
X1914Y-983D01*
X1910Y-986D01*
X1904Y-987D01*
X1898Y-986D01*
X1894Y-983D01*
X1891Y-979D01*
X1888Y-974D01*
X1887Y-969D01*
Y-964D01*
X1888Y-960D01*
X1891Y-956D01*
X1894Y-952D01*
X1898Y-949D01*
X1902Y-947D01*
X1907D01*
X1911Y-948D01*
X1915Y-951D01*
G01X1937Y-987D02*
Y-947D01*
X1964Y-987D01*
Y-947D01*
G01X355Y-907D02*
Y-867D01*
X369D01*
X374Y-869D01*
X377Y-874D01*
X378Y-879D01*
X377Y-884D01*
X374Y-888D01*
X369Y-890D01*
X355D01*
G01X403Y-907D02*
Y-867D01*
X417D01*
X422Y-869D01*
X425Y-872D01*
X426Y-877D01*
X425Y-882D01*
X422Y-886D01*
X417Y-888D01*
X403D01*
G01X417D02*
X426Y-907D01*
G01X462D02*
X458Y-906D01*
X454Y-904D01*
X450Y-900D01*
X448Y-895D01*
X447Y-890D01*
Y-884D01*
X448Y-879D01*
X450Y-874D01*
X454Y-870D01*
X458Y-868D01*
X462Y-867D01*
X467Y-868D01*
X471Y-870D01*
X475Y-874D01*
X477Y-879D01*
X478Y-884D01*
Y-890D01*
X477Y-895D01*
X475Y-900D01*
X471Y-904D01*
X467Y-906D01*
X462Y-907D01*
G01X499D02*
Y-867D01*
X513D01*
X518Y-869D01*
X521Y-874D01*
X522Y-879D01*
X521Y-884D01*
X518Y-888D01*
X513Y-890D01*
X499D01*
G01X547Y-907D02*
Y-867D01*
X561D01*
X566Y-869D01*
X569Y-872D01*
X570Y-877D01*
X569Y-882D01*
X566Y-886D01*
X561Y-888D01*
X547D01*
G01X561D02*
X570Y-907D01*
G01X600Y-867D02*
X614D01*
G01X606D02*
Y-907D01*
G01X600D02*
X614D01*
G01X666D02*
X643D01*
Y-867D01*
X666D01*
G01X657Y-886D02*
X643D01*
G01X702Y-867D02*
Y-907D01*
G01X689Y-867D02*
X716D01*
G01X736Y-907D02*
X750Y-867D01*
X765Y-907D01*
G01X760Y-893D02*
X741D01*
G01X787Y-907D02*
Y-867D01*
X801D01*
X806Y-869D01*
X809Y-872D01*
X810Y-877D01*
X809Y-882D01*
X806Y-886D01*
X801Y-888D01*
X787D01*
G01X801D02*
X810Y-907D01*
G01X846D02*
Y-889D01*
X835Y-867D01*
G01X858D02*
X846Y-889D01*
G01X942Y-867D02*
Y-907D01*
G01X929Y-867D02*
X956D01*
G01X990Y-907D02*
X986Y-906D01*
X982Y-904D01*
X978Y-900D01*
X976Y-895D01*
X975Y-890D01*
Y-884D01*
X976Y-879D01*
X978Y-874D01*
X982Y-870D01*
X986Y-868D01*
X990Y-867D01*
X995Y-868D01*
X999Y-870D01*
X1003Y-874D01*
X1005Y-879D01*
X1006Y-884D01*
Y-890D01*
X1005Y-895D01*
X1003Y-900D01*
X999Y-904D01*
X995Y-906D01*
X990Y-907D01*
G01X1075D02*
Y-867D01*
X1098D01*
G01X1089Y-886D02*
X1075D01*
G01X1123Y-907D02*
Y-867D01*
X1137D01*
X1142Y-869D01*
X1145Y-872D01*
X1146Y-877D01*
X1145Y-882D01*
X1142Y-886D01*
X1137Y-888D01*
X1123D01*
G01X1137D02*
X1146Y-907D01*
G01X1194D02*
X1171D01*
Y-867D01*
X1194D01*
G01X1185Y-886D02*
X1171D01*
G01X1242Y-907D02*
X1219D01*
Y-867D01*
X1242D01*
G01X1233Y-886D02*
X1219D01*
G01X1266Y-902D02*
X1271Y-905D01*
X1276Y-907D01*
X1281D01*
X1286Y-905D01*
X1289Y-902D01*
X1291Y-897D01*
X1290Y-892D01*
X1287Y-888D01*
X1281Y-886D01*
X1274Y-884D01*
X1270Y-882D01*
X1269Y-877D01*
X1270Y-872D01*
X1273Y-869D01*
X1277Y-867D01*
X1281D01*
X1285Y-868D01*
X1288Y-872D01*
G01X1339Y-870D02*
X1336Y-868D01*
X1332Y-867D01*
X1327D01*
X1322Y-869D01*
X1318Y-872D01*
X1315Y-876D01*
X1312Y-883D01*
X1312Y-889D01*
X1313Y-895D01*
X1315Y-899D01*
X1318Y-903D01*
X1322Y-906D01*
X1326Y-907D01*
X1331D01*
X1335Y-906D01*
X1338Y-904D01*
X1341Y-901D01*
G01X1360Y-907D02*
X1374Y-867D01*
X1389Y-907D01*
G01X1384Y-893D02*
X1365D01*
G01X1411Y-867D02*
Y-907D01*
X1434D01*
G01X1482D02*
X1459D01*
Y-867D01*
X1482D01*
G01X1473Y-886D02*
X1459D01*
G01X1552Y-907D02*
X1566Y-867D01*
X1581Y-907D01*
G01X1576Y-893D02*
X1557D01*
G01X1601Y-907D02*
Y-867D01*
X1628Y-907D01*
Y-867D01*
G01X1650Y-907D02*
Y-867D01*
X1661D01*
X1666Y-869D01*
X1670Y-872D01*
X1672Y-876D01*
X1675Y-880D01*
X1675Y-887D01*
X1675Y-894D01*
X1672Y-898D01*
X1670Y-902D01*
X1666Y-905D01*
X1661Y-907D01*
X1650D01*
G01X1746Y-902D02*
X1751Y-905D01*
X1756Y-907D01*
X1761D01*
X1766Y-905D01*
X1769Y-902D01*
X1771Y-897D01*
X1770Y-892D01*
X1767Y-888D01*
X1761Y-886D01*
X1754Y-884D01*
X1750Y-882D01*
X1749Y-877D01*
X1750Y-872D01*
X1753Y-869D01*
X1757Y-867D01*
X1761D01*
X1765Y-868D01*
X1768Y-872D01*
G01X1794Y-907D02*
Y-867D01*
G01X1819D02*
Y-907D01*
G01Y-887D02*
X1794D01*
G01X1840Y-907D02*
X1854Y-867D01*
X1869Y-907D01*
G01X1864Y-893D02*
X1845D01*
G01X1891Y-867D02*
Y-907D01*
X1914D01*
G01X1939Y-867D02*
Y-907D01*
X1962D01*
G01X356Y-787D02*
Y-827D01*
G01X343Y-787D02*
X370D01*
G01X392Y-827D02*
Y-787D01*
G01X417D02*
Y-827D01*
G01Y-807D02*
X392D01*
G01X446Y-787D02*
X460D01*
G01X452D02*
Y-827D01*
G01X446D02*
X460D01*
G01X488Y-822D02*
X493Y-825D01*
X498Y-827D01*
X503D01*
X508Y-825D01*
X511Y-822D01*
X513Y-817D01*
X512Y-812D01*
X509Y-808D01*
X503Y-806D01*
X496Y-804D01*
X492Y-802D01*
X491Y-797D01*
X492Y-792D01*
X495Y-789D01*
X499Y-787D01*
X503D01*
X507Y-788D01*
X510Y-792D01*
G01X584Y-827D02*
Y-787D01*
X595D01*
X600Y-789D01*
X604Y-792D01*
X606Y-796D01*
X609Y-800D01*
X609Y-807D01*
X609Y-814D01*
X606Y-818D01*
X604Y-822D01*
X600Y-825D01*
X595Y-827D01*
X584D01*
G01X644D02*
X640Y-826D01*
X636Y-824D01*
X632Y-820D01*
X630Y-815D01*
X629Y-810D01*
Y-804D01*
X630Y-799D01*
X632Y-794D01*
X636Y-790D01*
X640Y-788D01*
X644Y-787D01*
X649Y-788D01*
X653Y-790D01*
X657Y-794D01*
X659Y-799D01*
X660Y-804D01*
Y-810D01*
X659Y-815D01*
X657Y-820D01*
X653Y-824D01*
X649Y-826D01*
X644Y-827D01*
G01X705Y-790D02*
X702Y-788D01*
X698Y-787D01*
X693D01*
X688Y-789D01*
X684Y-792D01*
X681Y-796D01*
X678Y-803D01*
X678Y-809D01*
X679Y-815D01*
X681Y-819D01*
X684Y-823D01*
X688Y-826D01*
X692Y-827D01*
X697D01*
X701Y-826D01*
X704Y-824D01*
X707Y-821D01*
G01X728Y-787D02*
Y-816D01*
X730Y-822D01*
X735Y-826D01*
X740Y-827D01*
X746Y-826D01*
X751Y-822D01*
X753Y-816D01*
Y-787D01*
G01X773Y-827D02*
Y-787D01*
X788Y-820D01*
X804Y-787D01*
Y-827D01*
G01X848D02*
X825D01*
Y-787D01*
X848D01*
G01X839Y-806D02*
X825D01*
G01X871Y-827D02*
Y-787D01*
X898Y-827D01*
Y-787D01*
G01X932D02*
Y-827D01*
G01X919Y-787D02*
X946D01*
G01X1041Y-790D02*
X1038Y-788D01*
X1034Y-787D01*
X1029D01*
X1024Y-789D01*
X1020Y-792D01*
X1017Y-796D01*
X1014Y-803D01*
X1014Y-809D01*
X1015Y-815D01*
X1017Y-819D01*
X1020Y-823D01*
X1024Y-826D01*
X1028Y-827D01*
X1033D01*
X1037Y-826D01*
X1040Y-824D01*
X1043Y-821D01*
G01X1076Y-827D02*
X1072Y-826D01*
X1068Y-824D01*
X1064Y-820D01*
X1062Y-815D01*
X1061Y-810D01*
Y-804D01*
X1062Y-799D01*
X1064Y-794D01*
X1068Y-790D01*
X1072Y-788D01*
X1076Y-787D01*
X1081Y-788D01*
X1085Y-790D01*
X1089Y-794D01*
X1091Y-799D01*
X1092Y-804D01*
Y-810D01*
X1091Y-815D01*
X1089Y-820D01*
X1085Y-824D01*
X1081Y-826D01*
X1076Y-827D01*
G01X1111D02*
Y-787D01*
X1138Y-827D01*
Y-787D01*
G01X1172D02*
Y-827D01*
G01X1159Y-787D02*
X1186D01*
G01X1206Y-827D02*
X1220Y-787D01*
X1235Y-827D01*
G01X1230Y-813D02*
X1211D01*
G01X1262Y-787D02*
X1276D01*
G01X1268D02*
Y-827D01*
G01X1262D02*
X1276D01*
G01X1303D02*
Y-787D01*
X1330Y-827D01*
Y-787D01*
G01X1352Y-822D02*
X1357Y-825D01*
X1362Y-827D01*
X1367D01*
X1372Y-825D01*
X1375Y-822D01*
X1377Y-817D01*
X1376Y-812D01*
X1373Y-808D01*
X1367Y-806D01*
X1360Y-804D01*
X1356Y-802D01*
X1355Y-797D01*
X1356Y-792D01*
X1359Y-789D01*
X1363Y-787D01*
X1367D01*
X1371Y-788D01*
X1374Y-792D01*
G01X1454Y-787D02*
X1468D01*
G01X1461D02*
Y-827D01*
G01X1454D02*
X1468D01*
G01X1495D02*
Y-787D01*
X1522Y-827D01*
Y-787D01*
G01X1545Y-827D02*
Y-787D01*
X1568D01*
G01X1559Y-806D02*
X1545D01*
G01X1604Y-827D02*
X1600Y-826D01*
X1596Y-824D01*
X1592Y-820D01*
X1590Y-815D01*
X1589Y-810D01*
Y-804D01*
X1590Y-799D01*
X1592Y-794D01*
X1596Y-790D01*
X1600Y-788D01*
X1604Y-787D01*
X1609Y-788D01*
X1613Y-790D01*
X1617Y-794D01*
X1619Y-799D01*
X1620Y-804D01*
Y-810D01*
X1619Y-815D01*
X1617Y-820D01*
X1613Y-824D01*
X1609Y-826D01*
X1604Y-827D01*
G01X1641D02*
Y-787D01*
X1655D01*
X1660Y-789D01*
X1663Y-792D01*
X1664Y-797D01*
X1663Y-802D01*
X1660Y-806D01*
X1655Y-808D01*
X1641D01*
G01X1655D02*
X1664Y-827D01*
G01X1685D02*
Y-787D01*
X1701Y-820D01*
X1716Y-787D01*
Y-827D01*
G01X1734D02*
X1748Y-787D01*
X1763Y-827D01*
G01X1758Y-813D02*
X1739D01*
G01X1796Y-787D02*
Y-827D01*
G01X1783Y-787D02*
X1810D01*
G01X1838D02*
X1852D01*
G01X1844D02*
Y-827D01*
G01X1838D02*
X1852D01*
G01X1892D02*
X1888Y-826D01*
X1884Y-824D01*
X1880Y-820D01*
X1878Y-815D01*
X1877Y-810D01*
Y-804D01*
X1878Y-799D01*
X1880Y-794D01*
X1884Y-790D01*
X1888Y-788D01*
X1892Y-787D01*
X1897Y-788D01*
X1901Y-790D01*
X1905Y-794D01*
X1907Y-799D01*
X1908Y-804D01*
Y-810D01*
X1907Y-815D01*
X1905Y-820D01*
X1901Y-824D01*
X1897Y-826D01*
X1892Y-827D01*
G01X1927D02*
Y-787D01*
X1954Y-827D01*
Y-787D01*
G01X285Y-640D02*
X290Y-636D01*
X293Y-633D01*
X298Y-632D01*
X302Y-633D01*
X305Y-636D01*
X307Y-640D01*
X308Y-644D01*
X307Y-648D01*
X305Y-652D01*
X301Y-656D01*
X297Y-657D01*
X292Y-656D01*
X288Y-652D01*
X286Y-646D01*
X285Y-639D01*
X287Y-630D01*
X288Y-626D01*
X291Y-621D01*
X295Y-618D01*
X299Y-617D01*
X304Y-618D01*
X306Y-622D01*
G01X332Y-651D02*
X335Y-654D01*
X339Y-656D01*
X344Y-657D01*
X350Y-656D01*
X354Y-653D01*
X357Y-648D01*
X357Y-643D01*
X356Y-638D01*
X353Y-634D01*
X349Y-632D01*
X345Y-631D01*
X341Y-632D01*
X336Y-634D01*
X338Y-617D01*
X353D01*
G01X392D02*
X388Y-618D01*
X384Y-622D01*
X382Y-626D01*
X380Y-631D01*
X380Y-637D01*
X380Y-643D01*
X382Y-648D01*
X384Y-652D01*
X388Y-656D01*
X392Y-657D01*
X397Y-656D01*
X401Y-652D01*
X403Y-648D01*
X405Y-643D01*
X405Y-637D01*
X405Y-631D01*
X403Y-626D01*
X401Y-622D01*
X397Y-618D01*
X392Y-617D01*
G01X440Y-657D02*
Y-617D01*
X434Y-625D01*
G01Y-657D02*
X448D01*
G01X519Y-617D02*
X527Y-657D01*
X536Y-617D01*
X546Y-657D01*
X554Y-617D01*
G01X578D02*
X592D01*
G01X584D02*
Y-657D01*
G01X578D02*
X592D01*
G01X621Y-617D02*
Y-657D01*
X644D01*
G01X669Y-617D02*
Y-657D01*
X692D01*
G01X722Y-617D02*
X736D01*
G01X728D02*
Y-657D01*
G01X722D02*
X736D01*
G01X762D02*
X776Y-617D01*
X791Y-657D01*
G01X786Y-643D02*
X767D01*
G01X809Y-657D02*
Y-617D01*
X824Y-650D01*
X840Y-617D01*
Y-657D01*
G01X933Y-620D02*
X930Y-618D01*
X926Y-617D01*
X921D01*
X916Y-619D01*
X912Y-622D01*
X909Y-626D01*
X906Y-633D01*
X906Y-639D01*
X907Y-645D01*
X909Y-649D01*
X912Y-653D01*
X916Y-656D01*
X920Y-657D01*
X925D01*
X929Y-656D01*
X932Y-654D01*
X935Y-651D01*
G01X954Y-657D02*
X968Y-617D01*
X983Y-657D01*
G01X978Y-643D02*
X959D01*
G01X1003Y-657D02*
Y-617D01*
X1030Y-657D01*
Y-617D01*
G01X1051Y-657D02*
Y-617D01*
X1078Y-657D01*
Y-617D01*
G01X1112Y-657D02*
X1108Y-656D01*
X1104Y-654D01*
X1100Y-650D01*
X1098Y-645D01*
X1097Y-640D01*
Y-634D01*
X1098Y-629D01*
X1100Y-624D01*
X1104Y-620D01*
X1108Y-618D01*
X1112Y-617D01*
X1117Y-618D01*
X1121Y-620D01*
X1125Y-624D01*
X1127Y-629D01*
X1128Y-634D01*
Y-640D01*
X1127Y-645D01*
X1125Y-650D01*
X1121Y-654D01*
X1117Y-656D01*
X1112Y-657D01*
G01X1147D02*
Y-617D01*
X1174Y-657D01*
Y-617D01*
G01X1244Y-657D02*
Y-617D01*
X1255D01*
X1260Y-619D01*
X1264Y-622D01*
X1266Y-626D01*
X1269Y-630D01*
X1269Y-637D01*
X1269Y-644D01*
X1266Y-648D01*
X1264Y-652D01*
X1260Y-655D01*
X1255Y-657D01*
X1244D01*
G01X1293D02*
Y-617D01*
X1307D01*
X1312Y-619D01*
X1315Y-622D01*
X1316Y-627D01*
X1315Y-632D01*
X1312Y-636D01*
X1307Y-638D01*
X1293D01*
G01X1307D02*
X1316Y-657D01*
G01X1346Y-617D02*
X1360D01*
G01X1352D02*
Y-657D01*
G01X1346D02*
X1360D01*
G01X1386Y-617D02*
X1400Y-657D01*
X1415Y-617D01*
G01X1460Y-657D02*
X1437D01*
Y-617D01*
X1460D01*
G01X1451Y-636D02*
X1437D01*
G01X1527Y-617D02*
X1535Y-657D01*
X1544Y-617D01*
X1554Y-657D01*
X1562Y-617D01*
G01X1604Y-657D02*
X1581D01*
Y-617D01*
X1604D01*
G01X1595Y-636D02*
X1581D01*
G01X1628Y-652D02*
X1633Y-655D01*
X1638Y-657D01*
X1643D01*
X1648Y-655D01*
X1651Y-652D01*
X1653Y-647D01*
X1652Y-642D01*
X1649Y-638D01*
X1643Y-636D01*
X1636Y-634D01*
X1632Y-632D01*
X1631Y-627D01*
X1632Y-622D01*
X1635Y-619D01*
X1639Y-617D01*
X1643D01*
X1647Y-618D01*
X1650Y-622D01*
G01X1688Y-617D02*
Y-657D01*
G01X1675Y-617D02*
X1702D01*
G01X785Y-1337D02*
Y-1297D01*
X808D01*
G01X799Y-1316D02*
X785D01*
G01X838Y-1297D02*
X852D01*
G01X844D02*
Y-1337D01*
G01X838D02*
X852D01*
G01X881Y-1297D02*
Y-1337D01*
X904D01*
G01X925D02*
Y-1297D01*
X940Y-1330D01*
X956Y-1297D01*
Y-1337D01*
G01X2129Y-1195D02*
X2164D01*
G01X2177D02*
X2212D01*
G01X2225D02*
X2260D01*
G01X2327Y-1182D02*
Y-1142D01*
X2350D01*
G01X2341Y-1161D02*
X2327D01*
G01X2399Y-1145D02*
X2396Y-1143D01*
X2392Y-1142D01*
X2387D01*
X2382Y-1144D01*
X2378Y-1147D01*
X2375Y-1151D01*
X2372Y-1158D01*
X2372Y-1164D01*
X2373Y-1170D01*
X2375Y-1174D01*
X2378Y-1178D01*
X2382Y-1181D01*
X2386Y-1182D01*
X2391D01*
X2395Y-1181D01*
X2398Y-1179D01*
X2401Y-1176D01*
G01X2423Y-1182D02*
Y-1142D01*
X2437D01*
X2442Y-1144D01*
X2445Y-1149D01*
X2446Y-1154D01*
X2445Y-1159D01*
X2442Y-1163D01*
X2437Y-1165D01*
X2423D01*
G01X2528Y-1195D02*
X2522Y-1189D01*
X2519Y-1182D01*
Y-1155D01*
X2522Y-1149D01*
X2528Y-1142D01*
G01X2567Y-1182D02*
Y-1142D01*
X2590D01*
G01X2581Y-1161D02*
X2567D01*
G01X2615Y-1182D02*
Y-1142D01*
X2629D01*
X2634Y-1144D01*
X2637Y-1147D01*
X2638Y-1152D01*
X2637Y-1157D01*
X2634Y-1161D01*
X2629Y-1163D01*
X2615D01*
G01X2629D02*
X2638Y-1182D01*
G01X2686D02*
X2663D01*
Y-1142D01*
X2686D01*
G01X2677Y-1161D02*
X2663D01*
G01X2734Y-1182D02*
X2711D01*
Y-1142D01*
X2734D01*
G01X2725Y-1161D02*
X2711D01*
G01X2758Y-1177D02*
X2763Y-1180D01*
X2768Y-1182D01*
X2773D01*
X2778Y-1180D01*
X2781Y-1177D01*
X2783Y-1172D01*
X2782Y-1167D01*
X2779Y-1163D01*
X2773Y-1161D01*
X2766Y-1159D01*
X2762Y-1157D01*
X2761Y-1152D01*
X2762Y-1147D01*
X2765Y-1144D01*
X2769Y-1142D01*
X2773D01*
X2777Y-1143D01*
X2780Y-1147D01*
G01X2831Y-1145D02*
X2828Y-1143D01*
X2824Y-1142D01*
X2819D01*
X2814Y-1144D01*
X2810Y-1147D01*
X2807Y-1151D01*
X2804Y-1158D01*
X2804Y-1164D01*
X2805Y-1170D01*
X2807Y-1174D01*
X2810Y-1178D01*
X2814Y-1181D01*
X2818Y-1182D01*
X2823D01*
X2827Y-1181D01*
X2830Y-1179D01*
X2833Y-1176D01*
G01X2852Y-1182D02*
X2867Y-1142D01*
X2881Y-1182D01*
G01X2876Y-1168D02*
X2857D01*
G01X2903Y-1142D02*
Y-1182D01*
X2926D01*
G01X2974D02*
X2951D01*
Y-1142D01*
X2974D01*
G01X2965Y-1161D02*
X2951D01*
G01X3071Y-1145D02*
X3068Y-1143D01*
X3064Y-1142D01*
X3059D01*
X3054Y-1144D01*
X3050Y-1147D01*
X3047Y-1151D01*
X3044Y-1158D01*
X3044Y-1164D01*
X3045Y-1170D01*
X3047Y-1174D01*
X3050Y-1178D01*
X3054Y-1181D01*
X3058Y-1182D01*
X3063D01*
X3067Y-1181D01*
X3070Y-1179D01*
X3073Y-1176D01*
G01X3106Y-1182D02*
X3102Y-1181D01*
X3098Y-1179D01*
X3094Y-1175D01*
X3092Y-1170D01*
X3091Y-1165D01*
Y-1159D01*
X3092Y-1154D01*
X3094Y-1149D01*
X3098Y-1145D01*
X3102Y-1143D01*
X3106Y-1142D01*
X3111Y-1143D01*
X3115Y-1145D01*
X3119Y-1149D01*
X3121Y-1154D01*
X3122Y-1159D01*
Y-1165D01*
X3121Y-1170D01*
X3119Y-1175D01*
X3115Y-1179D01*
X3111Y-1181D01*
X3106Y-1182D01*
G01X3141D02*
Y-1142D01*
X3168Y-1182D01*
Y-1142D01*
G01X3191Y-1182D02*
Y-1142D01*
X3214D01*
G01X3205Y-1161D02*
X3191D01*
G01X3244Y-1142D02*
X3258D01*
G01X3250D02*
Y-1182D01*
G01X3244D02*
X3258D01*
G01X3286D02*
Y-1142D01*
X3297D01*
X3302Y-1144D01*
X3306Y-1147D01*
X3308Y-1151D01*
X3311Y-1155D01*
X3311Y-1162D01*
X3311Y-1169D01*
X3308Y-1173D01*
X3306Y-1177D01*
X3302Y-1180D01*
X3297Y-1182D01*
X3286D01*
G01X3358D02*
X3335D01*
Y-1142D01*
X3358D01*
G01X3349Y-1161D02*
X3335D01*
G01X3381Y-1182D02*
Y-1142D01*
X3408Y-1182D01*
Y-1142D01*
G01X3442D02*
Y-1182D01*
G01X3429Y-1142D02*
X3456D01*
G01X3484D02*
X3498D01*
G01X3490D02*
Y-1182D01*
G01X3484D02*
X3498D01*
G01X3524D02*
X3538Y-1142D01*
X3553Y-1182D01*
G01X3548Y-1168D02*
X3529D01*
G01X3575Y-1142D02*
Y-1182D01*
X3598D01*
G01X3671D02*
Y-1142D01*
X3685D01*
X3690Y-1144D01*
X3693Y-1149D01*
X3694Y-1154D01*
X3693Y-1159D01*
X3690Y-1163D01*
X3685Y-1165D01*
X3671D01*
G01X3719Y-1182D02*
Y-1142D01*
X3733D01*
X3738Y-1144D01*
X3741Y-1147D01*
X3742Y-1152D01*
X3741Y-1157D01*
X3738Y-1161D01*
X3733Y-1163D01*
X3719D01*
G01X3733D02*
X3742Y-1182D01*
G01X3778D02*
X3774Y-1181D01*
X3770Y-1179D01*
X3766Y-1175D01*
X3764Y-1170D01*
X3763Y-1165D01*
Y-1159D01*
X3764Y-1154D01*
X3766Y-1149D01*
X3770Y-1145D01*
X3774Y-1143D01*
X3778Y-1142D01*
X3783Y-1143D01*
X3787Y-1145D01*
X3791Y-1149D01*
X3793Y-1154D01*
X3794Y-1159D01*
Y-1165D01*
X3793Y-1170D01*
X3791Y-1175D01*
X3787Y-1179D01*
X3783Y-1181D01*
X3778Y-1182D01*
G01X3815D02*
Y-1142D01*
X3829D01*
X3834Y-1144D01*
X3837Y-1149D01*
X3838Y-1154D01*
X3837Y-1159D01*
X3834Y-1163D01*
X3829Y-1165D01*
X3815D01*
G01X3863Y-1182D02*
Y-1142D01*
X3877D01*
X3882Y-1144D01*
X3885Y-1147D01*
X3886Y-1152D01*
X3885Y-1157D01*
X3882Y-1161D01*
X3877Y-1163D01*
X3863D01*
G01X3877D02*
X3886Y-1182D01*
G01X3916Y-1142D02*
X3930D01*
G01X3922D02*
Y-1182D01*
G01X3916D02*
X3930D01*
G01X3982D02*
X3959D01*
Y-1142D01*
X3982D01*
G01X3973Y-1161D02*
X3959D01*
G01X4019Y-1142D02*
Y-1182D01*
G01X4005Y-1142D02*
X4032D01*
G01X4052Y-1182D02*
X4067Y-1142D01*
X4081Y-1182D01*
G01X4076Y-1168D02*
X4057D01*
G01X4103Y-1182D02*
Y-1142D01*
X4117D01*
X4122Y-1144D01*
X4125Y-1147D01*
X4126Y-1152D01*
X4125Y-1157D01*
X4122Y-1161D01*
X4117Y-1163D01*
X4103D01*
G01X4117D02*
X4126Y-1182D01*
G01X4162D02*
Y-1164D01*
X4151Y-1142D01*
G01X4174D02*
X4162Y-1164D01*
G01X4213Y-1195D02*
X4219Y-1189D01*
X4222Y-1182D01*
Y-1155D01*
X4219Y-1149D01*
X4213Y-1142D01*
G01X2054Y-1417D02*
X2079Y-1377D01*
G01X2054D02*
X2079Y-1417D01*
G01X2102D02*
X2127Y-1377D01*
G01X2102D02*
X2127Y-1417D01*
G01X2155Y-1404D02*
X2170D01*
G01X2198Y-1417D02*
X2223Y-1377D01*
G01X2198D02*
X2223Y-1417D01*
G01X2246D02*
X2271Y-1377D01*
G01X2246D02*
X2271Y-1417D01*
G01X2299Y-1404D02*
X2314D01*
G01X2355Y-1417D02*
Y-1377D01*
X2348Y-1385D01*
G01Y-1417D02*
X2362D01*
G01X2402Y-1377D02*
X2398Y-1378D01*
X2394Y-1382D01*
X2392Y-1386D01*
X2390Y-1391D01*
X2390Y-1397D01*
X2390Y-1403D01*
X2392Y-1408D01*
X2394Y-1412D01*
X2398Y-1416D01*
X2402Y-1417D01*
X2407Y-1416D01*
X2411Y-1412D01*
X2413Y-1408D01*
X2415Y-1403D01*
X2415Y-1397D01*
X2415Y-1391D01*
X2413Y-1386D01*
X2411Y-1382D01*
X2407Y-1378D01*
X2402Y-1377D01*
G01X2034Y-1337D02*
Y-1297D01*
X2045D01*
X2050Y-1299D01*
X2054Y-1302D01*
X2056Y-1306D01*
X2059Y-1310D01*
X2059Y-1317D01*
X2059Y-1324D01*
X2056Y-1328D01*
X2054Y-1332D01*
X2050Y-1335D01*
X2045Y-1337D01*
X2034D01*
G01X2080D02*
X2094Y-1297D01*
X2109Y-1337D01*
G01X2104Y-1323D02*
X2085D01*
G01X2142Y-1297D02*
Y-1337D01*
G01X2129Y-1297D02*
X2156D01*
G01X2202Y-1337D02*
X2179D01*
Y-1297D01*
X2202D01*
G01X2193Y-1316D02*
X2179D01*
G01X2129Y-1030D02*
X2164D01*
G01X2177D02*
X2212D01*
G01X2225D02*
X2260D01*
G01X2327Y-1017D02*
Y-977D01*
X2350D01*
G01X2341Y-996D02*
X2327D01*
G01X2380Y-977D02*
X2394D01*
G01X2386D02*
Y-1017D01*
G01X2380D02*
X2394D01*
G01X2422Y-977D02*
Y-1006D01*
X2424Y-1012D01*
X2429Y-1016D01*
X2434Y-1017D01*
X2440Y-1016D01*
X2445Y-1012D01*
X2447Y-1006D01*
Y-977D01*
G01X2482Y-1017D02*
X2478Y-1016D01*
X2474Y-1014D01*
X2470Y-1010D01*
X2468Y-1005D01*
X2467Y-1000D01*
Y-994D01*
X2468Y-989D01*
X2470Y-984D01*
X2474Y-980D01*
X2478Y-978D01*
X2482Y-977D01*
X2487Y-978D01*
X2491Y-980D01*
X2495Y-984D01*
X2497Y-989D01*
X2498Y-994D01*
Y-1000D01*
X2497Y-1005D01*
X2495Y-1010D01*
X2491Y-1014D01*
X2487Y-1016D01*
X2482Y-1017D01*
G01X2576Y-1030D02*
X2570Y-1024D01*
X2567Y-1017D01*
Y-990D01*
X2570Y-984D01*
X2576Y-977D01*
G01X2615Y-1017D02*
Y-977D01*
X2638D01*
G01X2629Y-996D02*
X2615D01*
G01X2663Y-1017D02*
Y-977D01*
X2677D01*
X2682Y-979D01*
X2685Y-982D01*
X2686Y-987D01*
X2685Y-992D01*
X2682Y-996D01*
X2677Y-998D01*
X2663D01*
G01X2677D02*
X2686Y-1017D01*
G01X2734D02*
X2711D01*
Y-977D01*
X2734D01*
G01X2725Y-996D02*
X2711D01*
G01X2782Y-1017D02*
X2759D01*
Y-977D01*
X2782D01*
G01X2773Y-996D02*
X2759D01*
G01X2806Y-1012D02*
X2811Y-1015D01*
X2816Y-1017D01*
X2821D01*
X2826Y-1015D01*
X2829Y-1012D01*
X2831Y-1007D01*
X2830Y-1002D01*
X2827Y-998D01*
X2821Y-996D01*
X2814Y-994D01*
X2810Y-992D01*
X2809Y-987D01*
X2810Y-982D01*
X2813Y-979D01*
X2817Y-977D01*
X2821D01*
X2825Y-978D01*
X2828Y-982D01*
G01X2879Y-980D02*
X2876Y-978D01*
X2872Y-977D01*
X2867D01*
X2862Y-979D01*
X2858Y-982D01*
X2855Y-986D01*
X2852Y-993D01*
X2852Y-999D01*
X2853Y-1005D01*
X2855Y-1009D01*
X2858Y-1013D01*
X2862Y-1016D01*
X2867Y-1017D01*
X2871D01*
X2875Y-1016D01*
X2878Y-1014D01*
X2881Y-1011D01*
G01X2900Y-1017D02*
X2914Y-977D01*
X2929Y-1017D01*
G01X2924Y-1003D02*
X2905D01*
G01X2951Y-977D02*
Y-1017D01*
X2974D01*
G01X3022D02*
X2999D01*
Y-977D01*
X3022D01*
G01X3013Y-996D02*
X2999D01*
G01X3100Y-977D02*
X3114D01*
G01X3106D02*
Y-1017D01*
G01X3100D02*
X3114D01*
G01X3141D02*
Y-977D01*
X3168Y-1017D01*
Y-977D01*
G01X3202D02*
Y-1017D01*
G01X3189Y-977D02*
X3216D01*
G01X3262Y-1017D02*
X3239D01*
Y-977D01*
X3262D01*
G01X3253Y-996D02*
X3239D01*
G01X3287Y-1017D02*
Y-977D01*
X3301D01*
X3306Y-979D01*
X3309Y-982D01*
X3310Y-987D01*
X3309Y-992D01*
X3306Y-996D01*
X3301Y-998D01*
X3287D01*
G01X3301D02*
X3310Y-1017D01*
G01X3333D02*
Y-977D01*
X3360Y-1017D01*
Y-977D01*
G01X3380Y-1017D02*
X3394Y-977D01*
X3409Y-1017D01*
G01X3404Y-1003D02*
X3385D01*
G01X3431Y-977D02*
Y-1017D01*
X3454D01*
G01X3526Y-977D02*
Y-1006D01*
X3528Y-1012D01*
X3533Y-1016D01*
X3538Y-1017D01*
X3544Y-1016D01*
X3549Y-1012D01*
X3551Y-1006D01*
Y-977D01*
G01X3574Y-1012D02*
X3579Y-1015D01*
X3584Y-1017D01*
X3589D01*
X3594Y-1015D01*
X3597Y-1012D01*
X3599Y-1007D01*
X3598Y-1002D01*
X3595Y-998D01*
X3589Y-996D01*
X3582Y-994D01*
X3578Y-992D01*
X3577Y-987D01*
X3578Y-982D01*
X3581Y-979D01*
X3585Y-977D01*
X3589D01*
X3593Y-978D01*
X3596Y-982D01*
G01X3646Y-1017D02*
X3623D01*
Y-977D01*
X3646D01*
G01X3637Y-996D02*
X3623D01*
G01X3730Y-1017D02*
X3726Y-1016D01*
X3722Y-1014D01*
X3718Y-1010D01*
X3716Y-1005D01*
X3715Y-1000D01*
Y-994D01*
X3716Y-989D01*
X3718Y-984D01*
X3722Y-980D01*
X3726Y-978D01*
X3730Y-977D01*
X3735Y-978D01*
X3739Y-980D01*
X3743Y-984D01*
X3745Y-989D01*
X3746Y-994D01*
Y-1000D01*
X3745Y-1005D01*
X3743Y-1010D01*
X3739Y-1014D01*
X3735Y-1016D01*
X3730Y-1017D01*
G01X3765D02*
Y-977D01*
X3792Y-1017D01*
Y-977D01*
G01X3815D02*
Y-1017D01*
X3838D01*
G01X3875D02*
Y-999D01*
X3863Y-977D01*
G01X3886D02*
X3875Y-999D01*
G01X3925Y-1030D02*
X3931Y-1024D01*
X3934Y-1017D01*
Y-990D01*
X3931Y-984D01*
X3925Y-977D01*
G01X2129Y-870D02*
X2164D01*
G01X2177D02*
X2212D01*
G01X2225D02*
X2260D01*
G01X2327Y-857D02*
Y-817D01*
X2341D01*
X2346Y-819D01*
X2349Y-824D01*
X2350Y-829D01*
X2349Y-834D01*
X2346Y-838D01*
X2341Y-840D01*
X2327D01*
G01X2374Y-817D02*
Y-846D01*
X2376Y-852D01*
X2381Y-856D01*
X2386Y-857D01*
X2392Y-856D01*
X2397Y-852D01*
X2399Y-846D01*
Y-817D01*
G01X2439Y-836D02*
X2442Y-834D01*
X2443Y-830D01*
X2444Y-826D01*
X2443Y-822D01*
X2441Y-819D01*
X2437Y-817D01*
X2421D01*
Y-857D01*
X2440D01*
X2444Y-854D01*
X2447Y-850D01*
X2448Y-846D01*
X2447Y-841D01*
X2443Y-837D01*
X2439Y-836D01*
X2421D01*
G01X2476Y-817D02*
X2490D01*
G01X2482D02*
Y-857D01*
G01X2476D02*
X2490D01*
G01X2576Y-870D02*
X2570Y-864D01*
X2567Y-857D01*
Y-830D01*
X2570Y-824D01*
X2576Y-817D01*
G01X2615Y-857D02*
Y-817D01*
X2629D01*
X2634Y-819D01*
X2637Y-824D01*
X2638Y-829D01*
X2637Y-834D01*
X2634Y-838D01*
X2629Y-840D01*
X2615D01*
G01X2662Y-817D02*
Y-846D01*
X2664Y-852D01*
X2669Y-856D01*
X2674Y-857D01*
X2680Y-856D01*
X2685Y-852D01*
X2687Y-846D01*
Y-817D01*
G01X2727Y-836D02*
X2730Y-834D01*
X2731Y-830D01*
X2732Y-826D01*
X2731Y-822D01*
X2729Y-819D01*
X2725Y-817D01*
X2709D01*
Y-857D01*
X2728D01*
X2732Y-854D01*
X2735Y-850D01*
X2736Y-846D01*
X2735Y-841D01*
X2731Y-837D01*
X2727Y-836D01*
X2709D01*
G01X2759Y-817D02*
Y-857D01*
X2782D01*
G01X2812Y-817D02*
X2826D01*
G01X2818D02*
Y-857D01*
G01X2812D02*
X2826D01*
G01X2879Y-820D02*
X2876Y-818D01*
X2872Y-817D01*
X2867D01*
X2862Y-819D01*
X2858Y-822D01*
X2855Y-826D01*
X2852Y-833D01*
X2852Y-839D01*
X2853Y-845D01*
X2855Y-849D01*
X2858Y-853D01*
X2862Y-856D01*
X2867Y-857D01*
X2871D01*
X2875Y-856D01*
X2878Y-854D01*
X2881Y-851D01*
G01X2956Y-817D02*
X2970D01*
G01X2962D02*
Y-857D01*
G01X2956D02*
X2970D01*
G01X2997D02*
Y-817D01*
X3024Y-857D01*
Y-817D01*
G01X3047Y-857D02*
Y-817D01*
X3070D01*
G01X3061Y-836D02*
X3047D01*
G01X3106Y-857D02*
X3102Y-856D01*
X3098Y-854D01*
X3094Y-850D01*
X3092Y-845D01*
X3091Y-840D01*
Y-834D01*
X3092Y-829D01*
X3094Y-824D01*
X3098Y-820D01*
X3102Y-818D01*
X3106Y-817D01*
X3111Y-818D01*
X3115Y-820D01*
X3119Y-824D01*
X3121Y-829D01*
X3122Y-834D01*
Y-840D01*
X3121Y-845D01*
X3119Y-850D01*
X3115Y-854D01*
X3111Y-856D01*
X3106Y-857D01*
G01X3143D02*
Y-817D01*
X3157D01*
X3162Y-819D01*
X3165Y-822D01*
X3166Y-827D01*
X3165Y-832D01*
X3162Y-836D01*
X3157Y-838D01*
X3143D01*
G01X3157D02*
X3166Y-857D01*
G01X3187D02*
Y-817D01*
X3202Y-850D01*
X3218Y-817D01*
Y-857D01*
G01X3236D02*
X3250Y-817D01*
X3265Y-857D01*
G01X3260Y-843D02*
X3241D01*
G01X3298Y-817D02*
Y-857D01*
G01X3285Y-817D02*
X3312D01*
G01X3340D02*
X3354D01*
G01X3347D02*
Y-857D01*
G01X3340D02*
X3354D01*
G01X3394D02*
X3390Y-856D01*
X3386Y-854D01*
X3382Y-850D01*
X3380Y-845D01*
X3379Y-840D01*
Y-834D01*
X3380Y-829D01*
X3382Y-824D01*
X3386Y-820D01*
X3390Y-818D01*
X3394Y-817D01*
X3399Y-818D01*
X3403Y-820D01*
X3407Y-824D01*
X3409Y-829D01*
X3410Y-834D01*
Y-840D01*
X3409Y-845D01*
X3407Y-850D01*
X3403Y-854D01*
X3399Y-856D01*
X3394Y-857D01*
G01X3429D02*
Y-817D01*
X3456Y-857D01*
Y-817D01*
G01X3493Y-870D02*
X3499Y-864D01*
X3502Y-857D01*
Y-830D01*
X3499Y-824D01*
X3493Y-817D01*
G01X2033Y-537D02*
Y-497D01*
X2060Y-537D01*
Y-497D01*
G01X2080Y-537D02*
X2094Y-497D01*
X2109Y-537D01*
G01X2104Y-523D02*
X2085D01*
G01X2127Y-537D02*
Y-497D01*
X2142Y-530D01*
X2158Y-497D01*
Y-537D01*
G01X2202D02*
X2179D01*
Y-497D01*
X2202D01*
G01X2193Y-516D02*
X2179D01*
G01X2533Y-1337D02*
Y-1297D01*
X2560Y-1337D01*
Y-1297D01*
G01X2582D02*
Y-1326D01*
X2584Y-1332D01*
X2589Y-1336D01*
X2594Y-1337D01*
X2600Y-1336D01*
X2605Y-1332D01*
X2607Y-1326D01*
Y-1297D01*
G01X2627Y-1337D02*
Y-1297D01*
X2642Y-1330D01*
X2658Y-1297D01*
Y-1337D01*
G01X2695Y-1316D02*
X2698Y-1314D01*
X2699Y-1310D01*
X2700Y-1306D01*
X2699Y-1302D01*
X2697Y-1299D01*
X2693Y-1297D01*
X2677D01*
Y-1337D01*
X2696D01*
X2700Y-1334D01*
X2703Y-1330D01*
X2704Y-1326D01*
X2703Y-1321D01*
X2699Y-1317D01*
X2695Y-1316D01*
X2677D01*
G01X2750Y-1337D02*
X2727D01*
Y-1297D01*
X2750D01*
G01X2741Y-1316D02*
X2727D01*
G01X2775Y-1337D02*
Y-1297D01*
X2789D01*
X2794Y-1299D01*
X2797Y-1302D01*
X2798Y-1307D01*
X2797Y-1312D01*
X2794Y-1316D01*
X2789Y-1318D01*
X2775D01*
G01X2789D02*
X2798Y-1337D01*
G54D26*
X1179Y168D03*
X1079D03*
X979D03*
X1479D03*
X1379D03*
X1279D03*
X1879D03*
X1779D03*
X1679D03*
X1579D03*
X2179D03*
X2079D03*
X1979D03*
X2379D03*
X2279D03*
X2499Y1468D03*
Y1568D03*
Y1668D03*
X2399Y1468D03*
Y1568D03*
G54D17*
X174Y1418D03*
G54D36*
G01X524D02*
X457D01*
G01X749Y1618D02*
Y1710D01*
G01X1589Y691D02*
X2191D01*
X2253Y753D01*
Y959D01*
X2302Y1008D01*
X2348D01*
G01X2826Y1433D02*
X2630D01*
X2593Y1396D01*
X2450D01*
X2377Y1323D01*
Y1147D01*
G01X3515Y2514D02*
Y2229D01*
X3409Y2123D01*
Y1498D01*
G54D27*
X879Y168D03*
X2399Y1668D03*
G54D18*
X457Y1418D03*
X162Y2406D03*
X332Y2295D03*
X150Y2330D03*
X709Y523D03*
X699Y420D03*
X519Y506D03*
X749Y1710D03*
X518Y2362D03*
X511Y2465D03*
X612Y2688D03*
X693Y2786D03*
X499Y2743D03*
X686Y2890D03*
X1050Y733D03*
X1101Y1333D03*
X839Y1252D03*
X919Y1118D03*
X1044Y1743D03*
X942Y1969D03*
X1289Y848D03*
X1339D03*
X1529Y1360D03*
X1399Y1248D03*
X1188Y1682D03*
X1404Y1438D03*
Y1583D03*
X1534Y1668D03*
X1335Y1783D03*
X1462Y1957D03*
X1493Y1908D03*
X1263Y1860D03*
X1399Y1825D03*
X1360D03*
X1438Y2004D03*
X1264Y2348D03*
X1187Y2202D03*
X1589Y691D03*
X1674Y1013D03*
Y833D03*
X1719Y758D03*
X1735Y1338D03*
X1830Y1172D03*
X1813Y1287D03*
X1654Y1308D03*
X1799Y1342D03*
X1874Y1178D03*
X1569Y1733D03*
X1632Y1737D03*
X1569Y1602D03*
X1579Y1443D03*
X1695Y1754D03*
X1658Y1788D03*
X1599Y2009D03*
X1638D03*
X1538Y1968D03*
X1669Y2368D03*
X1640Y2519D03*
X1919Y761D03*
X2145Y1113D03*
X1919Y1148D03*
X2079Y1178D03*
X1979Y1403D03*
X2242Y1249D03*
X2144Y1622D03*
X2169Y1720D03*
X2184Y1758D03*
X2233Y1453D03*
X2004Y1483D03*
X2154Y1788D03*
X1990Y1912D03*
X2039Y1877D03*
X1959Y2564D03*
X2059Y2570D03*
X2407Y495D03*
X2257Y615D03*
X2594Y638D03*
X2348Y1008D03*
X2377Y1147D03*
X2424Y2566D03*
X2524Y2559D03*
X2826Y1433D03*
X2724Y2559D03*
X2624Y2566D03*
X3140Y253D03*
X3554Y628D03*
X3409Y1498D03*
X3789Y1558D03*
X4241Y417D03*
X4230Y1642D03*
X4168D03*
X4305Y2590D03*
X4149Y2531D03*
G54D19*
X174Y1618D03*
G54D28*
X3035Y2042D03*
Y2514D03*
X3515Y2042D03*
Y2514D03*
G54D29*
X3594Y2278D03*
M02*
