M48
INCH
T01C.012
T02C.035
T03C.036
T04C.04
T05C.043
T06C.052
T07C.055
T08C.064
T09C.125
T10C.036
T11C.043
;LEADER: 12 
;HEADER: 
;CODE  : ASCII 
;FILE  : Medical_Ventilator_VA-1-4.drl for board Medical_Ventilator_VA.brd ... layers TOP and BOTTOM
;T01 Holesize 1. = 12.000000 Tolerance = +2.000000/-2.000000 PLATED MILS Quantity = 93
;T02 Holesize 2. = 35.000000 Tolerance = +2.000000/-2.000000 PLATED MILS Quantity = 3
;T03 Holesize 3. = 36.000000 Tolerance = +3.000000/-3.000000 PLATED MILS Quantity = 8
;T04 Holesize 4. = 40.000000 Tolerance = +3.000000/-3.000000 PLATED MILS Quantity = 38
;T05 Holesize 5. = 43.000000 Tolerance = +3.000000/-3.000000 PLATED MILS Quantity = 12
;T06 Holesize 6. = 52.000000 Tolerance = +3.000000/-3.000000 PLATED MILS Quantity = 26
;T07 Holesize 7. = 55.000000 Tolerance = +3.000000/-3.000000 PLATED MILS Quantity = 2
;T08 Holesize 8. = 64.000000 Tolerance = +2.000000/-2.000000 PLATED MILS Quantity = 4
;T09 Holesize 9. = 125.000000 Tolerance = +3.000000/-3.000000 PLATED MILS Quantity = 4
;T10 Holesize 10. = 36.000000 Tolerance = +2.000000/-2.000000 NON_PLATED MILS Quantity = 2
;T11 Holesize 11. = 43.000000 Tolerance = +118.100000/-118.100000 NON_PLATED MILS Quantity = 12
%
G90
T01
X00699Y00420
X01438Y02004
X01538Y01968
X00942Y01969
X00919Y01118
X02242Y01249
X01694Y01754
X01360Y01825
X01638Y02009
X01399Y01825
X01599Y02009
X01579Y01443
X01979Y01403
X01534Y01668
X00332Y02295
X01263Y01860
X02079Y01178
X01640Y02519
X01669Y02368
X01719Y00758
X01874Y01178
X01919Y01148
X01919Y00761
X01339Y00848
X01289Y00848
X02145Y01113
X02004Y01483
X03554Y00628
X02594Y00638
X02039Y01877
X00519Y00506
X01050Y00733
X00839Y01252
X01187Y02202
X01189Y01683
X01674Y00833
X01830Y01173
X01462Y01957
X01399Y01248
X01529Y01360
X01674Y01013
X01335Y01783
X01632Y01737
X01569Y01733
X01264Y02348
X04305Y02590
X01044Y01743
X01101Y01333
X00499Y02743
X00162Y02406
X04241Y00417
X03789Y01558
X03140Y00253
X00749Y01710
X00457Y01418
X00709Y00523
X01589Y00691
X02348Y01008
X02377Y01147
X02826Y01433
X03409Y01498
X00518Y02362
X00511Y02465
X00150Y02330
X00693Y02787
X00686Y02890
X00612Y02688
X01959Y02564
X01404Y01583
X01404Y01438
X01569Y01602
X01799Y01342
X01658Y01788
X01654Y01308
X01813Y01287
X01493Y01908
X01990Y01912
X02233Y01453
X01735Y01338
X02154Y01788
X02184Y01758
X02169Y01720
X02144Y01622
X02407Y00495
X02257Y00615
X02724Y02559
X02524Y02559
X02059Y02570
X02624Y02566
X02424Y02566
X04168Y01641
X04230Y01641
X04149Y02531
T02
X00599Y00308
R02Y-00100
T03
X00609Y02028
X00865Y02028
X02989Y01678
R02Y-00100
X03309Y01478
R02Y00100
T04
X00879Y00168
R15X00100
X00194Y01943
X00194Y01843
X00124Y02168
R02X00100
X00324Y02543
R02X-00100
X02399Y01668
X02499Y01668
X02399Y01568
X02499Y01568
X02399Y01468
X02499Y01468
X02899Y02803
X02799Y02803
X02584Y02803
X02484Y02803
X03519Y02803
X03419Y02803
X03209Y02803
X03109Y02803
T05
X00179Y01058
X00179Y00958
X01939Y02828
X01839Y02828
X01619Y02828
X01519Y02828
X01299Y02828
X01199Y02828
X02269Y02823
X02169Y02823
X04024Y02813
X03924Y02813
T06
X00524Y01618
R02Y-00100
X00749Y01618
R02Y-00100
X01149Y02543
R02X-00100
X01739Y02468
R02Y-00100
X01399Y02468
R02Y-00100
X02449Y01908
R02X00100
X02279Y02258
R02Y00100
X03594Y02278
X03515Y02514
X03035Y02514
X03035Y02042
X03515Y02042
T07
X00174Y01618
X00174Y01418
T08
X00378Y00767
X00378Y00479
X00169Y00767
X00169Y00479
T09
X00199Y00198
X00199Y02788
X04274Y00218
X04274Y02793
T10
X00299Y00692
X00299Y00554
T11
X00079Y01058
X00079Y00958
X01939Y02928
X01839Y02928
X01619Y02928
X01519Y02928
X01299Y02928
X01199Y02928
X02269Y02923
X02169Y02923
X04024Y02913
X03924Y02913
M30
