G04 ================== begin FILE IDENTIFICATION RECORD ==================*
G04 Layout Name:  Medical_Ventilator_VA.brd*
G04 Film Name:    SSS.art*
G04 File Format:  Gerber RS274X*
G04 File Origin:  Cadence Allegro 16.3-p003*
G04 Origin Date:  Thu Nov 04 15:12:06 2010*
G04 *
G04 Layer:  REF DES/SILKSCREEN_BOTTOM*
G04 Layer:  PACKAGE GEOMETRY/SILKSCREEN_BOTTOM*
G04 Layer:  DRAWING FORMAT/FILM_TITLE_BLOCK*
G04 Layer:  DRAWING FORMAT/FILM_OUTLINE*
G04 Layer:  BOARD GEOMETRY/OUTLINE*
G04 Layer:  BOARD GEOMETRY/SILKSCREEN_BOTTOM*
G04 *
G04 Offset:    (0.0 0.0)*
G04 Mirror:    No*
G04 Mode:      Positive*
G04 Rotation:  0*
G04 FullContactRelief:  No*
G04 UndefLineWidth:     8.0*
G04 ================== end FILE IDENTIFICATION RECORD ====================*
%FSLAX53Y53*MOIN*%
%IR0*IPPOS*OFA0.00000B0.00000*MIA0B0*SFA1.00000B1.00000*%
%ADD10C,.002*%
%ADD11C,.006*%
%ADD12C,.0039*%
%ADD13C,.0079*%
%ADD14C,.01*%
%ADD15C,.02*%
%ADD16C,.008*%
G75*
%LPD*%
G75*
G54D10*
G01X2388Y1100D02*
X2301Y1003D01*
G54D11*
G01X96Y1408D02*
Y1439D01*
X88D01*
X85Y1437D01*
X83Y1435D01*
X81Y1432D01*
X79Y1429D01*
X79Y1424D01*
X79Y1418D01*
X81Y1415D01*
X83Y1412D01*
X85Y1410D01*
X88Y1408D01*
X96D01*
G01X58D02*
Y1439D01*
X63Y1433D01*
G01Y1408D02*
X54D01*
G01X30D02*
X27Y1408D01*
X24Y1410D01*
X22Y1413D01*
X21Y1416D01*
X22Y1420D01*
X24Y1423D01*
X28Y1424D01*
X31D01*
X34Y1426D01*
X36Y1428D01*
X36Y1432D01*
X35Y1435D01*
X33Y1438D01*
X30Y1439D01*
X26Y1438D01*
X24Y1435D01*
X23Y1432D01*
X23Y1428D01*
X25Y1426D01*
X28Y1424D01*
X31D01*
X35Y1423D01*
X37Y1420D01*
X38Y1416D01*
X37Y1413D01*
X35Y1410D01*
X32Y1408D01*
X30Y1408D01*
G01X104Y1610D02*
Y1641D01*
X109Y1635D01*
G01Y1610D02*
X100D01*
G01X153Y2087D02*
X151Y2084D01*
X148Y2082D01*
X146Y2081D01*
X143Y2082D01*
X140Y2084D01*
X138Y2087D01*
X137Y2091D01*
Y2112D01*
G01X116Y2081D02*
Y2112D01*
X121Y2106D01*
G01Y2081D02*
X111D01*
G01X82D02*
Y2112D01*
X97Y2090D01*
X77D01*
G01X322Y-1415D02*
X328Y-1420D01*
X334Y-1422D01*
X340Y-1420D01*
X346Y-1414D01*
X350Y-1404D01*
X351Y-1395D01*
Y-1383D01*
X350Y-1374D01*
X346Y-1365D01*
X341Y-1361D01*
X336Y-1359D01*
X329Y-1361D01*
X324Y-1365D01*
X321Y-1372D01*
X320Y-1380D01*
X321Y-1387D01*
X325Y-1395D01*
X330Y-1399D01*
X336Y-1400D01*
X342Y-1398D01*
X347Y-1393D01*
X351Y-1383D01*
G01X462Y-1422D02*
X455Y-1421D01*
X450Y-1417D01*
X445Y-1410D01*
X442Y-1403D01*
X440Y-1395D01*
Y-1386D01*
X442Y-1378D01*
X445Y-1370D01*
X450Y-1364D01*
X455Y-1360D01*
X462Y-1359D01*
X468Y-1360D01*
X473Y-1364D01*
X478Y-1370D01*
X481Y-1378D01*
X483Y-1386D01*
Y-1395D01*
X481Y-1403D01*
X478Y-1410D01*
X473Y-1417D01*
X468Y-1421D01*
X462Y-1422D01*
G01X510D02*
Y-1359D01*
X539D01*
G01X528Y-1389D02*
X510D01*
G01X650Y-1422D02*
Y-1359D01*
X641Y-1372D01*
G01Y-1422D02*
X660D01*
G01X714Y-1359D02*
X707Y-1361D01*
X702Y-1366D01*
X699Y-1373D01*
X697Y-1381D01*
X696Y-1390D01*
X697Y-1400D01*
X699Y-1408D01*
X702Y-1415D01*
X707Y-1420D01*
X714Y-1422D01*
X720Y-1420D01*
X724Y-1415D01*
X728Y-1408D01*
X730Y-1400D01*
X731Y-1390D01*
X730Y-1381D01*
X728Y-1373D01*
X724Y-1366D01*
X720Y-1361D01*
X714Y-1359D01*
G01X279Y-577D02*
Y-502D01*
X315D01*
G01X302Y-538D02*
X279D01*
G01X353Y-577D02*
Y-502D01*
X377D01*
X384Y-506D01*
X389Y-511D01*
X391Y-521D01*
X389Y-531D01*
X383Y-537D01*
X377Y-541D01*
X353D01*
G01X377D02*
X391Y-577D01*
G01X466D02*
X428D01*
Y-502D01*
X466D01*
G01X451Y-538D02*
X428D01*
G01X541Y-577D02*
X503D01*
Y-502D01*
X541D01*
G01X526Y-538D02*
X503D01*
G01X577Y-567D02*
X585Y-573D01*
X593Y-577D01*
X601D01*
X608Y-573D01*
X614Y-567D01*
X617Y-558D01*
X615Y-550D01*
X610Y-542D01*
X602Y-537D01*
X590Y-534D01*
X584Y-530D01*
X581Y-521D01*
X583Y-512D01*
X588Y-506D01*
X594Y-502D01*
X601D01*
X607Y-505D01*
X613Y-511D01*
G01X692Y-508D02*
X687Y-505D01*
X680Y-502D01*
X673D01*
X664Y-506D01*
X658Y-512D01*
X653Y-520D01*
X650Y-532D01*
X649Y-543D01*
X650Y-554D01*
X653Y-562D01*
X659Y-570D01*
X666Y-574D01*
X672Y-577D01*
X678D01*
X685Y-574D01*
X691Y-571D01*
X695Y-566D01*
G01X724Y-577D02*
X747Y-502D01*
X770Y-577D01*
G01X762Y-551D02*
X732D01*
G01X803Y-502D02*
Y-577D01*
X841D01*
G01X916D02*
X878D01*
Y-502D01*
X916D01*
G01X901Y-538D02*
X878D01*
G01X1027Y-567D02*
X1035Y-573D01*
X1043Y-577D01*
X1051D01*
X1058Y-573D01*
X1064Y-567D01*
X1067Y-558D01*
X1065Y-550D01*
X1060Y-542D01*
X1052Y-537D01*
X1040Y-534D01*
X1034Y-530D01*
X1031Y-521D01*
X1033Y-512D01*
X1038Y-506D01*
X1044Y-502D01*
X1051D01*
X1057Y-505D01*
X1063Y-511D01*
G01X1141Y-577D02*
X1103D01*
Y-502D01*
X1141D01*
G01X1126Y-538D02*
X1103D01*
G01X1173Y-577D02*
Y-502D01*
X1197Y-564D01*
X1221Y-502D01*
Y-577D01*
G01X1261Y-502D02*
X1283D01*
G01X1272D02*
Y-577D01*
G01X1261D02*
X1283D01*
G01X1368Y-508D02*
X1362Y-505D01*
X1355Y-502D01*
X1348D01*
X1340Y-506D01*
X1333Y-512D01*
X1328Y-520D01*
X1325Y-532D01*
X1324Y-543D01*
X1326Y-554D01*
X1328Y-562D01*
X1334Y-570D01*
X1340Y-574D01*
X1347Y-577D01*
X1354D01*
X1360Y-574D01*
X1366Y-571D01*
X1370Y-566D01*
G01X1422Y-577D02*
X1414Y-576D01*
X1408Y-571D01*
X1402Y-563D01*
X1399Y-554D01*
X1397Y-544D01*
Y-534D01*
X1399Y-524D01*
X1402Y-516D01*
X1408Y-508D01*
X1414Y-503D01*
X1422Y-502D01*
X1430Y-503D01*
X1436Y-508D01*
X1442Y-516D01*
X1445Y-524D01*
X1447Y-534D01*
Y-544D01*
X1445Y-554D01*
X1442Y-563D01*
X1436Y-571D01*
X1430Y-576D01*
X1422Y-577D01*
G01X1476D02*
Y-502D01*
X1518Y-577D01*
Y-502D01*
G01X1552Y-577D02*
Y-502D01*
X1570D01*
X1578Y-506D01*
X1583Y-511D01*
X1588Y-518D01*
X1592Y-527D01*
X1592Y-540D01*
X1592Y-552D01*
X1588Y-561D01*
X1583Y-568D01*
X1578Y-573D01*
X1570Y-577D01*
X1552D01*
G01X1626Y-502D02*
Y-556D01*
X1630Y-567D01*
X1638Y-574D01*
X1647Y-577D01*
X1656Y-574D01*
X1664Y-567D01*
X1668Y-556D01*
Y-502D01*
G01X1742Y-508D02*
X1737Y-505D01*
X1730Y-502D01*
X1723D01*
X1715Y-506D01*
X1708Y-512D01*
X1703Y-520D01*
X1700Y-532D01*
X1699Y-543D01*
X1701Y-554D01*
X1703Y-562D01*
X1709Y-570D01*
X1716Y-574D01*
X1722Y-577D01*
X1728D01*
X1735Y-574D01*
X1741Y-571D01*
X1745Y-566D01*
G01X1797Y-502D02*
Y-577D01*
G01X1776Y-502D02*
X1818D01*
G01X1872Y-577D02*
X1864Y-576D01*
X1858Y-571D01*
X1852Y-563D01*
X1849Y-554D01*
X1847Y-544D01*
Y-534D01*
X1849Y-524D01*
X1852Y-516D01*
X1858Y-508D01*
X1864Y-503D01*
X1872Y-502D01*
X1880Y-503D01*
X1886Y-508D01*
X1892Y-516D01*
X1895Y-524D01*
X1897Y-534D01*
Y-544D01*
X1895Y-554D01*
X1892Y-563D01*
X1886Y-571D01*
X1880Y-576D01*
X1872Y-577D01*
G01X1928D02*
Y-502D01*
X1952D01*
X1959Y-506D01*
X1964Y-511D01*
X1966Y-521D01*
X1964Y-531D01*
X1958Y-537D01*
X1952Y-541D01*
X1928D01*
G01X1952D02*
X1966Y-577D01*
G01X195Y417D02*
X192Y415D01*
X189Y413D01*
X186D01*
X182Y415D01*
X180Y417D01*
X179Y421D01*
X180Y425D01*
X182Y428D01*
X185Y430D01*
X190Y431D01*
X192Y433D01*
X194Y436D01*
X193Y440D01*
X191Y443D01*
X188Y444D01*
X186D01*
X183Y443D01*
X181Y441D01*
G01X154Y413D02*
Y444D01*
X168Y422D01*
X148D01*
G01X413Y417D02*
X410Y415D01*
X407Y413D01*
X404D01*
X401Y415D01*
X398Y417D01*
X397Y421D01*
X398Y425D01*
X400Y428D01*
X403Y430D01*
X408Y431D01*
X411Y433D01*
X412Y436D01*
X411Y440D01*
X409Y443D01*
X406Y444D01*
X404D01*
X401Y443D01*
X399Y441D01*
G01X384Y439D02*
X381Y442D01*
X378Y444D01*
X375Y444D01*
X372Y443D01*
X369Y441D01*
X368Y438D01*
X368Y434D01*
X370Y432D01*
X378Y427D01*
X381Y423D01*
X384Y418D01*
X384Y413D01*
X368D01*
G01X293Y994D02*
X291Y991D01*
X289Y989D01*
X286Y988D01*
X283Y989D01*
X281Y991D01*
X279Y994D01*
X278Y998D01*
Y1019D01*
G01X256Y988D02*
Y1019D01*
X261Y1013D01*
G01Y988D02*
X252D01*
G01X399Y812D02*
X396Y809D01*
X392Y808D01*
X390D01*
X386Y809D01*
X384Y812D01*
X383Y815D01*
X384Y819D01*
X386Y822D01*
X389Y824D01*
X394Y825D01*
X396Y827D01*
X398Y831D01*
X397Y834D01*
X395Y837D01*
X392Y839D01*
X390D01*
X387Y838D01*
X384Y835D01*
G01X362Y808D02*
Y839D01*
X367Y832D01*
G01Y808D02*
X357D01*
G01X188Y814D02*
X185Y812D01*
X182Y810D01*
X179D01*
X176Y812D01*
X174Y814D01*
X172Y818D01*
X173Y822D01*
X175Y825D01*
X178Y827D01*
X183Y828D01*
X186Y830D01*
X187Y834D01*
X186Y837D01*
X184Y840D01*
X182Y841D01*
X179D01*
X176Y840D01*
X174Y838D01*
G01X160Y817D02*
X158Y813D01*
X154Y811D01*
X151Y810D01*
X148Y811D01*
X145Y814D01*
X143Y817D01*
X143Y820D01*
X143Y823D01*
X146Y826D01*
X149Y827D01*
X152D01*
G01X149D02*
X146Y828D01*
X144Y831D01*
X144Y834D01*
X144Y837D01*
X146Y840D01*
X150Y841D01*
X153Y841D01*
X157Y839D01*
G01X304Y798D02*
X302Y795D01*
X299Y793D01*
X297Y792D01*
X294Y793D01*
X291Y795D01*
X289Y798D01*
X288Y802D01*
Y823D01*
G01X267Y792D02*
Y823D01*
X271Y817D01*
G01Y792D02*
X262D01*
G01X245Y805D02*
X242Y808D01*
X240Y810D01*
X237Y812D01*
X234Y810D01*
X232Y808D01*
X231Y805D01*
X230Y802D01*
X231Y799D01*
X232Y796D01*
X235Y793D01*
X237Y792D01*
X240Y793D01*
X243Y796D01*
X245Y801D01*
X245Y806D01*
X244Y813D01*
X243Y816D01*
X241Y820D01*
X239Y822D01*
X236Y823D01*
X233Y822D01*
X231Y819D01*
G01X450Y1413D02*
X448Y1410D01*
X445Y1408D01*
X441Y1407D01*
X438Y1408D01*
X435Y1410D01*
X433Y1413D01*
X433Y1416D01*
X433Y1420D01*
X436Y1422D01*
X439Y1424D01*
X442D01*
G01X439D02*
X436Y1425D01*
X435Y1428D01*
X434Y1431D01*
X435Y1434D01*
X436Y1436D01*
X440Y1438D01*
X443Y1438D01*
X447Y1435D01*
G01X453Y1529D02*
X450Y1532D01*
X448Y1534D01*
X445Y1534D01*
X441Y1533D01*
X438Y1530D01*
X437Y1527D01*
X438Y1524D01*
X439Y1522D01*
X447Y1516D01*
X450Y1513D01*
X453Y1508D01*
X454Y1503D01*
X437D01*
G01X444Y1609D02*
Y1640D01*
X449Y1634D01*
G01Y1609D02*
X440D01*
G01X136Y1935D02*
Y1966D01*
X140Y1960D01*
G01Y1935D02*
X131D01*
G01X200Y2026D02*
Y2057D01*
X195Y2050D01*
G01Y2026D02*
X204D01*
G01X325Y1928D02*
Y1959D01*
X317D01*
X314Y1957D01*
X312Y1955D01*
X310Y1952D01*
X308Y1949D01*
X308Y1944D01*
X308Y1938D01*
X310Y1935D01*
X312Y1932D01*
X314Y1930D01*
X317Y1928D01*
X325D01*
G01X288D02*
Y1959D01*
X292Y1953D01*
G01Y1928D02*
X283D01*
G01X259D02*
X258Y1935D01*
X257Y1940D01*
X256Y1946D01*
X254Y1951D01*
X251Y1959D01*
X266D01*
G01X140Y2470D02*
X138Y2467D01*
X135Y2464D01*
X132Y2464D01*
X128Y2464D01*
X126Y2467D01*
X124Y2470D01*
X123Y2473D01*
X124Y2477D01*
X127Y2480D01*
X129Y2480D01*
X133D01*
G01X129D02*
X127Y2482D01*
X125Y2485D01*
X124Y2488D01*
X125Y2491D01*
X127Y2493D01*
X130Y2495D01*
X134Y2494D01*
X137Y2492D01*
G01X320Y2471D02*
Y2502D01*
X325Y2496D01*
G01Y2471D02*
X315D01*
G01X345Y2230D02*
X343Y2227D01*
X340Y2224D01*
X337Y2224D01*
X334Y2224D01*
X330Y2227D01*
X329Y2230D01*
X328Y2233D01*
X329Y2237D01*
X332Y2240D01*
X334Y2240D01*
X338D01*
G01X334D02*
X332Y2242D01*
X330Y2245D01*
X329Y2248D01*
X330Y2251D01*
X332Y2253D01*
X336Y2255D01*
X339Y2254D01*
X342Y2252D01*
G01X114Y2230D02*
Y2261D01*
X119Y2255D01*
G01Y2230D02*
X109D01*
G01X471Y2534D02*
X469Y2531D01*
X466Y2529D01*
X464Y2528D01*
X461Y2529D01*
X458Y2531D01*
X456Y2534D01*
X455Y2538D01*
Y2559D01*
G01X434Y2528D02*
Y2559D01*
X439Y2553D01*
G01Y2528D02*
X429D01*
G01X413Y2533D02*
X411Y2530D01*
X409Y2528D01*
X405Y2528D01*
X402Y2529D01*
X399Y2531D01*
X397Y2535D01*
X397Y2539D01*
X397Y2543D01*
X399Y2546D01*
X402Y2548D01*
X405Y2548D01*
X407Y2548D01*
X411Y2546D01*
X410Y2559D01*
X399D01*
G01X756Y-1414D02*
X762Y-1419D01*
X769Y-1422D01*
X776D01*
X782Y-1419D01*
X787Y-1414D01*
X789Y-1406D01*
X787Y-1399D01*
X784Y-1393D01*
X776Y-1388D01*
X767Y-1386D01*
X762Y-1382D01*
X759Y-1375D01*
X761Y-1367D01*
X765Y-1362D01*
X770Y-1359D01*
X776D01*
X781Y-1361D01*
X786Y-1366D01*
G01X851Y-1422D02*
X820D01*
Y-1359D01*
X851D01*
G01X839Y-1389D02*
X820D01*
G01X916Y-1364D02*
X911Y-1361D01*
X906Y-1359D01*
X899D01*
X892Y-1362D01*
X887Y-1367D01*
X883Y-1374D01*
X880Y-1384D01*
X879Y-1394D01*
X881Y-1403D01*
X883Y-1409D01*
X888Y-1416D01*
X893Y-1420D01*
X898Y-1422D01*
X904D01*
X910Y-1420D01*
X914Y-1417D01*
X918Y-1413D01*
G01X962Y-1422D02*
X955Y-1421D01*
X950Y-1417D01*
X945Y-1410D01*
X942Y-1403D01*
X940Y-1395D01*
Y-1386D01*
X942Y-1378D01*
X945Y-1370D01*
X950Y-1364D01*
X955Y-1360D01*
X962Y-1359D01*
X968Y-1360D01*
X973Y-1364D01*
X978Y-1370D01*
X981Y-1378D01*
X983Y-1386D01*
Y-1395D01*
X981Y-1403D01*
X978Y-1410D01*
X973Y-1417D01*
X968Y-1421D01*
X962Y-1422D01*
G01X1006D02*
Y-1359D01*
X1042Y-1422D01*
Y-1359D01*
G01X1070Y-1422D02*
Y-1359D01*
X1086D01*
X1092Y-1362D01*
X1097Y-1366D01*
X1101Y-1373D01*
X1104Y-1380D01*
X1105Y-1390D01*
X1104Y-1401D01*
X1101Y-1408D01*
X1097Y-1415D01*
X1092Y-1419D01*
X1086Y-1422D01*
X1070D01*
G01X1131D02*
X1150Y-1359D01*
X1170Y-1422D01*
G01X1163Y-1400D02*
X1138D01*
G01X1198Y-1422D02*
Y-1359D01*
X1217D01*
X1224Y-1362D01*
X1228Y-1366D01*
X1229Y-1375D01*
X1228Y-1383D01*
X1223Y-1388D01*
X1217Y-1392D01*
X1198D01*
G01X1217D02*
X1229Y-1422D01*
G01X1276D02*
Y-1394D01*
X1261Y-1359D01*
G01X1292D02*
X1276Y-1394D01*
G01X1386Y-1414D02*
X1392Y-1419D01*
X1399Y-1422D01*
X1406D01*
X1412Y-1419D01*
X1417Y-1414D01*
X1419Y-1406D01*
X1417Y-1399D01*
X1414Y-1393D01*
X1406Y-1388D01*
X1397Y-1386D01*
X1392Y-1382D01*
X1389Y-1375D01*
X1391Y-1367D01*
X1395Y-1362D01*
X1400Y-1359D01*
X1406D01*
X1411Y-1361D01*
X1416Y-1366D01*
G01X1456Y-1359D02*
X1475D01*
G01X1466D02*
Y-1422D01*
G01X1456D02*
X1475D01*
G01X1513Y-1359D02*
Y-1422D01*
X1544D01*
G01X1574D02*
Y-1359D01*
G01X1604D02*
X1574Y-1398D01*
G01X1609Y-1422D02*
X1588Y-1380D01*
G01X1638Y-1414D02*
X1644Y-1419D01*
X1651Y-1422D01*
X1658D01*
X1664Y-1419D01*
X1669Y-1414D01*
X1671Y-1406D01*
X1669Y-1399D01*
X1666Y-1393D01*
X1658Y-1388D01*
X1649Y-1386D01*
X1644Y-1382D01*
X1641Y-1375D01*
X1643Y-1367D01*
X1647Y-1362D01*
X1652Y-1359D01*
X1658D01*
X1663Y-1361D01*
X1668Y-1366D01*
G01X1735Y-1364D02*
X1730Y-1361D01*
X1725Y-1359D01*
X1718D01*
X1711Y-1362D01*
X1706Y-1367D01*
X1702Y-1374D01*
X1699Y-1384D01*
X1698Y-1394D01*
X1700Y-1403D01*
X1702Y-1409D01*
X1707Y-1416D01*
X1712Y-1420D01*
X1718Y-1422D01*
X1723D01*
X1728Y-1420D01*
X1733Y-1417D01*
X1737Y-1413D01*
G01X1765Y-1422D02*
Y-1359D01*
X1784D01*
X1791Y-1362D01*
X1795Y-1366D01*
X1796Y-1375D01*
X1795Y-1383D01*
X1790Y-1388D01*
X1784Y-1392D01*
X1765D01*
G01X1784D02*
X1796Y-1422D01*
G01X1859D02*
X1828D01*
Y-1359D01*
X1859D01*
G01X1847Y-1389D02*
X1828D01*
G01X1922Y-1422D02*
X1891D01*
Y-1359D01*
X1922D01*
G01X1910Y-1389D02*
X1891D01*
G01X1952Y-1422D02*
Y-1359D01*
X1988Y-1422D01*
Y-1359D01*
G01X651Y69D02*
X649Y66D01*
X646Y64D01*
X642Y63D01*
X639Y64D01*
X636Y66D01*
X634Y69D01*
X634Y72D01*
X634Y76D01*
X637Y78D01*
X640Y80D01*
X643D01*
G01X640D02*
X638Y81D01*
X636Y84D01*
X635Y87D01*
X636Y90D01*
X638Y92D01*
X641Y94D01*
X644Y94D01*
X648Y91D01*
G01X648Y343D02*
Y374D01*
X652Y368D01*
G01Y343D02*
X643D01*
G01X553Y296D02*
Y327D01*
X543D01*
X540Y325D01*
X538Y323D01*
X537Y319D01*
X538Y315D01*
X540Y312D01*
X543Y311D01*
X553D01*
G01X543D02*
X537Y296D01*
G01X516D02*
Y327D01*
X521Y321D01*
G01Y296D02*
X511D01*
G01X482D02*
Y327D01*
X497Y305D01*
X477D01*
G01X475Y530D02*
X473Y527D01*
X470Y526D01*
X467Y525D01*
X463Y526D01*
X460Y528D01*
X458Y532D01*
X458Y536D01*
X459Y540D01*
X461Y543D01*
X464Y545D01*
X466Y545D01*
X469Y545D01*
X472Y543D01*
X471Y556D01*
X461D01*
G01X468Y693D02*
Y724D01*
X472Y718D01*
G01Y693D02*
X463D01*
G01X672Y1414D02*
X670Y1411D01*
X667Y1408D01*
X663Y1408D01*
X660Y1408D01*
X657Y1411D01*
X655Y1414D01*
X655Y1417D01*
X655Y1421D01*
X658Y1424D01*
X661Y1424D01*
X664D01*
G01X661D02*
X658Y1426D01*
X657Y1429D01*
X656Y1432D01*
X657Y1435D01*
X658Y1437D01*
X662Y1439D01*
X665Y1438D01*
X669Y1436D01*
G01X536Y1761D02*
Y1739D01*
X534Y1734D01*
X531Y1731D01*
X528Y1730D01*
X524Y1731D01*
X521Y1734D01*
X519Y1739D01*
Y1761D01*
G01X507Y1735D02*
X505Y1732D01*
X502Y1730D01*
X498Y1730D01*
X495Y1731D01*
X492Y1733D01*
X490Y1737D01*
X490Y1741D01*
X491Y1745D01*
X493Y1748D01*
X495Y1750D01*
X498Y1750D01*
X501Y1750D01*
X504Y1748D01*
X503Y1761D01*
X493D01*
G01X823D02*
Y1739D01*
X821Y1734D01*
X818Y1731D01*
X814Y1730D01*
X811Y1731D01*
X808Y1734D01*
X806Y1739D01*
Y1761D01*
G01X793Y1743D02*
X790Y1746D01*
X788Y1749D01*
X785Y1750D01*
X782Y1749D01*
X780Y1746D01*
X779Y1743D01*
X778Y1740D01*
X779Y1737D01*
X780Y1734D01*
X782Y1731D01*
X785Y1730D01*
X788Y1731D01*
X791Y1734D01*
X792Y1739D01*
X793Y1744D01*
X792Y1751D01*
X791Y1754D01*
X789Y1758D01*
X786Y1760D01*
X784Y1761D01*
X781Y1760D01*
X779Y1757D01*
G01X669Y1529D02*
X666Y1532D01*
X664Y1534D01*
X661Y1534D01*
X657Y1533D01*
X654Y1530D01*
X653Y1527D01*
X654Y1524D01*
X655Y1522D01*
X663Y1516D01*
X666Y1513D01*
X669Y1508D01*
X670Y1503D01*
X653D01*
G01X664Y1610D02*
Y1641D01*
X668Y1635D01*
G01Y1610D02*
X659D01*
G01X882Y79D02*
Y110D01*
X887Y104D01*
G01Y79D02*
X877D01*
G01X1034Y60D02*
X1032Y57D01*
X1030Y55D01*
X1027Y54D01*
X1024Y55D01*
X1021Y57D01*
X1019Y60D01*
X1018Y64D01*
Y85D01*
G01X997Y54D02*
Y85D01*
X1002Y79D01*
G01Y54D02*
X992D01*
G01X975Y80D02*
X973Y83D01*
X970Y84D01*
X967Y85D01*
X963Y84D01*
X961Y81D01*
X960Y78D01*
X960Y75D01*
X962Y73D01*
X970Y67D01*
X973Y64D01*
X975Y59D01*
X976Y54D01*
X960D01*
G01X957Y2451D02*
X955Y2448D01*
X952Y2446D01*
X948Y2445D01*
X945Y2446D01*
X942Y2448D01*
X940Y2451D01*
X940Y2454D01*
X940Y2458D01*
X943Y2460D01*
X946Y2462D01*
X949D01*
G01X946D02*
X944Y2463D01*
X942Y2466D01*
X941Y2469D01*
X942Y2472D01*
X944Y2474D01*
X947Y2476D01*
X950Y2476D01*
X954Y2473D01*
G01X1054Y2474D02*
X1052Y2477D01*
X1049Y2478D01*
X1046Y2479D01*
X1042Y2478D01*
X1039Y2475D01*
X1038Y2472D01*
X1039Y2469D01*
X1040Y2467D01*
X1048Y2461D01*
X1052Y2458D01*
X1054Y2453D01*
X1055Y2448D01*
X1038D01*
G01X1144D02*
Y2479D01*
X1149Y2473D01*
G01Y2448D02*
X1140D01*
G01X1068Y2631D02*
X1071Y2632D01*
X1073Y2634D01*
X1076Y2637D01*
X1077Y2640D01*
X1078Y2644D01*
Y2649D01*
X1077Y2653D01*
X1076Y2656D01*
X1073Y2659D01*
X1071Y2662D01*
X1068Y2662D01*
X1064Y2662D01*
X1062Y2659D01*
X1059Y2656D01*
X1058Y2653D01*
X1057Y2649D01*
Y2644D01*
X1058Y2640D01*
X1059Y2637D01*
X1062Y2634D01*
X1064Y2632D01*
X1068Y2631D01*
G01X1064Y2639D02*
X1060Y2631D01*
G01X1047Y2636D02*
X1045Y2633D01*
X1042Y2632D01*
X1038Y2631D01*
X1035Y2632D01*
X1032Y2634D01*
X1030Y2638D01*
X1030Y2642D01*
X1031Y2646D01*
X1033Y2649D01*
X1035Y2651D01*
X1038Y2651D01*
X1041Y2651D01*
X1044Y2649D01*
X1043Y2662D01*
X1033D01*
G01X1495Y2257D02*
X1493Y2254D01*
X1490Y2252D01*
X1486Y2251D01*
X1483Y2252D01*
X1480Y2254D01*
X1478Y2257D01*
X1478Y2260D01*
X1478Y2264D01*
X1481Y2266D01*
X1484Y2268D01*
X1487D01*
G01X1484D02*
X1482Y2269D01*
X1480Y2272D01*
X1479Y2275D01*
X1480Y2278D01*
X1482Y2280D01*
X1485Y2282D01*
X1488Y2282D01*
X1492Y2279D01*
G01X1491Y2381D02*
X1488Y2384D01*
X1486Y2386D01*
X1483Y2386D01*
X1479Y2385D01*
X1476Y2382D01*
X1475Y2379D01*
X1476Y2376D01*
X1477Y2374D01*
X1485Y2368D01*
X1488Y2365D01*
X1491Y2360D01*
X1492Y2355D01*
X1475D01*
G01X1484Y2457D02*
Y2488D01*
X1488Y2482D01*
G01Y2457D02*
X1479D01*
G01X1416Y2559D02*
X1419Y2560D01*
X1421Y2562D01*
X1424Y2565D01*
X1425Y2568D01*
X1426Y2572D01*
Y2577D01*
X1425Y2581D01*
X1424Y2584D01*
X1421Y2587D01*
X1419Y2590D01*
X1416Y2590D01*
X1412Y2590D01*
X1410Y2587D01*
X1407Y2584D01*
X1406Y2581D01*
X1405Y2577D01*
Y2572D01*
X1406Y2568D01*
X1407Y2565D01*
X1410Y2562D01*
X1412Y2560D01*
X1416Y2559D01*
G01X1412Y2567D02*
X1408Y2559D01*
G01X1382D02*
Y2590D01*
X1396Y2568D01*
X1377D01*
G01X1269Y2742D02*
X1267Y2739D01*
X1265Y2737D01*
X1262Y2736D01*
X1259Y2737D01*
X1257Y2739D01*
X1255Y2742D01*
X1254Y2746D01*
Y2767D01*
G01X1241Y2741D02*
X1239Y2738D01*
X1236Y2736D01*
X1232Y2736D01*
X1229Y2737D01*
X1226Y2739D01*
X1224Y2743D01*
X1224Y2747D01*
X1225Y2751D01*
X1227Y2754D01*
X1229Y2756D01*
X1232Y2756D01*
X1235Y2756D01*
X1238Y2754D01*
X1237Y2767D01*
X1227D01*
G01X1816Y2281D02*
X1818Y2284D01*
X1821Y2286D01*
X1825Y2287D01*
X1828Y2286D01*
X1831Y2284D01*
X1833Y2281D01*
X1833Y2278D01*
X1833Y2274D01*
X1830Y2272D01*
X1827Y2270D01*
X1824D01*
G01X1827D02*
X1830Y2269D01*
X1831Y2266D01*
X1832Y2263D01*
X1831Y2260D01*
X1830Y2258D01*
X1826Y2256D01*
X1823Y2256D01*
X1819Y2259D01*
G01X1830Y2383D02*
X1828Y2386D01*
X1825Y2388D01*
X1822Y2388D01*
X1818Y2387D01*
X1815Y2384D01*
X1814Y2381D01*
X1815Y2378D01*
X1816Y2376D01*
X1824Y2370D01*
X1828Y2367D01*
X1830Y2362D01*
X1831Y2357D01*
X1814D01*
G01X1818Y2475D02*
Y2506D01*
X1823Y2500D01*
G01Y2475D02*
X1814D01*
G01X1746Y2556D02*
X1750Y2556D01*
X1752Y2559D01*
X1755Y2562D01*
X1756Y2565D01*
X1757Y2569D01*
Y2574D01*
X1756Y2578D01*
X1755Y2581D01*
X1752Y2584D01*
X1750Y2586D01*
X1746Y2587D01*
X1743Y2586D01*
X1741Y2584D01*
X1738Y2581D01*
X1737Y2578D01*
X1736Y2574D01*
Y2569D01*
X1737Y2565D01*
X1738Y2562D01*
X1741Y2559D01*
X1743Y2556D01*
X1746Y2556D01*
G01X1743Y2564D02*
X1739Y2556D01*
G01X1726Y2562D02*
X1724Y2559D01*
X1721Y2556D01*
X1717Y2556D01*
X1714Y2556D01*
X1711Y2559D01*
X1709Y2562D01*
X1709Y2565D01*
X1709Y2569D01*
X1712Y2572D01*
X1715Y2573D01*
X1718D01*
G01X1715D02*
X1713Y2574D01*
X1711Y2577D01*
X1710Y2580D01*
X1711Y2583D01*
X1713Y2585D01*
X1716Y2587D01*
X1719Y2586D01*
X1723Y2584D01*
G01X1597Y2744D02*
X1595Y2741D01*
X1593Y2739D01*
X1590Y2738D01*
X1587Y2739D01*
X1585Y2741D01*
X1583Y2744D01*
X1582Y2748D01*
Y2769D01*
G01X1556Y2738D02*
Y2769D01*
X1570Y2747D01*
X1551D01*
G01X1916Y2752D02*
X1914Y2749D01*
X1912Y2747D01*
X1909Y2746D01*
X1906Y2747D01*
X1904Y2749D01*
X1902Y2752D01*
X1901Y2756D01*
Y2777D01*
G01X1888Y2752D02*
X1886Y2749D01*
X1883Y2746D01*
X1879Y2746D01*
X1876Y2746D01*
X1873Y2749D01*
X1871Y2752D01*
X1871Y2755D01*
X1871Y2759D01*
X1874Y2762D01*
X1877Y2762D01*
X1880D01*
G01X1877D02*
X1874Y2764D01*
X1873Y2767D01*
X1872Y2770D01*
X1873Y2773D01*
X1874Y2775D01*
X1878Y2777D01*
X1881Y2776D01*
X1885Y2774D01*
G01X2176Y-1027D02*
X2209Y-964D01*
G01X2176D02*
X2209Y-1027D01*
G01X2177Y-682D02*
Y-619D01*
X2198Y-672D01*
X2218Y-619D01*
Y-682D01*
G01X2276D02*
X2245D01*
Y-619D01*
X2276D01*
G01X2264Y-649D02*
X2245D01*
G01X2306Y-682D02*
Y-619D01*
X2322D01*
X2328Y-622D01*
X2333Y-626D01*
X2337Y-633D01*
X2340Y-640D01*
X2341Y-650D01*
X2340Y-661D01*
X2337Y-668D01*
X2333Y-675D01*
X2328Y-679D01*
X2322Y-682D01*
X2306D01*
G01X2377Y-619D02*
X2396D01*
G01X2386D02*
Y-682D01*
G01X2377D02*
X2396D01*
G01X2467Y-624D02*
X2462Y-621D01*
X2457Y-619D01*
X2450D01*
X2443Y-622D01*
X2438Y-627D01*
X2434Y-634D01*
X2431Y-644D01*
X2430Y-654D01*
X2432Y-663D01*
X2434Y-669D01*
X2438Y-676D01*
X2444Y-680D01*
X2450Y-682D01*
X2455D01*
X2460Y-680D01*
X2465Y-677D01*
X2469Y-673D01*
G01X2493Y-682D02*
X2512Y-619D01*
X2532Y-682D01*
G01X2525Y-660D02*
X2500D01*
G01X2560Y-619D02*
Y-682D01*
X2591D01*
G01X2682Y-619D02*
X2702Y-682D01*
X2721Y-619D01*
G01X2780Y-682D02*
X2749D01*
Y-619D01*
X2780D01*
G01X2768Y-649D02*
X2749D01*
G01X2810Y-682D02*
Y-619D01*
X2846Y-682D01*
Y-619D01*
G01X2890D02*
Y-682D01*
G01X2872Y-619D02*
X2908D01*
G01X2944D02*
X2963D01*
G01X2954D02*
Y-682D01*
G01X2944D02*
X2963D01*
G01X3001Y-619D02*
Y-682D01*
X3032D01*
G01X3060D02*
X3080Y-619D01*
X3099Y-682D01*
G01X3092Y-660D02*
X3067D01*
G01X3142Y-619D02*
Y-682D01*
G01X3125Y-619D02*
X3160D01*
G01X3206Y-682D02*
X3199Y-681D01*
X3194Y-677D01*
X3189Y-670D01*
X3186Y-663D01*
X3184Y-655D01*
Y-646D01*
X3186Y-638D01*
X3189Y-631D01*
X3194Y-624D01*
X3199Y-620D01*
X3206Y-619D01*
X3212Y-620D01*
X3217Y-624D01*
X3222Y-631D01*
X3225Y-638D01*
X3227Y-646D01*
Y-655D01*
X3225Y-663D01*
X3222Y-670D01*
X3217Y-677D01*
X3212Y-681D01*
X3206Y-682D01*
G01X3253D02*
Y-619D01*
X3272D01*
X3279Y-622D01*
X3283Y-626D01*
X3284Y-635D01*
X3283Y-643D01*
X3278Y-648D01*
X3272Y-652D01*
X3253D01*
G01X3272D02*
X3284Y-682D01*
G01X3384Y-661D02*
X3405D01*
G01X3505Y-682D02*
Y-619D01*
X3524D01*
X3531Y-622D01*
X3535Y-626D01*
X3536Y-635D01*
X3535Y-643D01*
X3530Y-648D01*
X3524Y-652D01*
X3505D01*
G01X3524D02*
X3536Y-682D01*
G01X3599D02*
X3568D01*
Y-619D01*
X3599D01*
G01X3587Y-649D02*
X3568D01*
G01X3630Y-674D02*
X3636Y-679D01*
X3643Y-682D01*
X3650D01*
X3656Y-679D01*
X3661Y-674D01*
X3663Y-666D01*
X3661Y-659D01*
X3658Y-653D01*
X3650Y-648D01*
X3641Y-646D01*
X3636Y-642D01*
X3633Y-635D01*
X3635Y-627D01*
X3639Y-622D01*
X3644Y-619D01*
X3650D01*
X3655Y-621D01*
X3660Y-626D01*
G01X3694Y-682D02*
Y-619D01*
X3713D01*
X3719Y-622D01*
X3724Y-630D01*
X3725Y-638D01*
X3724Y-646D01*
X3720Y-653D01*
X3713Y-656D01*
X3694D01*
G01X3763Y-619D02*
X3782D01*
G01X3772D02*
Y-682D01*
G01X3763D02*
X3782D01*
G01X3820D02*
Y-619D01*
X3839D01*
X3846Y-622D01*
X3850Y-626D01*
X3851Y-635D01*
X3850Y-643D01*
X3845Y-648D01*
X3839Y-652D01*
X3820D01*
G01X3839D02*
X3851Y-682D01*
G01X3879D02*
X3899Y-619D01*
X3918Y-682D01*
G01X3911Y-660D02*
X3886D01*
G01X3962Y-619D02*
Y-682D01*
G01X3944Y-619D02*
X3980D01*
G01X4024Y-682D02*
X4018Y-681D01*
X4013Y-677D01*
X4008Y-670D01*
X4005Y-663D01*
X4003Y-655D01*
Y-646D01*
X4005Y-638D01*
X4008Y-631D01*
X4013Y-624D01*
X4018Y-620D01*
X4024Y-619D01*
X4031Y-620D01*
X4036Y-624D01*
X4041Y-631D01*
X4044Y-638D01*
X4046Y-646D01*
Y-655D01*
X4044Y-663D01*
X4041Y-670D01*
X4036Y-677D01*
X4031Y-681D01*
X4024Y-682D01*
G01X4072D02*
Y-619D01*
X4091D01*
X4098Y-622D01*
X4102Y-626D01*
X4103Y-635D01*
X4102Y-643D01*
X4097Y-648D01*
X4091Y-652D01*
X4072D01*
G01X4091D02*
X4103Y-682D01*
G01X2440Y881D02*
X2436Y887D01*
X2430Y890D01*
X2424Y891D01*
X2416Y889D01*
X2411Y884D01*
X2409Y877D01*
X2410Y871D01*
X2413Y866D01*
X2429Y855D01*
X2436Y848D01*
X2440Y837D01*
X2442Y828D01*
X2409D01*
G01X2377Y854D02*
X2372Y862D01*
X2367Y866D01*
X2361Y868D01*
X2355Y866D01*
X2352Y862D01*
X2348Y855D01*
X2348Y848D01*
X2348Y842D01*
X2352Y835D01*
X2356Y830D01*
X2362Y828D01*
X2368Y830D01*
X2374Y836D01*
X2377Y846D01*
X2377Y856D01*
X2376Y870D01*
X2374Y877D01*
X2370Y885D01*
X2364Y890D01*
X2359Y891D01*
X2353Y889D01*
X2349Y884D01*
G01X2300Y891D02*
X2306Y889D01*
X2310Y884D01*
X2314Y877D01*
X2316Y869D01*
X2317Y860D01*
X2316Y850D01*
X2314Y842D01*
X2310Y835D01*
X2306Y830D01*
X2300Y828D01*
X2293Y830D01*
X2288Y835D01*
X2285Y842D01*
X2283Y850D01*
X2282Y860D01*
X2283Y869D01*
X2285Y877D01*
X2288Y884D01*
X2293Y889D01*
X2300Y891D01*
G01X2156Y886D02*
X2161Y889D01*
X2166Y891D01*
X2173D01*
X2180Y888D01*
X2185Y883D01*
X2189Y876D01*
X2192Y866D01*
X2193Y856D01*
X2192Y847D01*
X2189Y841D01*
X2184Y834D01*
X2179Y830D01*
X2174Y828D01*
X2168D01*
X2162Y830D01*
X2158Y833D01*
X2154Y837D01*
G01X2191Y2479D02*
X2193Y2482D01*
X2196Y2484D01*
X2200Y2485D01*
X2203Y2484D01*
X2206Y2482D01*
X2208Y2479D01*
X2208Y2476D01*
X2208Y2472D01*
X2205Y2470D01*
X2202Y2468D01*
X2199D01*
G01X2202D02*
X2204Y2467D01*
X2206Y2464D01*
X2207Y2461D01*
X2206Y2458D01*
X2204Y2456D01*
X2201Y2454D01*
X2198Y2454D01*
X2194Y2457D01*
G01X2205Y2389D02*
X2202Y2392D01*
X2200Y2394D01*
X2197Y2394D01*
X2193Y2393D01*
X2190Y2390D01*
X2189Y2387D01*
X2190Y2384D01*
X2191Y2382D01*
X2199Y2376D01*
X2202Y2373D01*
X2205Y2368D01*
X2206Y2363D01*
X2189D01*
G01X2186Y2260D02*
Y2291D01*
X2190Y2285D01*
G01Y2260D02*
X2181D01*
G01X2246Y2736D02*
X2244Y2733D01*
X2242Y2731D01*
X2239Y2730D01*
X2236Y2731D01*
X2234Y2733D01*
X2232Y2736D01*
X2231Y2740D01*
Y2761D01*
G01X2217Y2756D02*
X2214Y2759D01*
X2212Y2760D01*
X2209Y2761D01*
X2205Y2760D01*
X2202Y2757D01*
X2201Y2754D01*
X2202Y2751D01*
X2203Y2749D01*
X2211Y2743D01*
X2214Y2740D01*
X2217Y2735D01*
X2218Y2730D01*
X2201D01*
G01X2398Y87D02*
Y118D01*
X2402Y112D01*
G01Y87D02*
X2393D01*
G01X2376Y100D02*
X2373Y104D01*
X2371Y106D01*
X2368Y107D01*
X2365Y106D01*
X2363Y104D01*
X2362Y100D01*
X2361Y97D01*
X2362Y94D01*
X2363Y91D01*
X2365Y88D01*
X2368Y87D01*
X2371Y88D01*
X2374Y91D01*
X2375Y96D01*
X2376Y101D01*
X2375Y108D01*
X2374Y111D01*
X2372Y115D01*
X2369Y118D01*
X2367Y118D01*
X2364Y117D01*
X2362Y114D01*
G01X2389Y1019D02*
Y1082D01*
X2370D01*
X2364Y1079D01*
X2359Y1072D01*
X2358Y1063D01*
X2359Y1055D01*
X2363Y1048D01*
X2370Y1045D01*
X2389D01*
G01X2325Y1019D02*
Y1082D01*
G01Y1050D02*
X2321Y1057D01*
X2316Y1060D01*
X2311Y1061D01*
X2304Y1059D01*
X2300Y1055D01*
X2296Y1047D01*
Y1039D01*
X2298Y1030D01*
X2301Y1024D01*
X2307Y1020D01*
X2311Y1019D01*
X2316Y1020D01*
X2321Y1023D01*
X2325Y1028D01*
G01X2581Y1470D02*
X2579Y1474D01*
X2576Y1476D01*
X2573Y1477D01*
X2570Y1476D01*
X2569Y1474D01*
X2567Y1470D01*
X2567Y1467D01*
X2567Y1464D01*
X2569Y1461D01*
X2571Y1458D01*
X2574Y1457D01*
X2577Y1458D01*
X2579Y1461D01*
X2581Y1466D01*
X2581Y1471D01*
X2581Y1478D01*
X2579Y1481D01*
X2578Y1485D01*
X2575Y1488D01*
X2572Y1488D01*
X2569Y1487D01*
X2568Y1484D01*
G01X2332Y1462D02*
X2330Y1459D01*
X2328Y1458D01*
X2324Y1457D01*
X2320Y1458D01*
X2318Y1460D01*
X2316Y1464D01*
X2316Y1468D01*
X2316Y1472D01*
X2318Y1475D01*
X2321Y1477D01*
X2324Y1477D01*
X2326Y1477D01*
X2330Y1475D01*
X2329Y1488D01*
X2318D01*
G01X2324Y1657D02*
Y1688D01*
X2329Y1682D01*
G01Y1657D02*
X2319D01*
G01X2581Y1683D02*
X2579Y1686D01*
X2576Y1688D01*
X2573Y1688D01*
X2569Y1687D01*
X2567Y1684D01*
X2566Y1681D01*
X2566Y1678D01*
X2568Y1676D01*
X2576Y1670D01*
X2579Y1667D01*
X2581Y1662D01*
X2582Y1657D01*
X2566D01*
G01X2442Y1729D02*
X2440Y1726D01*
X2438Y1724D01*
X2435Y1723D01*
X2432Y1724D01*
X2429Y1726D01*
X2427Y1729D01*
X2426Y1733D01*
Y1754D01*
G01X2405Y1723D02*
Y1754D01*
X2410Y1748D01*
G01Y1723D02*
X2400D01*
G01X2384Y1729D02*
X2382Y1726D01*
X2379Y1724D01*
X2376Y1723D01*
X2372Y1724D01*
X2370Y1726D01*
X2368Y1729D01*
X2367Y1732D01*
X2368Y1736D01*
X2371Y1738D01*
X2373Y1740D01*
X2377D01*
G01X2373D02*
X2371Y1741D01*
X2369Y1744D01*
X2368Y1747D01*
X2369Y1750D01*
X2371Y1752D01*
X2374Y1754D01*
X2378Y1754D01*
X2381Y1751D01*
G01X2551Y1841D02*
X2548Y1844D01*
X2546Y1846D01*
X2543Y1846D01*
X2539Y1845D01*
X2536Y1842D01*
X2535Y1839D01*
X2536Y1836D01*
X2537Y1834D01*
X2545Y1828D01*
X2548Y1825D01*
X2551Y1820D01*
X2552Y1815D01*
X2535D01*
G01X2444Y1819D02*
Y1850D01*
X2448Y1844D01*
G01Y1819D02*
X2439D01*
G01X2270Y2559D02*
X2267Y2558D01*
X2265Y2556D01*
X2262Y2553D01*
X2261Y2550D01*
X2260Y2546D01*
Y2541D01*
X2261Y2537D01*
X2262Y2534D01*
X2265Y2531D01*
X2267Y2528D01*
X2270Y2528D01*
X2274Y2528D01*
X2276Y2531D01*
X2279Y2534D01*
X2280Y2537D01*
X2281Y2541D01*
Y2546D01*
X2280Y2550D01*
X2279Y2553D01*
X2276Y2556D01*
X2274Y2558D01*
X2270Y2559D01*
G01X2274Y2551D02*
X2278Y2559D01*
G01X2292Y2533D02*
X2294Y2530D01*
X2297Y2528D01*
X2300Y2528D01*
X2304Y2529D01*
X2307Y2532D01*
X2308Y2535D01*
X2307Y2538D01*
X2306Y2540D01*
X2298Y2546D01*
X2294Y2549D01*
X2292Y2554D01*
X2291Y2559D01*
X2308D01*
G01X2581Y2715D02*
Y2746D01*
X2585Y2740D01*
G01Y2715D02*
X2576D01*
G01X2605Y2678D02*
X2602Y2676D01*
X2598Y2674D01*
X2595D01*
X2592Y2676D01*
X2590Y2678D01*
X2588Y2682D01*
X2589Y2685D01*
X2591Y2688D01*
X2595Y2690D01*
X2599Y2692D01*
X2602Y2694D01*
X2603Y2697D01*
X2602Y2701D01*
X2600Y2703D01*
X2598Y2705D01*
X2595D01*
X2592Y2704D01*
X2590Y2701D01*
G01X2579Y2705D02*
X2574Y2674D01*
X2568Y2705D01*
X2561Y2674D01*
X2556Y2705D01*
G01X2547Y2679D02*
X2545Y2676D01*
X2542Y2674D01*
X2538Y2674D01*
X2535Y2675D01*
X2532Y2677D01*
X2530Y2681D01*
X2530Y2685D01*
X2531Y2689D01*
X2533Y2692D01*
X2535Y2694D01*
X2538Y2694D01*
X2541Y2694D01*
X2544Y2692D01*
X2543Y2705D01*
X2533D01*
G01X2882Y-1407D02*
Y-1344D01*
X2873Y-1357D01*
G01Y-1407D02*
X2892D01*
G01X2944D02*
X2946Y-1393D01*
X2948Y-1382D01*
X2951Y-1371D01*
X2955Y-1360D01*
X2961Y-1344D01*
X2930D01*
G01X3008D02*
X3002Y-1346D01*
X2998Y-1351D01*
X2994Y-1358D01*
X2992Y-1366D01*
X2991Y-1376D01*
X2992Y-1385D01*
X2994Y-1393D01*
X2998Y-1400D01*
X3002Y-1405D01*
X3008Y-1407D01*
X3015Y-1405D01*
X3020Y-1400D01*
X3023Y-1393D01*
X3025Y-1385D01*
X3026Y-1376D01*
X3025Y-1366D01*
X3023Y-1358D01*
X3020Y-1351D01*
X3015Y-1346D01*
X3008Y-1344D01*
G01X3061Y-1386D02*
X3082D01*
G01X3118Y-1407D02*
X3151Y-1344D01*
G01X3118D02*
X3151Y-1407D01*
G01X3181D02*
X3214Y-1344D01*
G01X3181D02*
X3214Y-1407D01*
G01X3244D02*
X3277Y-1344D01*
G01X3244D02*
X3277Y-1407D01*
G01X3307D02*
X3340Y-1344D01*
G01X3307D02*
X3340Y-1407D01*
G01X3370D02*
X3403Y-1344D01*
G01X3370D02*
X3403Y-1407D01*
G01X3812D02*
Y-1344D01*
X3831D01*
X3838Y-1347D01*
X3842Y-1351D01*
X3843Y-1360D01*
X3842Y-1368D01*
X3837Y-1373D01*
X3831Y-1377D01*
X3812D01*
G01X3831D02*
X3843Y-1407D01*
G01X3906D02*
X3875D01*
Y-1344D01*
X3906D01*
G01X3894Y-1374D02*
X3875D01*
G01X3934Y-1344D02*
X3954Y-1407D01*
X3973Y-1344D01*
G01X4060Y-1407D02*
X4080Y-1344D01*
X4099Y-1407D01*
G01X4092Y-1385D02*
X4067D01*
G01X2946Y1424D02*
X2944Y1421D01*
X2941Y1418D01*
X2937Y1418D01*
X2934Y1418D01*
X2931Y1421D01*
X2929Y1424D01*
X2929Y1427D01*
X2929Y1431D01*
X2932Y1434D01*
X2935Y1434D01*
X2938D01*
G01X2935D02*
X2932Y1436D01*
X2931Y1439D01*
X2930Y1442D01*
X2931Y1445D01*
X2932Y1447D01*
X2936Y1449D01*
X2939Y1449D01*
X2943Y1446D01*
G01X2948Y1728D02*
Y1759D01*
X2952Y1753D01*
G01Y1728D02*
X2943D01*
G01X2662Y1990D02*
X2665Y1990D01*
X2667Y1993D01*
X2670Y1996D01*
X2671Y1999D01*
X2672Y2003D01*
Y2008D01*
X2671Y2012D01*
X2670Y2015D01*
X2667Y2018D01*
X2665Y2021D01*
X2662Y2021D01*
X2658Y2021D01*
X2656Y2018D01*
X2653Y2015D01*
X2652Y2012D01*
X2651Y2008D01*
Y2003D01*
X2652Y1999D01*
X2653Y1996D01*
X2656Y1993D01*
X2658Y1990D01*
X2662Y1990D01*
G01X2658Y1998D02*
X2654Y1990D01*
G01X2632D02*
Y2021D01*
X2637Y2015D01*
G01Y1990D02*
X2628D01*
G01X2658Y1821D02*
X2656Y1818D01*
X2653Y1816D01*
X2649Y1815D01*
X2646Y1816D01*
X2643Y1818D01*
X2641Y1821D01*
X2641Y1824D01*
X2641Y1828D01*
X2644Y1830D01*
X2647Y1832D01*
X2650D01*
G01X2647D02*
X2644Y1833D01*
X2643Y1836D01*
X2642Y1839D01*
X2643Y1842D01*
X2644Y1844D01*
X2648Y1846D01*
X2651Y1846D01*
X2655Y1843D01*
G01X2951Y2789D02*
Y2820D01*
X2956Y2814D01*
G01Y2789D02*
X2946D01*
G01X2913Y2733D02*
Y2764D01*
X2908Y2758D01*
G01Y2733D02*
X2918D01*
G01X2903Y2672D02*
X2900Y2670D01*
X2896Y2668D01*
X2893D01*
X2890Y2670D01*
X2888Y2672D01*
X2886Y2676D01*
X2887Y2679D01*
X2889Y2682D01*
X2893Y2684D01*
X2897Y2686D01*
X2900Y2688D01*
X2901Y2691D01*
X2900Y2695D01*
X2898Y2697D01*
X2896Y2699D01*
X2893D01*
X2890Y2698D01*
X2888Y2695D01*
G01X2877Y2699D02*
X2872Y2668D01*
X2866Y2699D01*
X2859Y2668D01*
X2854Y2699D01*
G01X2832Y2668D02*
Y2699D01*
X2846Y2677D01*
X2827D01*
G01X2654Y2793D02*
Y2824D01*
X2649Y2818D01*
G01Y2793D02*
X2659D01*
G01X3868Y735D02*
X3867Y749D01*
X3864Y760D01*
X3861Y771D01*
X3857Y782D01*
X3851Y798D01*
X3882D01*
G01X3804D02*
X3810Y796D01*
X3814Y791D01*
X3818Y784D01*
X3820Y776D01*
X3821Y767D01*
X3820Y757D01*
X3818Y749D01*
X3814Y742D01*
X3810Y737D01*
X3804Y735D01*
X3797Y737D01*
X3792Y742D01*
X3789Y749D01*
X3787Y757D01*
X3786Y767D01*
X3787Y776D01*
X3789Y784D01*
X3792Y791D01*
X3797Y796D01*
X3804Y798D01*
G01X3740D02*
X3747Y796D01*
X3752Y791D01*
X3755Y784D01*
X3757Y776D01*
X3758Y767D01*
X3757Y757D01*
X3755Y749D01*
X3752Y742D01*
X3747Y737D01*
X3740Y735D01*
X3734Y737D01*
X3730Y742D01*
X3726Y749D01*
X3724Y757D01*
X3723Y767D01*
X3724Y776D01*
X3726Y784D01*
X3730Y791D01*
X3734Y796D01*
X3740Y798D01*
G01X3688Y756D02*
X3667D01*
G01X3631Y735D02*
X3598Y798D01*
G01X3631D02*
X3598Y735D01*
G01X3568D02*
X3535Y798D01*
G01X3568D02*
X3535Y735D01*
G01X3505D02*
X3472Y798D01*
G01X3505D02*
X3472Y735D01*
G01X3442D02*
X3409Y798D01*
G01X3442D02*
X3409Y735D01*
G01X3379D02*
X3346Y798D01*
G01X3379D02*
X3346Y735D01*
G01X3252D02*
Y798D01*
X3233D01*
X3226Y795D01*
X3222Y791D01*
X3221Y782D01*
X3222Y774D01*
X3227Y769D01*
X3233Y765D01*
X3252D01*
G01X3233D02*
X3221Y735D01*
G01X3158D02*
X3189D01*
Y798D01*
X3158D01*
G01X3170Y768D02*
X3189D01*
G01X3130Y798D02*
X3110Y735D01*
X3091Y798D01*
G01X3004Y735D02*
X2984Y798D01*
X2965Y735D01*
G01X2972Y757D02*
X2997D01*
G01X3191Y1768D02*
Y1746D01*
X3189Y1741D01*
X3186Y1738D01*
X3182Y1737D01*
X3179Y1738D01*
X3176Y1741D01*
X3174Y1746D01*
Y1768D01*
G01X3154Y1737D02*
Y1768D01*
X3158Y1762D01*
G01Y1737D02*
X3149D01*
G01X3133Y1742D02*
X3131Y1739D01*
X3128Y1738D01*
X3125Y1737D01*
X3121Y1738D01*
X3118Y1740D01*
X3116Y1744D01*
X3116Y1748D01*
X3117Y1752D01*
X3119Y1755D01*
X3121Y1757D01*
X3124Y1757D01*
X3127Y1757D01*
X3130Y1755D01*
X3129Y1768D01*
X3119D01*
G01X3024Y1962D02*
Y1993D01*
X3038Y1971D01*
X3019D01*
G01X3240Y1887D02*
Y1918D01*
G01X3225D02*
X3240Y1899D01*
G01X3223Y1887D02*
X3233Y1908D01*
G01X3202Y1887D02*
Y1918D01*
X3207Y1912D01*
G01Y1887D02*
X3198D01*
G01X3261Y2789D02*
Y2820D01*
X3266Y2814D01*
G01Y2789D02*
X3256D01*
G01X3224Y2733D02*
Y2764D01*
X3219Y2758D01*
G01Y2733D02*
X3229D01*
G01X3174Y2691D02*
X3170Y2688D01*
X3167Y2687D01*
X3164D01*
X3161Y2688D01*
X3159Y2691D01*
X3157Y2695D01*
X3158Y2698D01*
X3160Y2702D01*
X3164Y2704D01*
X3168Y2705D01*
X3171Y2707D01*
X3172Y2710D01*
X3171Y2714D01*
X3169Y2716D01*
X3167Y2718D01*
X3164D01*
X3161Y2717D01*
X3159Y2714D01*
G01X3148Y2718D02*
X3143Y2687D01*
X3136Y2718D01*
X3130Y2687D01*
X3125Y2718D01*
G01X3116Y2693D02*
X3114Y2690D01*
X3111Y2688D01*
X3107Y2687D01*
X3104Y2688D01*
X3101Y2690D01*
X3099Y2693D01*
X3099Y2696D01*
X3099Y2700D01*
X3102Y2702D01*
X3105Y2704D01*
X3108D01*
G01X3105D02*
X3102Y2705D01*
X3101Y2708D01*
X3100Y2711D01*
X3101Y2714D01*
X3102Y2716D01*
X3106Y2718D01*
X3109Y2718D01*
X3113Y2715D01*
G01X3028Y2612D02*
X3030Y2615D01*
X3033Y2618D01*
X3037Y2618D01*
X3040Y2618D01*
X3043Y2615D01*
X3045Y2612D01*
X3045Y2609D01*
X3045Y2605D01*
X3042Y2602D01*
X3039Y2602D01*
X3036D01*
G01X3039D02*
X3042Y2600D01*
X3043Y2597D01*
X3044Y2594D01*
X3043Y2591D01*
X3042Y2589D01*
X3038Y2587D01*
X3035Y2588D01*
X3031Y2590D01*
G01X3343Y1408D02*
Y1439D01*
X3357Y1417D01*
X3338D01*
G01X3365Y1721D02*
X3362Y1725D01*
X3360Y1727D01*
X3357Y1728D01*
X3354Y1727D01*
X3352Y1725D01*
X3351Y1721D01*
X3350Y1718D01*
X3351Y1715D01*
X3352Y1712D01*
X3354Y1709D01*
X3357Y1708D01*
X3360Y1709D01*
X3363Y1712D01*
X3364Y1717D01*
X3365Y1722D01*
X3364Y1729D01*
X3363Y1732D01*
X3361Y1736D01*
X3358Y1738D01*
X3356Y1739D01*
X3353Y1738D01*
X3351Y1735D01*
G01X3510Y1948D02*
X3508Y1945D01*
X3505Y1944D01*
X3502Y1943D01*
X3498Y1944D01*
X3495Y1946D01*
X3493Y1950D01*
X3493Y1954D01*
X3494Y1958D01*
X3496Y1961D01*
X3498Y1963D01*
X3501Y1963D01*
X3504Y1963D01*
X3507Y1961D01*
X3506Y1974D01*
X3496D01*
G01X3571Y2789D02*
Y2820D01*
X3576Y2814D01*
G01Y2789D02*
X3566D01*
G01X3538Y2721D02*
Y2752D01*
X3533Y2746D01*
G01Y2721D02*
X3543D01*
G01X3517Y2678D02*
X3514Y2676D01*
X3510Y2674D01*
X3507D01*
X3504Y2676D01*
X3502Y2678D01*
X3500Y2682D01*
X3501Y2685D01*
X3503Y2688D01*
X3507Y2690D01*
X3511Y2692D01*
X3514Y2694D01*
X3515Y2697D01*
X3514Y2701D01*
X3512Y2703D01*
X3510Y2705D01*
X3507D01*
X3504Y2704D01*
X3502Y2701D01*
G01X3491Y2705D02*
X3486Y2674D01*
X3480Y2705D01*
X3473Y2674D01*
X3468Y2705D01*
G01X3458Y2700D02*
X3456Y2703D01*
X3453Y2704D01*
X3450Y2705D01*
X3446Y2704D01*
X3443Y2701D01*
X3442Y2698D01*
X3443Y2695D01*
X3444Y2693D01*
X3452Y2687D01*
X3456Y2684D01*
X3458Y2679D01*
X3459Y2674D01*
X3442D01*
G01X3517Y2589D02*
X3520Y2586D01*
X3522Y2585D01*
X3525Y2584D01*
X3529Y2585D01*
X3532Y2588D01*
X3533Y2591D01*
X3532Y2594D01*
X3531Y2596D01*
X3523Y2602D01*
X3520Y2605D01*
X3517Y2610D01*
X3516Y2615D01*
X3533D01*
G01X3682Y2251D02*
Y2282D01*
X3687Y2276D01*
G01Y2251D02*
X3678D01*
G01X3982Y2730D02*
X3980Y2727D01*
X3978Y2725D01*
X3975Y2724D01*
X3972Y2725D01*
X3970Y2727D01*
X3968Y2730D01*
X3967Y2734D01*
Y2755D01*
G01X3953Y2737D02*
X3950Y2740D01*
X3948Y2743D01*
X3945Y2744D01*
X3942Y2743D01*
X3940Y2740D01*
X3939Y2737D01*
X3938Y2734D01*
X3939Y2731D01*
X3940Y2728D01*
X3942Y2725D01*
X3945Y2724D01*
X3948Y2725D01*
X3951Y2728D01*
X3952Y2733D01*
X3953Y2738D01*
X3952Y2745D01*
X3951Y2748D01*
X3949Y2752D01*
X3946Y2754D01*
X3944Y2755D01*
X3941Y2754D01*
X3939Y2751D01*
G54D12*
G01X791Y1936D02*
Y1886D01*
X765D01*
G01X740Y1893D02*
X735Y1889D01*
X730Y1886D01*
X725D01*
X720Y1889D01*
X716Y1893D01*
X714Y1899D01*
X715Y1905D01*
X718Y1910D01*
X724Y1913D01*
X732Y1915D01*
X736Y1918D01*
X738Y1924D01*
X737Y1930D01*
X733Y1934D01*
X729Y1936D01*
X725D01*
X720Y1935D01*
X716Y1930D01*
G01X688Y1928D02*
X684Y1933D01*
X680Y1936D01*
X675Y1936D01*
X668Y1935D01*
X664Y1930D01*
X663Y1926D01*
X663Y1920D01*
X666Y1916D01*
X679Y1908D01*
X684Y1902D01*
X688Y1894D01*
X689Y1886D01*
X663D01*
G54D13*
G01X412Y2028D02*
X475D01*
G01X444Y2060D02*
Y1996D01*
G54D14*
G01X249Y-1257D02*
X4249D01*
G01X249Y-957D02*
Y-757D01*
X4249D01*
G01X749Y-1457D02*
Y-1257D01*
G01X2004Y-1457D02*
Y-1257D01*
G01X1999Y-757D02*
Y-457D01*
G01X2499Y-1457D02*
Y-1257D01*
G01X3974Y303D02*
X2574D01*
Y553D01*
X3974D01*
Y303D01*
G54D15*
G01X4249Y-457D02*
Y-1457D01*
X249D01*
G01D02*
Y-457D01*
X4249D01*
G54D16*
G01X-1Y-2D02*
Y2998D01*
X4499D01*
Y-2D01*
X-1D01*
G01X365Y-1227D02*
Y-1187D01*
X388D01*
G01X379Y-1206D02*
X365D01*
G01X413Y-1227D02*
Y-1187D01*
X427D01*
X432Y-1189D01*
X435Y-1192D01*
X436Y-1197D01*
X435Y-1202D01*
X432Y-1206D01*
X427Y-1208D01*
X413D01*
G01X427D02*
X436Y-1227D01*
G01X484D02*
X461D01*
Y-1187D01*
X484D01*
G01X475Y-1206D02*
X461D01*
G01X532Y-1227D02*
X509D01*
Y-1187D01*
X532D01*
G01X523Y-1206D02*
X509D01*
G01X556Y-1222D02*
X561Y-1225D01*
X566Y-1227D01*
X571D01*
X576Y-1225D01*
X579Y-1222D01*
X581Y-1217D01*
X580Y-1212D01*
X577Y-1208D01*
X571Y-1206D01*
X564Y-1204D01*
X560Y-1202D01*
X559Y-1197D01*
X560Y-1192D01*
X563Y-1189D01*
X567Y-1187D01*
X571D01*
X575Y-1188D01*
X578Y-1192D01*
G01X629Y-1190D02*
X626Y-1188D01*
X622Y-1187D01*
X617D01*
X612Y-1189D01*
X608Y-1192D01*
X605Y-1196D01*
X602Y-1203D01*
X602Y-1209D01*
X603Y-1215D01*
X605Y-1219D01*
X608Y-1223D01*
X612Y-1226D01*
X616Y-1227D01*
X621D01*
X625Y-1226D01*
X628Y-1224D01*
X631Y-1221D01*
G01X650Y-1227D02*
X664Y-1187D01*
X679Y-1227D01*
G01X674Y-1213D02*
X655D01*
G01X701Y-1187D02*
Y-1227D01*
X724D01*
G01X772D02*
X749D01*
Y-1187D01*
X772D01*
G01X763Y-1206D02*
X749D01*
G01X808Y-1228D02*
X807Y-1228D01*
Y-1226D01*
X808Y-1226D01*
X810Y-1226D01*
Y-1228D01*
X808Y-1228D01*
G01X366Y-1147D02*
X362Y-1146D01*
X358Y-1144D01*
X354Y-1140D01*
X352Y-1135D01*
X351Y-1130D01*
Y-1124D01*
X352Y-1119D01*
X354Y-1114D01*
X358Y-1110D01*
X362Y-1108D01*
X366Y-1107D01*
X371Y-1108D01*
X375Y-1110D01*
X379Y-1114D01*
X381Y-1119D01*
X382Y-1124D01*
Y-1130D01*
X381Y-1135D01*
X379Y-1140D01*
X375Y-1144D01*
X371Y-1146D01*
X366Y-1147D01*
G01X403D02*
Y-1107D01*
X417D01*
X422Y-1109D01*
X425Y-1112D01*
X426Y-1117D01*
X425Y-1122D01*
X422Y-1126D01*
X417Y-1128D01*
X403D01*
G01X417D02*
X426Y-1147D01*
G01X504Y-1107D02*
X518D01*
G01X511D02*
Y-1147D01*
G01X504D02*
X518D01*
G01X545D02*
Y-1107D01*
X572Y-1147D01*
Y-1107D01*
G01X643Y-1147D02*
Y-1107D01*
X657D01*
X662Y-1109D01*
X665Y-1114D01*
X666Y-1119D01*
X665Y-1124D01*
X662Y-1128D01*
X657Y-1130D01*
X643D01*
G01X688Y-1147D02*
X702Y-1107D01*
X717Y-1147D01*
G01X712Y-1133D02*
X693D01*
G01X739Y-1147D02*
Y-1107D01*
X753D01*
X758Y-1109D01*
X761Y-1112D01*
X762Y-1117D01*
X761Y-1122D01*
X758Y-1126D01*
X753Y-1128D01*
X739D01*
G01X753D02*
X762Y-1147D01*
G01X798Y-1107D02*
Y-1147D01*
G01X785Y-1107D02*
X812D01*
G01X877D02*
X885Y-1147D01*
X895Y-1107D01*
X904Y-1147D01*
X912Y-1107D01*
G01X936D02*
X950D01*
G01X942D02*
Y-1147D01*
G01X936D02*
X950D01*
G01X990Y-1107D02*
Y-1147D01*
G01X977Y-1107D02*
X1004D01*
G01X1026Y-1147D02*
Y-1107D01*
G01X1051D02*
Y-1147D01*
G01Y-1127D02*
X1026D01*
G01X1086Y-1147D02*
X1082Y-1146D01*
X1078Y-1144D01*
X1074Y-1140D01*
X1072Y-1135D01*
X1071Y-1130D01*
Y-1124D01*
X1072Y-1119D01*
X1074Y-1114D01*
X1078Y-1110D01*
X1082Y-1108D01*
X1086Y-1107D01*
X1091Y-1108D01*
X1095Y-1110D01*
X1099Y-1114D01*
X1101Y-1119D01*
X1102Y-1124D01*
Y-1130D01*
X1101Y-1135D01*
X1099Y-1140D01*
X1095Y-1144D01*
X1091Y-1146D01*
X1086Y-1147D01*
G01X1122Y-1107D02*
Y-1136D01*
X1124Y-1142D01*
X1129Y-1146D01*
X1134Y-1147D01*
X1140Y-1146D01*
X1145Y-1142D01*
X1147Y-1136D01*
Y-1107D01*
G01X1182D02*
Y-1147D01*
G01X1169Y-1107D02*
X1196D01*
G01X1278D02*
Y-1147D01*
G01X1265Y-1107D02*
X1292D01*
G01X1314Y-1147D02*
Y-1107D01*
G01X1339D02*
Y-1147D01*
G01Y-1127D02*
X1314D01*
G01X1386Y-1147D02*
X1363D01*
Y-1107D01*
X1386D01*
G01X1377Y-1126D02*
X1363D01*
G01X1483Y-1110D02*
X1480Y-1108D01*
X1476Y-1107D01*
X1471D01*
X1466Y-1109D01*
X1462Y-1112D01*
X1459Y-1116D01*
X1457Y-1123D01*
X1456Y-1129D01*
X1457Y-1135D01*
X1459Y-1139D01*
X1462Y-1143D01*
X1466Y-1146D01*
X1471Y-1147D01*
X1475D01*
X1479Y-1146D01*
X1482Y-1144D01*
X1485Y-1141D01*
G01X1518Y-1147D02*
X1514Y-1146D01*
X1510Y-1144D01*
X1506Y-1140D01*
X1504Y-1135D01*
X1503Y-1130D01*
Y-1124D01*
X1504Y-1119D01*
X1506Y-1114D01*
X1510Y-1110D01*
X1514Y-1108D01*
X1518Y-1107D01*
X1523Y-1108D01*
X1527Y-1110D01*
X1531Y-1114D01*
X1533Y-1119D01*
X1534Y-1124D01*
Y-1130D01*
X1533Y-1135D01*
X1531Y-1140D01*
X1527Y-1144D01*
X1523Y-1146D01*
X1518Y-1147D01*
G01X1553D02*
Y-1107D01*
X1580Y-1147D01*
Y-1107D01*
G01X1602Y-1142D02*
X1607Y-1145D01*
X1612Y-1147D01*
X1617D01*
X1622Y-1145D01*
X1625Y-1142D01*
X1627Y-1137D01*
X1626Y-1132D01*
X1623Y-1128D01*
X1617Y-1126D01*
X1610Y-1124D01*
X1606Y-1122D01*
X1605Y-1117D01*
X1606Y-1112D01*
X1609Y-1109D01*
X1613Y-1107D01*
X1617D01*
X1621Y-1108D01*
X1624Y-1112D01*
G01X1674Y-1147D02*
X1651D01*
Y-1107D01*
X1674D01*
G01X1665Y-1126D02*
X1651D01*
G01X1697Y-1147D02*
Y-1107D01*
X1724Y-1147D01*
Y-1107D01*
G01X1758D02*
Y-1147D01*
G01X1745Y-1107D02*
X1772D01*
G01X1854Y-1147D02*
X1850Y-1146D01*
X1846Y-1144D01*
X1842Y-1140D01*
X1840Y-1135D01*
X1839Y-1130D01*
Y-1124D01*
X1840Y-1119D01*
X1842Y-1114D01*
X1846Y-1110D01*
X1850Y-1108D01*
X1854Y-1107D01*
X1859Y-1108D01*
X1863Y-1110D01*
X1867Y-1114D01*
X1869Y-1119D01*
X1870Y-1124D01*
Y-1130D01*
X1869Y-1135D01*
X1867Y-1140D01*
X1863Y-1144D01*
X1859Y-1146D01*
X1854Y-1147D01*
G01X1891D02*
Y-1107D01*
X1914D01*
G01X1905Y-1126D02*
X1891D01*
G01X284Y-1332D02*
X289Y-1335D01*
X294Y-1337D01*
X299D01*
X304Y-1335D01*
X307Y-1332D01*
X309Y-1327D01*
X308Y-1322D01*
X305Y-1318D01*
X299Y-1316D01*
X292Y-1314D01*
X288Y-1312D01*
X287Y-1307D01*
X288Y-1302D01*
X291Y-1299D01*
X295Y-1297D01*
X299D01*
X303Y-1298D01*
X306Y-1302D01*
G01X332Y-1337D02*
Y-1297D01*
G01X357D02*
Y-1337D01*
G01Y-1317D02*
X332D01*
G01X404Y-1337D02*
X381D01*
Y-1297D01*
X404D01*
G01X395Y-1316D02*
X381D01*
G01X452Y-1337D02*
X429D01*
Y-1297D01*
X452D01*
G01X443Y-1316D02*
X429D01*
G01X488Y-1297D02*
Y-1337D01*
G01X475Y-1297D02*
X502D01*
G01X282Y-727D02*
X296Y-687D01*
X311Y-727D01*
G01X306Y-713D02*
X287D01*
G01X332Y-687D02*
Y-716D01*
X334Y-722D01*
X339Y-726D01*
X344Y-727D01*
X350Y-726D01*
X355Y-722D01*
X357Y-716D01*
Y-687D01*
G01X380Y-722D02*
X385Y-725D01*
X390Y-727D01*
X395D01*
X400Y-725D01*
X403Y-722D01*
X405Y-717D01*
X404Y-712D01*
X401Y-708D01*
X395Y-706D01*
X388Y-704D01*
X384Y-702D01*
X383Y-697D01*
X384Y-692D01*
X387Y-689D01*
X391Y-687D01*
X395D01*
X399Y-688D01*
X402Y-692D01*
G01X440Y-687D02*
Y-727D01*
G01X427Y-687D02*
X454D01*
G01X482D02*
X496D01*
G01X488D02*
Y-727D01*
G01X482D02*
X496D01*
G01X523D02*
Y-687D01*
X550Y-727D01*
Y-687D01*
G01X584Y-728D02*
X583Y-728D01*
Y-726D01*
X584Y-726D01*
X586Y-726D01*
Y-728D01*
X584Y-728D01*
G01X680Y-687D02*
Y-727D01*
G01X667Y-687D02*
X694D01*
G01X740Y-727D02*
X717D01*
Y-687D01*
X740D01*
G01X731Y-706D02*
X717D01*
G01X764Y-727D02*
X789Y-687D01*
G01X764D02*
X789Y-727D01*
G01X810D02*
X824Y-687D01*
X839Y-727D01*
G01X834Y-713D02*
X815D01*
G01X860Y-722D02*
X865Y-725D01*
X870Y-727D01*
X875D01*
X880Y-725D01*
X883Y-722D01*
X885Y-717D01*
X884Y-712D01*
X881Y-708D01*
X875Y-706D01*
X868Y-704D01*
X864Y-702D01*
X863Y-697D01*
X864Y-692D01*
X867Y-689D01*
X871Y-687D01*
X875D01*
X879Y-688D01*
X882Y-692D01*
G01X967Y-727D02*
X968Y-718D01*
X970Y-711D01*
X973Y-704D01*
X976Y-697D01*
X980Y-687D01*
X957D01*
G01X1016Y-727D02*
X1021Y-726D01*
X1025Y-724D01*
X1028Y-721D01*
X1029Y-716D01*
X1028Y-712D01*
X1025Y-708D01*
X1019Y-706D01*
X1014D01*
X1010Y-704D01*
X1007Y-701D01*
X1006Y-696D01*
X1008Y-692D01*
X1012Y-688D01*
X1016Y-687D01*
X1021Y-688D01*
X1025Y-692D01*
X1027Y-696D01*
X1026Y-701D01*
X1023Y-704D01*
X1019Y-706D01*
X1014D01*
X1008Y-708D01*
X1005Y-712D01*
X1004Y-716D01*
X1005Y-721D01*
X1008Y-724D01*
X1012Y-726D01*
X1016Y-727D01*
G01X1063D02*
X1064Y-718D01*
X1066Y-711D01*
X1069Y-704D01*
X1072Y-697D01*
X1076Y-687D01*
X1053D01*
G01X1100Y-719D02*
X1103Y-724D01*
X1108Y-726D01*
X1113Y-727D01*
X1118Y-726D01*
X1122Y-723D01*
X1125Y-719D01*
X1126Y-715D01*
X1125Y-710D01*
X1121Y-707D01*
X1117Y-706D01*
X1111D01*
G01X1117D02*
X1120Y-704D01*
X1123Y-700D01*
X1124Y-696D01*
X1123Y-692D01*
X1120Y-689D01*
X1115Y-687D01*
X1110Y-688D01*
X1104Y-690D01*
G01X1148Y-721D02*
X1151Y-724D01*
X1155Y-726D01*
X1160Y-727D01*
X1166Y-726D01*
X1170Y-723D01*
X1173Y-718D01*
X1173Y-713D01*
X1172Y-708D01*
X1169Y-704D01*
X1165Y-702D01*
X1161Y-701D01*
X1157Y-702D01*
X1152Y-704D01*
X1154Y-687D01*
X1169D01*
G01X1244D02*
Y-716D01*
X1246Y-722D01*
X1251Y-726D01*
X1256Y-727D01*
X1262Y-726D01*
X1267Y-722D01*
X1269Y-716D01*
Y-687D01*
G01X1292Y-722D02*
X1297Y-725D01*
X1302Y-727D01*
X1307D01*
X1312Y-725D01*
X1315Y-722D01*
X1317Y-717D01*
X1316Y-712D01*
X1313Y-708D01*
X1307Y-706D01*
X1300Y-704D01*
X1296Y-702D01*
X1295Y-697D01*
X1296Y-692D01*
X1299Y-689D01*
X1303Y-687D01*
X1307D01*
X1311Y-688D01*
X1314Y-692D01*
G01X1338Y-727D02*
X1352Y-687D01*
X1367Y-727D01*
G01X1362Y-713D02*
X1343D01*
G01X355Y-1067D02*
Y-1027D01*
X369D01*
X374Y-1029D01*
X377Y-1034D01*
X378Y-1039D01*
X377Y-1044D01*
X374Y-1048D01*
X369Y-1050D01*
X355D01*
G01X403Y-1067D02*
Y-1027D01*
X417D01*
X422Y-1029D01*
X425Y-1032D01*
X426Y-1037D01*
X425Y-1042D01*
X422Y-1046D01*
X417Y-1048D01*
X403D01*
G01X417D02*
X426Y-1067D01*
G01X462D02*
X458Y-1066D01*
X454Y-1064D01*
X450Y-1060D01*
X448Y-1055D01*
X447Y-1050D01*
Y-1044D01*
X448Y-1039D01*
X450Y-1034D01*
X454Y-1030D01*
X458Y-1028D01*
X462Y-1027D01*
X467Y-1028D01*
X471Y-1030D01*
X475Y-1034D01*
X477Y-1039D01*
X478Y-1044D01*
Y-1050D01*
X477Y-1055D01*
X475Y-1060D01*
X471Y-1064D01*
X467Y-1066D01*
X462Y-1067D01*
G01X523Y-1030D02*
X520Y-1028D01*
X516Y-1027D01*
X511D01*
X506Y-1029D01*
X502Y-1032D01*
X499Y-1036D01*
X496Y-1043D01*
X496Y-1049D01*
X497Y-1055D01*
X499Y-1059D01*
X502Y-1063D01*
X506Y-1066D01*
X511Y-1067D01*
X515D01*
X519Y-1066D01*
X522Y-1064D01*
X525Y-1061D01*
G01X546Y-1027D02*
Y-1056D01*
X548Y-1062D01*
X553Y-1066D01*
X558Y-1067D01*
X564Y-1066D01*
X569Y-1062D01*
X571Y-1056D01*
Y-1027D01*
G01X595Y-1067D02*
Y-1027D01*
X609D01*
X614Y-1029D01*
X617Y-1032D01*
X618Y-1037D01*
X617Y-1042D01*
X614Y-1046D01*
X609Y-1048D01*
X595D01*
G01X609D02*
X618Y-1067D01*
G01X666D02*
X643D01*
Y-1027D01*
X666D01*
G01X657Y-1046D02*
X643D01*
G01X687Y-1067D02*
Y-1027D01*
X702Y-1060D01*
X718Y-1027D01*
Y-1067D01*
G01X762D02*
X739D01*
Y-1027D01*
X762D01*
G01X753Y-1046D02*
X739D01*
G01X785Y-1067D02*
Y-1027D01*
X812Y-1067D01*
Y-1027D01*
G01X846D02*
Y-1067D01*
G01X833Y-1027D02*
X860D01*
G01X942Y-1067D02*
X938Y-1066D01*
X934Y-1064D01*
X930Y-1060D01*
X928Y-1055D01*
X927Y-1050D01*
Y-1044D01*
X928Y-1039D01*
X930Y-1034D01*
X934Y-1030D01*
X938Y-1028D01*
X942Y-1027D01*
X947Y-1028D01*
X951Y-1030D01*
X955Y-1034D01*
X957Y-1039D01*
X958Y-1044D01*
Y-1050D01*
X957Y-1055D01*
X955Y-1060D01*
X951Y-1064D01*
X947Y-1066D01*
X942Y-1067D01*
G01X979D02*
Y-1027D01*
X993D01*
X998Y-1029D01*
X1001Y-1032D01*
X1002Y-1037D01*
X1001Y-1042D01*
X998Y-1046D01*
X993Y-1048D01*
X979D01*
G01X993D02*
X1002Y-1067D01*
G01X1071D02*
Y-1027D01*
X1086Y-1060D01*
X1102Y-1027D01*
Y-1067D01*
G01X1120D02*
X1134Y-1027D01*
X1149Y-1067D01*
G01X1144Y-1053D02*
X1125D01*
G01X1169Y-1067D02*
Y-1027D01*
X1196Y-1067D01*
Y-1027D01*
G01X1218D02*
Y-1056D01*
X1220Y-1062D01*
X1225Y-1066D01*
X1230Y-1067D01*
X1236Y-1066D01*
X1241Y-1062D01*
X1243Y-1056D01*
Y-1027D01*
G01X1267Y-1067D02*
Y-1027D01*
X1290D01*
G01X1281Y-1046D02*
X1267D01*
G01X1312Y-1067D02*
X1326Y-1027D01*
X1341Y-1067D01*
G01X1336Y-1053D02*
X1317D01*
G01X1387Y-1030D02*
X1384Y-1028D01*
X1380Y-1027D01*
X1375D01*
X1370Y-1029D01*
X1366Y-1032D01*
X1363Y-1036D01*
X1360Y-1043D01*
X1360Y-1049D01*
X1361Y-1055D01*
X1363Y-1059D01*
X1366Y-1063D01*
X1370Y-1066D01*
X1374Y-1067D01*
X1379D01*
X1383Y-1066D01*
X1386Y-1064D01*
X1389Y-1061D01*
G01X1422Y-1027D02*
Y-1067D01*
G01X1409Y-1027D02*
X1436D01*
G01X1458D02*
Y-1056D01*
X1460Y-1062D01*
X1465Y-1066D01*
X1471Y-1067D01*
X1476Y-1066D01*
X1481Y-1062D01*
X1483Y-1056D01*
Y-1027D01*
G01X1507Y-1067D02*
Y-1027D01*
X1521D01*
X1526Y-1029D01*
X1529Y-1032D01*
X1530Y-1037D01*
X1529Y-1042D01*
X1526Y-1046D01*
X1521Y-1048D01*
X1507D01*
G01X1521D02*
X1530Y-1067D01*
G01X1578D02*
X1555D01*
Y-1027D01*
X1578D01*
G01X1569Y-1046D02*
X1555D01*
G01X1656Y-1027D02*
X1670D01*
G01X1662D02*
Y-1067D01*
G01X1656D02*
X1670D01*
G01X1697D02*
Y-1027D01*
X1724Y-1067D01*
Y-1027D01*
G01X1789D02*
X1797Y-1067D01*
X1806Y-1027D01*
X1816Y-1067D01*
X1824Y-1027D01*
G01X1842Y-1067D02*
Y-1027D01*
G01X1867D02*
Y-1067D01*
G01Y-1047D02*
X1842D01*
G01X1902Y-1067D02*
X1898Y-1066D01*
X1894Y-1064D01*
X1890Y-1060D01*
X1888Y-1055D01*
X1887Y-1050D01*
Y-1044D01*
X1888Y-1039D01*
X1890Y-1034D01*
X1894Y-1030D01*
X1898Y-1028D01*
X1902Y-1027D01*
X1907Y-1028D01*
X1911Y-1030D01*
X1915Y-1034D01*
X1917Y-1039D01*
X1918Y-1044D01*
Y-1050D01*
X1917Y-1055D01*
X1915Y-1060D01*
X1911Y-1064D01*
X1907Y-1066D01*
X1902Y-1067D01*
G01X1939Y-1027D02*
Y-1067D01*
X1962D01*
G01X2010D02*
X1987D01*
Y-1027D01*
X2010D01*
G01X2001Y-1046D02*
X1987D01*
G01X353Y-987D02*
Y-947D01*
X380Y-987D01*
Y-947D01*
G01X415Y-987D02*
X410Y-986D01*
X406Y-984D01*
X402Y-980D01*
X400Y-975D01*
X399Y-970D01*
Y-964D01*
X400Y-959D01*
X402Y-954D01*
X406Y-950D01*
X410Y-948D01*
X415Y-947D01*
X419Y-948D01*
X423Y-950D01*
X427Y-954D01*
X429Y-959D01*
X430Y-964D01*
Y-970D01*
X429Y-975D01*
X427Y-980D01*
X423Y-984D01*
X419Y-986D01*
X415Y-987D01*
G01X462Y-947D02*
Y-987D01*
G01X449Y-947D02*
X476D01*
G01X563Y-966D02*
X566Y-964D01*
X567Y-960D01*
X568Y-956D01*
X567Y-952D01*
X565Y-949D01*
X561Y-947D01*
X545D01*
Y-987D01*
X564D01*
X568Y-984D01*
X571Y-980D01*
X572Y-976D01*
X571Y-971D01*
X567Y-967D01*
X563Y-966D01*
X545D01*
G01X618Y-987D02*
X595D01*
Y-947D01*
X618D01*
G01X609Y-966D02*
X595D01*
G01X690Y-947D02*
Y-976D01*
X692Y-982D01*
X697Y-986D01*
X702Y-987D01*
X708Y-986D01*
X713Y-982D01*
X715Y-976D01*
Y-947D01*
G01X738Y-982D02*
X743Y-985D01*
X748Y-987D01*
X753D01*
X758Y-985D01*
X761Y-982D01*
X763Y-977D01*
X762Y-972D01*
X759Y-968D01*
X753Y-966D01*
X746Y-964D01*
X742Y-962D01*
X741Y-957D01*
X742Y-952D01*
X745Y-949D01*
X749Y-947D01*
X753D01*
X757Y-948D01*
X760Y-952D01*
G01X810Y-987D02*
X787D01*
Y-947D01*
X810D01*
G01X801Y-966D02*
X787D01*
G01X834Y-987D02*
Y-947D01*
X845D01*
X850Y-949D01*
X854Y-952D01*
X856Y-956D01*
X859Y-960D01*
X859Y-967D01*
X859Y-974D01*
X856Y-978D01*
X854Y-982D01*
X850Y-985D01*
X845Y-987D01*
X834D01*
G01X931D02*
Y-947D01*
X954D01*
G01X945Y-966D02*
X931D01*
G01X990Y-987D02*
X986Y-986D01*
X982Y-984D01*
X978Y-980D01*
X976Y-975D01*
X975Y-970D01*
Y-964D01*
X976Y-959D01*
X978Y-954D01*
X982Y-950D01*
X986Y-948D01*
X990Y-947D01*
X995Y-948D01*
X999Y-950D01*
X1003Y-954D01*
X1005Y-959D01*
X1006Y-964D01*
Y-970D01*
X1005Y-975D01*
X1003Y-980D01*
X999Y-984D01*
X995Y-986D01*
X990Y-987D01*
G01X1027D02*
Y-947D01*
X1041D01*
X1046Y-949D01*
X1049Y-952D01*
X1050Y-957D01*
X1049Y-962D01*
X1046Y-966D01*
X1041Y-968D01*
X1027D01*
G01X1041D02*
X1050Y-987D01*
G01X1146D02*
X1123D01*
Y-947D01*
X1146D01*
G01X1137Y-966D02*
X1123D01*
G01X1169Y-987D02*
Y-947D01*
X1196Y-987D01*
Y-947D01*
G01X1234Y-967D02*
X1246D01*
Y-979D01*
X1242Y-983D01*
X1238Y-986D01*
X1232Y-987D01*
X1226Y-986D01*
X1222Y-983D01*
X1219Y-979D01*
X1216Y-974D01*
X1215Y-969D01*
Y-964D01*
X1216Y-960D01*
X1219Y-956D01*
X1222Y-952D01*
X1226Y-949D01*
X1230Y-947D01*
X1235D01*
X1239Y-948D01*
X1243Y-951D01*
G01X1272Y-947D02*
X1286D01*
G01X1278D02*
Y-987D01*
G01X1272D02*
X1286D01*
G01X1313D02*
Y-947D01*
X1340Y-987D01*
Y-947D01*
G01X1386Y-987D02*
X1363D01*
Y-947D01*
X1386D01*
G01X1377Y-966D02*
X1363D01*
G01X1434Y-987D02*
X1411D01*
Y-947D01*
X1434D01*
G01X1425Y-966D02*
X1411D01*
G01X1459Y-987D02*
Y-947D01*
X1473D01*
X1478Y-949D01*
X1481Y-952D01*
X1482Y-957D01*
X1481Y-962D01*
X1478Y-966D01*
X1473Y-968D01*
X1459D01*
G01X1473D02*
X1482Y-987D01*
G01X1512Y-947D02*
X1526D01*
G01X1518D02*
Y-987D01*
G01X1512D02*
X1526D01*
G01X1553D02*
Y-947D01*
X1580Y-987D01*
Y-947D01*
G01X1618Y-967D02*
X1630D01*
Y-979D01*
X1626Y-983D01*
X1622Y-986D01*
X1616Y-987D01*
X1610Y-986D01*
X1606Y-983D01*
X1603Y-979D01*
X1600Y-974D01*
X1599Y-969D01*
Y-964D01*
X1600Y-960D01*
X1603Y-956D01*
X1606Y-952D01*
X1610Y-949D01*
X1614Y-947D01*
X1619D01*
X1623Y-948D01*
X1627Y-951D01*
G01X1698Y-987D02*
Y-947D01*
X1709D01*
X1714Y-949D01*
X1718Y-952D01*
X1720Y-956D01*
X1723Y-960D01*
X1723Y-967D01*
X1723Y-974D01*
X1720Y-978D01*
X1718Y-982D01*
X1714Y-985D01*
X1709Y-987D01*
X1698D01*
G01X1770D02*
X1747D01*
Y-947D01*
X1770D01*
G01X1761Y-966D02*
X1747D01*
G01X1794Y-982D02*
X1799Y-985D01*
X1804Y-987D01*
X1809D01*
X1814Y-985D01*
X1817Y-982D01*
X1819Y-977D01*
X1818Y-972D01*
X1815Y-968D01*
X1809Y-966D01*
X1802Y-964D01*
X1798Y-962D01*
X1797Y-957D01*
X1798Y-952D01*
X1801Y-949D01*
X1805Y-947D01*
X1809D01*
X1813Y-948D01*
X1816Y-952D01*
G01X1848Y-947D02*
X1862D01*
G01X1854D02*
Y-987D01*
G01X1848D02*
X1862D01*
G01X1906Y-967D02*
X1918D01*
Y-979D01*
X1914Y-983D01*
X1910Y-986D01*
X1904Y-987D01*
X1898Y-986D01*
X1894Y-983D01*
X1891Y-979D01*
X1888Y-974D01*
X1887Y-969D01*
Y-964D01*
X1888Y-960D01*
X1891Y-956D01*
X1894Y-952D01*
X1898Y-949D01*
X1902Y-947D01*
X1907D01*
X1911Y-948D01*
X1915Y-951D01*
G01X1937Y-987D02*
Y-947D01*
X1964Y-987D01*
Y-947D01*
G01X355Y-907D02*
Y-867D01*
X369D01*
X374Y-869D01*
X377Y-874D01*
X378Y-879D01*
X377Y-884D01*
X374Y-888D01*
X369Y-890D01*
X355D01*
G01X403Y-907D02*
Y-867D01*
X417D01*
X422Y-869D01*
X425Y-872D01*
X426Y-877D01*
X425Y-882D01*
X422Y-886D01*
X417Y-888D01*
X403D01*
G01X417D02*
X426Y-907D01*
G01X462D02*
X458Y-906D01*
X454Y-904D01*
X450Y-900D01*
X448Y-895D01*
X447Y-890D01*
Y-884D01*
X448Y-879D01*
X450Y-874D01*
X454Y-870D01*
X458Y-868D01*
X462Y-867D01*
X467Y-868D01*
X471Y-870D01*
X475Y-874D01*
X477Y-879D01*
X478Y-884D01*
Y-890D01*
X477Y-895D01*
X475Y-900D01*
X471Y-904D01*
X467Y-906D01*
X462Y-907D01*
G01X499D02*
Y-867D01*
X513D01*
X518Y-869D01*
X521Y-874D01*
X522Y-879D01*
X521Y-884D01*
X518Y-888D01*
X513Y-890D01*
X499D01*
G01X547Y-907D02*
Y-867D01*
X561D01*
X566Y-869D01*
X569Y-872D01*
X570Y-877D01*
X569Y-882D01*
X566Y-886D01*
X561Y-888D01*
X547D01*
G01X561D02*
X570Y-907D01*
G01X600Y-867D02*
X614D01*
G01X606D02*
Y-907D01*
G01X600D02*
X614D01*
G01X666D02*
X643D01*
Y-867D01*
X666D01*
G01X657Y-886D02*
X643D01*
G01X702Y-867D02*
Y-907D01*
G01X689Y-867D02*
X716D01*
G01X736Y-907D02*
X750Y-867D01*
X765Y-907D01*
G01X760Y-893D02*
X741D01*
G01X787Y-907D02*
Y-867D01*
X801D01*
X806Y-869D01*
X809Y-872D01*
X810Y-877D01*
X809Y-882D01*
X806Y-886D01*
X801Y-888D01*
X787D01*
G01X801D02*
X810Y-907D01*
G01X846D02*
Y-889D01*
X835Y-867D01*
G01X858D02*
X846Y-889D01*
G01X942Y-867D02*
Y-907D01*
G01X929Y-867D02*
X956D01*
G01X990Y-907D02*
X986Y-906D01*
X982Y-904D01*
X978Y-900D01*
X976Y-895D01*
X975Y-890D01*
Y-884D01*
X976Y-879D01*
X978Y-874D01*
X982Y-870D01*
X986Y-868D01*
X990Y-867D01*
X995Y-868D01*
X999Y-870D01*
X1003Y-874D01*
X1005Y-879D01*
X1006Y-884D01*
Y-890D01*
X1005Y-895D01*
X1003Y-900D01*
X999Y-904D01*
X995Y-906D01*
X990Y-907D01*
G01X1075D02*
Y-867D01*
X1098D01*
G01X1089Y-886D02*
X1075D01*
G01X1123Y-907D02*
Y-867D01*
X1137D01*
X1142Y-869D01*
X1145Y-872D01*
X1146Y-877D01*
X1145Y-882D01*
X1142Y-886D01*
X1137Y-888D01*
X1123D01*
G01X1137D02*
X1146Y-907D01*
G01X1194D02*
X1171D01*
Y-867D01*
X1194D01*
G01X1185Y-886D02*
X1171D01*
G01X1242Y-907D02*
X1219D01*
Y-867D01*
X1242D01*
G01X1233Y-886D02*
X1219D01*
G01X1266Y-902D02*
X1271Y-905D01*
X1276Y-907D01*
X1281D01*
X1286Y-905D01*
X1289Y-902D01*
X1291Y-897D01*
X1290Y-892D01*
X1287Y-888D01*
X1281Y-886D01*
X1274Y-884D01*
X1270Y-882D01*
X1269Y-877D01*
X1270Y-872D01*
X1273Y-869D01*
X1277Y-867D01*
X1281D01*
X1285Y-868D01*
X1288Y-872D01*
G01X1339Y-870D02*
X1336Y-868D01*
X1332Y-867D01*
X1327D01*
X1322Y-869D01*
X1318Y-872D01*
X1315Y-876D01*
X1312Y-883D01*
X1312Y-889D01*
X1313Y-895D01*
X1315Y-899D01*
X1318Y-903D01*
X1322Y-906D01*
X1326Y-907D01*
X1331D01*
X1335Y-906D01*
X1338Y-904D01*
X1341Y-901D01*
G01X1360Y-907D02*
X1374Y-867D01*
X1389Y-907D01*
G01X1384Y-893D02*
X1365D01*
G01X1411Y-867D02*
Y-907D01*
X1434D01*
G01X1482D02*
X1459D01*
Y-867D01*
X1482D01*
G01X1473Y-886D02*
X1459D01*
G01X1552Y-907D02*
X1566Y-867D01*
X1581Y-907D01*
G01X1576Y-893D02*
X1557D01*
G01X1601Y-907D02*
Y-867D01*
X1628Y-907D01*
Y-867D01*
G01X1650Y-907D02*
Y-867D01*
X1661D01*
X1666Y-869D01*
X1670Y-872D01*
X1672Y-876D01*
X1675Y-880D01*
X1675Y-887D01*
X1675Y-894D01*
X1672Y-898D01*
X1670Y-902D01*
X1666Y-905D01*
X1661Y-907D01*
X1650D01*
G01X1746Y-902D02*
X1751Y-905D01*
X1756Y-907D01*
X1761D01*
X1766Y-905D01*
X1769Y-902D01*
X1771Y-897D01*
X1770Y-892D01*
X1767Y-888D01*
X1761Y-886D01*
X1754Y-884D01*
X1750Y-882D01*
X1749Y-877D01*
X1750Y-872D01*
X1753Y-869D01*
X1757Y-867D01*
X1761D01*
X1765Y-868D01*
X1768Y-872D01*
G01X1794Y-907D02*
Y-867D01*
G01X1819D02*
Y-907D01*
G01Y-887D02*
X1794D01*
G01X1840Y-907D02*
X1854Y-867D01*
X1869Y-907D01*
G01X1864Y-893D02*
X1845D01*
G01X1891Y-867D02*
Y-907D01*
X1914D01*
G01X1939Y-867D02*
Y-907D01*
X1962D01*
G01X356Y-787D02*
Y-827D01*
G01X343Y-787D02*
X370D01*
G01X392Y-827D02*
Y-787D01*
G01X417D02*
Y-827D01*
G01Y-807D02*
X392D01*
G01X446Y-787D02*
X460D01*
G01X452D02*
Y-827D01*
G01X446D02*
X460D01*
G01X488Y-822D02*
X493Y-825D01*
X498Y-827D01*
X503D01*
X508Y-825D01*
X511Y-822D01*
X513Y-817D01*
X512Y-812D01*
X509Y-808D01*
X503Y-806D01*
X496Y-804D01*
X492Y-802D01*
X491Y-797D01*
X492Y-792D01*
X495Y-789D01*
X499Y-787D01*
X503D01*
X507Y-788D01*
X510Y-792D01*
G01X584Y-827D02*
Y-787D01*
X595D01*
X600Y-789D01*
X604Y-792D01*
X606Y-796D01*
X609Y-800D01*
X609Y-807D01*
X609Y-814D01*
X606Y-818D01*
X604Y-822D01*
X600Y-825D01*
X595Y-827D01*
X584D01*
G01X644D02*
X640Y-826D01*
X636Y-824D01*
X632Y-820D01*
X630Y-815D01*
X629Y-810D01*
Y-804D01*
X630Y-799D01*
X632Y-794D01*
X636Y-790D01*
X640Y-788D01*
X644Y-787D01*
X649Y-788D01*
X653Y-790D01*
X657Y-794D01*
X659Y-799D01*
X660Y-804D01*
Y-810D01*
X659Y-815D01*
X657Y-820D01*
X653Y-824D01*
X649Y-826D01*
X644Y-827D01*
G01X705Y-790D02*
X702Y-788D01*
X698Y-787D01*
X693D01*
X688Y-789D01*
X684Y-792D01*
X681Y-796D01*
X678Y-803D01*
X678Y-809D01*
X679Y-815D01*
X681Y-819D01*
X684Y-823D01*
X688Y-826D01*
X692Y-827D01*
X697D01*
X701Y-826D01*
X704Y-824D01*
X707Y-821D01*
G01X728Y-787D02*
Y-816D01*
X730Y-822D01*
X735Y-826D01*
X740Y-827D01*
X746Y-826D01*
X751Y-822D01*
X753Y-816D01*
Y-787D01*
G01X773Y-827D02*
Y-787D01*
X788Y-820D01*
X804Y-787D01*
Y-827D01*
G01X848D02*
X825D01*
Y-787D01*
X848D01*
G01X839Y-806D02*
X825D01*
G01X871Y-827D02*
Y-787D01*
X898Y-827D01*
Y-787D01*
G01X932D02*
Y-827D01*
G01X919Y-787D02*
X946D01*
G01X1041Y-790D02*
X1038Y-788D01*
X1034Y-787D01*
X1029D01*
X1024Y-789D01*
X1020Y-792D01*
X1017Y-796D01*
X1014Y-803D01*
X1014Y-809D01*
X1015Y-815D01*
X1017Y-819D01*
X1020Y-823D01*
X1024Y-826D01*
X1028Y-827D01*
X1033D01*
X1037Y-826D01*
X1040Y-824D01*
X1043Y-821D01*
G01X1076Y-827D02*
X1072Y-826D01*
X1068Y-824D01*
X1064Y-820D01*
X1062Y-815D01*
X1061Y-810D01*
Y-804D01*
X1062Y-799D01*
X1064Y-794D01*
X1068Y-790D01*
X1072Y-788D01*
X1076Y-787D01*
X1081Y-788D01*
X1085Y-790D01*
X1089Y-794D01*
X1091Y-799D01*
X1092Y-804D01*
Y-810D01*
X1091Y-815D01*
X1089Y-820D01*
X1085Y-824D01*
X1081Y-826D01*
X1076Y-827D01*
G01X1111D02*
Y-787D01*
X1138Y-827D01*
Y-787D01*
G01X1172D02*
Y-827D01*
G01X1159Y-787D02*
X1186D01*
G01X1206Y-827D02*
X1220Y-787D01*
X1235Y-827D01*
G01X1230Y-813D02*
X1211D01*
G01X1262Y-787D02*
X1276D01*
G01X1268D02*
Y-827D01*
G01X1262D02*
X1276D01*
G01X1303D02*
Y-787D01*
X1330Y-827D01*
Y-787D01*
G01X1352Y-822D02*
X1357Y-825D01*
X1362Y-827D01*
X1367D01*
X1372Y-825D01*
X1375Y-822D01*
X1377Y-817D01*
X1376Y-812D01*
X1373Y-808D01*
X1367Y-806D01*
X1360Y-804D01*
X1356Y-802D01*
X1355Y-797D01*
X1356Y-792D01*
X1359Y-789D01*
X1363Y-787D01*
X1367D01*
X1371Y-788D01*
X1374Y-792D01*
G01X1454Y-787D02*
X1468D01*
G01X1461D02*
Y-827D01*
G01X1454D02*
X1468D01*
G01X1495D02*
Y-787D01*
X1522Y-827D01*
Y-787D01*
G01X1545Y-827D02*
Y-787D01*
X1568D01*
G01X1559Y-806D02*
X1545D01*
G01X1604Y-827D02*
X1600Y-826D01*
X1596Y-824D01*
X1592Y-820D01*
X1590Y-815D01*
X1589Y-810D01*
Y-804D01*
X1590Y-799D01*
X1592Y-794D01*
X1596Y-790D01*
X1600Y-788D01*
X1604Y-787D01*
X1609Y-788D01*
X1613Y-790D01*
X1617Y-794D01*
X1619Y-799D01*
X1620Y-804D01*
Y-810D01*
X1619Y-815D01*
X1617Y-820D01*
X1613Y-824D01*
X1609Y-826D01*
X1604Y-827D01*
G01X1641D02*
Y-787D01*
X1655D01*
X1660Y-789D01*
X1663Y-792D01*
X1664Y-797D01*
X1663Y-802D01*
X1660Y-806D01*
X1655Y-808D01*
X1641D01*
G01X1655D02*
X1664Y-827D01*
G01X1685D02*
Y-787D01*
X1701Y-820D01*
X1716Y-787D01*
Y-827D01*
G01X1734D02*
X1748Y-787D01*
X1763Y-827D01*
G01X1758Y-813D02*
X1739D01*
G01X1796Y-787D02*
Y-827D01*
G01X1783Y-787D02*
X1810D01*
G01X1838D02*
X1852D01*
G01X1844D02*
Y-827D01*
G01X1838D02*
X1852D01*
G01X1892D02*
X1888Y-826D01*
X1884Y-824D01*
X1880Y-820D01*
X1878Y-815D01*
X1877Y-810D01*
Y-804D01*
X1878Y-799D01*
X1880Y-794D01*
X1884Y-790D01*
X1888Y-788D01*
X1892Y-787D01*
X1897Y-788D01*
X1901Y-790D01*
X1905Y-794D01*
X1907Y-799D01*
X1908Y-804D01*
Y-810D01*
X1907Y-815D01*
X1905Y-820D01*
X1901Y-824D01*
X1897Y-826D01*
X1892Y-827D01*
G01X1927D02*
Y-787D01*
X1954Y-827D01*
Y-787D01*
G01X285Y-640D02*
X290Y-636D01*
X293Y-633D01*
X298Y-632D01*
X302Y-633D01*
X305Y-636D01*
X307Y-640D01*
X308Y-644D01*
X307Y-648D01*
X305Y-652D01*
X301Y-656D01*
X297Y-657D01*
X292Y-656D01*
X288Y-652D01*
X286Y-646D01*
X285Y-639D01*
X287Y-630D01*
X288Y-626D01*
X291Y-621D01*
X295Y-618D01*
X299Y-617D01*
X304Y-618D01*
X306Y-622D01*
G01X332Y-651D02*
X335Y-654D01*
X339Y-656D01*
X344Y-657D01*
X350Y-656D01*
X354Y-653D01*
X357Y-648D01*
X357Y-643D01*
X356Y-638D01*
X353Y-634D01*
X349Y-632D01*
X345Y-631D01*
X341Y-632D01*
X336Y-634D01*
X338Y-617D01*
X353D01*
G01X392D02*
X388Y-618D01*
X384Y-622D01*
X382Y-626D01*
X380Y-631D01*
X380Y-637D01*
X380Y-643D01*
X382Y-648D01*
X384Y-652D01*
X388Y-656D01*
X392Y-657D01*
X397Y-656D01*
X401Y-652D01*
X403Y-648D01*
X405Y-643D01*
X405Y-637D01*
X405Y-631D01*
X403Y-626D01*
X401Y-622D01*
X397Y-618D01*
X392Y-617D01*
G01X440Y-657D02*
Y-617D01*
X434Y-625D01*
G01Y-657D02*
X448D01*
G01X519Y-617D02*
X527Y-657D01*
X536Y-617D01*
X546Y-657D01*
X554Y-617D01*
G01X578D02*
X592D01*
G01X584D02*
Y-657D01*
G01X578D02*
X592D01*
G01X621Y-617D02*
Y-657D01*
X644D01*
G01X669Y-617D02*
Y-657D01*
X692D01*
G01X722Y-617D02*
X736D01*
G01X728D02*
Y-657D01*
G01X722D02*
X736D01*
G01X762D02*
X776Y-617D01*
X791Y-657D01*
G01X786Y-643D02*
X767D01*
G01X809Y-657D02*
Y-617D01*
X824Y-650D01*
X840Y-617D01*
Y-657D01*
G01X933Y-620D02*
X930Y-618D01*
X926Y-617D01*
X921D01*
X916Y-619D01*
X912Y-622D01*
X909Y-626D01*
X906Y-633D01*
X906Y-639D01*
X907Y-645D01*
X909Y-649D01*
X912Y-653D01*
X916Y-656D01*
X920Y-657D01*
X925D01*
X929Y-656D01*
X932Y-654D01*
X935Y-651D01*
G01X954Y-657D02*
X968Y-617D01*
X983Y-657D01*
G01X978Y-643D02*
X959D01*
G01X1003Y-657D02*
Y-617D01*
X1030Y-657D01*
Y-617D01*
G01X1051Y-657D02*
Y-617D01*
X1078Y-657D01*
Y-617D01*
G01X1112Y-657D02*
X1108Y-656D01*
X1104Y-654D01*
X1100Y-650D01*
X1098Y-645D01*
X1097Y-640D01*
Y-634D01*
X1098Y-629D01*
X1100Y-624D01*
X1104Y-620D01*
X1108Y-618D01*
X1112Y-617D01*
X1117Y-618D01*
X1121Y-620D01*
X1125Y-624D01*
X1127Y-629D01*
X1128Y-634D01*
Y-640D01*
X1127Y-645D01*
X1125Y-650D01*
X1121Y-654D01*
X1117Y-656D01*
X1112Y-657D01*
G01X1147D02*
Y-617D01*
X1174Y-657D01*
Y-617D01*
G01X1244Y-657D02*
Y-617D01*
X1255D01*
X1260Y-619D01*
X1264Y-622D01*
X1266Y-626D01*
X1269Y-630D01*
X1269Y-637D01*
X1269Y-644D01*
X1266Y-648D01*
X1264Y-652D01*
X1260Y-655D01*
X1255Y-657D01*
X1244D01*
G01X1293D02*
Y-617D01*
X1307D01*
X1312Y-619D01*
X1315Y-622D01*
X1316Y-627D01*
X1315Y-632D01*
X1312Y-636D01*
X1307Y-638D01*
X1293D01*
G01X1307D02*
X1316Y-657D01*
G01X1346Y-617D02*
X1360D01*
G01X1352D02*
Y-657D01*
G01X1346D02*
X1360D01*
G01X1386Y-617D02*
X1400Y-657D01*
X1415Y-617D01*
G01X1460Y-657D02*
X1437D01*
Y-617D01*
X1460D01*
G01X1451Y-636D02*
X1437D01*
G01X1527Y-617D02*
X1535Y-657D01*
X1544Y-617D01*
X1554Y-657D01*
X1562Y-617D01*
G01X1604Y-657D02*
X1581D01*
Y-617D01*
X1604D01*
G01X1595Y-636D02*
X1581D01*
G01X1628Y-652D02*
X1633Y-655D01*
X1638Y-657D01*
X1643D01*
X1648Y-655D01*
X1651Y-652D01*
X1653Y-647D01*
X1652Y-642D01*
X1649Y-638D01*
X1643Y-636D01*
X1636Y-634D01*
X1632Y-632D01*
X1631Y-627D01*
X1632Y-622D01*
X1635Y-619D01*
X1639Y-617D01*
X1643D01*
X1647Y-618D01*
X1650Y-622D01*
G01X1688Y-617D02*
Y-657D01*
G01X1675Y-617D02*
X1702D01*
G01X785Y-1337D02*
Y-1297D01*
X808D01*
G01X799Y-1316D02*
X785D01*
G01X838Y-1297D02*
X852D01*
G01X844D02*
Y-1337D01*
G01X838D02*
X852D01*
G01X881Y-1297D02*
Y-1337D01*
X904D01*
G01X925D02*
Y-1297D01*
X940Y-1330D01*
X956Y-1297D01*
Y-1337D01*
G01X2129Y-1195D02*
X2164D01*
G01X2177D02*
X2212D01*
G01X2225D02*
X2260D01*
G01X2327Y-1182D02*
Y-1142D01*
X2350D01*
G01X2341Y-1161D02*
X2327D01*
G01X2399Y-1145D02*
X2396Y-1143D01*
X2392Y-1142D01*
X2387D01*
X2382Y-1144D01*
X2378Y-1147D01*
X2375Y-1151D01*
X2372Y-1158D01*
X2372Y-1164D01*
X2373Y-1170D01*
X2375Y-1174D01*
X2378Y-1178D01*
X2382Y-1181D01*
X2386Y-1182D01*
X2391D01*
X2395Y-1181D01*
X2398Y-1179D01*
X2401Y-1176D01*
G01X2423Y-1182D02*
Y-1142D01*
X2437D01*
X2442Y-1144D01*
X2445Y-1149D01*
X2446Y-1154D01*
X2445Y-1159D01*
X2442Y-1163D01*
X2437Y-1165D01*
X2423D01*
G01X2528Y-1195D02*
X2522Y-1189D01*
X2519Y-1182D01*
Y-1155D01*
X2522Y-1149D01*
X2528Y-1142D01*
G01X2567Y-1182D02*
Y-1142D01*
X2590D01*
G01X2581Y-1161D02*
X2567D01*
G01X2615Y-1182D02*
Y-1142D01*
X2629D01*
X2634Y-1144D01*
X2637Y-1147D01*
X2638Y-1152D01*
X2637Y-1157D01*
X2634Y-1161D01*
X2629Y-1163D01*
X2615D01*
G01X2629D02*
X2638Y-1182D01*
G01X2686D02*
X2663D01*
Y-1142D01*
X2686D01*
G01X2677Y-1161D02*
X2663D01*
G01X2734Y-1182D02*
X2711D01*
Y-1142D01*
X2734D01*
G01X2725Y-1161D02*
X2711D01*
G01X2758Y-1177D02*
X2763Y-1180D01*
X2768Y-1182D01*
X2773D01*
X2778Y-1180D01*
X2781Y-1177D01*
X2783Y-1172D01*
X2782Y-1167D01*
X2779Y-1163D01*
X2773Y-1161D01*
X2766Y-1159D01*
X2762Y-1157D01*
X2761Y-1152D01*
X2762Y-1147D01*
X2765Y-1144D01*
X2769Y-1142D01*
X2773D01*
X2777Y-1143D01*
X2780Y-1147D01*
G01X2831Y-1145D02*
X2828Y-1143D01*
X2824Y-1142D01*
X2819D01*
X2814Y-1144D01*
X2810Y-1147D01*
X2807Y-1151D01*
X2804Y-1158D01*
X2804Y-1164D01*
X2805Y-1170D01*
X2807Y-1174D01*
X2810Y-1178D01*
X2814Y-1181D01*
X2818Y-1182D01*
X2823D01*
X2827Y-1181D01*
X2830Y-1179D01*
X2833Y-1176D01*
G01X2852Y-1182D02*
X2867Y-1142D01*
X2881Y-1182D01*
G01X2876Y-1168D02*
X2857D01*
G01X2903Y-1142D02*
Y-1182D01*
X2926D01*
G01X2974D02*
X2951D01*
Y-1142D01*
X2974D01*
G01X2965Y-1161D02*
X2951D01*
G01X3071Y-1145D02*
X3068Y-1143D01*
X3064Y-1142D01*
X3059D01*
X3054Y-1144D01*
X3050Y-1147D01*
X3047Y-1151D01*
X3044Y-1158D01*
X3044Y-1164D01*
X3045Y-1170D01*
X3047Y-1174D01*
X3050Y-1178D01*
X3054Y-1181D01*
X3058Y-1182D01*
X3063D01*
X3067Y-1181D01*
X3070Y-1179D01*
X3073Y-1176D01*
G01X3106Y-1182D02*
X3102Y-1181D01*
X3098Y-1179D01*
X3094Y-1175D01*
X3092Y-1170D01*
X3091Y-1165D01*
Y-1159D01*
X3092Y-1154D01*
X3094Y-1149D01*
X3098Y-1145D01*
X3102Y-1143D01*
X3106Y-1142D01*
X3111Y-1143D01*
X3115Y-1145D01*
X3119Y-1149D01*
X3121Y-1154D01*
X3122Y-1159D01*
Y-1165D01*
X3121Y-1170D01*
X3119Y-1175D01*
X3115Y-1179D01*
X3111Y-1181D01*
X3106Y-1182D01*
G01X3141D02*
Y-1142D01*
X3168Y-1182D01*
Y-1142D01*
G01X3191Y-1182D02*
Y-1142D01*
X3214D01*
G01X3205Y-1161D02*
X3191D01*
G01X3244Y-1142D02*
X3258D01*
G01X3250D02*
Y-1182D01*
G01X3244D02*
X3258D01*
G01X3286D02*
Y-1142D01*
X3297D01*
X3302Y-1144D01*
X3306Y-1147D01*
X3308Y-1151D01*
X3311Y-1155D01*
X3311Y-1162D01*
X3311Y-1169D01*
X3308Y-1173D01*
X3306Y-1177D01*
X3302Y-1180D01*
X3297Y-1182D01*
X3286D01*
G01X3358D02*
X3335D01*
Y-1142D01*
X3358D01*
G01X3349Y-1161D02*
X3335D01*
G01X3381Y-1182D02*
Y-1142D01*
X3408Y-1182D01*
Y-1142D01*
G01X3442D02*
Y-1182D01*
G01X3429Y-1142D02*
X3456D01*
G01X3484D02*
X3498D01*
G01X3490D02*
Y-1182D01*
G01X3484D02*
X3498D01*
G01X3524D02*
X3538Y-1142D01*
X3553Y-1182D01*
G01X3548Y-1168D02*
X3529D01*
G01X3575Y-1142D02*
Y-1182D01*
X3598D01*
G01X3671D02*
Y-1142D01*
X3685D01*
X3690Y-1144D01*
X3693Y-1149D01*
X3694Y-1154D01*
X3693Y-1159D01*
X3690Y-1163D01*
X3685Y-1165D01*
X3671D01*
G01X3719Y-1182D02*
Y-1142D01*
X3733D01*
X3738Y-1144D01*
X3741Y-1147D01*
X3742Y-1152D01*
X3741Y-1157D01*
X3738Y-1161D01*
X3733Y-1163D01*
X3719D01*
G01X3733D02*
X3742Y-1182D01*
G01X3778D02*
X3774Y-1181D01*
X3770Y-1179D01*
X3766Y-1175D01*
X3764Y-1170D01*
X3763Y-1165D01*
Y-1159D01*
X3764Y-1154D01*
X3766Y-1149D01*
X3770Y-1145D01*
X3774Y-1143D01*
X3778Y-1142D01*
X3783Y-1143D01*
X3787Y-1145D01*
X3791Y-1149D01*
X3793Y-1154D01*
X3794Y-1159D01*
Y-1165D01*
X3793Y-1170D01*
X3791Y-1175D01*
X3787Y-1179D01*
X3783Y-1181D01*
X3778Y-1182D01*
G01X3815D02*
Y-1142D01*
X3829D01*
X3834Y-1144D01*
X3837Y-1149D01*
X3838Y-1154D01*
X3837Y-1159D01*
X3834Y-1163D01*
X3829Y-1165D01*
X3815D01*
G01X3863Y-1182D02*
Y-1142D01*
X3877D01*
X3882Y-1144D01*
X3885Y-1147D01*
X3886Y-1152D01*
X3885Y-1157D01*
X3882Y-1161D01*
X3877Y-1163D01*
X3863D01*
G01X3877D02*
X3886Y-1182D01*
G01X3916Y-1142D02*
X3930D01*
G01X3922D02*
Y-1182D01*
G01X3916D02*
X3930D01*
G01X3982D02*
X3959D01*
Y-1142D01*
X3982D01*
G01X3973Y-1161D02*
X3959D01*
G01X4019Y-1142D02*
Y-1182D01*
G01X4005Y-1142D02*
X4032D01*
G01X4052Y-1182D02*
X4067Y-1142D01*
X4081Y-1182D01*
G01X4076Y-1168D02*
X4057D01*
G01X4103Y-1182D02*
Y-1142D01*
X4117D01*
X4122Y-1144D01*
X4125Y-1147D01*
X4126Y-1152D01*
X4125Y-1157D01*
X4122Y-1161D01*
X4117Y-1163D01*
X4103D01*
G01X4117D02*
X4126Y-1182D01*
G01X4162D02*
Y-1164D01*
X4151Y-1142D01*
G01X4174D02*
X4162Y-1164D01*
G01X4213Y-1195D02*
X4219Y-1189D01*
X4222Y-1182D01*
Y-1155D01*
X4219Y-1149D01*
X4213Y-1142D01*
G01X2054Y-1417D02*
X2079Y-1377D01*
G01X2054D02*
X2079Y-1417D01*
G01X2102D02*
X2127Y-1377D01*
G01X2102D02*
X2127Y-1417D01*
G01X2155Y-1404D02*
X2170D01*
G01X2198Y-1417D02*
X2223Y-1377D01*
G01X2198D02*
X2223Y-1417D01*
G01X2246D02*
X2271Y-1377D01*
G01X2246D02*
X2271Y-1417D01*
G01X2299Y-1404D02*
X2314D01*
G01X2355Y-1417D02*
Y-1377D01*
X2348Y-1385D01*
G01Y-1417D02*
X2362D01*
G01X2402Y-1377D02*
X2398Y-1378D01*
X2394Y-1382D01*
X2392Y-1386D01*
X2390Y-1391D01*
X2390Y-1397D01*
X2390Y-1403D01*
X2392Y-1408D01*
X2394Y-1412D01*
X2398Y-1416D01*
X2402Y-1417D01*
X2407Y-1416D01*
X2411Y-1412D01*
X2413Y-1408D01*
X2415Y-1403D01*
X2415Y-1397D01*
X2415Y-1391D01*
X2413Y-1386D01*
X2411Y-1382D01*
X2407Y-1378D01*
X2402Y-1377D01*
G01X2034Y-1337D02*
Y-1297D01*
X2045D01*
X2050Y-1299D01*
X2054Y-1302D01*
X2056Y-1306D01*
X2059Y-1310D01*
X2059Y-1317D01*
X2059Y-1324D01*
X2056Y-1328D01*
X2054Y-1332D01*
X2050Y-1335D01*
X2045Y-1337D01*
X2034D01*
G01X2080D02*
X2094Y-1297D01*
X2109Y-1337D01*
G01X2104Y-1323D02*
X2085D01*
G01X2142Y-1297D02*
Y-1337D01*
G01X2129Y-1297D02*
X2156D01*
G01X2202Y-1337D02*
X2179D01*
Y-1297D01*
X2202D01*
G01X2193Y-1316D02*
X2179D01*
G01X2129Y-1030D02*
X2164D01*
G01X2177D02*
X2212D01*
G01X2225D02*
X2260D01*
G01X2327Y-1017D02*
Y-977D01*
X2350D01*
G01X2341Y-996D02*
X2327D01*
G01X2380Y-977D02*
X2394D01*
G01X2386D02*
Y-1017D01*
G01X2380D02*
X2394D01*
G01X2422Y-977D02*
Y-1006D01*
X2424Y-1012D01*
X2429Y-1016D01*
X2434Y-1017D01*
X2440Y-1016D01*
X2445Y-1012D01*
X2447Y-1006D01*
Y-977D01*
G01X2482Y-1017D02*
X2478Y-1016D01*
X2474Y-1014D01*
X2470Y-1010D01*
X2468Y-1005D01*
X2467Y-1000D01*
Y-994D01*
X2468Y-989D01*
X2470Y-984D01*
X2474Y-980D01*
X2478Y-978D01*
X2482Y-977D01*
X2487Y-978D01*
X2491Y-980D01*
X2495Y-984D01*
X2497Y-989D01*
X2498Y-994D01*
Y-1000D01*
X2497Y-1005D01*
X2495Y-1010D01*
X2491Y-1014D01*
X2487Y-1016D01*
X2482Y-1017D01*
G01X2576Y-1030D02*
X2570Y-1024D01*
X2567Y-1017D01*
Y-990D01*
X2570Y-984D01*
X2576Y-977D01*
G01X2615Y-1017D02*
Y-977D01*
X2638D01*
G01X2629Y-996D02*
X2615D01*
G01X2663Y-1017D02*
Y-977D01*
X2677D01*
X2682Y-979D01*
X2685Y-982D01*
X2686Y-987D01*
X2685Y-992D01*
X2682Y-996D01*
X2677Y-998D01*
X2663D01*
G01X2677D02*
X2686Y-1017D01*
G01X2734D02*
X2711D01*
Y-977D01*
X2734D01*
G01X2725Y-996D02*
X2711D01*
G01X2782Y-1017D02*
X2759D01*
Y-977D01*
X2782D01*
G01X2773Y-996D02*
X2759D01*
G01X2806Y-1012D02*
X2811Y-1015D01*
X2816Y-1017D01*
X2821D01*
X2826Y-1015D01*
X2829Y-1012D01*
X2831Y-1007D01*
X2830Y-1002D01*
X2827Y-998D01*
X2821Y-996D01*
X2814Y-994D01*
X2810Y-992D01*
X2809Y-987D01*
X2810Y-982D01*
X2813Y-979D01*
X2817Y-977D01*
X2821D01*
X2825Y-978D01*
X2828Y-982D01*
G01X2879Y-980D02*
X2876Y-978D01*
X2872Y-977D01*
X2867D01*
X2862Y-979D01*
X2858Y-982D01*
X2855Y-986D01*
X2852Y-993D01*
X2852Y-999D01*
X2853Y-1005D01*
X2855Y-1009D01*
X2858Y-1013D01*
X2862Y-1016D01*
X2867Y-1017D01*
X2871D01*
X2875Y-1016D01*
X2878Y-1014D01*
X2881Y-1011D01*
G01X2900Y-1017D02*
X2914Y-977D01*
X2929Y-1017D01*
G01X2924Y-1003D02*
X2905D01*
G01X2951Y-977D02*
Y-1017D01*
X2974D01*
G01X3022D02*
X2999D01*
Y-977D01*
X3022D01*
G01X3013Y-996D02*
X2999D01*
G01X3100Y-977D02*
X3114D01*
G01X3106D02*
Y-1017D01*
G01X3100D02*
X3114D01*
G01X3141D02*
Y-977D01*
X3168Y-1017D01*
Y-977D01*
G01X3202D02*
Y-1017D01*
G01X3189Y-977D02*
X3216D01*
G01X3262Y-1017D02*
X3239D01*
Y-977D01*
X3262D01*
G01X3253Y-996D02*
X3239D01*
G01X3287Y-1017D02*
Y-977D01*
X3301D01*
X3306Y-979D01*
X3309Y-982D01*
X3310Y-987D01*
X3309Y-992D01*
X3306Y-996D01*
X3301Y-998D01*
X3287D01*
G01X3301D02*
X3310Y-1017D01*
G01X3333D02*
Y-977D01*
X3360Y-1017D01*
Y-977D01*
G01X3380Y-1017D02*
X3394Y-977D01*
X3409Y-1017D01*
G01X3404Y-1003D02*
X3385D01*
G01X3431Y-977D02*
Y-1017D01*
X3454D01*
G01X3526Y-977D02*
Y-1006D01*
X3528Y-1012D01*
X3533Y-1016D01*
X3538Y-1017D01*
X3544Y-1016D01*
X3549Y-1012D01*
X3551Y-1006D01*
Y-977D01*
G01X3574Y-1012D02*
X3579Y-1015D01*
X3584Y-1017D01*
X3589D01*
X3594Y-1015D01*
X3597Y-1012D01*
X3599Y-1007D01*
X3598Y-1002D01*
X3595Y-998D01*
X3589Y-996D01*
X3582Y-994D01*
X3578Y-992D01*
X3577Y-987D01*
X3578Y-982D01*
X3581Y-979D01*
X3585Y-977D01*
X3589D01*
X3593Y-978D01*
X3596Y-982D01*
G01X3646Y-1017D02*
X3623D01*
Y-977D01*
X3646D01*
G01X3637Y-996D02*
X3623D01*
G01X3730Y-1017D02*
X3726Y-1016D01*
X3722Y-1014D01*
X3718Y-1010D01*
X3716Y-1005D01*
X3715Y-1000D01*
Y-994D01*
X3716Y-989D01*
X3718Y-984D01*
X3722Y-980D01*
X3726Y-978D01*
X3730Y-977D01*
X3735Y-978D01*
X3739Y-980D01*
X3743Y-984D01*
X3745Y-989D01*
X3746Y-994D01*
Y-1000D01*
X3745Y-1005D01*
X3743Y-1010D01*
X3739Y-1014D01*
X3735Y-1016D01*
X3730Y-1017D01*
G01X3765D02*
Y-977D01*
X3792Y-1017D01*
Y-977D01*
G01X3815D02*
Y-1017D01*
X3838D01*
G01X3875D02*
Y-999D01*
X3863Y-977D01*
G01X3886D02*
X3875Y-999D01*
G01X3925Y-1030D02*
X3931Y-1024D01*
X3934Y-1017D01*
Y-990D01*
X3931Y-984D01*
X3925Y-977D01*
G01X2129Y-870D02*
X2164D01*
G01X2177D02*
X2212D01*
G01X2225D02*
X2260D01*
G01X2327Y-857D02*
Y-817D01*
X2341D01*
X2346Y-819D01*
X2349Y-824D01*
X2350Y-829D01*
X2349Y-834D01*
X2346Y-838D01*
X2341Y-840D01*
X2327D01*
G01X2374Y-817D02*
Y-846D01*
X2376Y-852D01*
X2381Y-856D01*
X2386Y-857D01*
X2392Y-856D01*
X2397Y-852D01*
X2399Y-846D01*
Y-817D01*
G01X2439Y-836D02*
X2442Y-834D01*
X2443Y-830D01*
X2444Y-826D01*
X2443Y-822D01*
X2441Y-819D01*
X2437Y-817D01*
X2421D01*
Y-857D01*
X2440D01*
X2444Y-854D01*
X2447Y-850D01*
X2448Y-846D01*
X2447Y-841D01*
X2443Y-837D01*
X2439Y-836D01*
X2421D01*
G01X2476Y-817D02*
X2490D01*
G01X2482D02*
Y-857D01*
G01X2476D02*
X2490D01*
G01X2576Y-870D02*
X2570Y-864D01*
X2567Y-857D01*
Y-830D01*
X2570Y-824D01*
X2576Y-817D01*
G01X2615Y-857D02*
Y-817D01*
X2629D01*
X2634Y-819D01*
X2637Y-824D01*
X2638Y-829D01*
X2637Y-834D01*
X2634Y-838D01*
X2629Y-840D01*
X2615D01*
G01X2662Y-817D02*
Y-846D01*
X2664Y-852D01*
X2669Y-856D01*
X2674Y-857D01*
X2680Y-856D01*
X2685Y-852D01*
X2687Y-846D01*
Y-817D01*
G01X2727Y-836D02*
X2730Y-834D01*
X2731Y-830D01*
X2732Y-826D01*
X2731Y-822D01*
X2729Y-819D01*
X2725Y-817D01*
X2709D01*
Y-857D01*
X2728D01*
X2732Y-854D01*
X2735Y-850D01*
X2736Y-846D01*
X2735Y-841D01*
X2731Y-837D01*
X2727Y-836D01*
X2709D01*
G01X2759Y-817D02*
Y-857D01*
X2782D01*
G01X2812Y-817D02*
X2826D01*
G01X2818D02*
Y-857D01*
G01X2812D02*
X2826D01*
G01X2879Y-820D02*
X2876Y-818D01*
X2872Y-817D01*
X2867D01*
X2862Y-819D01*
X2858Y-822D01*
X2855Y-826D01*
X2852Y-833D01*
X2852Y-839D01*
X2853Y-845D01*
X2855Y-849D01*
X2858Y-853D01*
X2862Y-856D01*
X2867Y-857D01*
X2871D01*
X2875Y-856D01*
X2878Y-854D01*
X2881Y-851D01*
G01X2956Y-817D02*
X2970D01*
G01X2962D02*
Y-857D01*
G01X2956D02*
X2970D01*
G01X2997D02*
Y-817D01*
X3024Y-857D01*
Y-817D01*
G01X3047Y-857D02*
Y-817D01*
X3070D01*
G01X3061Y-836D02*
X3047D01*
G01X3106Y-857D02*
X3102Y-856D01*
X3098Y-854D01*
X3094Y-850D01*
X3092Y-845D01*
X3091Y-840D01*
Y-834D01*
X3092Y-829D01*
X3094Y-824D01*
X3098Y-820D01*
X3102Y-818D01*
X3106Y-817D01*
X3111Y-818D01*
X3115Y-820D01*
X3119Y-824D01*
X3121Y-829D01*
X3122Y-834D01*
Y-840D01*
X3121Y-845D01*
X3119Y-850D01*
X3115Y-854D01*
X3111Y-856D01*
X3106Y-857D01*
G01X3143D02*
Y-817D01*
X3157D01*
X3162Y-819D01*
X3165Y-822D01*
X3166Y-827D01*
X3165Y-832D01*
X3162Y-836D01*
X3157Y-838D01*
X3143D01*
G01X3157D02*
X3166Y-857D01*
G01X3187D02*
Y-817D01*
X3202Y-850D01*
X3218Y-817D01*
Y-857D01*
G01X3236D02*
X3250Y-817D01*
X3265Y-857D01*
G01X3260Y-843D02*
X3241D01*
G01X3298Y-817D02*
Y-857D01*
G01X3285Y-817D02*
X3312D01*
G01X3340D02*
X3354D01*
G01X3347D02*
Y-857D01*
G01X3340D02*
X3354D01*
G01X3394D02*
X3390Y-856D01*
X3386Y-854D01*
X3382Y-850D01*
X3380Y-845D01*
X3379Y-840D01*
Y-834D01*
X3380Y-829D01*
X3382Y-824D01*
X3386Y-820D01*
X3390Y-818D01*
X3394Y-817D01*
X3399Y-818D01*
X3403Y-820D01*
X3407Y-824D01*
X3409Y-829D01*
X3410Y-834D01*
Y-840D01*
X3409Y-845D01*
X3407Y-850D01*
X3403Y-854D01*
X3399Y-856D01*
X3394Y-857D01*
G01X3429D02*
Y-817D01*
X3456Y-857D01*
Y-817D01*
G01X3493Y-870D02*
X3499Y-864D01*
X3502Y-857D01*
Y-830D01*
X3499Y-824D01*
X3493Y-817D01*
G01X2033Y-537D02*
Y-497D01*
X2060Y-537D01*
Y-497D01*
G01X2080Y-537D02*
X2094Y-497D01*
X2109Y-537D01*
G01X2104Y-523D02*
X2085D01*
G01X2127Y-537D02*
Y-497D01*
X2142Y-530D01*
X2158Y-497D01*
Y-537D01*
G01X2202D02*
X2179D01*
Y-497D01*
X2202D01*
G01X2193Y-516D02*
X2179D01*
G01X2112Y904D02*
X2486D01*
Y805D01*
X2112D01*
Y904D01*
G01X2533Y-1337D02*
Y-1297D01*
X2560Y-1337D01*
Y-1297D01*
G01X2582D02*
Y-1326D01*
X2584Y-1332D01*
X2589Y-1336D01*
X2594Y-1337D01*
X2600Y-1336D01*
X2605Y-1332D01*
X2607Y-1326D01*
Y-1297D01*
G01X2627Y-1337D02*
Y-1297D01*
X2642Y-1330D01*
X2658Y-1297D01*
Y-1337D01*
G01X2695Y-1316D02*
X2698Y-1314D01*
X2699Y-1310D01*
X2700Y-1306D01*
X2699Y-1302D01*
X2697Y-1299D01*
X2693Y-1297D01*
X2677D01*
Y-1337D01*
X2696D01*
X2700Y-1334D01*
X2703Y-1330D01*
X2704Y-1326D01*
X2703Y-1321D01*
X2699Y-1317D01*
X2695Y-1316D01*
X2677D01*
G01X2750Y-1337D02*
X2727D01*
Y-1297D01*
X2750D01*
G01X2741Y-1316D02*
X2727D01*
G01X2775Y-1337D02*
Y-1297D01*
X2789D01*
X2794Y-1299D01*
X2797Y-1302D01*
X2798Y-1307D01*
X2797Y-1312D01*
X2794Y-1316D01*
X2789Y-1318D01*
X2775D01*
G01X2789D02*
X2798Y-1337D01*
G01X2570Y641D02*
Y881D01*
X3969D01*
Y641D01*
X2570D01*
G01X2566Y956D02*
Y1215D01*
X3967D01*
Y956D01*
X2566D01*
G01X2410Y1051D02*
G03I-66J0D01*
G01X3919Y422D02*
X3916Y425D01*
X3914Y430D01*
X3912Y437D01*
X3914Y444D01*
X3917Y448D01*
X3922Y451D01*
X3944D01*
Y388D01*
X3918D01*
X3912Y392D01*
X3909Y398D01*
X3908Y406D01*
X3909Y413D01*
X3914Y420D01*
X3919Y422D01*
X3944D01*
G01X3863Y388D02*
X3869Y389D01*
X3874Y393D01*
X3879Y400D01*
X3882Y407D01*
X3884Y415D01*
Y424D01*
X3882Y432D01*
X3879Y440D01*
X3874Y446D01*
X3869Y450D01*
X3863Y451D01*
X3856Y450D01*
X3851Y446D01*
X3846Y440D01*
X3843Y432D01*
X3841Y424D01*
Y415D01*
X3843Y407D01*
X3846Y400D01*
X3851Y393D01*
X3856Y389D01*
X3863Y388D01*
G01X3819D02*
X3800Y451D01*
X3780Y388D01*
G01X3787Y410D02*
X3812D01*
G01X3752Y388D02*
Y451D01*
X3733D01*
X3726Y448D01*
X3722Y444D01*
X3721Y435D01*
X3722Y427D01*
X3727Y422D01*
X3733Y418D01*
X3752D01*
G01X3733D02*
X3721Y388D01*
G01X3691D02*
Y451D01*
X3675D01*
X3669Y448D01*
X3664Y444D01*
X3660Y437D01*
X3657Y430D01*
X3656Y420D01*
X3657Y409D01*
X3660Y402D01*
X3664Y395D01*
X3669Y391D01*
X3675Y388D01*
X3691D01*
G01X3566D02*
Y451D01*
X3530Y388D01*
Y451D01*
G01X3504Y388D02*
X3484Y451D01*
X3465Y388D01*
G01X3472Y410D02*
X3497D01*
G01X3442Y388D02*
Y451D01*
X3422Y398D01*
X3401Y451D01*
Y388D01*
G01X3343D02*
X3374D01*
Y451D01*
X3343D01*
G01X3355Y421D02*
X3374D01*
G01X3252Y451D02*
X3232Y388D01*
X3213Y451D01*
G01X3154Y388D02*
X3185D01*
Y451D01*
X3154D01*
G01X3166Y421D02*
X3185D01*
G01X3122Y388D02*
Y451D01*
X3103D01*
X3096Y448D01*
X3092Y444D01*
X3091Y435D01*
X3092Y427D01*
X3097Y422D01*
X3103Y418D01*
X3122D01*
G01X3103D02*
X3091Y388D01*
G01X3060Y396D02*
X3054Y391D01*
X3047Y388D01*
X3040D01*
X3034Y391D01*
X3029Y396D01*
X3027Y404D01*
X3029Y411D01*
X3032Y417D01*
X3040Y422D01*
X3049Y424D01*
X3054Y428D01*
X3057Y435D01*
X3055Y443D01*
X3051Y448D01*
X3046Y451D01*
X3040D01*
X3035Y449D01*
X3030Y444D01*
G01X2990Y451D02*
X2971D01*
G01X2980D02*
Y388D01*
G01X2990D02*
X2971D01*
G01X2918D02*
X2924Y389D01*
X2929Y393D01*
X2934Y400D01*
X2937Y407D01*
X2939Y415D01*
Y424D01*
X2937Y432D01*
X2934Y440D01*
X2929Y446D01*
X2924Y450D01*
X2918Y451D01*
X2911Y450D01*
X2906Y446D01*
X2901Y440D01*
X2898Y432D01*
X2896Y424D01*
Y415D01*
X2898Y407D01*
X2901Y400D01*
X2906Y393D01*
X2911Y389D01*
X2918Y388D01*
G01X2872D02*
Y451D01*
X2836Y388D01*
Y451D01*
G01X4165Y1064D02*
X4159Y1059D01*
X4152Y1056D01*
X4145D01*
X4139Y1059D01*
X4134Y1064D01*
X4132Y1072D01*
X4134Y1079D01*
X4138Y1085D01*
X4145Y1090D01*
X4154Y1092D01*
X4160Y1096D01*
X4162Y1103D01*
X4160Y1111D01*
X4156Y1116D01*
X4151Y1119D01*
X4145D01*
X4140Y1117D01*
X4135Y1112D01*
G01X4100Y1054D02*
X4071Y1119D01*
G01X4040Y1056D02*
Y1119D01*
X4004Y1056D01*
Y1119D01*
M02*
